# Blender v3.2.1 OBJ File: 'btx-face-vite.blend'
# www.blender.org
mtllib corrugator_supercilii_right.mtl
o Corrugator_Supercilii_Muscle_Right
v -0.139223 19.544378 1.308194
v -0.154368 19.549597 1.304089
v -0.129108 19.540016 1.309311
v -0.156312 19.548407 1.307805
v -0.141171 19.542730 1.310942
v -0.141639 19.544626 1.314419
v -0.156605 19.550949 1.312328
v -0.131190 19.537560 1.311189
v -0.131980 19.538486 1.313803
v -0.191167 19.609472 1.297713
v -0.187623 19.618069 1.294927
v -0.209037 19.626230 1.286682
v -0.212783 19.617476 1.289167
v -0.216970 19.605919 1.291728
v -0.195195 19.598206 1.300281
v -0.233124 19.625051 1.280722
v -0.237578 19.613022 1.283234
v -0.229124 19.634081 1.278559
v -0.200120 19.586632 1.302534
v -0.222313 19.593765 1.294228
v -0.227537 19.582644 1.295257
v -0.204916 19.576288 1.303121
v -0.243606 19.600203 1.285693
v -0.249515 19.588253 1.286913
v -0.124340 19.589556 1.317315
v -0.114386 19.579960 1.316058
v -0.112025 19.581709 1.313637
v -0.122293 19.592146 1.314343
v -0.136690 19.602413 1.311798
v -0.138734 19.599180 1.315124
v -0.121454 19.590378 1.311579
v -0.135709 19.600500 1.308746
v -0.111298 19.580172 1.311395
v -0.154919 19.555223 1.316219
v -0.139899 19.549109 1.317695
v -0.136681 19.555759 1.320160
v -0.151701 19.561563 1.318926
v -0.130129 19.543365 1.316512
v -0.126821 19.550688 1.318613
v -0.312554 19.670139 1.223011
v -0.296616 19.665846 1.234749
v -0.327837 19.673143 1.211146
v -0.355104 19.604441 1.225106
v -0.362563 19.616104 1.213040
v -0.358402 19.609234 1.216906
v -0.350099 19.597918 1.226599
v -0.338626 19.588184 1.236782
v -0.344571 19.594036 1.237372
v -0.342480 19.597408 1.227078
v -0.330301 19.588776 1.235394
v -0.351422 19.607603 1.219616
v -0.332989 19.678265 1.210097
v -0.318742 19.675119 1.221649
v -0.303247 19.670519 1.233229
v -0.327123 19.673794 1.219610
v -0.312311 19.668507 1.230877
v -0.340031 19.677658 1.208814
v -0.350900 19.628202 1.220932
v -0.359798 19.639416 1.207605
v -0.362309 19.626972 1.209889
v -0.354636 19.615257 1.223030
v -0.344074 19.604425 1.236453
v -0.339400 19.617481 1.234766
v -0.311650 19.583267 1.245419
v -0.289896 19.579632 1.254872
v -0.268408 19.576607 1.261475
v -0.247737 19.573372 1.267143
v -0.298969 19.577152 1.258504
v -0.320811 19.581625 1.247944
v -0.327889 19.586153 1.250036
v -0.306175 19.580355 1.262134
v -0.252276 19.570400 1.273961
v -0.275412 19.573681 1.266882
v -0.280549 19.576200 1.272702
v -0.254876 19.572657 1.281567
v -0.250759 19.642351 1.267816
v -0.224458 19.637899 1.277146
v -0.244968 19.645935 1.267445
v -0.265564 19.654249 1.256339
v -0.272696 19.651098 1.255607
v -0.241452 19.643541 1.267308
v -0.260941 19.651033 1.257179
v -0.221847 19.636095 1.275969
v -0.293691 19.660379 1.243085
v -0.285255 19.663002 1.244863
v -0.279370 19.658974 1.246232
v -0.307031 19.636511 1.245989
v -0.285316 19.627865 1.260217
v -0.278826 19.641375 1.257393
v -0.300418 19.650448 1.243903
v -0.319307 19.658937 1.230585
v -0.325665 19.645365 1.231571
v -0.261262 19.620186 1.272681
v -0.255767 19.632963 1.269899
v -0.158159 19.610455 1.299877
v -0.182661 19.619850 1.289592
v -0.203070 19.628298 1.282510
v -0.233021 19.568689 1.288559
v -0.231694 19.566504 1.280625
v -0.209561 19.561548 1.288419
v -0.210339 19.563839 1.295653
v -0.228430 19.569101 1.273795
v -0.206903 19.563564 1.282420
v -0.182186 19.557640 1.304824
v -0.181771 19.555098 1.298888
v -0.179572 19.556528 1.294008
v -0.184149 19.621630 1.292019
v -0.159340 19.612343 1.302752
v -0.162008 19.608870 1.306034
v -0.205020 19.629972 1.284411
v -0.177041 19.568834 1.312128
v -0.208556 19.568722 1.300690
v -0.180438 19.562082 1.309423
v -0.253614 19.578838 1.285711
v -0.231371 19.574177 1.293402
v -0.140673 19.590963 1.317739
v -0.164703 19.600279 1.308841
v -0.168009 19.589211 1.311011
v -0.143299 19.580442 1.319408
v -0.147401 19.570307 1.319897
v -0.172510 19.578302 1.312382
v -0.123239 19.558947 1.319403
v -0.119797 19.567249 1.319102
v -0.128956 19.573412 1.320965
v -0.132715 19.564163 1.321202
v -0.116912 19.574697 1.317934
v -0.126363 19.582594 1.319596
v -0.334259 19.665600 1.218593
v -0.340475 19.653662 1.218536
v -0.347240 19.671347 1.207266
v -0.353374 19.661680 1.206194
v -0.332813 19.631336 1.233051
v -0.346101 19.641098 1.219375
v -0.357190 19.651011 1.206340
v -0.322694 19.607748 1.249614
v -0.315125 19.621874 1.248011
v -0.293529 19.613356 1.262598
v -0.301231 19.599562 1.264005
v -0.327732 19.595352 1.250441
v -0.306188 19.588194 1.263909
v -0.280017 19.583099 1.275773
v -0.275459 19.593477 1.276467
v -0.268517 19.606432 1.275154
vn -0.2932 -0.9560 -0.0069
vn 0.0382 -0.6598 -0.7504
vn -0.0523 -0.5118 -0.8575
vn -0.3896 -0.9157 -0.0981
vn -0.3659 -0.6953 0.6187
vn -0.3645 -0.7123 0.5998
vn -0.3957 -0.8302 -0.3926
vn -0.3657 -0.6984 0.6152
vn -0.0930 -0.4063 -0.9090
vn -0.2489 0.3328 0.9096
vn -0.1470 0.5210 0.8408
vn -0.1577 0.4698 0.8686
vn -0.2463 0.3261 0.9127
vn -0.2630 0.2987 0.9174
vn -0.2630 0.2847 0.9218
vn -0.2822 0.3273 0.9018
vn -0.2891 0.3088 0.9061
vn -0.2185 0.4361 0.8730
vn -0.2701 0.2263 0.9359
vn -0.2753 0.2584 0.9260
vn -0.3167 0.0837 0.9448
vn -0.3118 0.0221 0.9499
vn -0.2974 0.2787 0.9132
vn -0.3297 0.1373 0.9341
vn 0.2983 0.3919 0.8703
vn 0.4142 0.3181 0.8528
vn 0.7109 0.6817 0.1728
vn 0.5956 0.7365 0.3207
vn 0.3975 0.8705 0.2903
vn 0.0390 0.5036 0.8630
vn 0.5057 0.5164 -0.6911
vn 0.5023 0.5199 -0.6909
vn 0.6849 0.6879 -0.2402
vn -0.2989 -0.4080 0.8626
vn -0.1889 -0.3977 0.8979
vn -0.0620 -0.1990 0.9780
vn -0.2203 -0.1284 0.9669
vn -0.1204 -0.3867 0.9143
vn 0.0301 -0.2244 0.9740
vn -0.8705 -0.2595 0.4182
vn -0.9077 -0.2221 0.3560
vn -0.7468 -0.6436 -0.1679
vn -0.5060 -0.7542 -0.4185
vn -0.4036 -0.8942 -0.1937
vn -0.7487 -0.3571 0.5585
vn 0.1636 -0.5473 -0.8208
vn 0.1655 -0.6300 -0.7588
vn 0.1801 -0.5065 -0.8432
vn 0.6150 0.3409 -0.7111
vn 0.6169 0.3021 -0.7268
vn -0.0456 0.9409 0.3356
vn 0.2947 0.9532 0.0674
vn 0.2675 0.9328 0.2416
vn 0.6150 0.4025 -0.6781
vn -0.3957 0.5701 0.7200
vn -0.3916 0.4592 0.7974
vn -0.3840 0.6293 0.6756
vn -0.6263 0.2999 0.7196
vn -0.6642 0.2808 0.6928
vn -0.7251 0.2303 0.6490
vn -0.6950 0.2244 0.6831
vn -0.6227 0.1910 0.7588
vn -0.5519 0.3166 0.7715
vn 0.1902 -0.6715 -0.7161
vn 0.1711 -0.6591 -0.7323
vn -0.1446 -0.9838 -0.1059
vn -0.2442 -0.9651 -0.0948
vn -0.5870 -0.4915 0.6433
vn -0.4432 -0.6256 0.6420
vn 0.1306 -0.6476 -0.7507
vn 0.1143 -0.6586 -0.7438
vn -0.1344 -0.9849 -0.1093
vn -0.1137 -0.9865 -0.1182
vn -0.3441 -0.7171 0.6061
vn -0.3185 -0.7675 0.5563
vn -0.2809 0.4258 0.8601
vn 0.1931 0.9187 0.3444
vn 0.1784 0.9311 0.3181
vn 0.2083 0.9259 0.3152
vn -0.3197 0.4117 0.8534
vn 0.5271 0.4475 -0.7224
vn 0.5723 0.4115 -0.7094
vn 0.4877 0.5063 -0.7112
vn -0.3566 0.4045 0.8421
vn 0.2043 0.9259 0.3176
vn 0.6076 0.4188 -0.6748
vn -0.4400 0.3419 0.8304
vn -0.3770 0.3465 0.8589
vn -0.3634 0.3536 0.8619
vn -0.4177 0.3346 0.8447
vn -0.4797 0.3153 0.8188
vn -0.5012 0.3195 0.8042
vn -0.3259 0.3292 0.8863
vn -0.3239 0.3459 0.8806
vn -0.3310 -0.7876 0.5198
vn -0.1742 -0.9809 -0.0869
vn -0.2035 -0.9780 -0.0454
vn -0.3434 -0.7841 0.5169
vn 0.1154 -0.6755 -0.7282
vn 0.1170 -0.6929 -0.7115
vn -0.3558 -0.7543 0.5518
vn -0.2348 -0.9720 0.0032
vn 0.1018 -0.7027 -0.7042
vn 0.4925 0.5126 -0.7033
vn 0.4745 0.5113 -0.7165
vn 0.2470 0.9331 0.2615
vn 0.2757 0.9313 0.2380
vn -0.1277 0.5419 0.8307
vn 0.4511 0.8412 -0.2982
vn 0.2319 0.9130 0.3358
vn -0.2990 -0.0469 0.9531
vn -0.3614 -0.3715 0.8552
vn -0.3506 -0.4019 0.8459
vn -0.3669 -0.2242 0.9029
vn -0.3635 -0.3088 0.8789
vn -0.1096 0.2631 0.9585
vn -0.2445 0.3136 0.9175
vn -0.2582 0.2414 0.9355
vn -0.1483 0.1621 0.9756
vn -0.1705 0.0615 0.9834
vn -0.2619 0.1633 0.9512
vn 0.1305 -0.0946 0.9869
vn 0.2034 0.0153 0.9790
vn 0.0774 0.0647 0.9949
vn 0.0206 -0.0472 0.9987
vn 0.2778 0.1341 0.9512
vn 0.1451 0.1831 0.9723
vn -0.5256 0.3201 0.7882
vn -0.5548 0.2922 0.7790
vn -0.5405 0.3287 0.7744
vn -0.5783 0.2774 0.7672
vn -0.5179 0.3388 0.7855
vn -0.5855 0.3025 0.7522
vn -0.6206 0.2757 0.7341
vn -0.4858 0.2961 0.8224
vn -0.4560 0.3463 0.8198
vn -0.3901 0.3291 0.8599
vn -0.4181 0.2464 0.8744
vn -0.5447 0.1128 0.8310
vn -0.4644 -0.0021 0.8856
vn -0.3944 -0.1225 0.9108
vn -0.3587 0.1884 0.9142
vn -0.3324 0.3008 0.8939
usemtl material1424.003
s 1
f 4//1 2//2 1//3 5//4
f 6//5 7//6 4//1 5//4
f 8//7 9//8 6//5 5//4
f 1//3 3//9 8//7 5//4
f 10//10 11//11 12//12 13//13
f 14//14 15//15 10//10 13//13
f 16//16 17//17 14//14 13//13
f 12//12 18//18 16//16 13//13
f 19//19 15//15 14//14 20//20
f 21//21 22//22 19//19 20//20
f 23//23 24//24 21//21 20//20
f 14//14 17//17 23//23 20//20
f 25//25 26//26 27//27 28//28
f 29//29 30//30 25//25 28//28
f 31//31 32//32 29//29 28//28
f 27//27 33//33 31//31 28//28
f 34//34 7//6 6//5 35//35
f 36//36 37//37 34//34 35//35
f 38//38 39//39 36//36 35//35
f 6//5 9//8 38//38 35//35
f 43//40 44//41 45//42 46//43
f 47//44 48//45 43//40 46//43
f 49//46 50//47 47//44 46//43
f 45//42 51//48 49//46 46//43
f 40//49 42//50 52//51 53//52
f 54//53 41//54 40//49 53//52
f 55//55 56//56 54//53 53//52
f 52//51 57//57 55//55 53//52
f 58//58 59//59 60//60 61//61
f 62//62 63//63 58//58 61//61
f 43//40 48//45 62//62 61//61
f 60//60 44//41 43//40 61//61
f 64//64 65//65 68//66 69//67
f 47//44 50//47 64//64 69//67
f 70//68 48//45 47//44 69//67
f 68//66 71//69 70//68 69//67
f 66//70 67//71 72//72 73//73
f 68//66 65//65 66//70 73//73
f 74//74 71//69 68//66 73//73
f 72//72 75//75 74//74 73//73
f 76//76 18//18 77//77 78//78
f 79//79 80//80 76//76 78//78
f 81//81 82//82 79//79 78//78
f 77//77 83//83 81//81 78//78
f 84//84 80//80 79//79 85//85
f 54//53 56//56 84//84 85//85
f 86//86 41//54 54//53 85//85
f 79//79 82//82 86//86 85//85
f 87//87 88//88 89//89 90//90
f 91//91 92//92 87//87 90//90
f 84//84 56//56 91//91 90//90
f 89//89 80//80 84//84 90//90
f 93//93 17//17 16//16 94//94
f 89//89 88//88 93//93 94//94
f 76//76 80//80 89//89 94//94
f 16//16 18//18 76//76 94//94
f 98//95 75//75 72//72 99//96
f 100//97 101//98 98//95 99//96
f 102//99 103//100 100//97 99//96
f 72//72 67//71 102//99 99//96
f 104//101 101//98 100//97 105//102
f 4//1 7//6 104//101 105//102
f 106//103 2//2 4//1 105//102
f 100//97 103//100 106//103 105//102
f 95//104 96//105 107//106 108//107
f 29//29 32//32 95//104 108//107
f 109//108 30//30 29//29 108//107
f 107//106 11//11 109//108 108//107
f 97//109 83//83 77//77 110//110
f 107//106 96//105 97//109 110//110
f 12//12 11//11 107//106 110//110
f 77//77 18//18 12//12 110//110
f 111//111 22//22 112//112 113//113
f 34//34 37//37 111//111 113//113
f 104//101 7//6 34//34 113//113
f 112//112 101//98 104//101 113//113
f 21//21 24//24 114//114 115//115
f 112//112 22//22 21//21 115//115
f 98//95 101//98 112//112 115//115
f 114//114 75//75 98//95 115//115
f 116//116 30//30 109//108 117//117
f 118//118 119//119 116//116 117//117
f 10//10 15//15 118//118 117//117
f 109//108 11//11 10//10 117//117
f 120//120 119//119 118//118 121//121
f 111//111 37//37 120//120 121//121
f 19//19 22//22 111//111 121//121
f 118//118 15//15 19//19 121//121
f 122//122 123//123 124//124 125//125
f 36//36 39//39 122//122 125//125
f 120//120 37//37 36//36 125//125
f 124//124 119//119 120//120 125//125
f 126//126 26//26 25//25 127//127
f 124//124 123//123 126//126 127//127
f 116//116 119//119 124//124 127//127
f 25//25 30//30 116//116 127//127
f 91//91 56//56 55//55 128//128
f 129//129 92//92 91//91 128//128
f 130//130 131//131 129//129 128//128
f 55//55 57//57 130//130 128//128
f 132//132 92//92 129//129 133//133
f 58//58 63//63 132//132 133//133
f 134//134 59//59 58//58 133//133
f 129//129 131//131 134//134 133//133
f 132//132 63//63 135//135 136//136
f 87//87 92//92 132//132 136//136
f 137//137 88//88 87//87 136//136
f 135//135 138//138 137//137 136//136
f 62//62 48//45 70//68 139//139
f 135//135 63//63 62//62 139//139
f 140//140 138//138 135//135 139//139
f 70//68 71//69 140//140 139//139
f 140//140 71//69 74//74 141//141
f 142//142 138//138 140//140 141//141
f 114//114 24//24 142//142 141//141
f 74//74 75//75 114//114 141//141
f 137//137 138//138 142//142 143//143
f 93//93 88//88 137//137 143//143
f 23//23 17//17 93//93 143//143
f 142//142 24//24 23//23 143//143
