# Blender v3.2.1 OBJ File: ''
# www.blender.org
mtllib depressor_supercilii_right.mtl
o Depressor_Supercilii_Muscle_Right
v -0.041633 19.441862 1.305105
v -0.038640 19.442310 1.307948
v -0.030921 19.422585 1.305564
v -0.033096 19.422005 1.302787
v -0.037067 19.420990 1.299602
v -0.046591 19.441027 1.301845
v -0.025699 19.401129 1.301948
v -0.028712 19.399908 1.298958
v -0.024324 19.401878 1.304553
v -0.117846 19.487274 1.312000
v -0.134878 19.503880 1.322116
v -0.124520 19.502575 1.323915
v -0.109136 19.486843 1.314209
v -0.093326 19.473743 1.305197
v -0.100861 19.473686 1.302295
v -0.100566 19.486576 1.316721
v -0.085883 19.473816 1.308312
v -0.114301 19.501408 1.325951
v -0.035633 19.421579 1.307648
v -0.029559 19.400898 1.306601
v -0.026191 19.401693 1.306328
v -0.032283 19.422337 1.307405
v -0.039492 19.441994 1.309854
v -0.042830 19.441254 1.310136
v -0.080989 19.434862 1.285896
v -0.077173 19.435730 1.285168
v -0.061603 19.414576 1.282799
v -0.065230 19.413748 1.283204
v -0.066744 19.413464 1.285113
v -0.082129 19.434465 1.288005
v -0.050841 19.391916 1.282039
v -0.052711 19.391718 1.283779
v -0.047403 19.392715 1.281921
v -0.108899 19.569420 1.347252
v -0.108320 19.602674 1.339012
v -0.130428 19.614325 1.334271
v -0.127057 19.578329 1.345170
v -0.122547 19.545902 1.349419
v -0.107899 19.540257 1.349908
v -0.146797 19.586384 1.342248
v -0.138384 19.551739 1.347714
v -0.154792 19.623436 1.328989
v -0.043464 19.419590 1.302535
v -0.035723 19.398590 1.301734
v -0.032692 19.399818 1.304702
v -0.039422 19.420641 1.305630
v -0.047293 19.440426 1.308108
v -0.052371 19.439547 1.304973
v -0.108530 19.636732 1.321044
v -0.109042 19.669922 1.307925
v -0.084897 19.647991 1.313988
v -0.087947 19.618793 1.326866
v -0.090710 19.589960 1.337521
v -0.108161 19.603674 1.332666
v -0.073802 19.603561 1.331788
v -0.079087 19.578873 1.341927
v -0.067659 19.628628 1.318649
v -0.060731 19.623646 1.322366
v -0.068484 19.599051 1.335527
v -0.075097 19.575050 1.345354
v -0.072420 19.604797 1.336674
v -0.078870 19.578499 1.346402
v -0.064865 19.632013 1.323843
v -0.262459 19.658407 1.283389
v -0.290573 19.685638 1.259416
v -0.290079 19.683130 1.256538
v -0.264018 19.657160 1.279633
v -0.239919 19.629314 1.300865
v -0.236981 19.629517 1.305121
v -0.255767 19.657578 1.278414
v -0.233516 19.630291 1.299581
v -0.279512 19.682566 1.255419
v -0.224203 19.663387 1.293417
v -0.248414 19.693113 1.267405
v -0.275767 19.689240 1.262095
v -0.248003 19.661095 1.287620
v -0.223195 19.631138 1.310294
v -0.202627 19.631836 1.316213
v -0.108464 19.473524 1.299782
v -0.114948 19.473082 1.298748
v -0.133970 19.487827 1.309757
v -0.126642 19.487728 1.310194
v -0.145188 19.505062 1.320611
v -0.153536 19.505699 1.320383
v -0.089402 19.455004 1.298839
v -0.073479 19.435888 1.293268
v -0.068122 19.436817 1.296092
v -0.082839 19.455626 1.301614
v -0.098583 19.471935 1.309506
v -0.106381 19.471745 1.306985
v -0.076344 19.456205 1.304577
v -0.090877 19.472107 1.312329
v -0.062814 19.437740 1.298984
v -0.107084 19.638384 1.328012
v -0.105519 19.675320 1.315633
v -0.135947 19.689510 1.304818
v -0.133309 19.651598 1.320310
v -0.163043 19.659964 1.311375
v -0.171421 19.696230 1.291584
v -0.078887 19.434956 1.290517
v -0.064401 19.414087 1.287764
v -0.060147 19.415174 1.290759
v -0.051243 19.392450 1.286555
v -0.048110 19.393660 1.289781
v -0.219276 19.632214 1.303320
v -0.240794 19.659882 1.281792
v -0.219213 19.661844 1.288599
v -0.199659 19.632940 1.309707
v -0.264101 19.684792 1.258012
v -0.240703 19.687786 1.264936
v -0.090539 19.589218 1.343672
v -0.086037 19.620346 1.333818
v -0.080810 19.652697 1.321786
v -0.078552 19.474020 1.311467
v -0.092187 19.486609 1.319440
v -0.084030 19.487070 1.322101
v -0.071364 19.474449 1.314507
v -0.104407 19.500633 1.328164
v -0.094884 19.500460 1.330252
v -0.044985 19.394882 1.292870
v -0.055924 19.416283 1.293699
v -0.051732 19.417398 1.296617
v -0.041875 19.396116 1.295864
v -0.183978 19.598110 1.325705
v -0.177121 19.630329 1.316362
v -0.165157 19.594173 1.330736
v -0.153268 19.557953 1.337525
v -0.169218 19.562130 1.333738
v -0.145622 19.587864 1.335117
v -0.137065 19.552572 1.340743
v -0.153251 19.624449 1.322639
v -0.057554 19.438650 1.301938
v -0.047573 19.418505 1.299547
v -0.038786 19.397354 1.298803
v -0.129636 19.615368 1.327889
v -0.160981 19.657330 1.306999
v -0.133160 19.649370 1.314607
v -0.136691 19.682600 1.300003
v -0.168762 19.688358 1.289779
v -0.179342 19.629271 1.322707
v -0.194612 19.663452 1.301873
v -0.211271 19.696436 1.278174
v -0.061918 19.438456 1.292593
v -0.056748 19.439323 1.295606
v -0.045173 19.418867 1.293550
v -0.049289 19.417776 1.290597
v -0.053435 19.416679 1.287645
v -0.067134 19.437563 1.289654
v -0.037932 19.396214 1.290169
v -0.041046 19.394991 1.287151
v -0.034834 19.397446 1.293113
v -0.083449 19.456841 1.294692
v -0.077092 19.457361 1.297726
v -0.070798 19.457851 1.300900
v -0.206179 19.689531 1.276807
v -0.191137 19.661242 1.297665
v -0.104964 19.484758 1.321172
v -0.113858 19.484974 1.319012
v -0.122882 19.485338 1.317222
v -0.128496 19.500843 1.329338
v -0.139266 19.502134 1.327836
v -0.117875 19.499689 1.331060
v -0.126546 19.523581 1.335822
v -0.139476 19.526850 1.333470
v -0.152426 19.529776 1.330952
v -0.128880 19.522429 1.341946
v -0.116250 19.519329 1.343427
v -0.104393 19.516825 1.344153
v -0.107659 19.498875 1.332924
v -0.097872 19.498648 1.334663
v -0.058454 19.458973 1.307284
v -0.064351 19.475191 1.317276
v -0.052452 19.459686 1.310384
v -0.048602 19.460072 1.313080
v -0.059670 19.475651 1.319697
v -0.085780 19.501085 1.331909
v -0.076125 19.488087 1.324438
v -0.070706 19.488827 1.326538
v -0.079427 19.501629 1.333467
v -0.059480 19.475227 1.321688
v -0.048933 19.459682 1.315047
v -0.052271 19.458906 1.315507
v -0.062799 19.474365 1.322380
v -0.078159 19.501202 1.335257
v -0.070008 19.488461 1.328482
v -0.073255 19.487448 1.329370
v -0.081391 19.500261 1.336398
v -0.138094 19.486326 1.314242
v -0.157251 19.504461 1.325049
v -0.158005 19.505369 1.322414
v -0.138275 19.487188 1.311656
v -0.119121 19.472189 1.300282
v -0.119411 19.471443 1.302853
v -0.100220 19.453974 1.294013
v -0.099489 19.454546 1.291642
v -0.095485 19.455475 1.290518
v -0.068649 19.473507 1.320897
v -0.057445 19.458138 1.313681
v -0.063610 19.457417 1.310682
v -0.075866 19.472790 1.318212
v -0.088539 19.499260 1.336011
v -0.079673 19.486256 1.328301
v -0.087825 19.485250 1.326111
v -0.083549 19.516085 1.340350
v -0.091319 19.516901 1.339728
v -0.093455 19.536751 1.344725
v -0.084238 19.533438 1.345209
v -0.102357 19.518232 1.339148
v -0.106680 19.541374 1.344317
v -0.082658 19.554932 1.346068
v -0.092899 19.561859 1.343732
v -0.108079 19.570871 1.341290
v -0.084962 19.514908 1.343381
v -0.081577 19.515280 1.341842
v -0.081566 19.531893 1.346754
v -0.085144 19.532469 1.348497
v -0.083113 19.554028 1.349923
v -0.079432 19.552240 1.348510
v -0.214252 19.598412 1.317091
v -0.195460 19.564894 1.327526
v -0.200545 19.564693 1.328903
v -0.219746 19.597717 1.318372
v -0.216776 19.597313 1.322371
v -0.198264 19.563976 1.332318
v -0.174627 19.532688 1.327464
v -0.179363 19.532557 1.329207
v -0.177865 19.531685 1.332143
v -0.187475 19.563080 1.336186
v -0.204298 19.597561 1.327269
v -0.186320 19.596632 1.332578
v -0.171878 19.561077 1.340286
v -0.149928 19.503361 1.326631
v -0.168892 19.530409 1.334689
v -0.155896 19.528481 1.337115
v -0.072387 19.436642 1.286800
v -0.089859 19.456226 1.291912
v -0.044171 19.393782 1.284013
v -0.057606 19.415581 1.284663
v -0.131961 19.485750 1.315865
v -0.114244 19.471437 1.304928
v -0.096027 19.454290 1.296359
v -0.184150 19.564241 1.329771
v -0.201336 19.599033 1.320346
v -0.164896 19.531742 1.328498
v -0.093266 19.515387 1.344145
v -0.094676 19.535519 1.349574
v -0.093593 19.560535 1.349170
v -0.051635 19.440182 1.298684
v -0.064577 19.458376 1.304105
v -0.031759 19.398680 1.296028
v -0.041096 19.419943 1.296537
v -0.083290 19.472357 1.315293
v -0.069922 19.456787 1.307624
v -0.096271 19.484800 1.323636
v -0.121376 19.546846 1.342998
v -0.126125 19.579817 1.338527
v -0.114136 19.520582 1.337781
v -0.155171 19.557047 1.344399
v -0.166853 19.592695 1.337811
v -0.142326 19.525648 1.339688
vn 0.5201 0.4173 -0.7452
vn 0.5853 0.4277 -0.6888
vn 0.7141 0.3174 -0.6239
vn 0.6378 0.3039 -0.7077
vn 0.5421 0.2914 -0.7882
vn 0.4431 0.4093 -0.7976
vn 0.6866 0.2693 -0.6753
vn 0.5843 0.2557 -0.7702
vn 0.7668 0.2837 -0.5757
vn 0.2017 0.6880 -0.6971
vn 0.2142 0.5534 -0.8049
vn 0.2341 0.5730 -0.7854
vn 0.2241 0.6914 -0.6868
vn 0.2629 0.6750 -0.6894
vn 0.2374 0.6710 -0.7024
vn 0.2313 0.6835 -0.6923
vn 0.2725 0.6678 -0.6926
vn 0.2359 0.5810 -0.7790
vn -0.1675 -0.1433 0.9754
vn -0.1886 -0.1072 0.9762
vn 0.4338 0.0868 0.8968
vn 0.4745 0.0879 0.8759
vn 0.5644 0.0956 0.8199
vn -0.1049 -0.2522 0.9620
vn 0.7729 0.2179 0.5959
vn 0.8470 0.3134 0.4293
vn 0.7214 0.1877 0.6666
vn -0.5103 -0.2648 -0.8182
vn 0.0244 0.2018 -0.9791
vn 0.1212 0.1547 -0.9805
vn -0.4335 -0.2282 -0.8718
vn -0.6806 -0.4199 -0.6004
vn -0.7173 -0.5014 -0.4837
vn -0.3924 -0.2104 -0.8954
vn -0.6503 -0.3866 -0.6540
vn 0.1687 0.1462 -0.9748
vn -0.0331 0.1629 0.9861
vn -0.0416 0.2763 0.9602
vn -0.0711 0.3171 0.9457
vn -0.0487 0.2026 0.9780
vn -0.1056 -0.0675 0.9921
vn -0.0583 -0.0858 0.9946
vn -0.1111 0.2202 0.9691
vn -0.1724 -0.0653 0.9829
vn -0.1241 0.3574 0.9257
vn -0.5292 -0.2790 0.8013
vn -0.5772 -0.2432 0.7795
vn -0.5184 -0.2081 0.8295
vn -0.4783 -0.2462 0.8430
vn -0.3818 -0.3679 0.8479
vn -0.4232 -0.3993 0.8133
vn 0.0009 -0.3618 -0.9323
vn -0.0125 -0.3815 -0.9243
vn -0.1317 -0.3915 -0.9107
vn -0.0773 -0.3705 -0.9256
vn 0.0337 -0.2866 -0.9575
vn 0.0308 -0.2980 -0.9541
vn 0.0577 -0.4263 -0.9028
vn 0.2247 -0.3082 -0.9244
vn -0.0149 -0.4542 -0.8908
vn 0.1399 -0.4937 -0.8583
vn 0.2128 -0.4595 -0.8623
vn 0.3925 -0.3222 -0.8615
vn 0.3708 0.2661 0.8898
vn 0.2369 0.1910 0.9526
vn 0.4226 0.1365 0.8960
vn 0.5484 0.2053 0.8107
vn 0.6081 0.2051 0.7669
vn 0.4378 0.2717 0.8570
vn -0.6513 0.0096 0.7588
vn -0.7950 -0.4642 0.3904
vn -0.8019 -0.3920 0.4508
vn -0.8024 -0.2571 0.5386
vn -0.6303 0.0271 0.7758
vn 0.0897 -0.5979 -0.7965
vn 0.0925 -0.4996 -0.8613
vn -0.0881 -0.5887 -0.8036
vn -0.0804 -0.6807 -0.7281
vn -0.0916 -0.7157 -0.6924
vn 0.0751 -0.6377 -0.7666
vn -0.2465 0.4739 0.8454
vn -0.2526 0.5017 0.8273
vn -0.2686 0.4849 0.8323
vn -0.2850 0.4439 0.8495
vn -0.3079 0.3418 0.8879
vn -0.2379 0.3815 0.8932
vn -0.2960 0.4531 0.8409
vn 0.1569 0.6279 -0.7623
vn -0.1428 0.3779 -0.9148
vn -0.1823 0.3888 -0.9031
vn 0.1253 0.6458 -0.7531
vn 0.1396 0.4973 -0.8563
vn -0.1688 0.2445 -0.9548
vn -0.2638 -0.5484 0.7935
vn -0.3618 -0.4333 0.8255
vn -0.3791 -0.4246 0.8222
vn -0.2924 -0.5537 0.7797
vn -0.2251 -0.6643 0.7128
vn -0.1933 -0.6576 0.7282
vn -0.3093 -0.5539 0.7730
vn -0.2428 -0.6606 0.7104
vn -0.3932 -0.4168 0.8196
vn -0.0463 0.3238 0.9450
vn -0.0464 0.3374 0.9402
vn -0.1753 0.3693 0.9126
vn -0.1373 0.3591 0.9231
vn -0.1916 0.4106 0.8914
vn -0.2327 0.4210 0.8767
vn -0.4147 -0.4873 0.7685
vn -0.4732 -0.5318 0.7023
vn -0.6089 -0.4691 0.6397
vn -0.5459 -0.4210 0.7244
vn -0.4788 -0.3545 0.8032
vn -0.6086 -0.4068 0.6813
vn -0.5372 -0.3364 0.7734
vn -0.6713 -0.4551 0.5851
vn 0.2820 -0.3759 -0.8827
vn 0.2794 -0.4753 -0.8343
vn 0.2828 -0.4616 -0.8408
vn 0.2611 -0.3708 -0.8913
vn 0.2713 -0.5143 -0.8135
vn 0.2942 -0.4898 -0.8207
vn 0.0056 0.2486 0.9686
vn 0.0967 0.3158 0.9439
vn 0.1479 0.3293 0.9326
vn 0.2676 0.6500 -0.7113
vn 0.2199 0.6632 -0.7154
vn 0.1846 0.6252 -0.7583
vn 0.2484 0.6187 -0.7454
vn 0.2136 0.5743 -0.7903
vn 0.1593 0.5485 -0.8208
vn -0.5403 -0.3072 0.7834
vn -0.4859 -0.3308 0.8090
vn -0.4955 -0.3106 0.8112
vn -0.5473 -0.2818 0.7881
vn 0.2470 -0.2131 -0.9453
vn 0.1952 -0.3710 -0.9079
vn 0.1866 -0.2166 -0.9583
vn 0.2282 0.0580 -0.9719
vn 0.2524 0.0485 -0.9664
vn 0.1249 -0.2131 -0.9690
vn 0.1901 0.0608 -0.9799
vn 0.1264 -0.3507 -0.9279
vn -0.4068 -0.4091 0.8168
vn -0.5094 -0.2934 0.8090
vn -0.5591 -0.2607 0.7871
vn 0.0670 -0.3225 -0.9442
vn 0.1768 -0.4168 -0.8917
vn 0.0977 -0.3803 -0.9197
vn 0.1205 -0.3973 -0.9097
vn 0.2103 -0.4338 -0.8761
vn -0.1866 0.3805 0.9058
vn -0.2301 0.4523 0.8617
vn -0.2584 0.4676 0.8453
vn 0.4034 0.4287 -0.8084
vn 0.4160 0.4245 -0.8042
vn 0.5075 0.3139 -0.8024
vn 0.4967 0.3286 -0.8033
vn 0.4887 0.3471 -0.8004
vn 0.3874 0.4325 -0.8142
vn 0.5442 0.3030 -0.7823
vn 0.5401 0.3271 -0.7755
vn 0.5526 0.2830 -0.7839
vn 0.3036 0.5565 -0.7734
vn 0.3268 0.5633 -0.7589
vn 0.3373 0.5636 -0.7541
vn 0.2669 -0.4702 -0.8413
vn 0.2392 -0.4500 -0.8604
vn -0.2013 -0.6788 0.7061
vn -0.1885 -0.6821 0.7065
vn -0.1636 -0.6739 0.7205
vn -0.2061 -0.5665 0.7979
vn -0.1870 -0.5413 0.8198
vn -0.2070 -0.5786 0.7890
vn 0.2427 0.3759 -0.8943
vn 0.2538 0.3613 -0.8972
vn 0.2436 0.3336 -0.9107
vn -0.2188 -0.3802 0.8987
vn -0.1707 -0.3820 0.9082
vn -0.1030 -0.3737 0.9218
vn -0.1838 -0.5736 0.7982
vn -0.1293 -0.5472 0.8270
vn 0.3379 0.5406 -0.7705
vn 0.2755 0.6029 -0.7488
vn 0.3892 0.5390 -0.7470
vn 0.7607 0.5858 -0.2796
vn 0.6313 0.6729 -0.3855
vn 0.1440 0.5267 -0.8378
vn 0.1908 0.6003 -0.7767
vn 0.5341 0.6785 -0.5044
vn 0.4812 0.5708 -0.6653
vn 0.8068 0.5889 0.0476
vn 0.8589 0.4541 0.2367
vn -0.0190 -0.3597 0.9329
vn 0.1901 -0.2316 0.9540
vn 0.2596 -0.2531 0.9319
vn 0.0663 -0.4006 0.9138
vn 0.7372 0.5420 -0.4036
vn 0.7548 0.6385 -0.1501
vn 0.1428 -0.3974 0.9064
vn 0.3261 -0.2532 0.9108
vn 0.3841 -0.2817 0.8793
vn 0.2027 -0.3830 0.9013
vn -0.5336 -0.8008 0.2721
vn -0.5715 -0.6929 0.4397
vn -0.7468 -0.6651 0.0018
vn -0.6987 -0.6950 -0.1699
vn -0.6987 -0.6613 -0.2729
vn -0.5618 -0.7986 0.2160
vn -0.3616 0.1299 -0.9232
vn -0.4061 0.1277 -0.9049
vn -0.3968 0.0135 -0.9178
vn -0.7183 -0.5901 -0.3685
vn -0.5753 -0.2993 -0.7612
vn -0.0670 0.2807 -0.9575
vn -0.1760 -0.5629 0.8076
vn -0.2733 -0.4971 0.8235
vn -0.3190 -0.5355 0.7820
vn -0.2316 -0.6178 0.7515
vn -0.0407 -0.4985 0.8659
vn -0.0952 -0.5614 0.8221
vn -0.1644 -0.6248 0.7633
vn 0.4223 0.3719 -0.8266
vn 0.1214 0.3658 -0.9227
vn 0.1085 0.1074 -0.9883
vn 0.3740 0.1264 -0.9188
vn 0.1456 0.3696 -0.9177
vn 0.1032 0.0760 -0.9918
vn 0.3396 -0.1104 -0.9341
vn 0.0964 -0.1324 -0.9865
vn 0.0587 -0.1734 -0.9831
vn 0.2292 -0.3220 0.9186
vn 0.4077 -0.2811 0.8688
vn 0.3878 -0.1816 0.9037
vn 0.2111 -0.1668 0.9631
vn 0.5907 0.1168 -0.7984
vn 0.6722 0.3414 -0.6570
vn 0.1805 0.0278 0.9832
vn 0.3625 -0.0198 0.9318
vn 0.5300 -0.1072 -0.8412
vn 0.0471 -0.3654 -0.9297
vn -0.0271 -0.1648 -0.9860
vn -0.2434 -0.2953 -0.9239
vn -0.1503 -0.4635 -0.8732
vn -0.6199 -0.0432 0.7835
vn -0.8011 -0.2456 0.5458
vn -0.8030 -0.4053 0.4368
vn -0.6180 -0.2574 0.7428
vn -0.1079 0.0532 -0.9927
vn -0.3346 -0.1261 -0.9339
vn -0.6036 -0.4999 0.6211
vn -0.7878 -0.5717 0.2294
vn -0.2976 -0.0569 0.9530
vn -0.3106 0.1884 0.9317
vn -0.2397 0.2149 0.9468
vn -0.2504 -0.0522 0.9667
vn -0.2205 -0.5462 0.8081
vn -0.2619 -0.3209 0.9102
vn -0.2311 -0.3294 0.9155
vn 0.3122 0.3992 -0.8621
vn 0.2233 0.5113 -0.8299
vn 0.4700 0.3124 -0.8256
vn 0.4172 0.3275 -0.8478
vn -0.1963 -0.6944 0.6922
vn -0.2221 -0.6848 0.6941
vn -0.2998 -0.5868 0.7522
vn -0.3510 -0.6249 0.6973
vn 0.2271 0.0097 -0.9738
vn 0.2600 -0.2288 -0.9381
vn 0.1818 0.2733 -0.9446
vn -0.0112 -0.3598 0.9330
vn -0.0069 -0.1231 0.9924
vn -0.0230 0.1063 0.9941
vn 0.4285 0.4184 -0.8008
vn 0.3400 0.5566 -0.7581
vn 0.5658 0.2677 -0.7799
vn 0.5223 0.3017 -0.7976
vn -0.2456 -0.6464 0.7224
vn -0.3174 -0.5490 0.7732
vn -0.1959 -0.6618 0.7236
vn 0.1451 0.0630 -0.9874
vn 0.0758 -0.2004 -0.9768
vn 0.2077 0.3776 -0.9024
vn -0.2281 -0.0642 0.9715
vn -0.1849 0.2207 0.9577
vn -0.2404 -0.3629 0.9003
usemtl material1433.003
s 1
f 1//1 2//2 3//3 4//4
f 5//5 6//6 1//1 4//4
f 7//7 8//8 5//5 4//4
f 3//3 9//9 7//7 4//4
f 10//10 11//11 12//12 13//13
f 14//14 15//15 10//10 13//13
f 16//16 17//17 14//14 13//13
f 12//12 18//18 16//16 13//13
f 19//19 20//20 21//21 22//22
f 23//23 24//24 19//19 22//22
f 3//25 2//26 23//23 22//22
f 21//21 9//27 3//25 22//22
f 25//28 26//29 27//30 28//31
f 29//32 30//33 25//28 28//31
f 31//34 32//35 29//32 28//31
f 27//30 33//36 31//34 28//31
f 34//37 35//38 36//39 37//40
f 38//41 39//42 34//37 37//40
f 40//43 41//44 38//41 37//40
f 36//39 42//45 40//43 37//40
f 43//46 44//47 45//48 46//49
f 47//50 48//51 43//46 46//49
f 19//19 24//24 47//50 46//49
f 45//48 20//20 19//19 46//49
f 49//52 50//53 51//54 52//55
f 53//56 54//57 49//52 52//55
f 55//58 56//59 53//56 52//55
f 51//54 57//60 55//58 52//55
f 55//58 57//60 58//61 59//62
f 60//63 56//59 55//58 59//62
f 61//64 62//65 60//66 59//67
f 58//68 63//69 61//64 59//67
f 64//70 65//71 66//71 67//72
f 68//73 69//74 64//70 67//72
f 70//75 71//76 68//77 67//78
f 66//79 72//80 70//75 67//78
f 73//81 74//82 75//83 76//84
f 77//85 78//86 73//81 76//84
f 64//70 69//74 77//85 76//84
f 75//83 65//87 64//70 76//84
f 79//88 80//89 81//90 82//91
f 10//10 15//15 79//88 82//91
f 83//92 11//11 10//10 82//91
f 81//90 84//93 83//92 82//91
f 85//94 86//95 87//96 88//97
f 89//98 90//99 85//94 88//97
f 91//100 92//101 89//98 88//97
f 87//96 93//102 91//100 88//97
f 94//103 95//104 96//105 97//106
f 36//39 35//38 94//103 97//106
f 98//107 42//45 36//39 97//106
f 96//105 99//108 98//107 97//106
f 100//109 30//110 29//111 101//112
f 102//113 86//95 100//109 101//112
f 103//114 104//115 102//113 101//112
f 29//111 32//116 103//114 101//112
f 105//117 71//76 70//75 106//118
f 107//119 108//120 105//117 106//118
f 109//121 110//122 107//119 106//118
f 70//75 72//80 109//121 106//118
f 111//123 62//65 61//64 112//124
f 94//103 35//38 111//123 112//124
f 113//125 95//104 94//103 112//124
f 61//64 63//69 113//125 112//124
f 114//126 17//17 16//16 115//127
f 116//128 117//129 114//126 115//127
f 118//130 119//131 116//128 115//127
f 16//16 18//18 118//130 115//127
f 102//113 104//115 120//132 121//133
f 87//96 86//95 102//113 121//133
f 122//134 93//102 87//96 121//133
f 120//132 123//135 122//134 121//133
f 124//136 108//120 125//137 126//138
f 127//139 128//140 124//136 126//138
f 129//141 130//142 127//139 126//138
f 125//137 131//143 129//141 126//138
f 132//144 93//102 122//134 133//145
f 43//46 48//51 132//144 133//145
f 134//146 44//47 43//46 133//145
f 122//134 123//135 134//146 133//145
f 135//147 131//143 136//148 137//149
f 49//52 54//57 135//147 137//149
f 138//150 50//53 49//52 137//149
f 136//148 139//151 138//150 137//149
f 140//152 42//45 98//107 141//153
f 73//81 78//86 140//152 141//153
f 142//154 74//82 73//81 141//153
f 98//107 99//108 142//154 141//153
f 143//155 144//156 145//157 146//158
f 147//159 148//160 143//155 146//158
f 149//161 150//162 147//159 146//158
f 145//157 151//163 149//161 146//158
f 152//164 15//15 14//14 153//165
f 143//155 148//160 152//164 153//165
f 154//166 144//156 143//155 153//165
f 14//14 17//17 154//166 153//165
f 107//119 110//122 155//167 156//168
f 125//137 108//120 107//119 156//168
f 136//148 131//143 125//137 156//168
f 155//167 139//151 136//148 156//168
f 89//98 92//101 157//169 158//170
f 159//171 90//99 89//98 158//170
f 160//172 161//173 159//171 158//170
f 157//169 162//174 160//172 158//170
f 127//139 130//142 163//175 164//176
f 165//177 128//140 127//139 164//176
f 12//12 11//11 165//177 164//176
f 163//175 18//18 12//12 164//176
f 38//41 41//44 166//178 167//179
f 168//180 39//42 38//41 167//179
f 169//181 170//182 168//180 167//179
f 166//178 162//174 169//181 167//179
f 171//183 117//129 172//184 173//185
f 1//1 6//6 171//183 173//185
f 174//186 2//2 1//1 173//185
f 172//184 175//187 174//186 173//185
f 116//128 119//131 176//188 177//189
f 172//184 117//129 116//128 177//189
f 178//190 175//187 172//184 177//189
f 176//188 179//191 178//190 177//189
f 174//186 175//187 180//192 181//193
f 23//23 2//26 174//186 181//193
f 182//194 24//24 23//23 181//195
f 180//196 183//197 182//194 181//195
f 178//190 179//191 184//198 185//199
f 180//192 175//187 178//190 185//199
f 186//200 183//197 180//196 185//201
f 184//202 187//203 186//200 185//201
f 188//204 189//205 190//206 191//207
f 192//208 193//209 188//204 191//207
f 81//90 80//89 192//210 191//211
f 190//212 84//93 81//90 191//211
f 194//213 193//209 192//208 195//214
f 25//28 30//33 194//213 195//214
f 196//215 26//29 25//28 195//214
f 192//210 80//89 196//215 195//214
f 182//194 183//197 197//216 198//217
f 47//50 24//24 182//194 198//217
f 199//218 48//51 47//50 198//217
f 197//216 200//219 199//218 198//217
f 186//200 187//203 201//220 202//221
f 197//216 183//197 186//200 202//221
f 203//222 200//219 197//216 202//221
f 201//220 170//182 203//222 202//221
f 204//223 179//191 176//188 205//224
f 206//225 207//226 204//223 205//224
f 208//227 209//228 206//225 205//224
f 176//188 119//131 208//227 205//224
f 210//229 207//226 206//225 211//230
f 53//56 56//59 210//229 211//230
f 212//231 54//57 53//56 211//230
f 206//225 209//228 212//231 211//230
f 213//232 187//203 184//202 214//233
f 215//234 216//235 213//232 214//233
f 204//223 207//226 215//236 214//237
f 184//198 179//191 204//223 214//237
f 217//238 216//235 215//234 218//239
f 60//66 62//65 217//238 218//239
f 210//229 56//59 60//63 218//240
f 215//236 207//226 210//229 218//240
f 219//241 220//242 221//243 222//244
f 68//77 71//76 219//241 222//244
f 223//245 69//74 68//73 222//246
f 221//247 224//248 223//245 222//246
f 225//249 84//93 190//212 226//250
f 221//243 220//242 225//249 226//250
f 227//251 224//248 221//247 226//252
f 190//206 189//205 227//251 226//252
f 223//245 224//248 228//253 229//254
f 77//85 69//74 223//245 229//254
f 230//255 78//86 77//85 229//254
f 228//253 231//256 230//255 229//254
f 227//251 189//205 232//257 233//258
f 228//253 224//248 227//251 233//258
f 234//259 231//256 228//253 233//258
f 232//257 161//173 234//259 233//258
f 152//164 148//160 235//260 236//261
f 79//88 15//15 152//164 236//261
f 196//215 80//89 79//88 236//261
f 235//260 26//29 196//215 236//261
f 147//159 150//162 237//262 238//263
f 235//260 148//160 147//159 238//263
f 27//30 26//29 235//260 238//263
f 237//262 33//36 27//30 238//263
f 159//171 161//173 232//257 239//264
f 240//265 90//99 159//171 239//264
f 188//204 193//209 240//265 239//264
f 232//257 189//205 188//204 239//264
f 85//94 90//99 240//265 241//266
f 100//109 86//95 85//94 241//266
f 194//267 30//110 100//109 241//266
f 240//265 193//209 194//267 241//266
f 124//136 128//140 242//268 243//269
f 105//117 108//120 124//136 243//269
f 219//241 71//76 105//117 243//269
f 242//268 220//242 219//241 243//269
f 165//177 11//11 83//92 244//270
f 242//268 128//140 165//177 244//270
f 225//249 220//242 242//268 244//270
f 83//92 84//93 225//249 244//270
f 168//180 170//182 201//220 245//271
f 246//272 39//42 168//180 245//271
f 213//232 216//235 246//272 245//271
f 201//220 187//203 213//232 245//271
f 34//37 39//42 246//272 247//273
f 111//123 35//38 34//37 247//273
f 217//238 62//65 111//123 247//273
f 246//272 216//235 217//238 247//273
f 171//183 6//6 248//274 249//275
f 114//126 117//129 171//183 249//275
f 154//166 17//17 114//126 249//275
f 248//274 144//156 154//166 249//275
f 5//5 8//8 250//276 251//277
f 248//274 6//6 5//5 251//277
f 145//157 144//156 248//274 251//277
f 250//276 151//163 145//157 251//277
f 199//218 200//219 252//278 253//279
f 132//144 48//51 199//218 253//279
f 91//100 93//102 132//144 253//279
f 252//278 92//101 91//100 253//279
f 203//222 170//182 169//181 254//280
f 252//278 200//219 203//222 254//280
f 157//169 92//101 252//278 254//280
f 169//181 162//174 157//169 254//280
f 212//231 209//228 255//281 256//282
f 135//147 54//57 212//231 256//282
f 129//141 131//143 135//147 256//282
f 255//281 130//142 129//141 256//282
f 208//227 119//131 118//130 257//283
f 255//281 209//228 208//227 257//283
f 163//175 130//142 255//281 257//283
f 118//130 18//18 163//175 257//283
f 230//255 231//256 258//284 259//285
f 140//152 78//86 230//255 259//285
f 40//43 42//45 140//152 259//285
f 258//284 41//44 40//43 259//285
f 234//259 161//173 160//172 260//286
f 258//284 231//256 234//259 260//286
f 166//178 41//44 258//284 260//286
f 160//172 162//174 166//178 260//286
