# Blender v3.2.1 OBJ File: 'btx-face-vite.blend'
# www.blender.org
mtllib depressor_supercilii_right.mtl
o Depressor_Supercilii_Muscle_Right
v -0.038640 19.443382 1.320813
v -0.030921 19.423656 1.318429
v -0.024324 19.402950 1.317418
v -0.035633 19.422651 1.320513
v -0.029559 19.401970 1.319466
v -0.026191 19.402765 1.319193
v -0.032283 19.423409 1.320270
v -0.039492 19.443066 1.322719
v -0.042830 19.442326 1.323001
v -0.080989 19.435934 1.298761
v -0.077173 19.436802 1.298033
v -0.061603 19.415648 1.295664
v -0.065230 19.414820 1.296069
v -0.066744 19.414536 1.297978
v -0.082129 19.435537 1.300870
v -0.050841 19.392988 1.294904
v -0.052711 19.392790 1.296644
v -0.047403 19.393787 1.294786
v -0.108899 19.570492 1.360117
v -0.108320 19.603746 1.351877
v -0.130428 19.615396 1.347136
v -0.127057 19.579401 1.358035
v -0.122547 19.546974 1.362284
v -0.107899 19.541328 1.362773
v -0.146797 19.587456 1.355113
v -0.138384 19.552811 1.360579
v -0.154792 19.624508 1.341854
v -0.043464 19.420662 1.315400
v -0.035723 19.399662 1.314599
v -0.032692 19.400890 1.317567
v -0.039422 19.421713 1.318495
v -0.047293 19.441498 1.320973
v -0.052371 19.440619 1.317838
v -0.073802 19.604633 1.344653
v -0.079087 19.579945 1.354792
v -0.067659 19.629700 1.331514
v -0.060731 19.624718 1.335231
v -0.068484 19.600122 1.348392
v -0.075097 19.576122 1.358219
v -0.072420 19.605869 1.349539
v -0.078870 19.579571 1.359267
v -0.064865 19.633085 1.336708
v -0.262459 19.659479 1.296254
v -0.290573 19.686710 1.272281
v -0.290079 19.684202 1.269403
v -0.264018 19.658232 1.292498
v -0.239919 19.630386 1.313730
v -0.236981 19.630589 1.317986
v -0.255767 19.658649 1.291279
v -0.233516 19.631363 1.312446
v -0.279512 19.683638 1.268284
v -0.224203 19.664459 1.306282
v -0.248414 19.694185 1.280270
v -0.275767 19.690311 1.274960
v -0.248003 19.662167 1.300485
v -0.223195 19.632210 1.323159
v -0.202627 19.632908 1.329078
v -0.114948 19.474154 1.311613
v -0.133970 19.488899 1.322622
v -0.153536 19.506771 1.333248
v -0.089402 19.456076 1.311704
v -0.073479 19.436960 1.306133
v -0.068122 19.437889 1.308957
v -0.082839 19.456697 1.314479
v -0.098583 19.473007 1.322371
v -0.106381 19.472816 1.319850
v -0.076344 19.457277 1.317442
v -0.090877 19.473179 1.325194
v -0.062814 19.438812 1.311849
v -0.107084 19.639456 1.340877
v -0.105519 19.676392 1.328498
v -0.135947 19.690582 1.317683
v -0.133309 19.652670 1.333175
v -0.163043 19.661036 1.324240
v -0.171421 19.697302 1.304449
v -0.078887 19.436028 1.303382
v -0.064401 19.415159 1.300629
v -0.060147 19.416246 1.303624
v -0.051243 19.393522 1.299420
v -0.048110 19.394732 1.302646
v -0.090539 19.590290 1.356537
v -0.086037 19.621418 1.346683
v -0.080810 19.653769 1.334651
v -0.044985 19.395954 1.305735
v -0.055924 19.417355 1.306564
v -0.051732 19.418470 1.309482
v -0.041875 19.397188 1.308729
v -0.057554 19.439722 1.314803
v -0.047573 19.419577 1.312412
v -0.038786 19.398426 1.311668
v -0.179342 19.630342 1.335572
v -0.194612 19.664524 1.314738
v -0.211271 19.697508 1.291039
v -0.104964 19.485830 1.334037
v -0.113858 19.486046 1.331877
v -0.122882 19.486410 1.330087
v -0.128496 19.501915 1.342203
v -0.139266 19.503206 1.340701
v -0.117875 19.500761 1.343925
v -0.128880 19.523500 1.354811
v -0.116250 19.520401 1.356292
v -0.104393 19.517897 1.357018
v -0.107659 19.499947 1.345789
v -0.097872 19.499720 1.347528
v -0.048602 19.461143 1.325945
v -0.059670 19.476723 1.332562
v -0.070706 19.489899 1.339403
v -0.079427 19.502701 1.346332
v -0.059480 19.476299 1.334553
v -0.048933 19.460754 1.327912
v -0.052271 19.459978 1.328372
v -0.062799 19.475437 1.335245
v -0.078159 19.502274 1.348122
v -0.070008 19.489532 1.341347
v -0.073255 19.488520 1.342235
v -0.081391 19.501333 1.349263
v -0.138094 19.487398 1.327107
v -0.157251 19.505533 1.337914
v -0.158005 19.506441 1.335279
v -0.138275 19.488260 1.324521
v -0.119121 19.473261 1.313147
v -0.119411 19.472515 1.315718
v -0.100220 19.455046 1.306878
v -0.099489 19.455618 1.304507
v -0.095485 19.456547 1.303383
v -0.068649 19.474579 1.333762
v -0.057445 19.459209 1.326546
v -0.063610 19.458488 1.323547
v -0.075866 19.473862 1.331077
v -0.088539 19.500332 1.348876
v -0.079673 19.487328 1.341166
v -0.087825 19.486322 1.338976
v -0.083549 19.517157 1.353215
v -0.084238 19.534510 1.358074
v -0.082658 19.556004 1.358933
v -0.084962 19.515980 1.356246
v -0.081577 19.516352 1.354707
v -0.081566 19.532965 1.359619
v -0.085144 19.533541 1.361362
v -0.083113 19.555099 1.362788
v -0.079432 19.553312 1.361375
v -0.214252 19.599483 1.329956
v -0.195460 19.565966 1.340391
v -0.200545 19.565765 1.341768
v -0.219746 19.598789 1.331237
v -0.216776 19.598385 1.335236
v -0.198264 19.565048 1.345183
v -0.174627 19.533760 1.340329
v -0.179363 19.533628 1.342072
v -0.177865 19.532757 1.345008
v -0.187475 19.564152 1.349051
v -0.204298 19.598633 1.340134
v -0.186320 19.597704 1.345443
v -0.171878 19.562149 1.353151
v -0.149928 19.504433 1.339496
v -0.168892 19.531481 1.347554
v -0.155896 19.529552 1.349980
v -0.131961 19.486822 1.328730
v -0.114244 19.472509 1.317793
v -0.096027 19.455362 1.309224
v -0.093266 19.516459 1.357010
v -0.094676 19.536591 1.362439
v -0.093593 19.561607 1.362035
v -0.083290 19.473429 1.328158
v -0.069922 19.457859 1.320489
v -0.096271 19.485872 1.336501
v -0.155171 19.558119 1.357264
v -0.166853 19.593767 1.350676
v -0.142326 19.526720 1.352553
vn -0.1675 -0.1433 0.9754
vn -0.1890 -0.1073 0.9761
vn 0.4337 0.0868 0.8969
vn 0.4745 0.0879 0.8758
vn 0.5987 0.0829 0.7967
vn -0.1049 -0.2521 0.9620
vn 0.7729 0.2179 0.5959
vn 0.8470 0.3134 0.4293
vn 0.7212 0.1877 0.6668
vn -0.5103 -0.2648 -0.8182
vn 0.0244 0.2019 -0.9791
vn 0.1212 0.1547 -0.9805
vn -0.4335 -0.2282 -0.8718
vn -0.8288 -0.5590 0.0257
vn -0.7402 -0.6634 0.1094
vn -0.3924 -0.2104 -0.8954
vn -0.8385 -0.5304 -0.1247
vn 0.1687 0.1462 -0.9748
vn -0.0331 0.1629 0.9861
vn -0.0416 0.2763 0.9602
vn -0.0711 0.3171 0.9457
vn -0.0487 0.2027 0.9780
vn -0.1056 -0.0675 0.9921
vn -0.0583 -0.0858 0.9946
vn -0.1113 0.2201 0.9691
vn -0.1724 -0.0653 0.9829
vn -0.1241 0.3574 0.9257
vn -0.5292 -0.2790 0.8013
vn -0.5769 -0.2434 0.7797
vn -0.5184 -0.2081 0.8294
vn -0.4783 -0.2462 0.8430
vn -0.3819 -0.3678 0.8479
vn -0.4231 -0.3990 0.8135
vn 0.0577 -0.4263 -0.9028
vn -0.0149 -0.4542 -0.8908
vn 0.9443 -0.3263 -0.0424
vn 0.9610 -0.2719 -0.0500
vn 0.9865 -0.1312 0.0976
vn 0.2247 -0.3083 -0.9244
vn 0.3708 0.2661 0.8898
vn 0.2368 0.1910 0.9526
vn 0.4378 0.2717 0.8570
vn -0.6513 0.0096 0.7587
vn -0.7163 -0.1159 0.6881
vn -0.6924 -0.7214 -0.0127
vn -0.6237 -0.7513 -0.2159
vn -0.7152 -0.6675 -0.2071
vn -0.6304 0.0271 0.7758
vn 0.0897 -0.5979 -0.7965
vn 0.0925 -0.4996 -0.8613
vn 0.0751 -0.6378 -0.7666
vn -0.2465 0.4739 0.8454
vn -0.2526 0.5017 0.8273
vn -0.2686 0.4849 0.8323
vn -0.2850 0.4439 0.8495
vn -0.3079 0.3418 0.8879
vn -0.2379 0.3815 0.8932
vn -0.2637 -0.5484 0.7935
vn -0.3617 -0.4332 0.8255
vn -0.3791 -0.4246 0.8222
vn -0.2924 -0.5537 0.7797
vn -0.2251 -0.6643 0.7128
vn -0.1934 -0.6576 0.7281
vn -0.3093 -0.5539 0.7730
vn -0.2428 -0.6607 0.7103
vn -0.3932 -0.4170 0.8195
vn -0.0463 0.3238 0.9450
vn -0.0464 0.3374 0.9402
vn -0.1753 0.3693 0.9126
vn -0.1373 0.3591 0.9231
vn -0.1916 0.4106 0.8914
vn -0.2327 0.4210 0.8767
vn -0.4147 -0.4873 0.7685
vn -0.5458 -0.4210 0.7245
vn -0.4788 -0.3545 0.8032
vn -0.6086 -0.4067 0.6813
vn -0.5373 -0.3364 0.7734
vn 0.0056 0.2486 0.9686
vn 0.0967 0.3158 0.9439
vn 0.1479 0.3293 0.9326
vn -0.5404 -0.3073 0.7833
vn -0.4860 -0.3309 0.8089
vn -0.4955 -0.3106 0.8112
vn -0.5473 -0.2818 0.7881
vn -0.4068 -0.4091 0.8168
vn -0.5094 -0.2934 0.8090
vn -0.5591 -0.2607 0.7871
vn -0.1866 0.3805 0.9058
vn -0.2301 0.4522 0.8617
vn -0.2583 0.4676 0.8453
vn -0.2013 -0.6789 0.7061
vn -0.1885 -0.6821 0.7065
vn -0.1636 -0.6739 0.7205
vn -0.2061 -0.5665 0.7979
vn -0.1870 -0.5414 0.8197
vn -0.2070 -0.5785 0.7890
vn -0.2188 -0.3801 0.8987
vn -0.1707 -0.3820 0.9082
vn -0.1030 -0.3737 0.9218
vn -0.1838 -0.5736 0.7982
vn -0.1293 -0.5472 0.8270
vn 0.7607 0.5858 -0.2796
vn 0.6313 0.6729 -0.3857
vn 0.7269 0.2306 0.6469
vn 0.6759 0.1677 0.7177
vn -0.0189 -0.3597 0.9329
vn 0.0663 -0.4006 0.9139
vn 0.5339 0.6784 -0.5047
vn 0.4811 0.5707 -0.6654
vn 0.8907 0.1891 0.4133
vn 0.7830 0.2806 0.5551
vn 0.1428 -0.3975 0.9064
vn 0.2027 -0.3830 0.9012
vn -0.5336 -0.8008 0.2722
vn -0.5715 -0.6929 0.4397
vn -0.7001 -0.4660 -0.5410
vn -0.6667 -0.3580 -0.6538
vn -0.6429 -0.2947 -0.7070
vn -0.5560 -0.8118 0.1785
vn -0.1822 0.3887 -0.9032
vn -0.1428 0.3779 -0.9148
vn -0.1687 0.2445 -0.9549
vn -0.6535 -0.7318 0.1935
vn -0.5543 -0.2916 -0.7795
vn -0.0670 0.2807 -0.9575
vn -0.1760 -0.5629 0.8076
vn -0.2733 -0.4971 0.8235
vn -0.3190 -0.5355 0.7820
vn -0.2316 -0.6178 0.7514
vn -0.0407 -0.4985 0.8659
vn -0.0952 -0.5615 0.8220
vn -0.1644 -0.6249 0.7632
vn 0.2292 -0.3220 0.9186
vn 0.9656 0.0329 0.2578
vn 0.9798 -0.0690 0.1875
vn 0.2111 -0.1668 0.9631
vn 0.4224 0.3719 -0.8266
vn 0.3740 0.1264 -0.9188
vn 0.1805 0.0278 0.9832
vn 0.9737 -0.1112 0.1986
vn 0.3396 -0.1104 -0.9341
vn 0.0471 -0.3654 -0.9297
vn -0.0271 -0.1647 -0.9860
vn -0.8251 -0.4813 -0.2958
vn -0.7769 -0.5831 -0.2375
vn -0.6199 -0.0432 0.7835
vn -0.6180 -0.2574 0.7429
vn -0.1078 0.0532 -0.9927
vn -0.7395 -0.5046 -0.4456
vn -0.6036 -0.4999 0.6211
vn -0.2976 -0.0569 0.9530
vn -0.3106 0.1884 0.9317
vn -0.2397 0.2149 0.9468
vn -0.2504 -0.0522 0.9667
vn -0.2205 -0.5463 0.8080
vn -0.2619 -0.3209 0.9102
vn -0.2311 -0.3294 0.9155
vn -0.1963 -0.6944 0.6923
vn -0.2221 -0.6847 0.6941
vn -0.2998 -0.5868 0.7522
vn -0.0112 -0.3598 0.9330
vn -0.0069 -0.1231 0.9924
vn -0.0230 0.1063 0.9941
vn -0.2456 -0.6464 0.7223
vn -0.3174 -0.5490 0.7732
vn -0.1959 -0.6618 0.7236
vn -0.2281 -0.0642 0.9715
vn -0.1849 0.2207 0.9577
vn -0.2404 -0.3629 0.9003
usemtl material1433.003
s 1
f 4//1 5//2 6//3 7//4
f 8//5 9//6 4//1 7//4
f 2//7 1//8 8//5 7//4
f 6//3 3//9 2//7 7//4
f 10//10 11//11 12//12 13//13
f 14//14 15//15 10//10 13//13
f 16//16 17//17 14//14 13//13
f 12//12 18//18 16//16 13//13
f 19//19 20//20 21//21 22//22
f 23//23 24//24 19//19 22//22
f 25//25 26//26 23//23 22//22
f 21//21 27//27 25//25 22//22
f 28//28 29//29 30//30 31//31
f 32//32 33//33 28//28 31//31
f 4//1 9//6 32//32 31//31
f 30//30 5//2 4//1 31//31
f 34//34 36//35 37//36 38//37
f 39//38 35//39 34//34 38//37
f 40//40 41//41 39//38 38//37
f 37//36 42//42 40//40 38//37
f 43//43 44//44 45//45 46//46
f 47//47 48//48 43//43 46//46
f 49//49 50//50 47//47 46//46
f 45//45 51//51 49//49 46//46
f 52//52 53//53 54//54 55//55
f 56//56 57//57 52//52 55//55
f 43//43 48//48 56//56 55//55
f 54//54 44//44 43//43 55//55
f 61//58 62//59 63//60 64//61
f 65//62 66//63 61//58 64//61
f 67//64 68//65 65//62 64//61
f 63//60 69//66 67//64 64//61
f 70//67 71//68 72//69 73//70
f 21//21 20//20 70//67 73//70
f 74//71 27//27 21//21 73//70
f 72//69 75//72 74//71 73//70
f 76//73 15//15 14//14 77//74
f 78//75 62//59 76//73 77//74
f 79//76 80//77 78//75 77//74
f 14//14 17//17 79//76 77//74
f 81//78 41//41 40//40 82//79
f 70//67 20//20 81//78 82//79
f 83//80 71//68 70//67 82//79
f 40//40 42//42 83//80 82//79
f 78//75 80//77 84//81 85//82
f 63//60 62//59 78//75 85//82
f 86//83 69//66 63//60 85//82
f 84//81 87//84 86//83 85//82
f 88//85 69//66 86//83 89//86
f 28//28 33//33 88//85 89//86
f 90//87 29//29 28//28 89//86
f 86//83 87//84 90//87 89//86
f 91//88 27//27 74//71 92//89
f 52//52 57//57 91//88 92//89
f 93//90 53//53 52//52 92//89
f 74//71 75//72 93//90 92//89
f 65//62 68//65 94//91 95//92
f 96//93 66//63 65//62 95//92
f 97//94 98//95 96//93 95//92
f 94//91 99//96 97//94 95//92
f 23//23 26//26 100//97 101//98
f 102//99 24//24 23//23 101//98
f 103//100 104//101 102//99 101//98
f 100//97 99//96 103//100 101//98
f 105//102 106//103 109//104 110//105
f 8//5 1//8 105//102 110//105
f 111//106 9//6 8//5 110//105
f 109//104 112//107 111//106 110//105
f 107//108 108//109 113//110 114//111
f 109//104 106//103 107//108 114//111
f 115//112 112//107 109//104 114//111
f 113//110 116//113 115//112 114//111
f 117//114 118//115 119//116 120//117
f 121//118 122//119 117//114 120//117
f 59//120 58//121 121//118 120//117
f 119//116 60//122 59//120 120//117
f 123//123 122//119 121//118 124//124
f 10//10 15//15 123//123 124//124
f 125//125 11//11 10//10 124//124
f 121//118 58//121 125//125 124//124
f 111//106 112//107 126//126 127//127
f 32//32 9//6 111//106 127//127
f 128//128 33//33 32//32 127//127
f 126//126 129//129 128//128 127//127
f 115//112 116//113 130//130 131//131
f 126//126 112//107 115//112 131//131
f 132//132 129//129 126//126 131//131
f 130//130 104//101 132//132 131//131
f 136//133 116//113 113//110 137//134
f 138//135 139//136 136//133 137//134
f 133//137 134//138 138//135 137//134
f 113//110 108//109 133//137 137//134
f 140//139 139//136 138//135 141//140
f 39//38 41//41 140//139 141//140
f 135//141 35//39 39//38 141//140
f 138//135 134//138 135//141 141//140
f 142//142 143//143 144//144 145//145
f 47//47 50//50 142//142 145//145
f 146//146 48//48 47//47 145//145
f 144//144 147//147 146//146 145//145
f 148//148 60//122 119//116 149//149
f 144//144 143//143 148//148 149//149
f 150//150 147//147 144//144 149//149
f 119//116 118//115 150//150 149//149
f 146//146 147//147 151//151 152//152
f 56//56 48//48 146//146 152//152
f 153//153 57//57 56//56 152//152
f 151//151 154//154 153//153 152//152
f 150//150 118//115 155//155 156//156
f 151//151 147//147 150//150 156//156
f 157//157 154//154 151//151 156//156
f 155//155 98//95 157//157 156//156
f 96//93 98//95 155//155 158//158
f 159//159 66//63 96//93 158//158
f 117//114 122//119 159//159 158//158
f 155//155 118//115 117//114 158//158
f 61//58 66//63 159//159 160//160
f 76//73 62//59 61//58 160//160
f 123//123 15//15 76//73 160//160
f 159//159 122//119 123//123 160//160
f 102//99 104//101 130//130 161//161
f 162//162 24//24 102//99 161//161
f 136//133 139//136 162//162 161//161
f 130//130 116//113 136//133 161//161
f 19//19 24//24 162//162 163//163
f 81//78 20//20 19//19 163//163
f 140//139 41//41 81//78 163//163
f 162//162 139//136 140//139 163//163
f 128//128 129//129 164//164 165//165
f 88//85 33//33 128//128 165//165
f 67//64 69//66 88//85 165//165
f 164//164 68//65 67//64 165//165
f 132//132 104//101 103//100 166//166
f 164//164 129//129 132//132 166//166
f 94//91 68//65 164//164 166//166
f 103//100 99//96 94//91 166//166
f 153//153 154//154 167//167 168//168
f 91//88 57//57 153//153 168//168
f 25//25 27//27 91//88 168//168
f 167//167 26//26 25//25 168//168
f 157//157 98//95 97//94 169//169
f 167//167 154//154 157//157 169//169
f 100//97 26//26 167//167 169//169
f 97//94 99//96 100//97 169//169
