# Blender v3.2.1 OBJ File: ''
# www.blender.org
mtllib depressor_septi_nasi.mtl
o Depressor_Septi_Nasi_uscle
v -0.024284 18.601622 1.381574
v -0.043351 18.617968 1.383094
v -0.045075 18.625378 1.380351
v -0.025111 18.608395 1.378147
v 0.000000 18.601631 1.376504
v 0.000000 18.595165 1.380410
v 0.000000 18.595528 1.384496
v -0.023088 18.600697 1.383384
v -0.040813 18.614441 1.382302
v -0.051985 18.641184 1.382996
v -0.047622 18.659855 1.383193
v -0.050728 18.668432 1.380559
v -0.054745 18.649275 1.380389
v -0.047812 18.634991 1.383503
v -0.042858 18.651752 1.386066
v -0.027701 18.662563 1.385598
v -0.029633 18.671198 1.383160
v -0.024724 18.654140 1.389069
v 0.000000 18.651739 1.390682
v 0.000000 18.659927 1.387353
v 0.000000 18.668484 1.385068
v -0.020261 18.819710 1.316133
v -0.021662 18.808077 1.312926
v -0.039834 18.809551 1.324101
v -0.037316 18.819031 1.325079
v -0.033877 18.824490 1.328698
v -0.018359 18.827847 1.321383
v 0.000000 18.828798 1.321067
v 0.000000 18.818903 1.315090
v 0.000000 18.806061 1.310576
v -0.047957 18.813765 1.347747
v -0.051025 18.805922 1.348224
v -0.049460 18.799765 1.376295
v -0.046608 18.806545 1.375105
v -0.042624 18.810846 1.374907
v -0.043715 18.818218 1.349377
v -0.027695 18.800001 1.398118
v -0.029363 18.793665 1.399317
v 0.000000 18.790628 1.409565
v 0.000000 18.796898 1.408538
v 0.000000 18.801023 1.406798
v -0.025356 18.804180 1.396778
v -0.023199 18.674084 1.349636
v -0.024561 18.650841 1.361883
v -0.044013 18.660942 1.359262
v -0.041974 18.683947 1.352126
v -0.040210 18.709963 1.346865
v -0.021965 18.700039 1.337043
v 0.000000 18.695381 1.334036
v 0.000000 18.670078 1.350948
v 0.000000 18.647312 1.365770
v -0.051901 18.697521 1.364843
v -0.053243 18.677143 1.366945
v -0.049163 18.690517 1.377718
v -0.048853 18.708166 1.379493
v -0.049066 18.728998 1.381890
v -0.051015 18.721102 1.364305
v -0.028702 18.709249 1.387785
v -0.028682 18.692139 1.384369
v 0.000000 18.690010 1.386663
v 0.000000 18.707399 1.390340
v 0.000000 18.727373 1.395441
v -0.029050 18.729198 1.392146
v -0.021713 18.732145 1.326401
v -0.021919 18.764063 1.318419
v 0.000000 18.761793 1.311818
v 0.000000 18.728548 1.320581
v -0.039879 18.739380 1.341210
v -0.040229 18.768103 1.335084
v -0.050949 18.746691 1.362357
v -0.051320 18.771139 1.358670
v -0.049282 18.751089 1.383067
v -0.049582 18.771687 1.382452
v -0.029236 18.749592 1.396561
v -0.029401 18.768253 1.399700
v 0.000000 18.747366 1.401505
v 0.000000 18.765543 1.406692
v -0.025201 18.626873 1.371485
v -0.045171 18.640562 1.370539
v 0.000000 18.621756 1.372956
v -0.054678 18.661161 1.373583
v -0.050515 18.677961 1.378404
v -0.029476 18.680256 1.382789
v 0.000000 18.677774 1.384872
v -0.022058 18.789450 1.313808
v 0.000000 18.787329 1.308984
v -0.040509 18.792034 1.328408
v -0.051746 18.791298 1.352912
v -0.050046 18.788029 1.379469
v -0.029688 18.783014 1.400232
v 0.000000 18.780071 1.409164
v 0.024284 18.601622 1.381574
v 0.025111 18.608395 1.378147
v 0.045075 18.625378 1.380351
v 0.043351 18.617968 1.383094
v 0.040813 18.614441 1.382302
v 0.023088 18.600697 1.383384
v 0.051985 18.641184 1.382996
v 0.054745 18.649275 1.380389
v 0.050728 18.668432 1.380559
v 0.047622 18.659855 1.383193
v 0.042858 18.651752 1.386066
v 0.047812 18.634991 1.383503
v 0.027701 18.662563 1.385598
v 0.024724 18.654140 1.389069
v 0.029633 18.671198 1.383160
v 0.020261 18.819710 1.316133
v 0.018359 18.827847 1.321383
v 0.033877 18.824490 1.328698
v 0.037316 18.819031 1.325079
v 0.039834 18.809551 1.324101
v 0.021662 18.808077 1.312926
v 0.047957 18.813765 1.347747
v 0.043715 18.818218 1.349377
v 0.042624 18.810846 1.374907
v 0.046608 18.806545 1.375105
v 0.049460 18.799765 1.376295
v 0.051025 18.805922 1.348224
v 0.027695 18.800001 1.398118
v 0.025356 18.804180 1.396778
v 0.029363 18.793665 1.399317
v 0.023199 18.674084 1.349636
v 0.021965 18.700039 1.337043
v 0.040210 18.709963 1.346865
v 0.041974 18.683947 1.352126
v 0.044013 18.660942 1.359262
v 0.024561 18.650841 1.361883
v 0.051901 18.697521 1.364843
v 0.051015 18.721102 1.364305
v 0.049066 18.728998 1.381890
v 0.048853 18.708166 1.379493
v 0.049163 18.690517 1.377718
v 0.053243 18.677143 1.366945
v 0.028702 18.709249 1.387785
v 0.029050 18.729198 1.392146
v 0.028682 18.692139 1.384369
v 0.021713 18.732145 1.326401
v 0.021919 18.764063 1.318419
v 0.040229 18.768103 1.335084
v 0.039879 18.739380 1.341210
v 0.050949 18.746691 1.362357
v 0.051320 18.771139 1.358670
v 0.049582 18.771687 1.382452
v 0.049282 18.751089 1.383067
v 0.029236 18.749592 1.396561
v 0.029401 18.768253 1.399700
v 0.025201 18.626873 1.371485
v 0.045171 18.640562 1.370539
v 0.054678 18.661161 1.373583
v 0.050515 18.677961 1.378404
v 0.029476 18.680256 1.382789
v 0.022058 18.789450 1.313808
v 0.040509 18.792034 1.328408
v 0.051746 18.791298 1.352912
v 0.050046 18.788029 1.379469
v 0.029688 18.783014 1.400232
vn -0.3573 -0.6626 -0.6582
vn -0.6308 -0.4636 -0.6222
vn -0.6599 -0.3979 -0.6374
vn -0.2602 -0.4011 -0.8783
vn 0.0000 -0.3767 -0.9263
vn 0.0000 -0.8505 -0.5260
vn 0.0000 -0.9990 -0.0452
vn -0.3777 -0.8284 -0.4137
vn -0.4505 -0.5404 -0.7106
vn -0.2772 0.0320 0.9603
vn -0.2907 0.1614 0.9431
vn -0.4751 0.1738 0.8626
vn -0.9816 -0.1264 0.1433
vn -0.9000 -0.3500 -0.2598
vn 0.0124 -0.0208 0.9997
vn -0.1630 -0.0033 0.9866
vn -0.2559 0.1499 0.9550
vn -0.0958 0.2903 0.9521
vn -0.1078 0.1678 0.9799
vn -0.0981 0.3298 0.9389
vn -0.0000 0.3752 0.9270
vn -0.0000 0.3187 0.9478
vn 0.0000 0.1473 0.9891
vn -0.2537 0.4399 -0.8615
vn -0.3314 0.1251 -0.9352
vn -0.7563 0.0992 -0.6466
vn -0.6755 0.4889 -0.5520
vn -0.6015 0.6629 -0.4458
vn -0.2282 0.5815 -0.7809
vn -0.0000 0.5309 -0.8474
vn 0.0000 0.4207 -0.9072
vn 0.0000 0.1648 -0.9863
vn -0.8527 0.5205 -0.0455
vn -0.9728 0.1771 -0.1495
vn -0.8726 0.2556 0.4163
vn -0.7520 0.5025 0.4266
vn -0.6675 0.6100 0.4271
vn -0.7449 0.6668 0.0214
vn -0.4734 0.3854 0.7921
vn -0.5151 0.1908 0.8356
vn -0.0000 0.1230 0.9924
vn 0.0000 0.3209 0.9471
vn 0.0000 0.4210 0.9070
vn -0.4383 0.4806 0.7595
vn -0.1866 -0.4171 -0.8895
vn -0.0752 -0.4061 -0.9108
vn -0.5143 -0.2907 -0.8068
vn -0.5913 -0.1940 -0.7827
vn -0.7130 -0.1417 -0.6867
vn -0.3630 -0.3320 -0.8707
vn -0.0000 -0.4234 -0.9060
vn -0.0000 -0.5021 -0.8648
vn 0.0000 -0.4167 -0.9090
vn -0.9757 -0.0109 -0.2188
vn -0.9771 -0.0300 -0.2108
vn -0.7322 0.0131 0.6810
vn -0.7725 -0.0680 0.6313
vn -0.8220 -0.0749 0.5645
vn -0.9781 -0.0191 -0.2072
vn -0.2408 -0.1823 0.9533
vn -0.1943 -0.1223 0.9733
vn 0.0000 -0.1686 0.9857
vn 0.0000 -0.2164 0.9763
vn 0.0000 -0.2420 0.9703
vn -0.3012 -0.1908 0.9343
vn -0.4680 -0.2417 -0.8500
vn -0.4841 -0.1862 -0.8550
vn -0.0000 -0.1976 -0.9803
vn -0.0000 -0.2984 -0.9544
vn -0.7828 -0.1327 -0.6079
vn -0.7986 -0.1449 -0.5841
vn -0.9812 -0.0412 -0.1884
vn -0.9819 -0.0613 -0.1791
vn -0.8628 -0.0511 0.5029
vn -0.8916 -0.0088 0.4527
vn -0.3805 -0.1638 0.9101
vn -0.4564 -0.0861 0.8856
vn -0.0000 -0.2369 0.9715
vn -0.0000 -0.1638 0.9865
vn -0.1347 -0.3562 -0.9247
vn -0.5564 -0.3628 -0.7476
vn -0.0000 -0.2889 -0.9574
vn -0.9872 -0.0655 -0.1456
vn -0.6725 0.1258 0.7293
vn -0.1470 0.0048 0.9891
vn 0.0000 -0.0522 0.9986
vn -0.4275 -0.1012 -0.8984
vn -0.0000 -0.0616 -0.9981
vn -0.7815 -0.1241 -0.6115
vn -0.9829 -0.0381 -0.1803
vn -0.9052 0.0694 0.4192
vn -0.5062 0.0319 0.8618
vn -0.0000 -0.0382 0.9993
vn 0.3573 -0.6626 -0.6583
vn 0.2602 -0.4011 -0.8783
vn 0.6599 -0.3979 -0.6374
vn 0.6308 -0.4636 -0.6222
vn 0.4506 -0.5405 -0.7105
vn 0.3777 -0.8284 -0.4137
vn 0.9001 -0.3500 -0.2596
vn 0.9816 -0.1264 0.1433
vn 0.2772 0.0320 0.9603
vn 0.4751 0.1738 0.8626
vn 0.2907 0.1614 0.9431
vn 0.2559 0.1499 0.9550
vn 0.1631 -0.0033 0.9866
vn -0.0124 -0.0208 0.9997
vn 0.0958 0.2903 0.9521
vn 0.0981 0.3298 0.9389
vn 0.1078 0.1678 0.9799
vn 0.2538 0.4399 -0.8615
vn 0.2282 0.5815 -0.7809
vn 0.6015 0.6629 -0.4458
vn 0.6755 0.4889 -0.5519
vn 0.7563 0.0992 -0.6466
vn 0.3314 0.1251 -0.9352
vn 0.8527 0.5205 -0.0456
vn 0.7449 0.6668 0.0214
vn 0.6675 0.6100 0.4271
vn 0.7520 0.5025 0.4266
vn 0.8726 0.2556 0.4163
vn 0.9728 0.1771 -0.1495
vn 0.4734 0.3854 0.7921
vn 0.4383 0.4807 0.7595
vn 0.5151 0.1908 0.8356
vn 0.1866 -0.4171 -0.8895
vn 0.3629 -0.3320 -0.8707
vn 0.7129 -0.1417 -0.6868
vn 0.5915 -0.1939 -0.7827
vn 0.5143 -0.2907 -0.8068
vn 0.0752 -0.4061 -0.9107
vn 0.9757 -0.0109 -0.2188
vn 0.9781 -0.0190 -0.2072
vn 0.8220 -0.0749 0.5645
vn 0.7725 -0.0680 0.6313
vn 0.7322 0.0131 0.6810
vn 0.9771 -0.0300 -0.2107
vn 0.2407 -0.1823 0.9533
vn 0.3012 -0.1908 0.9343
vn 0.1943 -0.1222 0.9733
vn 0.4680 -0.2417 -0.8500
vn 0.4841 -0.1862 -0.8550
vn 0.7986 -0.1449 -0.5841
vn 0.7828 -0.1327 -0.6079
vn 0.9812 -0.0412 -0.1884
vn 0.9819 -0.0613 -0.1791
vn 0.8916 -0.0087 0.4528
vn 0.8629 -0.0511 0.5029
vn 0.3805 -0.1638 0.9101
vn 0.4563 -0.0861 0.8856
vn 0.1347 -0.3562 -0.9247
vn 0.5564 -0.3628 -0.7476
vn 0.9872 -0.0655 -0.1455
vn 0.6726 0.1258 0.7293
vn 0.1469 0.0049 0.9891
vn 0.4275 -0.1012 -0.8984
vn 0.7815 -0.1241 -0.6115
vn 0.9829 -0.0382 -0.1803
vn 0.9052 0.0694 0.4192
vn 0.5062 0.0319 0.8618
usemtl material1431.003
s 1
f 1//1 2//2 3//3 4//4
f 1//1 4//4 5//5 6//6
f 1//1 6//6 7//7 8//8
f 1//1 8//8 9//9 2//2
f 10//10 11//11 12//12 13//13
f 10//14 13//13 3//3 2//2
f 10//10 2//15 9//15 14//16
f 10//10 14//16 15//17 11//11
f 16//18 17//19 12//12 11//11
f 16//18 11//11 15//17 18//20
f 16//18 18//20 19//21 20//22
f 16//18 20//22 21//23 17//19
f 22//24 23//25 24//26 25//27
f 22//24 25//27 26//28 27//29
f 22//24 27//29 28//30 29//31
f 22//24 29//31 30//32 23//25
f 31//33 32//34 33//35 34//36
f 31//33 34//36 35//37 36//38
f 31//33 36//38 26//28 25//27
f 31//33 25//27 24//26 32//34
f 37//39 38//40 39//41 40//42
f 37//39 40//42 41//43 42//44
f 37//39 42//44 35//37 34//36
f 37//39 34//36 33//35 38//40
f 43//45 44//46 45//47 46//48
f 43//45 46//48 47//49 48//50
f 43//45 48//50 49//51 50//52
f 43//45 50//52 51//53 44//46
f 52//54 53//55 54//56 55//57
f 52//54 55//57 56//58 57//59
f 52//54 57//59 47//49 46//48
f 52//54 46//48 45//47 53//55
f 58//60 59//61 60//62 61//63
f 58//60 61//63 62//64 63//65
f 58//60 63//65 56//58 55//57
f 58//60 55//57 54//56 59//61
f 64//66 65//67 66//68 67//69
f 64//66 67//69 49//51 48//50
f 64//66 48//50 47//49 68//70
f 64//66 68//70 69//71 65//67
f 70//72 71//73 69//71 68//70
f 70//72 68//70 47//49 57//59
f 70//72 57//59 56//58 72//74
f 70//72 72//74 73//75 71//73
f 74//76 75//77 73//75 72//74
f 74//76 72//74 56//58 63//65
f 74//76 63//65 62//64 76//78
f 74//76 76//78 77//79 75//77
f 78//80 4//4 3//3 79//81
f 78//80 79//81 45//47 44//46
f 78//80 44//46 51//53 80//82
f 78//80 80//82 5//5 4//4
f 81//83 13//13 12//12 82//84
f 81//83 82//84 54//56 53//55
f 81//83 53//55 45//47 79//81
f 81//83 79//81 3//3 13//13
f 83//85 17//19 21//23 84//86
f 83//85 84//86 60//62 59//61
f 83//85 59//61 54//56 82//84
f 83//85 82//84 12//12 17//19
f 85//87 23//25 30//32 86//88
f 85//87 86//88 66//68 65//67
f 85//87 65//67 69//71 87//89
f 85//87 87//89 24//26 23//25
f 88//90 32//34 24//26 87//89
f 88//90 87//89 69//71 71//73
f 88//90 71//73 73//75 89//91
f 88//90 89//91 33//35 32//34
f 90//92 38//40 33//35 89//91
f 90//92 89//91 73//75 75//77
f 90//92 75//77 77//79 91//93
f 90//92 91//93 39//41 38//40
f 92//94 6//6 5//5 93//95
f 92//94 93//95 94//96 95//97
f 92//94 95//97 96//98 97//99
f 92//94 97//99 7//7 6//6
f 98//100 95//97 94//96 99//101
f 98//102 99//101 100//103 101//104
f 98//102 101//104 102//105 103//106
f 98//102 103//106 96//107 95//107
f 104//108 105//109 102//105 101//104
f 104//108 101//104 100//103 106//110
f 104//108 106//110 21//23 20//22
f 104//108 20//22 19//21 105//109
f 107//111 108//112 109//113 110//114
f 107//111 110//114 111//115 112//116
f 107//111 112//116 30//32 29//31
f 107//111 29//31 28//30 108//112
f 113//117 114//118 115//119 116//120
f 113//117 116//120 117//121 118//122
f 113//117 118//122 111//115 110//114
f 113//117 110//114 109//113 114//118
f 119//123 120//124 41//43 40//42
f 119//123 40//42 39//41 121//125
f 119//123 121//125 117//121 116//120
f 119//123 116//120 115//119 120//124
f 122//126 123//127 124//128 125//129
f 122//126 125//129 126//130 127//131
f 122//126 127//131 51//53 50//52
f 122//126 50//52 49//51 123//127
f 128//132 129//133 130//134 131//135
f 128//132 131//135 132//136 133//137
f 128//132 133//137 126//130 125//129
f 128//132 125//129 124//128 129//133
f 134//138 135//139 62//64 61//63
f 134//138 61//63 60//62 136//140
f 134//138 136//140 132//136 131//135
f 134//138 131//135 130//134 135//139
f 137//141 123//127 49//51 67//69
f 137//141 67//69 66//68 138//142
f 137//141 138//142 139//143 140//144
f 137//141 140//144 124//128 123//127
f 141//145 129//133 124//128 140//144
f 141//145 140//144 139//143 142//146
f 141//145 142//146 143//147 144//148
f 141//145 144//148 130//134 129//133
f 145//149 135//139 130//134 144//148
f 145//149 144//148 143//147 146//150
f 145//149 146//150 77//79 76//78
f 145//149 76//78 62//64 135//139
f 147//151 127//131 126//130 148//152
f 147//151 148//152 94//96 93//95
f 147//151 93//95 5//5 80//82
f 147//151 80//82 51//53 127//131
f 149//153 133//137 132//136 150//154
f 149//153 150//154 100//103 99//101
f 149//153 99//101 94//96 148//152
f 149//153 148//152 126//130 133//137
f 151//155 136//140 60//62 84//86
f 151//155 84//86 21//23 106//110
f 151//155 106//110 100//103 150//154
f 151//155 150//154 132//136 136//140
f 152//156 138//142 66//68 86//88
f 152//156 86//88 30//32 112//116
f 152//156 112//116 111//115 153//157
f 152//156 153//157 139//143 138//142
f 154//158 142//146 139//143 153//157
f 154//158 153//157 111//115 118//122
f 154//158 118//122 117//121 155//159
f 154//158 155//159 143//147 142//146
f 156//160 146//150 143//147 155//159
f 156//160 155//159 117//121 121//125
f 156//160 121//125 39//41 91//93
f 156//160 91//93 77//79 146//150
