# Blender v3.2.1 OBJ File: ''
# www.blender.org
mtllib hyoglossus_right.mtl
o Hyoglossus_Muscle_Right
v -0.203148 18.372440 0.734985
v -0.199890 18.376202 0.722222
v -0.223382 18.398029 0.751142
v -0.224847 18.395590 0.764229
v -0.233086 18.392010 0.761249
v -0.211574 18.369530 0.733677
v -0.236778 18.416874 0.788070
v -0.244141 18.412886 0.783361
v -0.237647 18.418121 0.774941
v -0.324467 18.541267 0.484870
v -0.350266 18.560680 0.490487
v -0.368748 18.585590 0.468363
v -0.340807 18.564884 0.462589
v -0.308449 18.544518 0.454639
v -0.295884 18.522455 0.477918
v -0.351746 18.583918 0.446671
v -0.315477 18.563097 0.437460
v -0.382532 18.604841 0.453104
v -0.122005 18.337713 0.629505
v -0.120376 18.328150 0.648888
v -0.110021 18.313995 0.634943
v -0.114512 18.322004 0.616738
v -0.125000 18.332527 0.595521
v -0.129898 18.350475 0.607471
v -0.122305 18.308710 0.613852
v -0.136209 18.314804 0.592476
v -0.113272 18.304138 0.631112
v -0.136809 18.321621 0.615957
v -0.145964 18.304110 0.603192
v -0.133546 18.296379 0.624857
v -0.126769 18.310875 0.634169
v -0.135895 18.327232 0.650611
v -0.144647 18.338814 0.633102
v -0.119562 18.305691 0.645443
v -0.130314 18.320660 0.660771
v -0.122852 18.294827 0.639658
v -0.261733 18.504847 0.468297
v -0.267257 18.524824 0.442334
v -0.226748 18.507076 0.426829
v -0.227721 18.488653 0.455854
v -0.268244 18.542480 0.422692
v -0.223084 18.523563 0.404431
v -0.124144 18.321714 0.659753
v -0.157944 18.350895 0.683059
v -0.161913 18.345564 0.694936
v -0.169151 18.343842 0.695183
v -0.112842 18.307644 0.645107
v -0.114774 18.298462 0.640728
v -0.271535 18.563414 0.449989
v -0.286246 18.576145 0.432974
v -0.330347 18.594021 0.444489
v -0.314505 18.579336 0.460521
v -0.300438 18.556887 0.483433
v -0.261203 18.542837 0.474247
v -0.357580 18.594063 0.468756
v -0.340380 18.569576 0.490653
v -0.373166 18.610910 0.453357
v -0.193036 18.507839 0.384739
v -0.196439 18.492537 0.409279
v -0.199557 18.474091 0.440437
v -0.171230 18.479603 0.390706
v -0.174315 18.460342 0.423532
v -0.170544 18.493711 0.364331
v -0.211974 18.534367 0.393781
v -0.199934 18.536209 0.397569
v -0.176888 18.517632 0.380691
v -0.185057 18.517061 0.374707
v -0.166633 18.501020 0.355726
v -0.162141 18.499804 0.364673
v -0.174408 18.488956 0.434835
v -0.162551 18.469975 0.423621
v -0.159716 18.488342 0.390955
v -0.172916 18.506968 0.404197
v -0.193481 18.525814 0.418484
v -0.192579 18.507727 0.447015
v -0.223380 18.526068 0.461130
v -0.228774 18.545101 0.434863
v -0.239581 18.556295 0.416165
v -0.241890 18.400763 0.694650
v -0.263549 18.414042 0.713404
v -0.248920 18.415176 0.747406
v -0.231172 18.398190 0.725927
v -0.204523 18.379713 0.699215
v -0.212341 18.386148 0.670918
v -0.167011 18.368868 0.637231
v -0.160072 18.358252 0.662036
v -0.213925 18.383509 0.607999
v -0.254608 18.396395 0.627386
v -0.265436 18.414692 0.601907
v -0.227194 18.403727 0.583068
v -0.192937 18.391857 0.564250
v -0.178055 18.370136 0.588720
v -0.239428 18.425699 0.560776
v -0.206588 18.414860 0.542782
v -0.275237 18.435139 0.578226
v -0.278888 18.410456 0.643174
v -0.294966 18.425104 0.657162
v -0.305737 18.442064 0.628732
v -0.289205 18.427834 0.616405
v -0.298222 18.447863 0.590879
v -0.314794 18.462227 0.601134
v -0.382745 18.613892 0.448121
v -0.345510 18.594589 0.440255
v -0.304485 18.574839 0.429518
v -0.255878 18.554195 0.413039
v -0.290265 18.500271 0.504164
v -0.287214 18.478174 0.530727
v -0.308441 18.492601 0.537442
v -0.314500 18.516844 0.510373
v -0.335964 18.534649 0.516063
v -0.325914 18.508839 0.543826
v -0.282351 18.456383 0.554957
v -0.303825 18.469530 0.564418
v -0.320189 18.484591 0.572508
v -0.149323 18.325048 0.570515
v -0.160777 18.339520 0.548509
v -0.156236 18.363514 0.557946
v -0.140172 18.346420 0.576326
v -0.144922 18.366497 0.588651
v -0.162339 18.385290 0.571313
v -0.169705 18.358292 0.526996
v -0.176952 18.379622 0.507524
v -0.179820 18.404739 0.520920
v -0.169399 18.383636 0.539175
v -0.177411 18.406372 0.553720
v -0.189492 18.427423 0.535847
v -0.192513 18.397932 0.528497
v -0.181127 18.376007 0.549815
v -0.168212 18.354620 0.573260
v -0.180539 18.358168 0.537572
v -0.171383 18.338032 0.559709
v -0.187822 18.377964 0.516067
v -0.160329 18.352785 0.612071
v -0.152032 18.336348 0.595481
v -0.159217 18.319002 0.581529
v -0.230762 18.472042 0.486382
v -0.230262 18.455193 0.512536
v -0.258477 18.467367 0.523347
v -0.260488 18.486162 0.496915
v -0.220617 18.436050 0.528441
v -0.250656 18.447063 0.542752
v -0.222444 18.368567 0.714469
v -0.245615 18.388433 0.738264
v -0.258895 18.388725 0.705545
v -0.233983 18.371834 0.685785
v -0.257564 18.407610 0.757379
v -0.272508 18.405832 0.721796
v -0.244413 18.381611 0.656052
v -0.269385 18.396744 0.673368
v -0.284432 18.412346 0.688287
v -0.176829 18.347315 0.681314
v -0.186469 18.355373 0.659008
v -0.199592 18.367414 0.633941
v -0.309748 18.493727 0.569716
v -0.304489 18.471333 0.597250
v -0.273670 18.465986 0.585302
v -0.279076 18.487209 0.560092
v -0.283857 18.509289 0.534177
v -0.315391 18.517885 0.542042
v -0.249016 18.478209 0.548632
v -0.253087 18.498476 0.524553
v -0.243035 18.458130 0.571462
v -0.325959 18.543676 0.515385
v -0.290600 18.533026 0.508304
v -0.256102 18.520605 0.499430
v -0.185422 18.437590 0.451491
v -0.195217 18.414936 0.475416
v -0.210601 18.436653 0.495526
v -0.206681 18.455439 0.470319
v -0.194366 18.395973 0.496145
v -0.204109 18.417816 0.512660
v -0.212769 18.445248 0.553836
v -0.202060 18.423885 0.572997
v -0.189734 18.402634 0.592537
v -0.234291 18.436569 0.592835
v -0.225315 18.415949 0.615520
v -0.177475 18.383978 0.614007
v -0.218634 18.398685 0.642284
v -0.197937 18.446136 0.517668
v -0.187659 18.424768 0.504089
v -0.189675 18.445192 0.485560
v -0.201065 18.464994 0.497496
v -0.183364 18.401768 0.491638
v -0.183981 18.424610 0.474613
v -0.197193 18.486488 0.473649
v -0.182626 18.467478 0.462216
v -0.173842 18.448038 0.451724
v -0.223846 18.483234 0.511410
v -0.223325 18.504646 0.486966
v -0.220179 18.464233 0.533503
v -0.255978 18.425644 0.634160
v -0.249208 18.410437 0.663375
v -0.274488 18.420713 0.680873
v -0.284182 18.433531 0.650629
v -0.265051 18.444813 0.609064
v -0.295075 18.450836 0.623488
vn 0.7852 0.5157 0.3429
vn 0.6960 0.6934 0.1864
vn 0.7439 0.6683 0.0064
vn 0.8610 0.4765 0.1777
vn -0.2187 -0.8036 0.5536
vn -0.1390 -0.8636 0.4846
vn 0.1407 -0.7291 0.6698
vn 0.0657 -0.7325 0.6776
vn 0.0193 -0.7319 0.6812
vn -0.2707 -0.7709 0.5766
vn 0.7546 0.6509 -0.0838
vn 0.8831 0.4613 0.0850
vn -0.5943 -0.7089 -0.3799
vn -0.6189 -0.7050 -0.3463
vn -0.5972 -0.7167 -0.3600
vn -0.5747 -0.7151 -0.3980
vn -0.5209 -0.7118 -0.4712
vn -0.5315 -0.7239 -0.4398
vn -0.4942 -0.5337 -0.6862
vn -0.4658 -0.4957 -0.7330
vn -0.5113 -0.5605 -0.6515
vn 0.7741 0.6252 0.0994
vn 0.8103 0.4917 0.3188
vn 0.9988 0.0399 0.0298
vn 0.9512 0.0737 -0.2998
vn 0.8831 0.0755 -0.4630
vn 0.7659 0.6429 -0.0112
vn 0.8061 -0.3188 -0.4985
vn 0.7410 -0.2934 -0.6040
vn 0.9359 -0.2902 -0.1997
vn -0.8872 -0.2839 0.3637
vn -0.8470 0.0220 0.5312
vn -0.8411 0.0312 0.5400
vn -0.8883 -0.2934 0.3534
vn -0.6791 -0.7340 -0.0059
vn -0.6761 -0.7365 -0.0231
vn -0.8646 -0.3383 0.3716
vn -0.6608 -0.7500 0.0276
vn -0.8254 -0.0084 0.5645
vn -0.5007 -0.7318 -0.4624
vn -0.4974 -0.7010 -0.5110
vn -0.5546 -0.6669 -0.4976
vn -0.5635 -0.6865 -0.4594
vn -0.4785 -0.4806 -0.7349
vn -0.5722 -0.4440 -0.6895
vn 0.8131 0.3564 0.4603
vn 0.6813 0.6557 0.3256
vn 0.7366 0.5021 0.4531
vn -0.1462 -0.9022 0.4058
vn 0.2157 -0.6517 0.7271
vn 0.2157 -0.6518 0.7271
vn 0.1889 -0.7077 0.6808
vn 0.1806 -0.5473 0.8172
vn 0.9695 -0.0187 0.2443
vn 0.9596 -0.2786 0.0403
vn 0.1367 -0.4761 0.8687
vn 0.4403 0.8134 0.3802
vn 0.4337 0.8541 0.2870
vn 0.3535 0.9295 -0.1051
vn 0.3895 0.8024 0.4522
vn 0.3729 0.7511 0.5447
vn 0.4484 0.7361 0.5069
vn 0.3701 0.7885 0.4912
vn 0.3462 0.7502 0.5633
vn 0.3770 0.9262 -0.0059
vn -0.6897 -0.4102 -0.5967
vn -0.6317 -0.6313 -0.4499
vn -0.6507 -0.5920 -0.4756
vn -0.6601 -0.6219 -0.4213
vn -0.6828 -0.5406 -0.4915
vn -0.7363 -0.4086 -0.5393
vn 0.1169 0.7805 -0.6141
vn 0.4198 0.8748 -0.2420
vn 0.5981 0.7828 -0.1718
vn 0.3223 0.8244 -0.4654
vn -0.5501 -0.2286 -0.8032
vn -0.6890 -0.1851 -0.7008
vn -0.7481 -0.1814 -0.6383
vn 0.6869 0.7170 -0.1185
vn 0.4589 0.8150 -0.3538
vn 0.8320 0.3854 0.3989
vn 0.8755 0.3015 0.3776
vn 0.8586 0.4678 0.2098
vn 0.8036 0.5478 0.2325
vn 0.6562 0.6987 0.2851
vn 0.6997 0.5584 0.4457
vn 0.5532 0.6820 0.4784
vn 0.5178 0.7889 0.3308
vn 0.3205 0.9112 -0.2590
vn 0.5009 0.8652 0.0208
vn 0.4944 0.8681 -0.0453
vn 0.5263 0.8244 -0.2081
vn 0.5300 0.8379 -0.1308
vn 0.5268 0.8491 0.0392
vn 0.5006 0.8528 0.1485
vn 0.5383 0.8152 0.2138
vn 0.5656 0.8048 0.1800
vn -0.4532 -0.8239 -0.3404
vn -0.5145 -0.8064 -0.2917
vn -0.5243 -0.7613 -0.3816
vn -0.4691 -0.7696 -0.4332
vn -0.6863 -0.6827 -0.2507
vn -0.6751 -0.7241 -0.1411
vn -0.4727 -0.7250 -0.5010
vn -0.6790 -0.6651 -0.3108
vn -0.5254 -0.7187 -0.4554
vn -0.6619 -0.7308 -0.1668
vn -0.7225 -0.6836 -0.1038
vn -0.7226 -0.6632 -0.1951
vn -0.6646 -0.7020 -0.2562
vn -0.6669 -0.6619 -0.3422
vn -0.7251 -0.6247 -0.2898
vn 0.2910 0.8483 -0.4424
vn 0.2184 0.7936 -0.5678
vn -0.3940 -0.3668 -0.8427
vn -0.3848 -0.3231 -0.8646
vn -0.3869 -0.2702 -0.8817
vn 0.1012 0.7188 -0.6878
vn 0.1013 0.7188 -0.6878
vn -0.4352 -0.2648 -0.8605
vn 0.0596 0.7323 -0.6784
vn -0.5228 -0.7034 -0.4815
vn -0.5132 -0.6923 -0.5072
vn -0.6432 -0.6379 -0.4235
vn -0.6152 -0.6673 -0.4197
vn -0.6503 -0.6585 -0.3788
vn -0.6920 -0.6150 -0.3779
vn -0.5178 -0.6926 -0.5022
vn -0.6617 -0.6334 -0.4012
vn -0.7179 -0.5987 -0.3552
vn 0.7739 -0.1418 -0.6172
vn 0.8643 0.0221 -0.5024
vn 0.8859 0.2296 -0.4030
vn 0.8497 0.1517 -0.5049
vn 0.7690 0.6367 -0.0567
vn 0.7983 0.6021 -0.0108
vn 0.9341 0.1333 -0.3313
vn 0.9609 0.1970 -0.1946
vn 0.9455 0.3046 -0.1153
vn 0.9290 0.2776 -0.2448
vn 0.8258 0.5594 0.0722
vn 0.8347 0.5327 0.1394
vn -0.8928 -0.4505 0.0055
vn -0.9149 -0.3928 0.0929
vn -0.8993 -0.3700 0.2332
vn -0.9485 -0.2044 0.2421
vn -0.9106 -0.1369 0.3900
vn -0.9423 -0.3104 0.1255
vn -0.6573 -0.7526 -0.0389
vn -0.8703 -0.3429 0.3537
vn -0.8581 -0.0697 0.5087
vn -0.6042 -0.6548 -0.4541
vn -0.6452 -0.6366 -0.4224
vn -0.4665 -0.7155 -0.5200
vn -0.4859 -0.7296 -0.4812
vn -0.6677 -0.6496 -0.3635
vn -0.4663 -0.7028 -0.5372
vn -0.4301 -0.8906 0.1474
vn -0.5304 -0.7940 0.2970
vn -0.6108 -0.7827 0.1199
vn -0.4712 -0.8815 -0.0295
vn -0.5875 -0.7303 0.3487
vn -0.6753 -0.7145 0.1833
vn -0.4961 -0.8493 -0.1804
vn -0.6518 -0.7566 -0.0515
vn -0.7175 -0.6964 0.0130
vn -0.4520 -0.8912 -0.0388
vn -0.4389 -0.8851 -0.1547
vn -0.4336 -0.8683 -0.2409
vn 0.3418 0.7502 0.5659
vn 0.3545 0.7664 0.5358
vn 0.3953 0.7498 0.5306
vn 0.3833 0.7411 0.5512
vn 0.3815 0.7309 0.5659
vn 0.3422 0.7403 0.5787
vn 0.4973 0.7083 0.5010
vn 0.4898 0.6913 0.5312
vn 0.4997 0.7130 0.4919
vn 0.3410 0.7397 0.5802
vn 0.3738 0.7317 0.5700
vn 0.4674 0.6939 0.5478
vn -0.7750 -0.3695 -0.5127
vn -0.8796 -0.3345 -0.3382
vn -0.8300 -0.4430 -0.3390
vn -0.7388 -0.4732 -0.4799
vn -0.9263 -0.3724 -0.0573
vn -0.8697 -0.4777 -0.1240
vn 0.6413 0.6648 0.3832
vn 0.6257 0.6863 0.3709
vn 0.5954 0.7315 0.3323
vn 0.5080 0.7239 0.4668
vn 0.5132 0.7603 0.3983
vn 0.5589 0.7810 0.2786
vn 0.5108 0.8075 0.2950
vn 0.8351 0.4938 0.2425
vn 0.9570 0.2843 0.0574
vn 0.9228 0.2240 0.3136
vn 0.8020 0.4366 0.4076
vn 0.9816 0.1906 -0.0089
vn 0.9517 0.1291 0.2786
vn 0.7403 0.4452 0.5037
vn 0.8531 0.2422 0.4622
vn 0.8824 0.1494 0.4461
vn 0.6318 0.6043 0.4854
vn 0.5908 0.6075 0.5309
vn 0.6475 0.6421 0.4104
vn 0.4635 0.8054 0.3694
vn 0.4944 0.8402 0.2228
vn 0.4799 0.8594 0.1764
vn 0.4370 0.8319 0.3419
vn 0.4265 0.7702 0.4743
vn 0.3905 0.7958 0.4628
usemtl material1515.003
s 1
f 1//1 2//2 3//3 4//4
f 5//5 6//6 1//7 4//8
f 7//9 8//10 5//5 4//8
f 3//3 9//11 7//12 4//4
f 10//13 11//14 12//15 13//16
f 14//17 15//18 10//13 13//16
f 16//19 17//20 14//17 13//16
f 12//15 18//21 16//19 13//16
f 19//22 20//23 21//24 22//25
f 23//26 24//27 19//22 22//25
f 25//28 26//29 23//26 22//25
f 21//24 27//30 25//28 22//25
f 28//31 29//32 30//33 31//34
f 32//35 33//36 28//31 31//34
f 34//37 35//38 32//35 31//34
f 30//33 36//39 34//37 31//34
f 37//40 15//18 14//17 38//41
f 39//42 40//43 37//40 38//41
f 41//44 42//45 39//42 38//41
f 14//17 17//20 41//44 38//41
f 43//46 20//23 44//47 45//48
f 46//49 35//50 43//51 45//52
f 1//7 6//6 46//49 45//52
f 44//47 2//2 1//1 45//48
f 43//51 35//50 34//53 47//53
f 21//24 20//23 43//46 47//54
f 48//55 27//30 21//24 47//54
f 34//53 36//56 48//56 47//53
f 49//57 50//58 51//59 52//60
f 53//61 54//62 49//57 52//60
f 55//63 56//64 53//61 52//60
f 51//59 57//65 55//63 52//60
f 39//42 42//45 58//66 59//67
f 60//68 40//43 39//42 59//67
f 61//69 62//70 60//68 59//67
f 58//66 63//71 61//69 59//67
f 64//72 65//73 66//74 67//75
f 58//66 42//45 64//76 67//77
f 68//78 63//71 58//66 67//77
f 66//74 69//79 68//80 67//75
f 70//81 71//82 72//83 73//84
f 74//85 75//86 70//81 73//84
f 66//74 65//73 74//85 73//84
f 72//83 69//79 66//74 73//84
f 76//87 75//86 74//85 77//88
f 49//57 54//62 76//87 77//88
f 78//89 50//58 49//57 77//88
f 74//85 65//73 78//89 77//88
f 79//90 80//91 81//92 82//93
f 83//94 84//95 79//90 82//93
f 3//3 2//2 83//94 82//93
f 81//92 9//11 3//3 82//93
f 85//96 84//95 83//94 86//97
f 19//22 24//27 85//96 86//97
f 44//47 20//23 19//22 86//97
f 83//94 2//2 44//47 86//97
f 87//98 88//99 89//100 90//101
f 91//102 92//103 87//98 90//101
f 93//104 94//105 91//102 90//101
f 89//100 95//106 93//104 90//101
f 96//107 97//108 98//109 99//110
f 89//100 88//99 96//107 99//110
f 100//111 95//106 89//100 99//110
f 98//109 101//112 100//111 99//110
f 102//113 57//65 51//59 103//114
f 16//19 18//21 102//115 103//116
f 104//117 17//20 16//19 103//116
f 51//59 50//118 104//119 103//114
f 64//76 42//45 41//44 105//120
f 78//89 65//73 64//72 105//121
f 104//119 50//118 78//89 105//121
f 41//44 17//20 104//117 105//120
f 106//122 107//123 108//124 109//125
f 10//13 15//18 106//122 109//125
f 110//126 11//14 10//13 109//125
f 108//124 111//127 110//126 109//125
f 112//128 95//106 100//111 113//129
f 108//124 107//123 112//128 113//129
f 114//130 111//127 108//124 113//129
f 100//111 101//112 114//130 113//129
f 115//131 116//132 117//133 118//134
f 23//26 26//29 115//131 118//134
f 119//135 24//27 23//26 118//134
f 117//133 120//136 119//135 118//134
f 121//137 122//138 123//139 124//140
f 117//133 116//132 121//137 124//140
f 125//141 120//136 117//133 124//140
f 123//139 126//142 125//141 124//140
f 91//102 94//105 127//143 128//144
f 129//145 92//103 91//102 128//144
f 130//146 131//147 129//145 128//144
f 127//143 132//148 130//146 128//144
f 133//149 92//103 129//145 134//150
f 28//31 33//36 133//149 134//150
f 135//151 29//32 28//31 134//150
f 129//145 131//147 135//151 134//150
f 136//152 137//153 138//154 139//155
f 37//40 40//43 136//152 139//155
f 106//122 15//18 37//40 139//155
f 138//154 107//123 106//122 139//155
f 140//156 94//105 93//104 141//157
f 138//154 137//153 140//156 141//157
f 112//128 107//123 138//154 141//157
f 93//104 95//106 112//128 141//157
f 142//158 6//6 5//5 143//159
f 144//160 145//161 142//158 143//159
f 146//162 147//163 144//160 143//159
f 5//5 8//10 146//162 143//159
f 148//164 145//161 144//160 149//165
f 96//107 88//99 148//164 149//165
f 150//166 97//108 96//107 149//165
f 144//160 147//163 150//166 149//165
f 32//35 35//38 46//49 151//167
f 152//168 33//36 32//35 151//167
f 142//158 145//161 152//168 151//167
f 46//49 6//6 142//158 151//167
f 133//149 33//36 152//168 153//169
f 87//98 92//103 133//149 153//169
f 148//164 88//99 87//98 153//169
f 152//168 145//161 148//164 153//169
f 154//170 155//171 156//172 157//173
f 158//174 159//175 154//170 157//173
f 160//176 161//177 158//174 157//173
f 156//172 162//178 160//176 157//173
f 163//179 159//175 158//174 164//180
f 53//61 56//64 163//179 164//180
f 165//181 54//62 53//61 164//180
f 158//174 161//177 165//181 164//180
f 166//182 167//183 168//184 169//185
f 60//68 62//70 166//182 169//185
f 136//152 40//43 60//68 169//185
f 168//184 137//153 136//152 169//185
f 170//186 132//148 127//143 171//187
f 168//184 167//183 170//186 171//187
f 140//156 137//153 168//184 171//187
f 127//143 94//105 140//156 171//187
f 125//141 126//142 172//188 173//189
f 174//190 120//136 125//141 173//189
f 175//191 176//192 174//190 173//189
f 172//188 162//178 175//191 173//189
f 119//135 120//136 174//190 177//193
f 85//96 24//27 119//135 177//193
f 178//194 84//95 85//96 177//193
f 174//190 176//192 178//194 177//193
f 179//195 126//142 123//139 180//196
f 181//197 182//198 179//195 180//196
f 183//199 184//200 181//197 180//196
f 123//139 122//138 183//199 180//196
f 185//201 182//198 181//197 186//202
f 70//81 75//86 185//201 186//202
f 187//203 71//82 70//81 186//202
f 181//197 184//200 187//203 186//202
f 165//181 161//177 188//204 189//205
f 76//87 54//62 165//181 189//205
f 185//201 75//86 76//87 189//205
f 188//204 182//198 185//201 189//205
f 160//176 162//178 172//188 190//206
f 188//204 161//177 160//176 190//206
f 179//195 182//198 188//204 190//206
f 172//188 126//142 179//195 190//206
f 178//194 176//192 191//207 192//208
f 79//90 84//95 178//194 192//208
f 193//209 80//91 79//90 192//208
f 191//207 194//210 193//209 192//208
f 175//191 162//178 156//172 195//211
f 191//207 176//192 175//191 195//211
f 196//212 194//210 191//207 195//211
f 156//172 155//171 196//212 195//211
