# Blender v3.2.1 OBJ File: ''
# www.blender.org
mtllib muscle_3_right.mtl
o muscle_3_right_3DAnatomyModel_Torso.054
v 1.390261 -1.710419 -1.781814
v 1.281220 -1.805099 -1.764490
v 1.233272 -1.690454 -1.758371
v 1.339935 -1.585914 -1.786918
v 1.463726 -1.442841 -1.807592
v 1.512797 -1.572762 -1.790516
v 1.564791 -1.581666 -1.739045
v 1.466314 -1.712286 -1.743654
v 1.377117 -1.802131 -1.738662
v 1.597786 -1.508385 -1.642112
v 1.633226 -1.383335 -1.643556
v 1.683632 -1.134661 -1.547073
v 1.701785 -1.244051 -1.527297
v 1.719621 -1.340935 -1.508057
v 1.565486 -1.606415 -1.634096
v 1.769288 -0.593628 -1.280330
v 1.685395 -0.610628 -1.322129
v 1.701625 -0.702518 -1.353051
v 1.779013 -0.672215 -1.301569
v 1.878171 -0.635597 -1.229359
v 1.869605 -0.575562 -1.218703
v 1.780775 -0.528015 -1.284945
v 1.668410 -0.539181 -1.341122
v 1.888572 -0.523808 -1.219952
v 1.916636 -0.513411 -1.236571
v 1.797748 -0.520643 -1.315790
v 1.660895 -0.539663 -1.392367
v 1.326938 -0.629383 -1.458602
v 1.284379 -0.656866 -1.461361
v 1.480324 -0.674852 -1.337215
v 1.495969 -0.664474 -1.356679
v 1.520216 -0.652107 -1.376227
v 1.387585 -0.598694 -1.449884
v 1.284568 -0.656555 -1.548277
v 1.174142 -0.725315 -1.590061
v 1.091990 -0.786768 -1.623225
v 1.670474 -1.004917 -1.425464
v 1.669611 -0.952888 -1.477515
v 1.677406 -1.049110 -1.389369
v 2.131422 -0.487961 -1.044295
v 2.183335 -0.520670 -1.040105
v 2.081558 -0.539410 -1.151696
v 2.034934 -0.506134 -1.145211
v 2.164568 -0.726067 -1.042979
v 2.144421 -0.705965 -1.053810
v 2.037378 -0.738241 -1.154706
v 2.063660 -0.762043 -1.156295
v 2.091713 -0.762751 -1.161461
v 2.188088 -0.727669 -1.036875
v 2.089531 -0.494314 -1.046876
v 1.993463 -0.518627 -1.142953
v 1.966346 -0.556130 -1.145109
v 2.065570 -0.522892 -1.054127
v 2.128357 -0.666794 -1.068192
v 2.019452 -0.692514 -1.165843
v 1.877025 -0.948837 -1.450220
v 1.754653 -1.092670 -1.588309
v 1.736371 -1.006157 -1.587003
v 1.869028 -0.878216 -1.451695
v 1.995921 -0.765488 -1.308880
v 1.996653 -0.826117 -1.305945
v 1.987044 -0.862213 -1.294020
v 1.874384 -0.983389 -1.433769
v 1.764384 -1.125542 -1.566095
v 1.854786 -0.956961 -1.400326
v 1.758736 -1.067913 -1.515008
v 1.962772 -0.850452 -1.271823
v 1.937984 -0.811832 -1.253324
v 1.832689 -0.899725 -1.370046
v 1.747345 -0.974806 -1.465940
v 1.258303 -1.335316 -1.784268
v 1.375306 -1.193485 -1.783857
v 1.165009 -1.448051 -1.771165
v 1.162945 -1.022724 -1.721568
v 1.290864 -0.899746 -1.678448
v 1.065383 -1.127808 -1.751166
v 1.819637 -0.816437 -1.362554
v 1.923784 -0.746532 -1.254264
v 1.736497 -0.873039 -1.446723
v 1.801975 -0.739620 -1.339968
v 1.904973 -0.683756 -1.245913
v 1.719319 -0.784864 -1.411134
v 1.679716 -0.806736 -1.434662
v 1.695955 -0.904327 -1.475719
v 1.660926 -0.719517 -1.374657
v 1.621832 -0.624939 -1.347888
v 2.223050 -0.597769 -1.030346
v 2.114727 -0.607945 -1.158498
v 2.224938 -0.654614 -1.042884
v 2.120047 -0.670187 -1.164964
v 2.209967 -0.697756 -1.040358
v 2.110649 -0.723839 -1.164732
v 1.971070 -0.604523 -1.152448
v 2.077540 -0.573978 -1.061660
v 1.997355 -0.642027 -1.164392
v 2.106837 -0.617045 -1.071067
v 1.949084 -0.577580 -1.271375
v 1.817729 -0.618763 -1.378110
v 1.676854 -0.670263 -1.473728
v 1.982904 -0.674824 -1.298910
v 1.849115 -0.756062 -1.429848
v 1.706927 -0.850763 -1.551342
v 1.671846 -1.296976 -1.670876
v 1.641598 -1.271673 -1.707434
v 1.606696 -1.165712 -1.710307
v 1.585535 -1.420237 -1.762946
v 1.624988 -1.437525 -1.714944
v 1.541844 -1.299137 -1.775614
v 1.701309 -1.031515 -1.513847
v 1.691888 -1.184566 -1.591557
v 1.661763 -1.276400 -1.625381
v 1.685228 -1.070879 -1.538152
v 1.466091 -0.574638 -1.424918
v 1.550886 -0.556532 -1.391801
v 1.500433 -0.573784 -1.468943
v 1.392668 -0.607944 -1.509988
v 1.568154 -0.638065 -1.367958
v 1.679012 -0.922955 -1.487468
v 1.469828 -1.072334 -1.738853
v 1.558249 -0.970320 -1.668377
v 1.407175 -0.809513 -1.626027
v 1.517092 -0.742836 -1.567364
v 1.658987 -0.819313 -1.441320
v 1.636988 -0.828793 -1.425832
v 1.611653 -0.831551 -1.369418
v 1.594429 -0.829962 -1.329019
v 1.633229 -0.730938 -1.376820
v 1.604910 -0.739239 -1.363999
v 1.579520 -0.739885 -1.329238
v 1.560418 -0.739525 -1.304813
v 2.222861 -0.664223 -1.003699
v 2.187669 -0.657505 -1.018520
v 2.198702 -0.692318 -1.005095
v 2.213606 -0.708729 -0.991513
v 2.231846 -0.711363 -0.982748
v 2.257406 -0.672697 -0.989011
v 2.139689 -0.489876 -1.001564
v 2.118911 -0.508143 -1.009016
v 2.137761 -0.558333 -1.015699
v 2.179821 -0.539990 -1.003668
v 2.220568 -0.519556 -0.991587
v 2.171425 -0.483727 -0.997724
v 2.168960 -0.606627 -1.022037
v 2.216005 -0.603504 -0.999031
v 2.262620 -0.600304 -0.976104
v 1.488792 -1.473637 -1.643998
v 1.663480 -1.219233 -1.528437
v 1.608926 -1.053095 -1.509331
v 1.444595 -1.332083 -1.643690
v 1.272666 -1.616888 -1.749375
v 1.311990 -1.733955 -1.741261
v 1.382856 -1.738562 -1.711465
v 1.525709 -1.587516 -1.636271
v 1.652191 -1.383074 -1.556448
v 1.255726 -0.755339 -1.501827
v 1.116349 -0.820513 -1.610273
v 1.110245 -1.114338 -1.714808
v 1.298698 -0.959747 -1.564238
v 1.485578 -0.802567 -1.403052
v 1.401381 -0.710516 -1.395376
v 1.207242 -1.395927 -1.740790
v 1.381024 -1.149109 -1.609745
v 1.548890 -0.904816 -1.458130
v 1.720164 -1.142233 -1.448613
v 1.652259 -0.968874 -1.405956
v 1.717073 -1.367208 -1.518589
v 1.596767 -0.826408 -1.361572
v 1.550961 -0.744789 -1.322998
v 1.458194 -0.682934 -1.345735
v 1.260134 -0.671299 -1.468455
v 1.068707 -0.813467 -1.635655
v 1.040146 -1.164352 -1.763013
v 1.141613 -1.481915 -1.775635
v 1.206537 -1.718561 -1.766729
v 1.248964 -1.828693 -1.766199
v 1.344759 -1.823946 -1.733953
v 1.546367 -1.632282 -1.632560
vn 0.1703 -0.2681 -0.9482
vn 0.1431 -0.2308 -0.9624
vn 0.0107 -0.0088 -0.9999
vn -0.1029 -0.0493 -0.9935
vn 0.0981 0.0299 -0.9947
vn 0.4029 -0.1827 -0.8968
vn 0.8458 -0.4030 -0.3495
vn 0.6990 -0.5197 -0.4913
vn 0.5938 -0.6136 -0.5204
vn 0.8964 -0.3274 -0.2988
vn 0.9575 -0.2859 -0.0372
vn 0.9972 -0.0725 0.0161
vn 0.9632 0.0063 -0.2687
vn 0.7167 0.0025 -0.6974
vn 0.8319 -0.4398 -0.3384
vn -0.4812 -0.0690 0.8739
vn -0.4026 -0.1037 0.9095
vn -0.2954 -0.4668 0.8336
vn -0.4008 -0.4248 0.8117
vn -0.4766 -0.3800 0.7928
vn -0.5631 0.0048 0.8264
vn -0.4003 0.6906 0.6023
vn -0.3774 0.7272 0.5733
vn -0.4407 0.6837 0.5817
vn 0.1348 0.9501 -0.2812
vn 0.1310 0.9204 -0.3685
vn 0.0864 0.8822 -0.4629
vn -0.4339 0.8164 0.3810
vn -0.5438 0.6979 0.4661
vn -0.2552 0.4684 0.8459
vn 0.1079 0.7387 0.6653
vn -0.0110 0.4618 0.8869
vn -0.4022 0.8156 0.4159
vn -0.2261 0.7893 -0.5708
vn -0.3523 0.7619 -0.5435
vn -0.4326 0.7391 -0.5163
vn 0.9754 0.1781 0.1299
vn 0.9298 0.0160 0.3678
vn -0.5861 -0.0138 -0.8101
vn 0.1667 0.9501 -0.2635
vn 0.6276 0.5266 -0.5734
vn 0.5473 0.5201 -0.6557
vn 0.1258 0.9526 -0.2768
vn -0.4260 -0.6585 0.6204
vn -0.6515 -0.1540 0.7428
vn -0.5810 -0.2957 0.7583
vn -0.2388 -0.7442 0.6238
vn 0.5213 -0.8533 0.0107
vn 0.3796 -0.9250 -0.0180
vn -0.4849 0.7931 0.3686
vn -0.4903 0.7494 0.4449
vn -0.6473 0.0861 0.7573
vn -0.6648 0.0966 0.7408
vn -0.6377 -0.1125 0.7621
vn -0.6258 -0.1698 0.7613
vn 0.7962 -0.0977 -0.5971
vn 0.7358 -0.0026 -0.6771
vn 0.5622 0.2048 -0.8012
vn 0.6512 0.1536 -0.7432
vn 0.7206 0.0804 -0.6887
vn 0.8252 -0.1949 -0.5301
vn 0.6186 -0.7766 0.1193
vn 0.6563 -0.7411 0.1415
vn 0.7547 -0.6402 0.1436
vn -0.1675 -0.6587 0.7335
vn -0.1068 -0.5837 0.8049
vn -0.1436 -0.7070 0.6924
vn -0.5282 -0.3521 0.7727
vn -0.5284 -0.3588 0.7695
vn -0.4567 -0.3502 0.8178
vn -0.0950 0.0785 -0.9924
vn 0.0045 0.2061 -0.9785
vn 0.0552 0.0450 -0.9975
vn -0.0485 0.2952 -0.9542
vn -0.0042 0.3873 -0.9220
vn 0.0312 0.2387 -0.9706
vn -0.5954 -0.2619 0.7595
vn -0.6133 -0.2132 0.7605
vn -0.4886 -0.3099 0.8156
vn -0.4419 -0.4534 0.7741
vn -0.4894 -0.4110 0.7691
vn -0.3200 -0.4935 0.8088
vn -0.1103 -0.4979 0.8602
vn -0.3321 -0.3446 0.8780
vn -0.1294 -0.4545 0.8813
vn -0.3272 -0.0792 0.9416
vn 0.7650 0.2195 -0.6055
vn 0.6777 0.2571 -0.6890
vn 0.7959 -0.0706 -0.6013
vn 0.7588 0.0050 -0.6513
vn 0.7608 -0.3937 -0.5159
vn 0.7993 -0.2974 -0.5221
vn -0.5303 -0.3676 0.7639
vn -0.5357 -0.3689 0.7595
vn -0.5245 -0.3927 0.7554
vn -0.5472 -0.3564 0.7573
vn 0.4848 0.4959 -0.7204
vn 0.4212 0.4798 -0.7697
vn 0.3331 0.4746 -0.8147
vn 0.6018 0.2892 -0.7445
vn 0.5242 0.3225 -0.7881
vn 0.4296 0.3484 -0.8331
vn 0.9173 -0.3956 -0.0447
vn 0.6772 0.0412 -0.7347
vn 0.4863 0.2114 -0.8478
vn 0.5993 -0.0245 -0.8002
vn 0.9289 -0.2866 -0.2343
vn 0.3572 0.1501 -0.9219
vn -0.2872 -0.3606 0.8874
vn 0.2418 -0.5270 0.8148
vn 0.8118 -0.3935 0.4316
vn 0.5257 -0.3458 0.7772
vn -0.3999 0.7818 0.4785
vn -0.3825 0.7579 0.5285
vn 0.0162 0.8459 -0.5331
vn -0.0864 0.8149 -0.5731
vn -0.2215 0.0744 0.9723
vn 0.3399 -0.2907 0.8944
vn 0.2000 0.3170 -0.9271
vn 0.3368 0.3553 -0.8720
vn 0.1172 0.4503 -0.8852
vn 0.2354 0.4703 -0.8505
vn 0.3469 -0.3900 0.8530
vn 0.8078 -0.0713 0.5851
vn 0.9087 0.1550 0.3875
vn -0.0262 -0.4455 0.8949
vn 0.1453 -0.3027 0.9419
vn 0.5633 0.1089 0.8191
vn 0.7156 0.4192 0.5587
vn -0.0435 0.0335 0.9985
vn -0.3944 0.0974 0.9138
vn -0.5264 0.0057 0.8502
vn -0.5816 0.0580 0.8114
vn -0.4734 -0.1080 0.8742
vn 0.0969 -0.7324 0.6740
vn 0.9297 -0.3319 0.1594
vn -0.3769 0.3449 0.8597
vn -0.4997 -0.0226 0.8659
vn -0.3931 -0.2876 0.8734
vn -0.2576 -0.1480 0.9548
vn 0.5396 0.5769 0.6131
vn 0.1114 0.9304 0.3493
vn -0.4629 -0.2417 0.8528
vn -0.3797 -0.1244 0.9167
vn 0.7387 0.1831 0.6486
vn -0.3980 -0.1138 0.9103
vn -0.5269 -0.2066 0.8244
vn -0.4890 -0.3395 0.8035
vn -0.3398 -0.2029 0.9183
vn -0.3061 -0.1063 0.9460
vn -0.3439 -0.0678 0.9365
vn -0.3794 -0.0681 0.9227
vn -0.4177 -0.0838 0.9047
vn -0.5014 -0.1184 0.8571
vn -0.4690 -0.3293 0.8195
vn -0.4574 -0.3010 0.8368
vn -0.4093 -0.2652 0.8730
vn -0.3839 -0.3520 0.8536
vn -0.3930 -0.4706 0.7900
vn -0.4691 -0.3894 0.7927
vn -0.3381 -0.1852 0.9227
vn -0.3098 -0.3118 0.8982
vn -0.3905 -0.4615 0.7966
vn -0.9600 -0.2136 0.1810
vn -0.8677 -0.4053 0.2878
vn -0.9007 -0.2567 0.3505
vn -0.7761 -0.5042 0.3789
vn -0.5965 -0.4967 0.6304
vn -0.5189 -0.1963 0.8320
vn -0.6242 0.1355 0.7695
vn -0.8301 0.2290 0.5084
vn -0.9700 -0.0271 -0.2417
vn -0.8374 -0.4643 -0.2886
vn -0.9567 -0.2119 -0.1994
vn -0.3893 -0.9133 0.1200
vn 0.1284 -0.7649 0.6312
vn 0.3426 -0.6073 0.7168
usemtl material1522
s 1
f 1//1 2//2 3//3 4//4
f 1//1 4//4 5//5 6//6
f 1//1 6//6 7//7 8//8
f 1//1 8//8 9//9 2//2
f 10//10 8//8 7//7 11//11
f 10//10 11//11 12//12 13//13
f 10//10 13//13 14//14 15//15
f 10//10 15//15 9//9 8//8
f 16//16 17//17 18//18 19//19
f 16//16 19//19 20//20 21//21
f 22//22 23//23 17//17 16//16
f 22//22 16//16 21//21 24//24
f 22//22 24//24 25//25 26//26
f 22//22 26//26 27//27 23//23
f 28//28 29//29 30//30 31//31
f 28//28 31//31 32//32 33//33
f 28//28 33//33 34//34 35//35
f 28//28 35//35 36//36 29//29
f 37//37 13//13 12//12 38//38
f 37//37 39//39 14//14 13//13
f 40//40 41//41 42//42 43//43
f 44//44 45//45 46//46 47//47
f 44//44 47//47 48//48 49//49
f 50//50 40//40 43//43 51//51
f 50//50 51//51 52//52 53//53
f 54//54 55//55 46//46 45//45
f 56//56 57//57 58//58 59//59
f 56//56 59//59 60//60 61//61
f 56//56 61//61 62//62 63//63
f 56//56 63//63 64//64 57//57
f 65//65 66//66 64//64 63//63
f 65//65 63//63 62//62 67//67
f 65//65 67//67 68//68 69//69
f 65//65 69//69 70//70 66//66
f 71//71 72//72 5//5 4//4
f 71//71 4//4 3//3 73//73
f 74//74 75//75 72//72 71//71
f 74//74 71//71 73//73 76//76
f 35//35 34//34 75//75 74//74
f 35//35 74//74 76//76 36//36
f 77//77 69//69 68//68 78//78
f 77//77 79//79 70//70 69//69
f 80//80 77//77 78//78 81//81
f 80//80 82//82 79//79 77//77
f 19//19 80//80 81//81 20//20
f 19//19 18//18 82//82 80//80
f 82//82 83//83 84//84 79//79
f 18//18 85//85 83//83 82//82
f 17//17 86//86 85//85 18//18
f 41//41 87//87 88//88 42//42
f 87//87 89//89 90//90 88//88
f 91//91 49//49 48//48 92//92
f 91//91 92//92 90//90 89//89
f 53//53 52//52 93//93 94//94
f 94//94 93//93 95//95 96//96
f 96//96 95//95 55//55 54//54
f 26//26 25//25 97//97 98//98
f 26//26 98//98 99//99 27//27
f 98//98 97//97 100//100 101//101
f 98//98 101//101 102//102 99//99
f 101//101 100//100 60//60 59//59
f 101//101 59//59 58//58 102//102
f 25//25 43//43 42//42 97//97
f 67//67 62//62 48//48 47//47
f 67//67 47//47 46//46 68//68
f 24//24 21//21 52//52 51//51
f 24//24 51//51 43//43 25//25
f 78//78 68//68 46//46 55//55
f 97//97 42//42 88//88 100//100
f 100//100 88//88 90//90 60//60
f 61//61 60//60 90//90 92//92
f 61//61 92//92 48//48 62//62
f 21//21 20//20 93//93 52//52
f 20//20 81//81 95//95 93//93
f 81//81 78//78 55//55 95//95
f 57//57 64//64 103//103 104//104
f 57//57 104//104 105//105 58//58
f 106//106 104//104 103//103 107//107
f 106//106 107//107 7//7 6//6
f 106//106 6//6 5//5 108//108
f 106//106 108//108 105//105 104//104
f 66//66 70//70 109//109 110//110
f 66//66 110//110 103//103 64//64
f 111//111 110//110 109//109 112//112
f 111//111 112//112 12//12 11//11
f 111//111 11//11 7//7 107//107
f 111//111 107//107 103//103 110//110
f 113//113 114//114 115//115 116//116
f 113//113 116//116 34//34 33//33
f 113//113 33//33 32//32 117//117
f 113//113 117//117 86//86 114//114
f 23//23 27//27 115//115 114//114
f 23//23 114//114 86//86 17//17
f 79//79 84//84 109//109 70//70
f 118//118 38//38 12//12 112//112
f 118//118 112//112 109//109 84//84
f 119//119 120//120 105//105 108//108
f 119//119 108//108 5//5 72//72
f 102//102 58//58 105//105 120//120
f 121//121 122//122 120//120 119//119
f 121//121 119//119 72//72 75//75
f 99//99 102//102 120//120 122//122
f 116//116 115//115 122//122 121//121
f 116//116 121//121 75//75 34//34
f 27//27 99//99 122//122 115//115
f 123//123 124//124 38//38 118//118
f 123//123 118//118 84//84 83//83
f 125//125 126//126 39//39 37//37
f 125//125 37//37 38//38 124//124
f 127//127 128//128 124//124 123//123
f 127//127 123//123 83//83 85//85
f 129//129 130//130 126//126 125//125
f 129//129 125//125 124//124 128//128
f 31//31 30//30 130//130 129//129
f 31//31 129//129 128//128 32//32
f 117//117 32//32 128//128 127//127
f 117//117 127//127 85//85 86//86
f 131//131 132//132 133//133 134//134
f 131//131 134//134 135//135 136//136
f 137//137 138//138 139//139 140//140
f 137//137 140//140 141//141 142//142
f 140//140 139//139 143//143 144//144
f 140//140 144//144 145//145 141//141
f 144//144 143//143 132//132 131//131
f 144//144 131//131 136//136 145//145
f 132//132 54//54 45//45 133//133
f 134//134 44//44 49//49 135//135
f 134//134 133//133 45//45 44//44
f 136//136 91//91 89//89
f 136//136 135//135 49//49 91//91
f 145//145 136//136 89//89 87//87
f 141//141 145//145 87//87 41//41
f 142//142 141//141 41//41 40//40
f 137//137 50//50 53//53 138//138
f 137//137 142//142 40//40 50//50
f 138//138 53//53 94//94 139//139
f 139//139 94//94 96//96 143//143
f 143//143 96//96 54//54 132//132
f 146//146 147//147 148//148 149//149
f 146//146 149//149 150//150 151//151
f 146//146 151//151 152//152 153//153
f 146//146 153//153 154//154 147//147
f 155//155 156//156 157//157 158//158
f 155//155 158//158 159//159 160//160
f 158//158 157//157 161//161 162//162
f 158//158 162//162 163//163 159//159
f 162//162 161//161 150//150 149//149
f 162//162 149//149 148//148 163//163
f 164//164 39//39 165//165
f 164//164 165//165 148//148 147//147
f 164//164 147//147 154//154 166//166
f 164//164 166//166 14//14 39//39
f 167//167 163//163 148//148 165//165
f 167//167 165//165 39//39 126//126
f 168//168 159//159 163//163 167//167
f 168//168 167//167 126//126 130//130
f 169//169 160//160 159//159 168//168
f 169//169 168//168 130//130 30//30
f 170//170 29//29 36//36 171//171
f 170//170 171//171 156//156 155//155
f 170//170 155//155 160//160 169//169
f 170//170 169//169 30//30 29//29
f 171//171 36//36 76//76 172//172
f 171//171 172//172 157//157 156//156
f 172//172 76//76 73//73 173//173
f 172//172 173//173 161//161 157//157
f 173//173 73//73 3//3 174//174
f 173//173 174//174 150//150 161//161
f 175//175 2//2 9//9 176//176
f 175//175 176//176 152//152 151//151
f 175//175 151//151 150//150 174//174
f 175//175 174//174 3//3 2//2
f 177//177 15//15 14//14 166//166
f 177//177 166//166 154//154 153//153
f 177//177 153//153 152//152 176//176
f 177//177 176//176 9//9 15//15
