# Blender v3.2.1 OBJ File: ''
# www.blender.org
mtllib nasalis_left.mtl
o Nasalis_Left
v 0.154159 18.852882 1.235791
v 0.153269 18.850485 1.234669
v 0.146911 18.867750 1.242568
v 0.146874 18.869780 1.245821
v 0.147820 18.864853 1.250989
v 0.155572 18.849586 1.238820
v 0.166588 18.835945 1.223562
v 0.164132 18.838371 1.223839
v 0.161140 18.835949 1.226007
v 0.054616 18.746603 1.306584
v 0.051154 18.727245 1.308391
v 0.060457 18.718706 1.306537
v 0.062967 18.748020 1.306535
v 0.064561 18.773319 1.307252
v 0.056747 18.765469 1.305502
v 0.059287 18.763836 1.300061
v 0.057789 18.752077 1.301829
v 0.054937 18.742891 1.304036
v 0.152760 18.837784 1.237487
v 0.157060 18.825331 1.231294
v 0.150204 18.810331 1.238864
v 0.149296 18.820229 1.243368
v 0.146640 18.831408 1.248473
v 0.148040 18.852415 1.243767
v 0.157272 18.822351 1.248142
v 0.158759 18.837046 1.244747
v 0.150525 18.850517 1.259618
v 0.148678 18.835793 1.263380
v 0.144603 18.820026 1.267690
v 0.153119 18.805746 1.252732
v 0.164189 18.789837 1.233750
v 0.168759 18.808214 1.228513
v 0.170225 18.823721 1.225447
v 0.073881 18.764740 1.294157
v 0.073974 18.774059 1.293813
v 0.093761 18.786682 1.285967
v 0.094570 18.777636 1.284255
v 0.094900 18.769667 1.282404
v 0.072783 18.757877 1.294551
v 0.074600 18.823597 1.332669
v 0.055907 18.822048 1.340239
v 0.059161 18.816923 1.332301
v 0.076342 18.818659 1.326300
v 0.095581 18.820265 1.315185
v 0.095528 18.825115 1.320562
v 0.096030 18.829832 1.325418
v 0.072774 18.828140 1.338105
v 0.052151 18.826605 1.347350
v 0.112023 19.002781 1.296827
v 0.096260 19.017015 1.310503
v 0.106255 19.000509 1.333933
v 0.123112 18.988316 1.315374
v 0.136838 18.970093 1.296838
v 0.126090 18.982977 1.283210
v 0.119537 18.974796 1.269237
v 0.107303 18.995140 1.276333
v 0.094621 19.011845 1.283329
v 0.043115 18.822803 1.337439
v 0.039667 18.828096 1.346225
v 0.038153 18.831989 1.337512
v 0.040113 18.826229 1.327808
v 0.043263 18.819380 1.318108
v 0.046675 18.816738 1.328138
v 0.117063 18.864937 1.266302
v 0.114945 18.873037 1.264107
v 0.117675 18.910629 1.255912
v 0.120583 18.899542 1.259507
v 0.123900 18.887691 1.262026
v 0.120338 18.855932 1.267901
v 0.109877 18.838369 1.276779
v 0.105532 18.845802 1.278133
v 0.103176 18.851698 1.279727
v 0.158288 18.904547 1.311516
v 0.151692 18.914776 1.325254
v 0.160299 18.875971 1.312012
v 0.160886 18.873346 1.302290
v 0.158685 18.867592 1.293114
v 0.160870 18.892485 1.297978
v 0.156510 18.918554 1.302536
v 0.148136 18.936464 1.320448
v 0.135154 18.953463 1.338460
v 0.050794 18.832689 1.314887
v 0.050445 18.837660 1.323992
v 0.069282 18.842632 1.308579
v 0.068942 18.838488 1.301225
v 0.071329 18.832355 1.295062
v 0.053305 18.826120 1.306508
v 0.081450 18.756033 1.299792
v 0.081868 18.725046 1.297396
v 0.107064 18.737619 1.283629
v 0.103233 18.766010 1.289382
v 0.100242 18.789240 1.294534
v 0.080933 18.781748 1.302426
v 0.139540 18.803274 1.251436
v 0.126087 18.790081 1.261361
v 0.126903 18.798300 1.265014
v 0.139089 18.812361 1.255743
v 0.138887 18.794765 1.247881
v 0.125266 18.782080 1.258296
v 0.136136 18.819021 1.280488
v 0.128344 18.810970 1.286701
v 0.129990 18.799643 1.280053
v 0.138805 18.808100 1.273419
v 0.141193 18.831045 1.274603
v 0.143192 18.841873 1.278654
v 0.137577 18.827419 1.283989
v 0.129089 18.817520 1.290010
v 0.111720 18.801407 1.278977
v 0.127711 18.806950 1.269848
v 0.111598 18.792252 1.275728
v 0.091990 18.797884 1.287400
v 0.087660 18.810116 1.289017
v 0.109007 18.811602 1.281809
v 0.125736 18.816608 1.274073
v 0.114650 18.816521 1.299703
v 0.130332 18.821898 1.292145
v 0.131822 18.825281 1.295401
v 0.114242 18.820061 1.304005
v 0.096743 18.815144 1.308765
v 0.098149 18.809265 1.302723
v 0.115355 18.812309 1.296099
v 0.113743 18.951836 1.263371
v 0.121220 18.935175 1.262324
v 0.106330 18.966640 1.263726
v 0.150578 18.846664 1.299363
v 0.133311 18.828854 1.302071
v 0.147819 18.843159 1.292013
v 0.152047 18.848394 1.308061
v 0.134797 18.832520 1.310448
v 0.088340 18.839922 1.289374
v 0.091864 18.833473 1.285492
v 0.087407 18.844437 1.294187
v 0.121488 18.773321 1.278334
v 0.135920 18.780941 1.267903
v 0.116865 18.794279 1.287084
v 0.127719 18.747786 1.267893
v 0.143991 18.758551 1.253002
v 0.148427 18.875210 1.261434
v 0.148757 18.864277 1.265633
v 0.149638 18.859318 1.255538
v 0.146594 18.883362 1.256978
v 0.147039 18.907539 1.263770
v 0.150236 18.895041 1.267799
v 0.151217 18.879868 1.271224
v 0.135780 18.965300 1.322491
v 0.147739 18.946522 1.302718
v 0.119614 18.980682 1.342303
v 0.077918 18.812931 1.318063
v 0.079241 18.805866 1.310347
v 0.061412 18.810667 1.322707
v 0.063014 18.802235 1.314172
v 0.136765 18.952032 1.269708
v 0.143304 18.918631 1.258560
v 0.139495 18.917377 1.254998
v 0.130874 18.947180 1.261944
v 0.144300 18.939810 1.278347
v 0.050461 18.809128 1.317807
v 0.053850 18.798492 1.309399
v 0.048794 18.810347 1.308414
v 0.054475 18.797882 1.301259
v 0.125928 18.845121 1.268306
v 0.131928 18.833633 1.266522
v 0.118202 18.827862 1.275905
v 0.128039 18.874313 1.262396
v 0.133426 18.859953 1.260140
v 0.155423 18.876759 1.284840
v 0.148304 18.860750 1.274621
v 0.155669 18.898825 1.284827
v 0.150905 18.855579 1.285030
v 0.060138 18.816351 1.299583
v 0.067614 18.803650 1.294982
v 0.079171 18.822252 1.291281
v 0.115030 18.824268 1.309750
v 0.116415 18.828812 1.316217
v 0.128827 18.914804 1.259891
v 0.136075 18.892841 1.255912
v 0.142479 18.836105 1.287360
v 0.100571 18.823162 1.283476
v 0.151282 18.920958 1.283024
v 0.144965 18.891455 1.252004
v 0.143580 18.890474 1.248942
v 0.056219 18.783352 1.305869
v 0.058078 18.780743 1.299172
v 0.064320 18.790588 1.309409
v 0.142479 18.871407 1.250223
v 0.140488 18.845148 1.254782
v 0.145872 18.847843 1.269837
v 0.072056 18.788292 1.293574
v 0.080221 18.796915 1.305539
v 0.098931 18.802143 1.298480
v 0.136433 18.822596 1.261553
v 0.146233 18.791845 1.259344
v 0.156040 18.772924 1.241767
v 0.111534 18.783810 1.272812
v 0.111499 18.775723 1.270061
v 0.115457 18.806086 1.292449
v 0.157649 18.845217 1.241722
v 0.169060 18.832012 1.223947
vn 0.8202 0.5401 -0.1885
vn 0.5145 0.5504 -0.6575
vn 0.7691 0.3941 -0.5031
vn 0.9082 0.3288 -0.2590
vn 0.9649 0.2608 -0.0307
vn 0.8775 0.4706 0.0921
vn 0.8316 0.5473 0.0941
vn 0.8188 0.5727 0.0390
vn -0.5291 0.2502 -0.8108
vn -0.6886 0.1062 -0.7173
vn -0.7617 0.0407 -0.6467
vn 0.0007 0.0204 0.9998
vn 0.1162 0.0227 0.9930
vn 0.2532 -0.0138 0.9673
vn 0.1865 -0.0200 0.9823
vn 0.0769 -0.0697 0.9946
vn -0.1830 -0.0285 0.9827
vn -0.9061 0.1088 -0.4089
vn -0.9169 0.0043 -0.3992
vn -0.6906 -0.0339 -0.7224
vn -0.7005 0.0295 -0.7131
vn -0.7321 0.0617 -0.6784
vn -0.9257 0.1564 -0.3444
vn -0.8515 -0.0268 -0.5236
vn -0.8316 0.0046 -0.5553
vn -0.8296 0.1421 -0.5400
vn -0.8357 0.1002 -0.5400
vn -0.8213 0.0185 -0.5703
vn -0.8552 -0.0525 -0.5156
vn -0.8722 -0.0622 -0.4851
vn 0.8584 -0.0218 0.5126
vn 0.8993 0.1265 0.4185
vn 0.9466 0.0757 0.3134
vn 0.8715 -0.0410 0.4887
vn 0.8323 -0.0960 0.5460
vn 0.8255 -0.0923 0.5567
vn 0.8254 -0.0898 0.5573
vn 0.8555 -0.0188 0.5175
vn 0.8867 0.1264 0.4448
vn -0.4332 0.0134 -0.9012
vn -0.3692 -0.0217 -0.9291
vn -0.4519 0.1000 -0.8865
vn -0.5310 0.1399 -0.8358
vn -0.5618 0.1592 -0.8118
vn -0.4656 0.0339 -0.8843
vn 0.3623 -0.6854 0.6316
vn 0.0840 -0.8129 0.5764
vn 0.0700 -0.8182 0.5707
vn 0.3441 -0.7195 0.6032
vn 0.3706 -0.7048 0.6049
vn 0.3492 -0.7113 0.6100
vn 0.3337 -0.7140 0.6155
vn 0.3686 -0.6709 0.6434
vn 0.0935 -0.8092 0.5801
vn 0.7005 0.6939 -0.1666
vn 0.6744 0.7354 -0.0659
vn 0.7471 0.6312 0.2082
vn 0.7968 0.5902 0.1295
vn 0.8816 0.4614 -0.0996
vn 0.7516 0.5472 -0.3682
vn 0.3008 0.4098 -0.8612
vn 0.4178 0.5515 -0.7220
vn 0.4777 0.6108 -0.6315
vn -0.5597 -0.7714 0.3028
vn -0.5834 -0.7617 0.2818
vn -0.8794 -0.4753 0.0269
vn -0.8516 -0.5207 0.0604
vn -0.8167 -0.5689 0.0962
vn -0.5321 -0.7772 0.3359
vn -0.1978 -0.2240 -0.9543
vn -0.1709 -0.2378 -0.9561
vn 0.5035 -0.0138 -0.8639
vn 0.3377 -0.0385 -0.9405
vn -0.0606 -0.0785 -0.9951
vn -0.2841 -0.2009 -0.9375
vn -0.4278 -0.1467 -0.8919
vn -0.5553 -0.0406 -0.8307
vn -0.6270 0.0107 -0.7790
vn 0.9722 0.1305 0.1945
vn 0.9386 0.1510 0.3101
vn 0.9803 -0.1309 0.1479
vn 0.9850 -0.1615 0.0606
vn 0.9530 -0.2194 -0.2090
vn 0.9853 0.0623 -0.1591
vn 0.9711 0.2311 -0.0604
vn 0.9220 0.2950 0.2507
vn 0.8852 0.3122 0.3448
vn -0.6844 0.5360 -0.4942
vn -0.6463 0.6450 -0.4079
vn -0.4883 0.7328 -0.4739
vn -0.5175 0.6058 -0.6044
vn -0.4983 0.2495 -0.8303
vn -0.6740 0.2700 -0.6876
vn -0.7701 0.2311 -0.5946
vn -0.7772 0.4386 -0.4512
vn -0.7427 0.5384 -0.3982
vn 0.4156 -0.0784 0.9062
vn 0.4371 -0.0673 0.8969
vn 0.5453 -0.1051 0.8316
vn 0.5117 -0.1245 0.8501
vn 0.4493 -0.1902 0.8729
vn 0.3807 -0.1291 0.9156
vn -0.7772 0.2426 -0.5806
vn -0.7062 0.2968 -0.6429
vn -0.7015 0.2999 -0.6465
vn -0.7920 0.1715 -0.5859
vn -0.7727 0.2683 -0.5753
vn -0.7117 0.2937 -0.6382
vn 0.8322 -0.2489 0.4954
vn 0.6425 -0.3482 0.6826
vn 0.6503 -0.2617 0.7132
vn 0.7793 -0.1743 0.6019
vn 0.9108 -0.1764 0.3733
vn 0.9527 -0.3011 -0.0415
vn 0.8826 -0.4037 0.2409
vn 0.6579 -0.4617 0.5950
vn -0.4856 0.1961 -0.8519
vn -0.6777 0.2091 -0.7049
vn -0.5722 0.2565 -0.7789
vn -0.3663 0.0602 -0.9286
vn -0.3344 0.0093 -0.9424
vn -0.3941 0.0142 -0.9190
vn -0.5514 -0.0161 -0.8341
vn 0.4391 -0.6218 0.6486
vn 0.6560 -0.6001 0.4577
vn 0.6181 -0.7156 0.3252
vn 0.3971 -0.7355 0.5490
vn 0.3850 -0.6574 0.6478
vn 0.3998 -0.5239 0.7522
vn 0.4489 -0.4961 0.7432
vn 0.3461 0.2290 -0.9098
vn -0.0231 0.1028 -0.9944
vn 0.5021 0.2958 -0.8127
vn 0.8460 -0.5311 0.0463
vn 0.5653 -0.7796 0.2697
vn 0.8473 -0.5306 -0.0244
vn 0.8455 -0.5296 0.0684
vn 0.5380 -0.8017 0.2605
vn -0.5341 0.3706 -0.7598
vn -0.4377 0.0612 -0.8971
vn -0.5687 0.4994 -0.6536
vn 0.6008 -0.1795 0.7790
vn 0.6944 -0.1992 0.6914
vn 0.5153 -0.2603 0.8165
vn 0.6440 -0.1478 0.7506
vn 0.7209 -0.1709 0.6716
vn 0.9777 0.0647 -0.1997
vn 0.9982 -0.0376 0.0459
vn 0.9732 0.2217 0.0603
vn 0.9630 0.1041 -0.2486
vn 0.9278 0.1568 -0.3385
vn 0.9408 0.0835 -0.3286
vn 0.9717 -0.0506 -0.2307
vn 0.8661 0.4475 0.2227
vn 0.9345 0.3539 -0.0380
vn 0.8239 0.4836 0.2955
vn 0.3398 -0.6946 0.6342
vn 0.3613 -0.5255 0.7703
vn 0.0668 -0.7590 0.6477
vn 0.0566 -0.5357 0.8425
vn 0.7807 0.3775 -0.4980
vn 0.8250 0.2408 -0.5113
vn 0.6714 0.2902 -0.6819
vn 0.1798 0.2892 -0.9402
vn 0.9099 0.2981 -0.2886
vn -0.5846 -0.7073 0.3975
vn -0.2076 -0.5094 0.8351
vn -0.8720 -0.4844 0.0704
vn -0.8345 -0.1324 -0.5349
vn -0.9599 -0.2768 -0.0446
vn -0.4499 -0.1727 -0.8762
vn -0.6675 -0.0883 -0.7394
vn -0.4087 -0.1735 -0.8960
vn -0.4337 -0.0940 -0.8961
vn -0.6595 -0.0811 -0.7473
vn 0.9289 -0.0824 -0.3610
vn 0.9716 -0.1912 -0.1391
vn 0.9510 0.0866 -0.2968
vn 0.8983 -0.2889 -0.3310
vn -0.5385 0.0897 -0.8378
vn -0.4034 0.0348 -0.9144
vn -0.6435 0.1108 -0.7574
vn -0.3900 0.0026 -0.9208
vn 0.3343 -0.7964 0.5039
vn 0.3007 -0.8136 0.4976
vn -0.3622 0.0257 -0.9317
vn -0.5977 -0.0018 -0.8018
vn -0.5574 0.0465 -0.8289
vn 0.8617 -0.5073 0.0010
vn -0.3634 -0.1053 -0.9257
vn 0.9354 0.2176 -0.2786
vn 0.9234 0.1626 -0.3477
vn 0.8504 0.2153 -0.4800
vn -0.9678 -0.1060 -0.2283
vn -0.7543 -0.0791 -0.6518
vn -0.2470 -0.1974 0.9487
vn 0.0396 -0.2376 0.9706
vn -0.7718 -0.0277 -0.6352
vn -0.7839 -0.0016 -0.6209
vn -0.7694 -0.0442 -0.6372
vn 0.9533 -0.1308 0.2722
vn -0.3432 -0.0154 -0.9391
vn 0.3700 -0.2819 0.8852
vn 0.4139 -0.3350 0.8464
vn -0.7870 0.0521 -0.6147
vn 0.7766 -0.1565 0.6102
vn 0.7822 -0.1463 0.6057
vn -0.6284 0.2471 -0.7376
vn -0.6489 0.2444 -0.7206
vn 0.4613 -0.3765 0.8034
vn 0.9054 0.3554 0.2321
vn 0.8832 0.3816 0.2727
usemtl material1570.003
s 1
f 1//1 2//2 3//3 4//4
f 1//1 4//4 5//5 6//6
f 1//1 6//6 7//7 8//8
f 1//9 8//9 9//10 2//11
f 10//12 11//13 12//14 13//15
f 10//12 13//15 14//16 15//17
f 10//18 15//19 16//20 17//21
f 10//18 17//21 18//22 11//23
f 19//24 20//25 21//26 22//27
f 19//24 22//27 23//28 24//29
f 19//24 24//29 3//30 2//11
f 19//24 2//11 9//10 20//25
f 25//31 26//32 27//33 28//34
f 25//31 28//34 29//35 30//36
f 25//31 30//36 31//37 32//38
f 25//31 32//38 33//39 26//32
f 34//40 17//21 16//20 35//41
f 34//40 35//41 36//42 37//43
f 34//40 37//43 38//44 39//45
f 34//40 39//45 18//22 17//21
f 40//46 41//47 42//48 43//49
f 40//46 43//49 44//50 45//51
f 40//46 45//51 46//52 47//53
f 40//46 47//53 48//54 41//47
f 49//55 50//56 51//57 52//58
f 49//55 52//58 53//59 54//60
f 49//55 54//60 55//61 56//62
f 49//55 56//62 57//63 50//56
f 58//64 59//65 60//66 61//67
f 58//64 61//67 62//68 63//69
f 58//64 63//69 42//48 41//47
f 58//64 41//47 48//54 59//65
f 64//70 65//71 66//72 67//73
f 64//70 67//73 68//74 69//75
f 64//70 69//75 70//76 71//77
f 64//70 71//77 72//78 65//71
f 73//79 74//80 75//81 76//82
f 73//79 76//82 77//83 78//84
f 73//79 78//84 79//85 80//86
f 73//79 80//86 81//87 74//80
f 82//88 83//89 84//90 85//91
f 82//88 85//91 86//92 87//93
f 82//88 87//93 62//94 61//95
f 82//88 61//95 60//96 83//89
f 88//97 89//98 90//99 91//100
f 88//97 91//100 92//101 93//102
f 88//97 93//102 14//16 13//15
f 88//97 13//15 12//14 89//98
f 94//103 95//104 96//105 97//106
f 94//103 97//106 23//28 22//27
f 94//103 22//27 21//26 98//107
f 94//103 98//107 99//108 95//104
f 100//109 101//110 102//111 103//112
f 100//109 103//112 29//35 104//113
f 100//109 104//113 105//114 106//115
f 100//109 106//115 107//116 101//110
f 108//117 109//118 96//105 110//119
f 108//117 110//119 36//42 111//120
f 108//117 111//120 112//121 113//122
f 108//117 113//122 114//123 109//118
f 115//124 116//125 117//126 118//127
f 115//124 118//127 44//50 119//128
f 115//124 119//128 120//129 121//130
f 115//124 121//130 107//116 116//125
f 122//131 56//62 55//61 123//132
f 122//131 123//132 68//74 67//73
f 122//131 67//73 66//72 124//133
f 122//131 124//133 57//63 56//62
f 125//134 126//135 117//126 127//136
f 125//134 127//136 77//83 76//82
f 125//134 76//82 75//81 128//137
f 125//134 128//137 129//138 126//135
f 130//139 71//77 70//76 131//140
f 130//139 131//140 86//92 85//91
f 130//139 85//91 84//90 132//141
f 130//139 132//141 72//78 71//77
f 133//142 134//143 102//111 135//144
f 133//142 135//144 92//101 91//100
f 133//142 91//100 90//99 136//145
f 133//142 136//145 137//146 134//143
f 138//147 139//148 27//33 140//149
f 138//147 140//149 5//5 141//150
f 138//147 141//150 142//151 143//152
f 138//147 143//152 144//153 139//148
f 145//154 80//86 79//85 146//155
f 145//154 146//155 53//59 52//58
f 145//154 52//58 51//57 147//156
f 145//154 147//156 81//87 80//86
f 148//157 149//158 120//129 119//128
f 148//157 119//128 44//50 43//49
f 148//157 43//49 42//48 150//159
f 148//157 150//159 151//160 149//158
f 152//161 153//162 154//163 155//164
f 152//161 155//164 55//61 54//60
f 152//161 54//60 53//59 156//165
f 152//161 156//165 142//151 153//162
f 157//166 158//167 151//160 150//159
f 157//166 150//159 42//48 63//69
f 157//166 63//69 62//68 159//168
f 157//166 159//168 160//169 158//170
f 161//171 162//172 114//123 163//173
f 161//171 163//173 70//76 69//75
f 161//171 69//75 68//74 164//174
f 161//171 164//174 165//175 162//172
f 166//176 167//177 144//153 168//178
f 166//176 168//178 79//85 78//84
f 166//176 78//84 77//83 169//179
f 166//176 169//179 105//114 167//177
f 170//180 171//181 160//169 159//182
f 170//180 159//182 62//94 87//93
f 170//180 87//93 86//92 172//183
f 170//180 172//183 112//121 171//181
f 173//184 174//185 46//52 45//51
f 173//184 45//51 44//50 118//127
f 173//184 118//127 117//126 126//135
f 173//184 126//135 129//138 174//185
f 175//186 176//187 165//175 164//174
f 175//186 164//174 68//74 123//132
f 175//186 123//132 55//61 155//164
f 175//186 155//164 154//188 176//187
f 177//189 106//115 105//114 169//179
f 177//189 169//179 77//83 127//136
f 177//189 127//136 117//126 116//125
f 177//189 116//125 107//116 106//115
f 178//190 113//122 112//121 172//183
f 178//190 172//183 86//92 131//140
f 178//190 131//140 70//76 163//173
f 178//190 163//173 114//123 113//122
f 179//191 143//152 142//151 156//165
f 179//191 156//165 53//59 146//155
f 179//191 146//155 79//85 168//178
f 179//191 168//178 144//153 143//152
f 180//192 153//162 142//151 141//150
f 180//192 141//150 5//5 4//4
f 180//192 4//4 3//3 181//193
f 180//192 181//193 154//163 153//162
f 182//194 158//170 160//169 183//195
f 182//194 183//195 16//20 15//19
f 182//196 15//17 14//16 184//197
f 182//196 184//197 151//160 158//167
f 185//198 176//187 154//188 181//199
f 185//198 181//199 3//30 24//29
f 185//198 24//29 23//28 186//200
f 185//198 186//200 165//175 176//187
f 187//201 167//177 105//114 104//113
f 187//201 104//113 29//35 28//34
f 187//201 28//34 27//33 139//148
f 187//201 139//148 144//153 167//177
f 188//202 171//181 112//121 111//120
f 188//202 111//120 36//42 35//41
f 188//202 35//41 16//20 183//195
f 188//202 183//195 160//169 171//181
f 189//203 149//158 151//160 184//197
f 189//203 184//197 14//16 93//102
f 189//203 93//102 92//101 190//204
f 189//203 190//204 120//129 149//158
f 191//205 162//172 165//175 186//200
f 191//205 186//200 23//28 97//106
f 191//205 97//106 96//105 109//118
f 191//205 109//118 114//123 162//172
f 192//206 193//207 31//37 30//36
f 192//206 30//36 29//35 103//112
f 192//206 103//112 102//111 134//143
f 192//206 134//143 137//146 193//207
f 194//208 195//209 38//44 37//43
f 194//208 37//43 36//42 110//119
f 194//208 110//119 96//105 95//104
f 194//208 95//104 99//108 195//209
f 196//210 121//130 120//129 190//204
f 196//210 190//204 92//101 135//144
f 196//210 135//144 102//111 101//110
f 196//210 101//110 107//116 121//130
f 197//211 198//212 7//7 6//6
f 197//211 6//6 5//5 140//149
f 197//211 140//149 27//33 26//32
f 197//211 26//32 33//39 198//212
