# Blender v3.2.1 OBJ File: ''
# www.blender.org
mtllib omohyoideus_left.mtl
o Omohyoideus_Muscle_Left
v 1.466054 17.023809 -0.677552
v 1.475107 17.016594 -0.672681
v 1.391802 17.077223 -0.573728
v 1.383661 17.081688 -0.578215
v 1.392886 17.084045 -0.578348
v 1.478586 17.024824 -0.679410
v 1.554434 16.954042 -0.784114
v 1.537957 16.955065 -0.780522
v 1.547587 16.944059 -0.775320
v 0.186263 17.911509 0.380242
v 0.198702 17.916183 0.368003
v 0.222616 17.800360 0.276478
v 0.208764 17.795174 0.286535
v 0.192958 17.787281 0.301393
v 0.171648 17.904154 0.396994
v 0.149876 18.031582 0.488570
v 0.164086 18.037596 0.471414
v 0.175894 18.040773 0.458190
v 1.505319 17.004215 -0.665478
v 1.582883 16.922304 -0.768985
v 1.633449 16.896175 -0.763666
v 1.547327 16.990423 -0.658344
v 1.451009 17.066273 -0.556825
v 1.417014 17.071400 -0.565750
v 1.513127 17.018591 -0.677571
v 1.419773 17.083553 -0.573266
v 1.454635 17.080854 -0.565438
v 1.557528 17.007740 -0.672931
v 1.652414 16.917461 -0.784182
v 1.597461 16.939722 -0.785623
v 0.174649 17.888702 0.420424
v 0.158070 17.884245 0.427405
v 0.180321 17.768415 0.333956
v 0.196171 17.774555 0.323788
v 0.213214 17.783140 0.309108
v 0.191958 17.896179 0.407909
v 0.169524 18.021425 0.503857
v 0.152134 18.014029 0.512888
v 0.135331 18.009687 0.515481
v 1.639013 16.974871 -0.654567
v 1.751170 16.857697 -0.766353
v 1.741747 16.870810 -0.772205
v 1.629966 16.982983 -0.659677
v 1.512024 17.071718 -0.550392
v 1.520155 17.067223 -0.546034
v 1.511528 17.064238 -0.545368
v 1.626405 16.972792 -0.652189
v 1.733397 16.856899 -0.762435
v 0.096515 18.120638 0.584620
v 0.060677 18.225370 0.646271
v 0.060248 18.231268 0.642803
v 0.096992 18.125326 0.580637
v 0.129019 18.012381 0.509799
v 0.128003 18.008778 0.514495
v 0.103927 18.122171 0.586330
v 0.068190 18.228176 0.648567
v 0.155432 18.152531 0.536028
v 0.128194 18.255917 0.609188
v 0.126499 18.256897 0.617063
v 0.155011 18.151527 0.545216
v 0.181754 18.039913 0.466985
v 0.181316 18.042274 0.457292
v 0.149012 18.151783 0.536716
v 0.120093 18.256004 0.609412
v 0.149343 18.147100 0.563345
v 0.116847 18.258148 0.632946
v 0.101746 18.254625 0.647337
v 0.137926 18.139755 0.580439
v 0.178611 18.031509 0.485532
v 0.104327 18.136169 0.573632
v 0.065986 18.244280 0.637122
v 0.078990 18.255981 0.628905
v 0.117168 18.146828 0.563019
v 0.137249 18.021580 0.501261
v 1.113976 17.170006 -0.253697
v 1.249932 17.133888 -0.347044
v 1.246009 17.138033 -0.349813
v 1.111613 17.174507 -0.255588
v 0.978283 17.220469 -0.164496
v 0.979372 17.215624 -0.163502
v 0.975233 17.215328 -0.169509
v 1.108519 17.168409 -0.258661
v 1.243529 17.131250 -0.350438
v 1.053152 17.196056 -0.305515
v 1.166572 17.150015 -0.396764
v 1.171112 17.145950 -0.393567
v 1.055462 17.191814 -0.303619
v 0.940445 17.248510 -0.213539
v 0.940024 17.252897 -0.214083
v 0.944211 17.252514 -0.208984
v 1.058228 17.196693 -0.301313
v 1.172546 17.151554 -0.393693
v 1.100361 17.181194 -0.264688
v 1.230635 17.143002 -0.358372
v 1.209560 17.147591 -0.370390
v 1.084877 17.188217 -0.277594
v 0.961469 17.238916 -0.186064
v 0.971289 17.229105 -0.173323
v 1.066029 17.183960 -0.295730
v 1.186663 17.139334 -0.384924
v 1.207507 17.133253 -0.373101
v 1.080948 17.175751 -0.283888
v 0.956067 17.228935 -0.195596
v 0.946580 17.239426 -0.206795
v 1.280287 17.117823 -0.486141
v 1.287486 17.120148 -0.484574
v 1.286848 17.114048 -0.482147
v 1.360935 17.104900 -0.452607
v 1.227924 17.130798 -0.360365
v 1.334298 17.105322 -0.462912
v 1.485497 17.063904 -0.549498
v 1.380884 17.106791 -0.445395
v 1.308382 17.120710 -0.476453
v 1.188536 17.150595 -0.383533
v 1.335729 17.119637 -0.465465
v 1.387893 17.109928 -0.444008
v 1.381759 17.113586 -0.447593
v 0.203397 17.682089 0.247025
v 0.254944 17.616503 0.172151
v 0.260736 17.619116 0.173308
v 0.210265 17.684778 0.246987
v 0.173162 17.765894 0.334549
v 0.173653 17.768278 0.327802
v 0.204020 17.684746 0.240069
v 0.255914 17.619255 0.165727
v 0.258701 17.717567 0.194013
v 0.303718 17.649769 0.130326
v 0.299319 17.648067 0.129699
v 0.252815 17.715645 0.193935
v 0.228958 17.802654 0.276325
v 0.229001 17.800667 0.283388
v 0.258251 17.715969 0.200351
v 0.302684 17.648520 0.136143
v 0.225066 17.692125 0.237643
v 0.273106 17.626949 0.167466
v 0.286886 17.636391 0.157453
v 0.241281 17.701427 0.223968
v 0.239667 17.711065 0.202128
v 0.288795 17.643915 0.135312
v 0.275760 17.637127 0.144793
v 0.224283 17.703709 0.214869
v 0.341252 17.554399 0.117231
v 0.342532 17.556236 0.112090
v 0.453630 17.488869 0.071478
v 0.452390 17.487869 0.075759
v 0.453520 17.491262 0.078918
v 0.344571 17.557213 0.119727
v 0.374003 17.586016 0.095119
v 0.372272 17.585117 0.100028
v 0.466607 17.521521 0.070191
v 0.468389 17.522429 0.065751
v 0.468540 17.519087 0.062693
v 0.372145 17.583664 0.093092
v 0.367674 17.580566 0.107397
v 0.296910 17.643820 0.146099
v 0.360756 17.573380 0.114530
v 0.460327 17.507832 0.080305
v 0.463803 17.516041 0.075893
v 0.348835 17.562838 0.105149
v 0.263826 17.627520 0.155770
v 0.357528 17.571232 0.098534
v 0.462672 17.502897 0.061983
v 0.457727 17.494562 0.066158
v 0.845466 17.268089 -0.075995
v 0.711928 17.331263 -0.003609
v 0.711209 17.332952 -0.009743
v 0.843048 17.269064 -0.082427
v 0.845730 17.273363 -0.076115
v 0.713047 17.336569 -0.002685
v 0.827184 17.317488 -0.124156
v 0.710467 17.386127 -0.043633
v 0.711930 17.383978 -0.037528
v 0.830175 17.315966 -0.118258
v 0.826609 17.312908 -0.124564
v 0.709770 17.381556 -0.044943
v 0.834460 17.308418 -0.107441
v 0.713345 17.375286 -0.026928
v 0.714192 17.362570 -0.015537
v 0.839122 17.297089 -0.094783
v 0.951901 17.247288 -0.198797
v 0.839065 17.276957 -0.094835
v 0.711511 17.342176 -0.021000
v 0.711703 17.355650 -0.032948
v 0.834309 17.288931 -0.108553
v 0.966541 17.220333 -0.181688
v 0.578425 17.409006 0.041227
v 0.579328 17.413458 0.043553
v 0.578963 17.410332 0.036213
v 0.585706 17.455118 0.019585
v 0.585748 17.451000 0.017079
v 0.585283 17.453485 0.024814
v 0.581101 17.423254 0.043314
v 0.713947 17.348333 -0.007059
v 0.583033 17.435188 0.039887
v 0.456532 17.498745 0.080874
v 0.585481 17.441174 0.017408
v 0.710652 17.370087 -0.041155
v 0.584277 17.429005 0.021026
v 0.466455 17.511826 0.061132
v 0.150791 17.882660 0.427422
v 0.151612 17.885427 0.421616
v 0.204494 17.918268 0.367404
v 0.204960 17.915804 0.375988
v 0.201421 17.906828 0.391293
v 0.223955 17.793003 0.294979
v 0.159331 17.894026 0.411130
v 0.180753 17.776861 0.315950
v 0.581509 17.417862 0.028387
v 1.591766 16.978962 -0.653681
v 1.688889 16.872049 -0.761511
v 1.599639 16.994905 -0.666382
v 1.704669 16.892611 -0.778929
v 1.487785 17.076586 -0.557337
v 0.584410 17.446054 0.032651
v 0.120259 18.129995 0.586518
v 0.083703 18.241282 0.650733
v 0.134160 18.150957 0.548214
v 0.100359 18.257957 0.617826
v 1.069818 17.193731 -0.290904
v 1.096310 17.170446 -0.270128
v 1.307227 17.109125 -0.473581
v 1.362280 17.117043 -0.455295
v 0.252394 17.709984 0.210937
v 0.211691 17.693443 0.228433
v 0.352064 17.564568 0.118733
v 0.365976 17.578453 0.094373
v 0.843247 17.284218 -0.083359
v 0.829570 17.302153 -0.118913
vn -0.6357 -0.7719 0.0091
vn -0.5394 -0.8305 0.1388
vn -0.4119 -0.9093 0.0600
vn -0.5006 -0.8639 -0.0564
vn -0.1450 0.7822 -0.6059
vn -0.1824 0.8025 -0.5680
vn -0.0366 0.8830 -0.4679
vn 0.0223 0.8498 -0.5266
vn 0.0602 0.8439 -0.5332
vn -0.1142 0.7852 -0.6087
vn -0.6985 -0.7156 0.0012
vn -0.6031 -0.7859 0.1364
vn -0.7391 0.3174 -0.5941
vn -0.5030 0.4593 -0.7322
vn -0.4533 0.5174 -0.7258
vn -0.6896 0.3723 -0.6211
vn -0.7756 0.2991 -0.5559
vn -0.7890 0.2778 -0.5480
vn -0.7651 0.2363 -0.5990
vn -0.7324 0.2750 -0.6229
vn -0.4925 0.4332 -0.7549
vn -0.3912 -0.8638 0.3176
vn -0.4496 -0.8323 0.3241
vn -0.3665 -0.8225 0.4350
vn -0.3132 -0.8505 0.4225
vn -0.2088 -0.9272 0.3109
vn -0.2806 -0.9345 0.2190
vn 0.2261 0.8823 -0.4127
vn 0.1412 0.9338 -0.3287
vn 0.1963 0.9365 -0.2906
vn 0.2960 0.8737 -0.3861
vn 0.3476 0.8505 -0.3948
vn 0.2718 0.8646 -0.4226
vn 0.5462 -0.4526 0.7048
vn 0.2873 -0.5440 0.7883
vn 0.4108 -0.5531 0.7248
vn 0.6341 -0.4303 0.6425
vn 0.7802 -0.3083 0.5443
vn 0.7828 -0.2962 0.5472
vn 0.7529 -0.2568 0.6060
vn 0.4325 -0.4417 0.7861
vn 0.1451 -0.5286 0.8364
vn 0.6722 0.7401 0.0180
vn 0.7397 0.6709 0.0527
vn 0.6255 0.7676 -0.1396
vn 0.5563 0.8162 -0.1559
vn 0.4078 0.9102 -0.0720
vn 0.5125 0.8554 0.0757
vn 0.2346 -0.5715 0.7863
vn 0.2538 -0.6589 0.7081
vn 0.0868 -0.7966 0.5982
vn 0.0324 -0.7100 0.7035
vn 0.0028 -0.6912 0.7227
vn 0.2188 -0.5574 0.8009
vn -0.9550 -0.1407 -0.2611
vn -0.9502 -0.1764 -0.2567
vn -0.8900 -0.0426 -0.4539
vn -0.8939 -0.0096 -0.4481
vn -0.9144 0.0548 -0.4011
vn -0.9703 -0.0725 -0.2307
vn -0.0690 -0.5341 0.8426
vn -0.0105 -0.5555 0.8315
vn 0.0805 -0.4997 0.8624
vn 0.0738 -0.4853 0.8712
vn -0.0753 -0.5242 0.8482
vn 0.9783 0.1918 0.0787
vn 0.9768 0.1766 0.1214
vn 0.9592 0.0842 0.2697
vn 0.9718 0.1105 0.2082
vn 0.9847 0.1212 0.1253
vn 0.9806 0.1952 0.0179
vn -0.1444 0.5470 -0.8246
vn -0.2438 0.5314 -0.8113
vn -0.3641 0.4644 -0.8073
vn -0.2672 0.4921 -0.8285
vn -0.0773 0.5591 -0.8255
vn 0.8961 -0.0407 0.4420
vn 0.8539 -0.0722 0.5154
vn 0.6267 -0.2425 0.7405
vn 0.6768 -0.2368 0.6971
vn 0.9415 -0.0328 0.3355
vn -0.7486 0.1566 -0.6442
vn -0.7295 0.1397 -0.6696
vn -0.6244 0.2402 -0.7432
vn -0.6833 0.2260 -0.6943
vn -0.7932 0.2027 -0.5742
vn 0.5757 0.5550 0.6005
vn 0.4779 0.7563 0.4468
vn 0.3885 0.8817 0.2678
vn 0.5129 0.7573 0.4043
vn 0.5983 0.5534 0.5795
vn 0.6002 0.2867 0.7467
vn -0.0516 -0.9354 0.3499
vn -0.2232 -0.9544 0.1984
vn -0.3251 -0.9441 0.0555
vn -0.1563 -0.9627 0.2211
vn 0.0039 -0.9464 0.3228
vn 0.1138 -0.8844 0.4526
vn -0.6496 -0.5656 -0.5081
vn -0.5172 -0.7936 -0.3205
vn -0.4430 -0.8735 -0.2017
vn -0.5903 -0.7253 -0.3541
vn -0.6794 -0.4709 -0.5628
vn -0.6677 -0.2006 -0.7169
vn 0.1562 0.9329 -0.3246
vn 0.3329 0.9229 -0.1936
vn 0.4183 0.9063 -0.0612
vn 0.2461 0.9468 -0.2074
vn 0.0796 0.9522 -0.2949
vn -0.0190 0.9105 -0.4130
vn 0.3920 0.9115 0.1246
vn 0.2571 0.9660 0.0271
vn 0.2228 0.9732 -0.0572
vn 0.3673 0.9294 0.0355
vn 0.5190 0.8292 0.2077
vn 0.5301 0.7923 0.3019
vn -0.4655 -0.8737 -0.1416
vn -0.3210 -0.9462 -0.0412
vn -0.2372 -0.9704 0.0454
vn -0.3842 -0.9219 -0.0495
vn -0.5292 -0.8197 -0.2190
vn -0.5970 -0.7395 -0.3111
vn -0.1466 0.8592 -0.4902
vn -0.0283 0.9288 -0.3694
vn -0.4347 -0.8794 -0.1939
vn -0.3573 -0.9299 -0.0872
vn -0.0786 -0.9691 0.2338
vn -0.1481 -0.9792 0.1390
vn -0.1615 -0.9767 0.1412
vn -0.1282 -0.9047 0.4063
vn 0.0950 -0.8967 0.4324
vn 0.1126 0.9725 -0.2040
vn 0.1934 0.9723 -0.1314
vn 0.1516 0.9781 -0.1425
vn 0.2245 -0.7926 0.5669
vn 0.4169 0.8678 0.2705
vn 0.3239 0.9384 0.1200
vn 0.2415 -0.6513 0.7194
vn 0.1319 -0.6387 0.7581
vn 0.3382 -0.4669 0.8171
vn 0.4345 -0.5402 0.7207
vn 0.2368 -0.6184 0.7494
vn -0.9320 -0.2962 -0.2087
vn -0.9802 -0.1367 -0.1432
vn -0.9537 0.0160 -0.3003
vn -0.9202 -0.1130 -0.3747
vn -0.7909 -0.3279 -0.5166
vn -0.7937 -0.5135 -0.3260
vn -0.1944 0.6271 -0.7543
vn -0.0675 0.5693 -0.8193
vn -0.2925 0.4034 -0.8670
vn -0.4013 0.5211 -0.7533
vn -0.2388 0.6021 -0.7619
vn 0.9345 0.3232 0.1494
vn 0.9746 0.2164 0.0582
vn 0.9758 0.0797 0.2036
vn 0.9358 0.1620 0.3132
vn 0.8182 0.3838 0.4280
vn 0.8168 0.5154 0.2593
vn 0.6554 -0.3537 0.6674
vn 0.5697 -0.1837 0.8010
vn 0.6681 -0.0178 0.7439
vn 0.7584 -0.2336 0.6085
vn -0.6410 0.3399 -0.6882
vn -0.5489 0.1465 -0.8230
vn -0.6362 0.0406 -0.7704
vn -0.7394 0.2388 -0.6295
vn -0.6333 -0.6756 -0.3774
vn -0.6246 -0.5070 -0.5941
vn -0.5591 -0.6037 -0.5683
vn -0.5709 -0.7487 -0.3369
vn -0.0210 -0.6264 0.7792
vn -0.1032 -0.5922 0.7991
vn 0.0527 -0.4022 0.9140
vn 0.1593 -0.4276 0.8898
vn 0.6611 0.6702 0.3374
vn 0.6517 0.5662 0.5047
vn 0.5744 0.6351 0.5164
vn 0.5797 0.7380 0.3452
vn 0.1064 0.5724 -0.8130
vn 0.1070 0.6131 -0.7827
vn -0.0760 0.3929 -0.9164
vn -0.1080 0.3615 -0.9261
vn 0.5880 0.3546 0.7269
vn 0.7517 0.1539 0.6413
vn 0.4985 0.1413 0.8553
vn 0.4182 0.1923 0.8878
vn 0.5174 0.4217 0.7446
vn -0.5403 -0.2356 -0.8078
vn -0.7033 -0.0632 -0.7081
vn -0.4699 -0.1062 -0.8763
vn -0.4090 -0.1647 -0.8976
vn -0.4798 -0.3377 -0.8098
vn -0.3870 -0.9219 0.0189
vn -0.5060 -0.8508 -0.1418
vn -0.5517 -0.7651 -0.3320
vn -0.4733 -0.8686 -0.1467
vn 0.5130 0.0058 0.8583
vn 0.5845 0.2865 0.7591
vn 0.4132 0.0217 0.9104
vn 0.2820 -0.2346 0.9303
vn 0.4775 0.8782 -0.0277
vn 0.5442 0.8272 0.1398
vn 0.5869 0.7539 0.2951
vn 0.5476 0.8281 0.1197
vn -0.5444 0.1132 -0.8311
vn -0.6455 -0.2023 -0.7365
vn -0.4947 0.0176 -0.8689
vn -0.3428 0.3192 -0.8835
vn 0.6094 0.7263 0.3179
vn 0.6097 0.6115 0.5044
vn 0.5899 0.4970 0.6364
vn 0.6143 0.6661 0.4230
vn 0.5053 0.8545 0.1205
vn -0.5692 -0.7445 -0.3489
vn -0.5817 -0.5966 -0.5529
vn -0.5947 -0.4901 -0.6372
vn -0.6180 -0.6592 -0.4284
vn -0.4551 -0.8806 -0.1317
vn 0.0056 -0.4495 0.8933
vn 0.1610 -0.2356 0.9584
vn -0.5558 -0.7910 -0.2557
vn -0.5608 -0.6796 -0.4729
vn -0.0955 0.5091 -0.8554
vn -0.2653 0.2504 -0.9311
vn 0.5583 0.7833 0.2733
vn 0.5739 0.6914 0.4389
vn 0.3700 0.1023 0.9234
vn 0.5425 0.3533 0.7622
vn 0.4843 0.3244 0.8125
vn 0.2763 -0.0678 0.9587
vn -0.4404 -0.1306 -0.8883
vn -0.5961 -0.3605 -0.7175
vn -0.4900 -0.3115 -0.8142
vn -0.3093 0.0329 -0.9504
vn -0.9843 -0.0597 -0.1659
vn -0.9425 0.0713 -0.3264
vn 0.1217 -0.5792 0.8060
vn 0.9824 0.1864 0.0109
vn 0.9874 0.0915 0.1294
vn -0.2647 0.5481 -0.7934
vn 0.9381 -0.0902 0.3343
vn 0.9012 -0.1421 0.4094
vn -0.8340 0.2299 -0.5015
vn -0.8496 0.2135 -0.4823
vn -0.5219 -0.4630 -0.7165
vn -0.2226 -0.8216 0.5248
vn -0.2686 -0.7960 0.5424
vn 0.3716 0.8606 -0.3483
vn 0.4295 0.8313 -0.3529
vn 0.2552 0.9351 -0.2457
vn 0.5517 0.5074 0.6620
vn 0.3559 -0.4060 0.8417
vn 0.3332 -0.3902 0.8583
vn -0.6104 0.3088 -0.7294
vn -0.5080 0.3508 -0.7867
vn 0.3452 0.9375 -0.0439
vn -0.2983 -0.9535 0.0429
vn -0.2385 -0.9694 0.0576
vn 0.1943 0.9781 -0.0741
vn 0.8524 -0.0850 0.5160
vn -0.8199 0.1312 -0.5573
vn 0.3834 -0.0888 0.9193
vn -0.3719 0.0356 -0.9276
vn 0.6080 0.5891 0.5322
vn -0.6565 -0.5543 -0.5116
usemtl material1576.003
s 1
f 1//1 2//2 3//3 4//4
f 1//5 4//6 5//7 6//8
f 1//5 6//8 7//9 8//10
f 1//1 8//11 9//12 2//2
f 10//13 11//14 12//15 13//16
f 10//13 13//16 14//17 15//18
f 10//13 15//18 16//19 17//20
f 10//13 17//20 18//21 11//14
f 19//22 20//23 21//24 22//25
f 19//22 22//25 23//26 24//27
f 19//22 24//27 3//3 2//2
f 19//22 2//2 9//12 20//23
f 25//28 6//8 5//7 26//29
f 25//28 26//29 27//30 28//31
f 25//28 28//31 29//32 30//33
f 25//28 30//33 7//9 6//8
f 31//34 32//35 33//36 34//37
f 31//34 34//37 35//38 36//39
f 31//34 36//39 37//40 38//41
f 31//34 38//41 39//42 32//35
f 40//43 41//44 42//45 43//46
f 40//43 43//46 44//47 45//48
f 40//49 45//50 46//51 47//52
f 40//49 47//52 48//53 41//54
f 49//55 50//56 51//57 52//58
f 49//55 52//58 53//59 54//60
f 49//61 54//62 39//42 55//63
f 49//61 55//63 56//64 50//65
f 57//66 58//67 59//68 60//69
f 57//66 60//69 61//70 62//71
f 57//72 62//73 18//21 63//74
f 57//72 63//74 64//75 58//76
f 65//77 66//78 67//79 68//80
f 65//77 68//80 37//40 69//81
f 65//77 69//81 61//70 60//69
f 65//77 60//69 59//68 66//78
f 70//82 71//83 72//84 73//85
f 70//82 73//85 16//19 74//86
f 70//82 74//86 53//59 52//58
f 70//82 52//58 51//57 71//83
f 75//87 76//88 77//89 78//90
f 75//87 78//90 79//91 80//92
f 75//93 80//94 81//95 82//96
f 75//93 82//96 83//97 76//98
f 84//99 85//100 86//101 87//102
f 84//99 87//102 88//103 89//104
f 84//105 89//106 90//107 91//108
f 84//105 91//108 92//109 85//110
f 93//111 94//112 95//113 96//114
f 93//111 96//114 97//115 98//116
f 93//111 98//116 79//91 78//90
f 93//111 78//90 77//89 94//112
f 99//117 100//118 101//119 102//120
f 99//117 102//120 103//121 104//122
f 99//117 104//122 88//103 87//102
f 99//117 87//102 86//101 100//118
f 105//123 85//110 92//109 106//124
f 105//123 106//124 5//7 4//6
f 105//125 4//4 3//3 107//126
f 105//125 107//126 86//101 85//100
f 108//127 109//128 101//119 110//129
f 108//127 110//129 23//26 111//130
f 108//127 111//130 46//51 112//131
f 108//127 112//131 83//97 109//128
f 113//132 114//133 95//113 115//134
f 113//132 115//134 27//30 26//29
f 113//132 26//29 5//7 106//124
f 113//132 106//124 92//109 114//133
f 116//135 76//98 83//97 112//131
f 116//135 112//131 46//51 45//50
f 116//136 45//48 44//47 117//137
f 116//136 117//137 77//89 76//88
f 118//138 119//139 120//140 121//141
f 118//138 121//141 33//36 122//142
f 118//143 122//144 123//145 124//146
f 118//143 124//146 125//147 119//148
f 126//149 127//150 128//151 129//152
f 126//149 129//152 12//15 130//153
f 126//154 130//155 131//156 132//157
f 126//154 132//157 133//158 127//159
f 134//160 135//161 136//162 137//163
f 134//160 137//163 35//38 34//37
f 134//160 34//37 33//36 121//141
f 134//160 121//141 120//140 135//161
f 138//164 139//165 140//166 141//167
f 138//164 141//167 14//17 13//16
f 138//164 13//16 12//15 129//152
f 138//164 129//152 128//151 139//165
f 142//168 119//148 125//147 143//169
f 142//168 143//169 144//170 145//171
f 142//172 145//173 146//174 147//175
f 142//172 147//175 120//140 119//139
f 148//176 127//159 133//158 149//177
f 148//176 149//177 150//178 151//179
f 148//180 151//181 152//182 153//183
f 148//180 153//183 128//151 127//150
f 154//184 155//185 136//162 156//186
f 154//184 156//186 157//187 158//188
f 154//184 158//188 150//178 149//177
f 154//184 149//177 133//158 155//185
f 159//189 160//190 140//166 161//191
f 159//189 161//191 162//192 163//193
f 159//189 163//193 144//170 143//169
f 159//189 143//169 125//147 160//190
f 164//194 165//195 166//196 167//197
f 164//194 167//197 81//95 80//94
f 164//198 80//92 79//91 168//199
f 164//198 168//199 169//200 165//201
f 170//202 171//203 172//204 173//205
f 170//202 173//205 90//107 89//106
f 170//206 89//104 88//103 174//207
f 170//206 174//207 175//208 171//209
f 176//210 177//211 178//212 179//213
f 176//210 179//213 97//115 180//214
f 176//210 180//214 90//107 173//205
f 176//210 173//205 172//204 177//211
f 181//215 182//216 183//217 184//218
f 181//215 184//218 103//121 185//219
f 181//215 185//219 81//95 167//197
f 181//215 167//197 166//196 182//216
f 186//220 165//201 169//200 187//221
f 186//220 187//221 146//174 145//173
f 186//222 145//171 144//170 188//223
f 186//222 188//223 166//196 165//195
f 189//224 171//209 175//208 190//225
f 189//224 190//225 152//182 151//181
f 189//226 151//179 150//178 191//227
f 189//226 191//227 172//204 171//203
f 192//228 193//229 178//212 194//230
f 192//228 194//230 157//187 195//231
f 192//228 195//231 146//174 187//221
f 192//228 187//221 169//200 193//229
f 196//232 197//233 183//217 198//234
f 196//232 198//234 162//192 199//235
f 196//232 199//235 152//182 190//225
f 196//232 190//225 175//208 197//233
f 200//236 54//60 53//59 201//237
f 200//236 201//237 123//145 122//144
f 200//238 122//142 33//36 32//35
f 200//238 32//35 39//42 54//62
f 202//239 62//71 61//70 203//240
f 202//239 203//240 131//156 130//155
f 202//241 130//153 12//15 11//14
f 202//241 11//14 18//21 62//73
f 204//242 69//81 37//40 36//39
f 204//242 36//39 35//38 205//243
f 204//242 205//243 131//156 203//240
f 204//242 203//240 61//70 69//81
f 206//244 74//86 16//19 15//18
f 206//244 15//18 14//17 207//245
f 206//244 207//245 123//145 201//237
f 206//244 201//237 53//59 74//86
f 208//246 188//223 144//170 163//193
f 208//246 163//193 162//192 198//234
f 208//246 198//234 183//217 182//216
f 208//246 182//216 166//196 188//223
f 209//247 47//52 46//51 111//130
f 209//247 111//130 23//26 22//25
f 209//247 22//25 21//24 210//248
f 209//247 210//248 48//53 47//52
f 211//249 43//46 42//45 212//250
f 211//249 212//250 29//32 28//31
f 211//249 28//31 27//30 213//251
f 211//249 213//251 44//47 43//46
f 214//252 191//227 150//178 158//188
f 214//252 158//188 157//187 194//230
f 214//252 194//230 178//212 177//211
f 214//252 177//211 172//204 191//227
f 215//253 55//63 39//42 38//41
f 215//253 38//41 37//40 68//80
f 215//253 68//80 67//79 216//254
f 215//253 216//254 56//64 55//63
f 217//255 63//74 18//21 17//20
f 217//255 17//20 16//19 73//85
f 217//255 73//85 72//84 218//256
f 217//255 218//256 64//75 63//74
f 219//257 91//108 90//107 180//214
f 219//257 180//214 97//115 96//114
f 219//257 96//114 95//113 114//133
f 219//257 114//133 92//109 91//108
f 220//258 82//96 81//95 185//219
f 220//258 185//219 103//121 102//120
f 220//258 102//120 101//119 109//128
f 220//258 109//128 83//97 82//96
f 221//259 107//126 3//3 24//27
f 221//259 24//27 23//26 110//129
f 221//259 110//129 101//119 100//118
f 221//259 100//118 86//101 107//126
f 222//260 117//137 44//47 213//251
f 222//260 213//251 27//30 115//134
f 222//260 115//134 95//113 94//112
f 222//260 94//112 77//89 117//137
f 223//261 132//157 131//156 205//243
f 223//261 205//243 35//38 137//163
f 223//261 137//163 136//162 155//185
f 223//261 155//185 133//158 132//157
f 224//262 124//146 123//145 207//245
f 224//262 207//245 14//17 141//167
f 224//262 141//167 140//166 160//190
f 224//262 160//190 125//147 124//146
f 225//263 147//175 146//174 195//231
f 225//263 195//231 157//187 156//186
f 225//263 156//186 136//162 135//161
f 225//263 135//161 120//140 147//175
f 226//264 153//183 152//182 199//235
f 226//264 199//235 162//192 161//191
f 226//264 161//191 140//166 139//165
f 226//264 139//165 128//151 153//183
f 227//265 168//199 79//91 98//116
f 227//265 98//116 97//115 179//213
f 227//265 179//213 178//212 193//229
f 227//265 193//229 169//200 168//199
f 228//266 174//207 88//103 104//122
f 228//266 104//122 103//121 184//218
f 228//266 184//218 183//217 197//233
f 228//266 197//233 175//208 174//207
