# Blender v3.2.1 OBJ File: 'btx-face-correct.blend'
# www.blender.org
mtllib rhomboid_minor_right.mtl
o Rhomboid_Minor_Muscle_Right
v -0.127716 17.298357 -1.073503
v -0.064775 17.365173 -1.030684
v -0.061995 17.299637 -1.062078
v -0.130361 17.244307 -1.109095
v -0.217893 17.188753 -1.174517
v -0.211432 17.229670 -1.139725
v -0.135787 17.216579 -1.126486
v -0.229502 17.174355 -1.189854
v -0.059871 17.258081 -1.078188
v -0.227049 17.152708 -1.176722
v -0.132728 17.195780 -1.116073
v -0.128523 17.196115 -1.089559
v -0.220819 17.144615 -1.147299
v -0.055150 17.237684 -1.069798
v -0.052465 17.245857 -1.047552
v -0.251194 17.402435 -0.989702
v -0.263820 17.446236 -0.971937
v -0.373480 17.394171 -1.078167
v -0.356937 17.351173 -1.095093
v -0.339134 17.296726 -1.121787
v -0.240470 17.345043 -1.019686
v -0.464306 17.315121 -1.192735
v -0.445208 17.265007 -1.217848
v -0.479745 17.354710 -1.176291
v -0.231992 17.281265 -1.049078
v -0.321115 17.239471 -1.141123
v -0.306302 17.186201 -1.159585
v -0.225592 17.220181 -1.079798
v -0.421106 17.211870 -1.231398
v -0.399178 17.161982 -1.241679
v -0.146662 17.536785 -0.889556
v -0.054968 17.618761 -0.835747
v -0.057068 17.638309 -0.839599
v -0.155149 17.558186 -0.894738
v -0.278001 17.469244 -0.979201
v -0.162505 17.561609 -0.917513
v -0.285026 17.476244 -0.999667
v -0.063987 17.637329 -0.866218
v -0.221101 17.170868 -1.113764
v -0.130509 17.231794 -1.058649
v -0.135336 17.292639 -1.024300
v -0.056452 17.290003 -1.022091
v -0.063046 17.361231 -0.990990
v -0.356425 17.376131 -1.163782
v -0.465037 17.321161 -1.276937
v -0.487843 17.362068 -1.247987
v -0.381006 17.415239 -1.136404
v -0.276182 17.472017 -1.021512
v -0.256078 17.431808 -1.051025
v -0.392582 17.423038 -1.111906
v -0.497604 17.379004 -1.217010
v -0.591865 17.258694 -1.344575
v -0.715146 17.193211 -1.373928
v -0.724360 17.235723 -1.338151
v -0.608072 17.298946 -1.312180
v -0.612526 17.321152 -1.277758
v -0.724481 17.262262 -1.302915
v -0.813119 17.129206 -1.372228
v -0.877714 17.081453 -1.359094
v -0.883259 17.145485 -1.321636
v -0.819373 17.182243 -1.335063
v -0.820600 17.215124 -1.301243
v -0.887357 17.183872 -1.289713
v -0.776353 16.868483 -1.438339
v -0.871708 16.781364 -1.456510
v -0.883461 16.773348 -1.475681
v -0.789705 16.861282 -1.465511
v -0.660507 16.968128 -1.435899
v -0.646189 16.971863 -1.402780
v -0.804637 16.882853 -1.481118
v -0.678599 16.989794 -1.458120
v -0.893774 16.795336 -1.483835
v -0.508363 17.050499 -1.345129
v -0.521315 17.054979 -1.374753
v -0.395378 17.113598 -1.301933
v -0.384852 17.101801 -1.277123
v -0.536567 17.078051 -1.396947
v -0.405176 17.137732 -1.320894
v -0.297633 17.123177 -1.210500
v -0.305944 17.135744 -1.237299
v -0.311060 17.158953 -1.253260
v -0.492875 17.376278 -1.188747
v -0.387717 17.417070 -1.088133
v -0.709452 17.265423 -1.274342
v -0.602053 17.321484 -1.248257
v -0.586718 17.301975 -1.234354
v -0.692637 17.247921 -1.261059
v -0.881903 17.191397 -1.265065
v -0.809273 17.220837 -1.274680
v -0.795741 17.204502 -1.265109
v -0.872620 17.175625 -1.259437
v -0.783672 16.969603 -1.388671
v -0.869805 16.896908 -1.412453
v -0.869523 16.824192 -1.437960
v -0.777214 16.907511 -1.414910
v -0.649685 17.004932 -1.376275
v -0.662220 17.055161 -1.351529
v -0.525937 17.118793 -1.304096
v -0.511640 17.075825 -1.322409
v -0.386606 17.121611 -1.256979
v -0.298113 17.143717 -1.183653
v -0.229327 17.330856 -1.094495
v -0.154046 17.496403 -0.984583
v -0.139116 17.398129 -1.029310
v -0.071463 17.457510 -0.993221
v -0.075873 17.547876 -0.951203
v -0.161990 17.545956 -0.947390
v -0.071819 17.607500 -0.906144
v -0.576588 17.264662 -1.246727
v -0.565188 17.217201 -1.269724
v -0.687399 17.212479 -1.271695
v -0.684579 17.164743 -1.295991
v -0.546045 17.167250 -1.287690
v -0.675019 17.110369 -1.323685
v -0.788886 17.119070 -1.315225
v -0.787111 17.045988 -1.353068
v -0.865455 16.994591 -1.372411
v -0.862065 17.087055 -1.326798
v -0.790354 17.171246 -1.282265
v -0.865231 17.144123 -1.284578
v -0.068183 17.450642 -0.951820
v -0.068740 17.533985 -0.908294
v -0.142723 17.442642 -0.949690
v -0.139656 17.368469 -0.987475
v -0.061597 17.587006 -0.864124
v -0.143789 17.498508 -0.912462
v -0.297489 17.202513 -1.226507
v -0.322276 17.288168 -1.196192
v -0.430634 17.251984 -1.299120
v -0.403185 17.186062 -1.314613
v -0.300996 17.170324 -1.247596
v -0.401239 17.154934 -1.323496
v -0.545816 17.149490 -1.384807
v -0.567077 17.204214 -1.367995
v -0.702891 17.142138 -1.404128
v -0.691887 17.087156 -1.429784
v -0.540190 17.108494 -1.397378
v -0.686424 17.032923 -1.451932
v -0.807905 16.993420 -1.442240
v -0.809368 17.063021 -1.408827
v -0.878829 16.996992 -1.400349
v -0.884254 16.911037 -1.439172
v -0.808516 16.930130 -1.469849
v -0.891637 16.842525 -1.469333
v -0.034536 17.384239 -0.992622
v -0.033775 17.383392 -0.979884
v -0.026884 17.309546 -1.010109
v -0.028565 17.312389 -1.022880
v -0.032322 17.315639 -1.037234
v -0.037347 17.385546 -1.007018
v -0.024892 17.266088 -1.043458
v -0.029363 17.281242 -1.049257
v -0.024497 17.275343 -1.028594
v -0.042559 17.475754 -0.971001
v -0.039843 17.475817 -0.954696
v -0.039165 17.476435 -0.940151
v -0.040173 17.562559 -0.911104
v -0.039041 17.562620 -0.894899
v -0.043337 17.563150 -0.929164
v -0.035063 17.624620 -0.881489
v -0.031212 17.619907 -0.863851
v -0.029392 17.615898 -0.848119
v -0.022023 17.652264 -0.828006
v -0.023119 17.639290 -0.826389
v -0.027797 17.649212 -0.850204
v -0.907359 17.168011 -1.270494
v -0.909310 17.160477 -1.288150
v -0.906190 17.131748 -1.311970
v -0.901409 17.132139 -1.299826
v -0.895416 17.133137 -1.288111
v -0.901067 17.157574 -1.268492
v -0.896889 17.068941 -1.341258
v -0.891488 17.073313 -1.332450
v -0.901079 17.065176 -1.350494
v -0.908147 16.876108 -1.427836
v -0.903346 16.872324 -1.421387
v -0.896303 16.975431 -1.379978
v -0.900813 16.974201 -1.386763
v -0.904113 16.973577 -1.393976
v -0.911736 16.880501 -1.434714
v -0.920394 16.809496 -1.465007
v -0.913855 16.802855 -1.455974
v -0.906105 16.796818 -1.447369
v -0.916921 16.757530 -1.472440
v -0.908938 16.764641 -1.460852
v -0.922058 16.774548 -1.475934
v -0.911225 17.172647 -1.285299
v -0.906169 17.132425 -1.316589
v -0.900860 17.064728 -1.354145
v -0.899861 17.165192 -1.256975
v -0.907728 17.180777 -1.261288
v -0.888073 17.075579 -1.330085
v -0.891804 17.134275 -1.284777
v -0.900131 16.871868 -1.419809
v -0.893184 16.976650 -1.378288
v -0.905107 16.751520 -1.461995
v -0.901907 16.795612 -1.445072
v -0.925101 16.765356 -1.484170
v -0.916328 16.743229 -1.478500
v -0.911318 16.882771 -1.437578
v -0.920959 16.812517 -1.468590
v -0.903598 16.974176 -1.396952
v -0.036236 17.383600 -0.977762
v -0.029045 17.309002 -1.007878
v -0.024364 17.262024 -1.031547
v -0.041372 17.563538 -0.891997
v -0.041648 17.477337 -0.937619
v -0.021696 17.645105 -0.815233
v -0.031493 17.615534 -0.845444
v -0.028441 17.661604 -0.846556
v -0.021667 17.664034 -0.818638
v -0.047104 17.564190 -0.937630
v -0.039054 17.627104 -0.889882
v -0.041039 17.386715 -1.014114
v -0.046188 17.476519 -0.978814
v -0.031713 17.271307 -1.059994
v -0.036390 17.317402 -1.044213
v -0.026479 17.251154 -1.052346
vn 0.2035 0.4719 -0.8578
vn 0.2092 0.4179 -0.8841
vn 0.2760 0.4123 -0.8682
vn 0.2361 0.4935 -0.8371
vn 0.4285 0.4266 -0.7965
vn 0.4133 0.4766 -0.7759
vn 0.4970 0.0971 -0.8623
vn 0.5826 -0.0148 -0.8127
vn 0.4906 0.0891 -0.8668
vn 0.6031 -0.5883 -0.5386
vn 0.6297 -0.6306 -0.4536
vn 0.2970 -0.8666 0.4011
vn 0.5320 -0.7865 -0.3137
vn 0.3680 -0.9007 0.2309
vn 0.1526 -0.7893 0.5948
vn 0.5902 -0.2041 -0.7810
vn -0.3390 -0.4912 0.8023
vn -0.4989 -0.2856 0.8182
vn -0.5958 -0.2868 0.7502
vn -0.4905 -0.4886 0.7215
vn -0.5156 -0.4619 0.7217
vn -0.3430 -0.4755 0.8101
vn -0.3572 -0.4801 0.8012
vn -0.3692 -0.4573 0.8090
vn -0.5142 -0.2043 0.8330
vn -0.3706 -0.4382 0.8189
vn -0.5469 -0.4123 0.7286
vn -0.5198 -0.4509 0.7256
vn -0.3370 -0.4871 0.8057
vn -0.4122 -0.3962 0.8204
vn -0.4097 -0.4221 0.8087
vn -0.3213 -0.2847 0.9032
vn -0.2366 -0.3277 0.9147
vn -0.6800 0.4686 0.5639
vn -0.6794 0.3655 0.6362
vn -0.7110 0.2941 0.6388
vn -0.5636 0.8227 -0.0740
vn -0.5192 0.8545 0.0129
vn -0.5045 0.8408 -0.1963
vn -0.2184 -0.6502 0.7277
vn -0.1277 -0.7507 0.6482
vn -0.0400 -0.5739 0.8179
vn -0.0833 -0.4620 0.8830
vn -0.0939 -0.4772 0.8738
vn -0.0739 -0.4157 0.9065
vn 0.4457 0.5726 -0.6881
vn 0.3100 0.5637 -0.7656
vn 0.0757 0.7871 -0.6121
vn 0.1443 0.8351 -0.5309
vn -0.0016 0.8225 -0.5688
vn 0.3317 0.5559 -0.7622
vn -0.3897 0.9204 -0.0322
vn -0.3342 0.9310 -0.1466
vn 0.0540 0.5400 -0.8399
vn -0.1979 0.5145 -0.8344
vn -0.2933 0.6610 -0.6907
vn -0.1241 0.7256 -0.6769
vn -0.3899 0.8975 -0.2062
vn -0.4247 0.8687 -0.2550
vn -0.3918 0.4573 -0.7983
vn -0.4560 0.4138 -0.7880
vn -0.4411 0.4994 -0.7457
vn -0.4072 0.5715 -0.7124
vn -0.4400 0.8255 -0.3535
vn -0.4480 0.7710 -0.4525
vn 0.6650 -0.7320 -0.1480
vn 0.6793 -0.7244 -0.1175
vn 0.5620 -0.5634 -0.6056
vn 0.5920 -0.5846 -0.5549
vn 0.5987 -0.5968 -0.5343
vn 0.6114 -0.7629 -0.2104
vn 0.1535 -0.0556 -0.9866
vn 0.3518 -0.1040 -0.9303
vn 0.0054 0.0191 -0.9998
vn 0.5707 -0.7399 -0.3563
vn 0.5916 -0.5629 -0.5772
vn 0.5856 -0.5218 -0.6203
vn 0.5527 -0.6803 -0.4813
vn 0.4997 -0.1596 -0.8514
vn 0.5780 -0.2403 -0.7798
vn 0.5295 -0.7113 -0.4622
vn 0.5839 -0.5433 -0.6032
vn 0.6222 -0.2038 -0.7558
vn -0.6525 0.5044 0.5656
vn -0.7271 0.3548 0.5878
vn -0.4237 0.7098 0.5627
vn -0.5401 0.6146 0.5749
vn -0.3300 -0.0669 0.9416
vn -0.1540 0.0147 0.9880
vn -0.4166 0.8960 -0.1534
vn -0.3270 0.7846 0.5268
vn 0.0080 -0.0163 0.9998
vn -0.0329 0.3463 0.9376
vn 0.1118 -0.1145 0.9871
vn 0.0425 -0.3990 0.9160
vn 0.0628 -0.3630 0.9297
vn 0.1266 -0.3782 0.9170
vn 0.1261 -0.4440 0.8871
vn 0.0368 -0.5173 0.8550
vn -0.0406 -0.4262 0.9037
vn 0.2063 -0.5002 0.8410
vn 0.1171 -0.5986 0.7925
vn 0.1908 -0.4153 0.8894
vn -0.1953 -0.4167 0.8878
vn -0.1187 -0.5614 0.8190
vn -0.3073 -0.5945 0.7430
vn -0.0379 -0.6685 0.7428
vn -0.2114 -0.7145 0.6670
vn -0.3941 -0.6294 0.6697
vn -0.2873 -0.7466 0.6001
vn 0.4348 0.4389 -0.7863
vn 0.1150 0.5255 -0.8430
vn 0.2163 0.4228 -0.8801
vn 0.1768 0.4049 -0.8971
vn 0.0702 0.5161 -0.8537
vn -0.1575 0.7515 -0.6407
vn -0.1463 0.7182 -0.6803
vn -0.1282 -0.4161 0.9002
vn -0.1214 -0.4313 0.8940
vn 0.0242 -0.4056 0.9137
vn 0.0174 -0.4517 0.8920
vn -0.1717 -0.3946 0.9027
vn -0.0226 -0.4293 0.9029
vn 0.0814 -0.4896 0.8681
vn 0.0446 -0.4339 0.8998
vn 0.0709 -0.4166 0.9063
vn 0.1220 -0.5105 0.8512
vn 0.1297 -0.4819 0.8666
vn 0.1977 -0.5603 0.8044
vn -0.0097 -0.4359 0.9000
vn 0.1322 -0.5488 0.8254
vn 0.0028 -0.5096 0.8604
vn -0.0689 -0.4436 0.8936
vn 0.1905 -0.6379 0.7462
vn 0.0008 -0.5511 0.8344
vn 0.5550 0.4093 -0.7242
vn 0.5471 0.4394 -0.7125
vn 0.4166 0.4268 -0.8027
vn 0.4509 0.3582 -0.8176
vn 0.6005 0.1828 -0.7785
vn 0.5233 0.0966 -0.8466
vn 0.2342 0.3532 -0.9058
vn 0.1723 0.4148 -0.8934
vn -0.1113 0.4248 -0.8984
vn -0.0486 0.3831 -0.9224
vn 0.3377 0.1835 -0.9232
vn 0.0676 0.2666 -0.9614
vn -0.3318 0.3881 -0.8598
vn -0.3666 0.4079 -0.8362
vn -0.4614 0.3918 -0.7960
vn -0.4494 0.3914 -0.8030
vn -0.2199 0.3054 -0.9265
vn -0.3611 0.3396 -0.8685
vn 0.9848 0.1213 -0.1243
vn 0.9264 -0.0840 0.3670
vn 0.9643 -0.0353 0.2625
vn 0.9777 0.1442 -0.1527
vn 0.9245 0.2032 -0.3225
vn 0.9342 0.1876 -0.3036
vn 0.9776 0.0992 -0.1854
vn 0.9255 0.1764 -0.3351
vn 0.9949 -0.0197 0.0987
vn 0.9454 0.1563 -0.2860
vn 0.9903 0.0815 -0.1124
vn 0.9181 -0.1486 0.3674
vn 0.9914 0.0125 -0.1302
vn 0.9115 -0.2821 0.2993
vn 0.9515 0.1172 -0.2844
vn 0.9519 0.0888 -0.2933
vn 0.9842 -0.0471 -0.1706
vn 0.9285 -0.3439 0.1399
vn 0.9846 -0.0031 -0.1747
vn 0.9751 -0.2214 0.0102
vn 0.9530 0.1063 -0.2837
vn -0.8801 -0.3494 0.3215
vn -0.9563 -0.2335 0.1761
vn -0.9559 -0.2291 0.1840
vn -0.8223 -0.3955 0.4091
vn -0.6266 -0.5348 0.5668
vn -0.7485 -0.4880 0.4490
vn -0.8175 -0.2928 0.4960
vn -0.5634 -0.4293 0.7058
vn -0.9736 -0.1257 0.1907
vn -0.8534 -0.1353 0.5035
vn -0.6512 -0.2336 0.7221
vn -0.6044 -0.2936 0.7406
vn -0.8485 -0.1753 0.4994
vn -0.9849 -0.0210 0.1720
vn -0.9730 -0.0004 0.2310
vn -0.9316 -0.0469 0.3604
vn -0.8233 -0.1449 0.5488
vn -0.6732 -0.2198 0.7061
vn -0.7998 -0.1983 0.5665
vn -0.6922 -0.2426 0.6797
vn -0.8901 -0.1208 0.4394
vn -0.4464 0.7472 -0.4923
vn -0.4348 0.4774 -0.7636
vn -0.9802 -0.1626 0.1129
vn -0.9949 -0.1010 -0.0000
vn -0.8335 0.2394 -0.4981
vn -0.3696 -0.3987 0.8393
vn -0.0064 0.2990 0.9542
vn -0.9141 -0.2763 0.2967
vn -0.4221 0.8828 -0.2063
vn -0.0944 -0.5201 0.8489
vn -0.1223 -0.6346 0.7631
vn -0.2002 -0.3316 0.9220
vn -0.1455 -0.3940 0.9075
vn -0.4104 -0.3379 0.8470
vn -0.2254 -0.3270 0.9177
vn -0.0420 0.0590 -0.9974
vn 0.2322 -0.1980 -0.9523
vn -0.9131 -0.1148 0.3913
vn -0.7924 -0.2416 0.5601
vn 0.6745 -0.7315 -0.1000
vn -0.8378 0.2921 -0.4612
vn -0.3832 0.3584 -0.8513
vn -0.9789 0.0280 0.2023
vn -0.8167 0.2786 -0.5053
vn 0.2865 -0.3542 0.8902
vn 0.3645 -0.3671 0.8558
vn 0.9751 -0.0938 0.2008
vn 0.0464 -0.7447 0.6658
vn 0.3825 -0.5467 0.7448
vn 0.3073 -0.4037 0.8617
vn 0.8029 -0.4873 0.3434
vn 0.4954 -0.6480 0.5785
vn -0.4481 0.8579 -0.2514
vn -0.6801 0.5165 0.5203
vn 0.9382 0.1609 -0.3065
vn 0.9866 0.0535 -0.1541
vn -0.5788 0.1210 0.8065
vn 0.5841 0.3993 -0.7066
vn -0.0898 0.7120 -0.6964
vn 0.9131 0.1730 -0.3691
vn 0.6226 0.3378 -0.7058
vn 0.6172 0.3320 -0.7134
vn 0.7447 0.1410 -0.6523
vn 0.6438 0.3291 -0.6908
vn 0.2504 -0.8954 0.3682
vn 0.9025 -0.0275 -0.4297
usemtl material1631.003
s 1
f 1//1 2//2 3//3 4//4
f 5//5 6//6 1//1 4//4
f 7//7 8//8 5//5 4//4
f 3//3 9//9 7//7 4//4
f 10//10 8//8 7//7 11//11
f 12//12 13//13 10//10 11//11
f 14//14 15//15 12//12 11//11
f 7//7 9//9 14//16 11//11
f 16//17 17//18 18//19 19//20
f 20//21 21//22 16//17 19//20
f 22//23 23//24 20//21 19//20
f 18//19 24//25 22//23 19//20
f 25//26 21//22 20//21 26//27
f 27//28 28//29 25//26 26//27
f 29//30 30//31 27//28 26//27
f 20//21 23//24 29//30 26//27
f 31//32 32//33 33//34 34//35
f 35//36 17//18 31//32 34//35
f 36//37 37//38 35//36 34//35
f 33//34 38//39 36//37 34//35
f 39//40 13//41 12//12 40//42
f 41//43 28//29 39//40 40//42
f 42//44 43//45 41//43 40//42
f 12//12 15//15 42//44 40//42
f 44//46 45//47 46//48 47//49
f 48//50 49//51 44//46 47//49
f 50//52 37//38 48//50 47//49
f 46//48 51//53 50//52 47//49
f 52//54 53//55 54//56 55//57
f 46//48 45//47 52//54 55//57
f 56//58 51//53 46//48 55//57
f 54//56 57//59 56//58 55//57
f 58//60 59//61 60//62 61//63
f 54//56 53//55 58//60 61//63
f 62//64 57//59 54//56 61//63
f 60//62 63//65 62//64 61//63
f 64//66 65//67 66//68 67//69
f 68//70 69//71 64//66 67//69
f 70//72 71//73 68//70 67//69
f 66//68 72//74 70//72 67//69
f 73//75 69//71 68//70 74//76
f 75//77 76//78 73//75 74//76
f 77//79 78//80 75//77 74//76
f 68//70 71//73 77//79 74//76
f 79//81 76//78 75//77 80//82
f 10//10 13//13 79//81 80//82
f 81//83 8//8 10//10 80//82
f 75//77 78//80 81//83 80//82
f 50//52 51//53 82//84 83//85
f 35//36 37//38 50//52 83//85
f 18//19 17//18 35//36 83//85
f 82//84 24//25 18//19 83//85
f 56//58 57//59 84//86 85//87
f 82//84 51//53 56//58 85//87
f 86//88 24//25 82//84 85//87
f 84//86 87//89 86//88 85//87
f 62//64 63//65 88//90 89//91
f 84//86 57//59 62//64 89//91
f 90//92 87//89 84//86 89//91
f 88//93 91//94 90//92 89//91
f 92//95 93//96 94//97 95//98
f 96//99 97//100 92//95 95//98
f 64//101 69//102 96//99 95//98
f 94//97 65//103 64//101 95//98
f 98//104 97//100 96//99 99//105
f 100//106 30//31 98//104 99//105
f 73//107 76//108 100//106 99//105
f 96//99 69//102 73//107 99//105
f 27//28 30//31 100//106 101//109
f 39//40 28//29 27//28 101//109
f 79//110 13//41 39//40 101//109
f 100//106 76//108 79//110 101//109
f 102//111 49//51 103//112 104//113
f 1//1 6//6 102//111 104//113
f 105//114 2//2 1//1 104//113
f 103//112 106//115 105//114 104//113
f 48//50 37//38 36//37 107//116
f 103//112 49//51 48//50 107//116
f 108//117 106//115 103//112 107//116
f 36//37 38//39 108//117 107//116
f 22//23 24//25 86//88 109//118
f 110//119 23//24 22//23 109//118
f 111//120 112//121 110//119 109//118
f 86//88 87//89 111//120 109//118
f 29//30 23//24 110//119 113//122
f 98//104 30//31 29//30 113//122
f 114//123 97//100 98//104 113//122
f 110//119 112//121 114//123 113//122
f 114//123 112//121 115//124 116//125
f 92//95 97//100 114//123 116//125
f 117//126 93//96 92//95 116//125
f 115//124 118//127 117//126 116//125
f 111//120 87//89 90//92 119//128
f 115//124 112//121 111//120 119//128
f 120//129 118//127 115//124 119//128
f 90//92 91//94 120//129 119//128
f 121//130 122//131 123//132 124//133
f 41//43 43//45 121//130 124//133
f 25//26 28//29 41//43 124//133
f 123//132 21//22 25//26 124//133
f 125//134 32//33 31//32 126//135
f 123//132 122//131 125//134 126//135
f 16//17 21//22 123//132 126//135
f 31//32 17//18 16//17 126//135
f 102//111 6//6 127//136 128//137
f 44//46 49//51 102//111 128//137
f 129//138 45//47 44//46 128//137
f 127//136 130//139 129//138 128//137
f 5//5 8//8 81//83 131//140
f 127//136 6//6 5//5 131//140
f 132//141 130//139 127//136 131//140
f 81//83 78//80 132//141 131//140
f 129//138 130//139 133//142 134//143
f 52//54 45//47 129//138 134//143
f 135//144 53//55 52//54 134//143
f 133//142 136//145 135//144 134//143
f 132//141 78//80 77//79 137//146
f 133//142 130//139 132//141 137//146
f 138//147 136//145 133//142 137//146
f 77//79 71//73 138//147 137//146
f 135//144 136//145 139//148 140//149
f 58//60 53//55 135//144 140//149
f 141//150 59//61 58//60 140//149
f 139//148 142//151 141//150 140//149
f 138//147 71//73 70//72 143//152
f 139//148 136//145 138//147 143//152
f 144//153 142//151 139//148 143//152
f 70//72 72//74 144//153 143//152
f 145//154 146//155 147//156 148//157
f 149//158 150//159 145//154 148//157
f 151//160 152//161 149//158 148//157
f 147//156 153//162 151//160 148//157
f 145//154 150//159 154//163 155//164
f 156//165 146//155 145//154 155//164
f 157//166 158//167 156//165 155//164
f 154//163 159//168 157//166 155//164
f 157//166 159//168 160//169 161//170
f 162//171 158//167 157//166 161//170
f 163//172 164//173 162//171 161//170
f 160//169 165//174 163//172 161//170
f 166//175 167//176 168//177 169//178
f 170//179 171//180 166//175 169//178
f 172//181 173//182 170//179 169//178
f 168//177 174//183 172//181 169//178
f 175//184 176//185 177//186 178//187
f 179//188 180//189 175//184 178//187
f 172//181 174//183 179//188 178//187
f 177//186 173//182 172//181 178//187
f 175//184 180//189 181//190 182//191
f 183//192 176//185 175//184 182//191
f 184//193 185//194 183//192 182//191
f 181//190 186//195 184//193 182//191
f 187//196 63//65 60//62 188//197
f 168//177 167//176 187//198 188//199
f 189//200 174//183 168//177 188//199
f 60//62 59//61 189//200 188//197
f 190//201 91//94 88//93 191//202
f 166//175 171//180 190//201 191//203
f 187//198 167//176 166//175 191//203
f 88//90 63//65 187//196 191//204
f 192//205 118//127 120//129 193//206
f 170//179 173//182 192//205 193//206
f 190//201 171//180 170//179 193//206
f 120//129 91//94 190//201 193//206
f 194//207 93//96 117//126 195//208
f 177//186 176//185 194//207 195//208
f 192//205 173//182 177//186 195//208
f 117//126 118//127 192//205 195//208
f 196//209 65//103 94//97 197//210
f 183//192 185//194 196//209 197//210
f 194//207 176//185 183//192 197//210
f 94//97 93//96 194//207 197//210
f 198//211 72//74 66//68 199//212
f 184//193 186//195 198//213 199//214
f 196//209 185//194 184//193 199//214
f 66//68 65//67 196//215 199//215
f 200//216 142//151 144//153 201//217
f 181//190 180//189 200//216 201//218
f 198//213 186//195 181//190 201//218
f 144//153 72//74 198//211 201//217
f 189//200 59//61 141//150 202//219
f 179//188 174//183 189//200 202//219
f 200//216 180//189 179//188 202//219
f 141//150 142//151 200//216 202//219
f 203//220 43//45 42//44 204//221
f 147//156 146//155 203//220 204//221
f 205//222 153//162 147//156 204//221
f 42//44 15//15 205//223 204//221
f 206//224 122//131 121//130 207//225
f 156//165 158//167 206//224 207//225
f 203//220 146//155 156//165 207//225
f 121//130 43//45 203//220 207//225
f 208//226 32//33 125//134 209//227
f 162//171 164//173 208//226 209//227
f 206//224 158//167 162//171 209//227
f 125//134 122//131 206//224 209//227
f 210//228 38//39 33//34 211//229
f 163//172 165//174 210//230 211//231
f 208//226 164//173 163//172 211//231
f 33//34 32//33 208//232 211//229
f 212//233 106//115 108//117 213//234
f 160//169 159//168 212//233 213//235
f 210//230 165//174 160//169 213//235
f 108//117 38//39 210//228 213//234
f 214//236 2//2 105//114 215//237
f 154//163 150//159 214//236 215//237
f 212//233 159//168 154//163 215//237
f 105//114 106//115 212//233 215//237
f 216//238 9//9 3//3 217//239
f 149//158 152//161 216//238 217//239
f 214//236 150//159 149//158 217//239
f 3//3 2//2 214//236 217//239
f 205//223 15//15 14//14 218//240
f 151//160 153//162 205//222 218//241
f 216//238 152//161 151//160 218//241
f 14//16 9//9 216//238 218//241
