# Blender v3.2.1 OBJ File: ''
# www.blender.org
mtllib scalenus_anterior_right_1.mtl
o Scalenus_Anterior_Muscle_Right1
v -0.732808 17.451155 -0.192256
v -0.761338 17.418049 -0.203053
v -0.756823 17.417334 -0.204897
v -0.727446 17.449486 -0.193804
v -0.696822 17.483612 -0.184624
v -0.702742 17.486013 -0.183050
v -0.724221 17.449135 -0.196064
v -0.693216 17.482580 -0.187021
v -0.754279 17.417788 -0.207310
v -0.746428 17.457373 -0.192655
v -0.773638 17.422556 -0.202134
v -0.767266 17.419909 -0.202110
v -0.739603 17.453987 -0.191924
v -0.710263 17.489519 -0.182965
v -0.717602 17.493340 -0.184067
v -0.755400 17.463575 -0.196600
v -0.783981 17.428640 -0.205063
v -0.779483 17.425625 -0.203194
v -0.751878 17.460690 -0.194294
v -0.722975 17.496677 -0.186053
v -0.726002 17.499289 -0.188709
v -0.755016 17.466658 -0.202105
v -0.786301 17.432745 -0.210149
v -0.786315 17.431120 -0.207513
v -0.756437 17.465664 -0.199332
v -0.726302 17.500919 -0.191817
v -0.723979 17.501289 -0.194961
v -0.745912 17.464666 -0.206050
v -0.779231 17.432495 -0.214440
v -0.783753 17.433199 -0.212572
v -0.751160 17.466255 -0.204533
v -0.719139 17.500120 -0.197727
v -0.713210 17.497805 -0.199303
v -0.734778 17.458931 -0.205024
v -0.766920 17.428030 -0.215404
v -0.773295 17.430656 -0.215412
v -0.740315 17.462093 -0.206087
v -0.707620 17.494732 -0.198882
v -0.702477 17.491308 -0.197160
v -0.725823 17.452513 -0.200992
v -0.756588 17.421934 -0.212441
v -0.761079 17.424961 -0.214334
v -0.729708 17.455570 -0.203242
v -0.697888 17.487934 -0.194837
v -0.694419 17.485071 -0.192210
v -0.754261 17.419432 -0.209962
v -0.723837 17.450256 -0.198530
v -0.692639 17.483175 -0.189577
v -0.265749 18.110092 -0.232076
v -0.248481 18.156307 -0.231775
v -0.250553 18.156473 -0.231134
v -0.268240 18.110336 -0.230254
v -0.283882 18.060061 -0.226221
v -0.280995 18.059694 -0.229301
v -0.271363 18.109184 -0.229921
v -0.287783 18.059017 -0.224690
v -0.252907 18.155481 -0.231870
v -0.255096 18.153502 -0.234243
v -0.274670 18.106867 -0.231602
v -0.292277 18.056833 -0.225467
v -0.277701 18.103781 -0.234875
v -0.296585 18.053875 -0.228246
v -0.256980 18.150873 -0.237787
v -0.258416 18.147940 -0.242033
v -0.279996 18.100319 -0.239319
v -0.299928 18.050510 -0.232721
v -0.281338 18.096977 -0.244020
v -0.301948 18.047209 -0.237927
v -0.259271 18.145113 -0.246164
v -0.259412 18.142807 -0.249362
v -0.281509 18.094255 -0.248064
v -0.302285 18.044437 -0.242900
v -0.280304 18.092524 -0.251030
v -0.300841 18.042557 -0.247110
v -0.258490 18.141415 -0.251267
v -0.256158 18.141327 -0.251519
v -0.277519 18.092157 -0.252499
v -0.297515 18.041920 -0.250030
v -0.273911 18.093042 -0.252214
v -0.293103 18.042475 -0.251021
v -0.253194 18.142347 -0.250183
v -0.250374 18.144274 -0.247324
v -0.270238 18.095070 -0.249917
v -0.288401 18.044165 -0.249441
v -0.267076 18.098001 -0.246379
v -0.284173 18.046898 -0.246151
v -0.248130 18.146812 -0.243628
v -0.246893 18.149662 -0.239777
v -0.265000 18.101601 -0.242371
v -0.281183 18.050587 -0.242007
v -0.264068 18.105225 -0.238373
v -0.279588 18.054434 -0.237512
v -0.246587 18.152454 -0.236253
v -0.247138 18.154819 -0.233533
v -0.264338 18.108221 -0.234862
v -0.279545 18.057644 -0.233171
v -0.481243 17.678066 -0.173138
v -0.431057 17.724115 -0.174484
v -0.433596 17.726894 -0.169377
v -0.484054 17.680601 -0.168376
v -0.535060 17.639627 -0.169314
v -0.531885 17.637356 -0.173869
v -0.489920 17.683975 -0.164383
v -0.541268 17.642662 -0.165749
v -0.439085 17.730459 -0.164903
v -0.448399 17.734612 -0.160733
v -0.499714 17.687996 -0.160996
v -0.551213 17.646229 -0.163426
v -0.511256 17.691957 -0.159667
v -0.562325 17.649778 -0.163188
v -0.459886 17.738510 -0.158605
v -0.471896 17.741318 -0.160256
v -0.522368 17.695164 -0.161846
v -0.572029 17.652760 -0.165879
v -0.530752 17.697058 -0.166487
v -0.578772 17.654627 -0.170525
v -0.481526 17.742710 -0.164710
v -0.485876 17.742373 -0.170988
v -0.534109 17.697090 -0.172543
v -0.581003 17.654827 -0.176157
v -0.532332 17.695213 -0.179401
v -0.578598 17.653250 -0.182138
v -0.484730 17.740248 -0.178603
v -0.477872 17.736280 -0.187068
v -0.525315 17.691378 -0.186445
v -0.571436 17.649782 -0.187834
v -0.515004 17.686762 -0.191914
v -0.561559 17.645531 -0.192053
v -0.467276 17.731644 -0.193889
v -0.454919 17.727510 -0.196574
v -0.503342 17.682545 -0.194046
v -0.551011 17.641602 -0.193606
v -0.492849 17.679165 -0.193203
v -0.541750 17.638458 -0.192645
v -0.443676 17.724276 -0.195775
v -0.436424 17.722332 -0.192144
v -0.486043 17.677055 -0.189746
v -0.535737 17.636564 -0.189324
v -0.482205 17.676195 -0.184634
v -0.532367 17.635811 -0.184532
v -0.432337 17.721684 -0.186723
v -0.430593 17.722328 -0.180551
v -0.480616 17.676565 -0.178828
v -0.531035 17.636078 -0.179161
v -0.392885 17.785494 -0.167551
v -0.387328 17.782198 -0.172403
v -0.349423 17.839157 -0.178675
v -0.355153 17.841793 -0.173654
v -0.384463 17.779240 -0.178137
v -0.346080 17.836372 -0.184920
v -0.412954 17.791569 -0.162014
v -0.401859 17.788868 -0.163646
v -0.363739 17.844028 -0.170470
v -0.374034 17.845318 -0.169841
v -0.434563 17.792871 -0.168582
v -0.424870 17.792845 -0.163981
v -0.384892 17.845119 -0.172484
v -0.393584 17.843960 -0.177445
v -0.437651 17.789495 -0.182662
v -0.438986 17.791822 -0.174857
v -0.397381 17.842365 -0.183769
v -0.395625 17.840061 -0.191490
v -0.418715 17.781488 -0.199417
v -0.430069 17.785686 -0.191853
v -0.387657 17.836779 -0.200642
v -0.376247 17.833385 -0.208118
v -0.394948 17.775635 -0.201384
v -0.406063 17.777994 -0.202342
v -0.364162 17.830755 -0.210811
v -0.353903 17.829388 -0.209516
v -0.384764 17.775345 -0.191320
v -0.388203 17.774839 -0.197298
v -0.347969 17.829784 -0.205028
v -0.345256 17.831400 -0.198674
v -0.383563 17.776882 -0.184688
v -0.344658 17.833691 -0.191779
v -0.660316 17.520216 -0.182384
v -0.623275 17.559591 -0.179684
v -0.626339 17.561365 -0.175753
v -0.663704 17.521690 -0.179266
v -0.669605 17.524384 -0.177026
v -0.632119 17.564133 -0.172743
v -0.640568 17.567543 -0.171456
v -0.677569 17.527958 -0.176458
v -0.685543 17.531605 -0.177261
v -0.649408 17.570871 -0.171777
v -0.656361 17.573389 -0.173590
v -0.691475 17.534515 -0.179133
v -0.694974 17.536556 -0.181961
v -0.660838 17.574974 -0.176742
v -0.662254 17.575497 -0.181084
v -0.695651 17.537594 -0.185634
v -0.693437 17.537361 -0.189619
v -0.660347 17.574722 -0.185969
v -0.654860 17.572411 -0.190754
v -0.688261 17.535595 -0.193384
v -0.681742 17.532873 -0.195844
v -0.647532 17.569330 -0.194192
v -0.640105 17.566248 -0.195038
v -0.675497 17.529774 -0.195915
v -0.669861 17.526640 -0.194326
v -0.633425 17.563463 -0.193856
v -0.628339 17.561283 -0.191211
v -0.665170 17.523813 -0.191809
v -0.661740 17.521597 -0.188762
v -0.624852 17.559813 -0.187653
v -0.622972 17.559162 -0.183731
v -0.659892 17.520290 -0.185585
v -0.300133 18.001118 -0.212897
v -0.312688 17.942972 -0.198270
v -0.307343 17.942398 -0.202520
v -0.295435 18.001514 -0.215882
v -0.292199 18.000933 -0.220374
v -0.303872 17.941339 -0.208193
v -0.311794 17.998346 -0.214182
v -0.327206 17.943075 -0.197253
v -0.319738 17.943226 -0.196438
v -0.305951 18.000002 -0.212346
v -0.319645 17.994171 -0.223937
v -0.338431 17.941393 -0.206642
v -0.333806 17.942442 -0.200947
v -0.316563 17.996330 -0.218354
v -0.318825 17.990440 -0.235825
v -0.338268 17.938498 -0.220635
v -0.339976 17.939999 -0.213459
v -0.320422 17.992096 -0.230005
v -0.309245 17.989376 -0.243376
v -0.325942 17.935955 -0.232001
v -0.333135 17.937132 -0.227407
v -0.314783 17.989553 -0.240661
v -0.297570 17.991211 -0.239966
v -0.310897 17.934837 -0.230307
v -0.318050 17.935022 -0.232644
v -0.303160 17.989857 -0.242831
v -0.291190 17.996525 -0.230689
v -0.303110 17.937677 -0.220372
v -0.305922 17.935902 -0.225963
v -0.293519 17.993664 -0.235725
v -0.302443 17.939627 -0.214296
v -0.290767 17.999107 -0.225440
v -0.589003 17.603136 -0.168759
v -0.582974 17.600281 -0.172104
v -0.579847 17.598251 -0.176448
v -0.608356 17.609838 -0.167155
v -0.598307 17.606522 -0.167012
v -0.622120 17.614132 -0.173437
v -0.616619 17.612488 -0.169482
v -0.621668 17.613218 -0.183902
v -0.623878 17.614435 -0.178464
v -0.606603 17.606634 -0.192871
v -0.615267 17.610300 -0.189087
v -0.589665 17.600313 -0.193079
v -0.597604 17.603180 -0.194102
v -0.580822 17.597450 -0.185891
v -0.584182 17.598421 -0.190097
v -0.579254 17.597351 -0.181192
v -0.320524 17.888445 -0.195657
v -0.324050 17.890417 -0.189415
v -0.329725 17.892075 -0.184542
v -0.337683 17.893356 -0.181940
v -0.346702 17.893942 -0.182030
v -0.355559 17.893511 -0.185232
v -0.362308 17.892393 -0.190639
v -0.365003 17.890923 -0.197342
v -0.363183 17.889051 -0.205002
v -0.356387 17.886734 -0.213280
v -0.346799 17.884417 -0.219614
v -0.336604 17.882544 -0.221441
v -0.327780 17.881676 -0.219657
v -0.322307 17.882374 -0.215157
v -0.319585 17.884073 -0.209029
v -0.319013 17.886213 -0.202362
vn 0.0614 -0.3303 0.9419
vn 0.0893 -0.3775 0.9217
vn 0.3442 -0.5721 0.7445
vn 0.3044 -0.5198 0.7982
vn 0.2863 -0.4284 0.8570
vn 0.0554 -0.2507 0.9665
vn 0.6601 -0.7016 0.2684
vn 0.6386 -0.6538 0.4059
vn 0.6817 -0.7114 0.1708
vn -0.2197 -0.0752 0.9727
vn -0.1974 -0.1115 0.9740
vn -0.0729 -0.2315 0.9701
vn -0.0959 -0.1908 0.9769
vn -0.1019 -0.1224 0.9872
vn -0.2301 -0.0137 0.9731
vn -0.5735 0.2956 0.7640
vn -0.5186 0.2270 0.8243
vn -0.3326 0.0235 0.9428
vn -0.3650 0.0673 0.9286
vn -0.3982 0.1408 0.9064
vn -0.6424 0.4017 0.6526
vn -0.6224 0.6559 -0.4271
vn -0.6727 0.6845 -0.2809
vn -0.7280 0.5290 0.4361
vn -0.7587 0.5891 0.2781
vn -0.7677 0.6399 0.0326
vn -0.5537 0.5837 -0.5939
vn -0.0615 0.2864 -0.9561
vn -0.0967 0.3456 -0.9334
vn -0.3506 0.5309 -0.7715
vn -0.3076 0.4776 -0.8230
vn -0.2799 0.3933 -0.8758
vn -0.0487 0.1939 -0.9798
vn 0.2545 0.0200 -0.9669
vn 0.2188 0.0959 -0.9710
vn 0.0858 0.2006 -0.9759
vn 0.1278 0.1258 -0.9838
vn 0.1535 0.0049 -0.9881
vn 0.2824 -0.1157 -0.9523
vn 0.5035 -0.2285 -0.8332
vn 0.4919 -0.1784 -0.8522
vn 0.3410 -0.0116 -0.9400
vn 0.3634 -0.0769 -0.9284
vn 0.3869 -0.2100 -0.8979
vn 0.5236 -0.3421 -0.7803
vn 0.6883 -0.4729 -0.5500
vn 0.7007 -0.5138 -0.4951
vn 0.7200 -0.5829 -0.3767
vn 0.6807 -0.2110 0.7015
vn 0.5969 -0.2262 0.7698
vn 0.1873 -0.0514 0.9810
vn 0.3335 -0.0635 0.9406
vn 0.5522 -0.0295 0.8332
vn 0.8129 -0.1413 0.5650
vn -0.2665 0.1754 0.9477
vn 0.0526 0.1484 0.9875
vn -0.4389 0.2117 0.8733
vn -0.8048 0.3632 0.4694
vn -0.7135 0.3377 0.6140
vn -0.4614 0.2977 0.8358
vn -0.8677 0.3886 0.3099
vn -0.7524 0.3623 0.5501
vn -0.8941 0.4035 0.1944
vn -0.9110 0.4121 0.0133
vn -0.9126 0.3991 0.0885
vn -0.8857 0.3745 0.2745
vn -0.9147 0.3907 -0.1034
vn -0.9338 0.3571 0.0236
vn -0.9017 0.4056 -0.1498
vn -0.8381 0.3718 -0.3992
vn -0.8632 0.3546 -0.3593
vn -0.9154 0.3067 -0.2607
vn -0.6435 0.2495 -0.7237
vn -0.7737 0.2083 -0.5984
vn -0.5639 0.2517 -0.7866
vn -0.0227 0.0310 -0.9993
vn -0.1814 0.0607 -0.9815
vn -0.4423 0.0603 -0.8948
vn 0.3563 -0.1399 -0.9238
vn 0.0722 -0.1129 -0.9910
vn 0.4949 -0.1742 -0.8513
vn 0.7859 -0.2896 -0.5464
vn 0.7141 -0.2633 -0.6486
vn 0.5270 -0.2285 -0.8186
vn 0.8797 -0.3137 -0.3572
vn 0.7854 -0.2678 -0.5580
vn 0.9055 -0.3382 -0.2562
vn 0.9349 -0.3542 0.0219
vn 0.9418 -0.3288 -0.0701
vn 0.9239 -0.2705 -0.2708
vn 0.9278 -0.3182 0.1945
vn 0.9683 -0.2493 0.0137
vn 0.8975 -0.3446 0.2753
vn 0.7944 -0.3073 0.5239
vn 0.8467 -0.2826 0.4507
vn 0.9330 -0.2076 0.2940
vn 0.5830 -0.6765 0.4498
vn 0.6572 -0.6113 0.4408
vn 0.5153 -0.4645 0.7202
vn 0.4366 -0.5092 0.7417
vn 0.3949 -0.5228 0.7554
vn 0.5506 -0.7001 0.4546
vn 0.2815 -0.3389 0.8977
vn 0.2269 -0.3315 0.9158
vn 0.3557 -0.3131 0.8806
vn 0.2054 -0.1739 0.9631
vn 0.1414 -0.1940 0.9708
vn 0.0779 -0.1683 0.9827
vn -0.0465 0.0037 0.9989
vn -0.0997 0.0282 0.9946
vn -0.0006 0.0239 0.9997
vn -0.2494 0.2685 0.9304
vn -0.2783 0.2572 0.9254
vn -0.3196 0.2801 0.9052
vn -0.5417 0.5585 0.6282
vn -0.5687 0.5773 0.5859
vn -0.5312 0.5467 0.6472
vn -0.7047 0.7084 0.0393
vn -0.6769 0.7361 -0.0007
vn -0.6747 0.7363 -0.0516
vn -0.5548 0.6195 -0.5553
vn -0.5249 0.6034 -0.6003
vn -0.6157 0.5997 -0.5112
vn -0.4627 0.4230 -0.7791
vn -0.3911 0.4309 -0.8132
vn -0.3449 0.4101 -0.8443
vn -0.2304 0.2359 -0.9441
vn -0.1896 0.2292 -0.9547
vn -0.2868 0.2213 -0.9321
vn -0.0676 -0.0140 -0.9976
vn -0.0419 0.0145 -0.9990
vn -0.0160 0.0201 -0.9997
vn 0.1922 -0.2538 -0.9480
vn 0.2057 -0.2530 -0.9453
vn 0.1983 -0.2769 -0.9402
vn 0.4917 -0.5419 -0.6817
vn 0.4516 -0.5463 -0.7054
vn 0.4463 -0.5523 -0.7041
vn 0.6121 -0.7220 -0.3226
vn 0.5910 -0.7337 -0.3351
vn 0.6721 -0.6812 -0.2903
vn 0.7165 -0.6916 0.0909
vn 0.6494 -0.7569 0.0735
vn 0.6238 -0.7792 0.0609
vn 0.4211 -0.2452 0.8733
vn 0.5997 -0.3910 0.6982
vn 0.6777 -0.2824 0.6790
vn 0.4673 -0.1288 0.8746
vn 0.7329 -0.5139 0.4459
vn 0.8047 -0.3936 0.4445
vn -0.0094 0.1109 0.9938
vn 0.2307 -0.0905 0.9688
vn 0.2127 0.0450 0.9761
vn -0.0738 0.2365 0.9688
vn -0.5629 0.5601 0.6078
vn -0.2779 0.3355 0.9001
vn -0.3596 0.4187 0.8339
vn -0.6334 0.5677 0.5259
vn -0.6767 0.5361 -0.5047
vn -0.7490 0.6621 0.0251
vn -0.8073 0.5899 -0.0159
vn -0.7423 0.4349 -0.5098
vn -0.3338 0.1696 -0.9272
vn -0.5256 0.3661 -0.7679
vn -0.5844 0.2596 -0.7688
vn -0.3655 0.0733 -0.9279
vn 0.2489 -0.3245 -0.9125
vn -0.0775 -0.0657 -0.9948
vn -0.0614 -0.1361 -0.9888
vn 0.3286 -0.3523 -0.8763
vn 0.7612 -0.6216 -0.1849
vn 0.5892 -0.5492 -0.5926
vn 0.6975 -0.5047 -0.5088
vn 0.8484 -0.5188 -0.1053
vn 0.7900 -0.5939 0.1521
vn 0.8610 -0.4707 0.1926
vn 0.6432 -0.6305 0.4345
vn 0.6133 -0.6672 0.4228
vn 0.3862 -0.4705 0.7934
vn 0.3462 -0.4129 0.8424
vn 0.1144 -0.2326 0.9658
vn 0.1692 -0.2747 0.9465
vn -0.0004 -0.1196 0.9928
vn -0.0534 -0.0998 0.9936
vn -0.1919 0.0133 0.9813
vn -0.1506 0.0224 0.9883
vn -0.3541 0.2275 0.9071
vn -0.3821 0.1854 0.9053
vn -0.6491 0.4632 0.6035
vn -0.6209 0.5169 0.5894
vn -0.7288 0.6832 -0.0442
vn -0.7561 0.6532 -0.0410
vn -0.5601 0.5591 -0.6113
vn -0.5628 0.5760 -0.5929
vn -0.3555 0.3948 -0.8472
vn -0.3271 0.3744 -0.8677
vn -0.1124 0.1743 -0.9783
vn -0.1648 0.2056 -0.9647
vn 0.0380 -0.0132 -0.9992
vn 0.0993 -0.0368 -0.9944
vn 0.2576 -0.1976 -0.9458
vn 0.2299 -0.2288 -0.9459
vn 0.4151 -0.4303 -0.8016
vn 0.3960 -0.3288 -0.8574
vn 0.5503 -0.4676 -0.6917
vn 0.5761 -0.5947 -0.5608
vn 0.6870 -0.7135 -0.1375
vn 0.7211 -0.6421 -0.2602
vn 0.2881 0.1555 0.9449
vn 0.4314 0.1138 0.8950
vn 0.7351 -0.0305 0.6773
vn 0.6754 0.0141 0.7373
vn 0.8821 -0.0886 0.4627
vn 0.8983 -0.1365 0.4176
vn -0.5426 0.3636 0.7572
vn -0.3202 0.3723 0.8711
vn 0.0478 0.2583 0.9649
vn -0.1729 0.2850 0.9428
vn -0.9127 0.3668 0.1802
vn -0.8343 0.4493 0.3195
vn -0.6222 0.4405 0.6472
vn -0.7837 0.3886 0.4845
vn -0.8447 0.1776 -0.5049
vn -0.8507 0.2275 -0.4739
vn -0.9232 0.3737 -0.0901
vn -0.9423 0.2950 -0.1584
vn -0.1660 -0.1205 -0.9787
vn -0.3135 -0.0959 -0.9447
vn -0.6519 0.0662 -0.7554
vn -0.5970 0.0341 -0.8015
vn 0.6429 -0.2590 -0.7209
vn 0.5060 -0.2918 -0.8117
vn 0.1122 -0.2248 -0.9679
vn 0.3047 -0.2262 -0.9252
vn 0.9675 -0.2162 -0.1308
vn 0.9470 -0.2734 -0.1685
vn 0.8062 -0.3052 -0.5069
vn 0.8637 -0.2508 -0.4371
vn 0.9665 -0.2150 0.1404
vn 0.9714 -0.1617 0.1738
vn 0.1972 -0.3132 0.9290
vn 0.3875 -0.5155 0.7643
vn 0.5660 -0.6992 0.4368
vn -0.1283 0.0357 0.9911
vn 0.0364 -0.1426 0.9891
vn -0.5928 0.5650 0.5738
vn -0.3399 0.2729 0.9000
vn -0.5380 0.5890 -0.6030
vn -0.6955 0.7161 -0.0591
vn -0.1769 0.2243 -0.9583
vn -0.3443 0.4020 -0.8484
vn 0.2165 -0.2460 -0.9448
vn 0.0053 0.0128 -0.9999
vn 0.5856 -0.6944 -0.4183
vn 0.4360 -0.5148 -0.7382
vn 0.6416 -0.7670 -0.0127
vn 0.8696 -0.2541 0.4233
vn 0.7333 -0.1442 0.6644
vn 0.4820 0.0120 0.8761
vn 0.1617 0.1810 0.9701
vn -0.1694 0.3375 0.9259
vn -0.4716 0.4619 0.7511
vn -0.7280 0.5333 0.4308
vn -0.8711 0.4886 -0.0500
vn -0.8090 0.3222 -0.4916
vn -0.6358 0.1444 -0.7582
vn -0.3687 -0.0309 -0.9290
vn -0.0064 -0.1978 -0.9802
vn 0.4084 -0.3334 -0.8497
vn 0.7648 -0.4032 -0.5025
vn 0.9132 -0.3869 -0.1276
vn 0.9280 -0.3320 0.1691
usemtl material1646.003
s 1
f 1//1 2//2 3//3 4//4
f 5//5 6//6 1//1 4//4
f 7//7 8//8 5//5 4//4
f 3//3 9//9 7//7 4//4
f 10//10 11//11 12//12 13//13
f 14//14 15//15 10//10 13//13
f 1//1 6//6 14//14 13//13
f 12//12 2//2 1//1 13//13
f 16//16 17//17 18//18 19//19
f 20//20 21//21 16//16 19//19
f 10//10 15//15 20//20 19//19
f 18//18 11//11 10//10 19//19
f 22//22 23//23 24//24 25//25
f 26//26 27//27 22//22 25//25
f 16//16 21//21 26//26 25//25
f 24//24 17//17 16//16 25//25
f 28//28 29//29 30//30 31//31
f 32//32 33//33 28//28 31//31
f 22//22 27//27 32//32 31//31
f 30//30 23//23 22//22 31//31
f 34//34 35//35 36//36 37//37
f 38//38 39//39 34//34 37//37
f 28//28 33//33 38//38 37//37
f 36//36 29//29 28//28 37//37
f 40//40 41//41 42//42 43//43
f 44//44 45//45 40//40 43//43
f 34//34 39//39 44//44 43//43
f 42//42 35//35 34//34 43//43
f 7//7 9//9 46//46 47//47
f 48//48 8//8 7//7 47//47
f 40//40 45//45 48//48 47//47
f 46//46 41//41 40//40 47//47
f 49//49 50//50 51//51 52//52
f 53//53 54//54 49//49 52//52
f 55//55 56//56 53//53 52//52
f 51//51 57//57 55//55 52//52
f 55//55 57//57 58//58 59//59
f 60//60 56//56 55//55 59//59
f 61//61 62//62 60//60 59//59
f 58//58 63//63 61//61 59//59
f 61//61 63//63 64//64 65//65
f 66//66 62//62 61//61 65//65
f 67//67 68//68 66//66 65//65
f 64//64 69//69 67//67 65//65
f 67//67 69//69 70//70 71//71
f 72//72 68//68 67//67 71//71
f 73//73 74//74 72//72 71//71
f 70//70 75//75 73//73 71//71
f 73//73 75//75 76//76 77//77
f 78//78 74//74 73//73 77//77
f 79//79 80//80 78//78 77//77
f 76//76 81//81 79//79 77//77
f 79//79 81//81 82//82 83//83
f 84//84 80//80 79//79 83//83
f 85//85 86//86 84//84 83//83
f 82//82 87//87 85//85 83//83
f 85//85 87//87 88//88 89//89
f 90//90 86//86 85//85 89//89
f 91//91 92//92 90//90 89//89
f 88//88 93//93 91//91 89//89
f 91//91 93//93 94//94 95//95
f 96//96 92//92 91//91 95//95
f 49//49 54//54 96//96 95//95
f 94//94 50//50 49//49 95//95
f 97//97 98//98 99//99 100//100
f 101//101 102//102 97//97 100//100
f 103//103 104//104 101//101 100//100
f 99//99 105//105 103//103 100//100
f 103//103 105//105 106//106 107//107
f 108//108 104//104 103//103 107//107
f 109//109 110//110 108//108 107//107
f 106//106 111//111 109//109 107//107
f 109//109 111//111 112//112 113//113
f 114//114 110//110 109//109 113//113
f 115//115 116//116 114//114 113//113
f 112//112 117//117 115//115 113//113
f 115//115 117//117 118//118 119//119
f 120//120 116//116 115//115 119//119
f 121//121 122//122 120//120 119//119
f 118//118 123//123 121//121 119//119
f 121//121 123//123 124//124 125//125
f 126//126 122//122 121//121 125//125
f 127//127 128//128 126//126 125//125
f 124//124 129//129 127//127 125//125
f 127//127 129//129 130//130 131//131
f 132//132 128//128 127//127 131//131
f 133//133 134//134 132//132 131//131
f 130//130 135//135 133//133 131//131
f 133//133 135//135 136//136 137//137
f 138//138 134//134 133//133 137//137
f 139//139 140//140 138//138 137//137
f 136//136 141//141 139//139 137//137
f 139//139 141//141 142//142 143//143
f 144//144 140//140 139//139 143//143
f 97//97 102//102 144//144 143//143
f 142//142 98//98 97//97 143//143
f 145//145 105//105 99//99 146//146
f 147//147 148//148 145//145 146//146
f 149//149 150//150 147//147 146//146
f 99//99 98//98 149//149 146//146
f 151//151 111//111 106//106 152//152
f 153//153 154//154 151//151 152//152
f 145//145 148//148 153//153 152//152
f 106//106 105//105 145//145 152//152
f 155//155 117//117 112//112 156//156
f 157//157 158//158 155//155 156//156
f 151//151 154//154 157//157 156//156
f 112//112 111//111 151//151 156//156
f 159//159 123//123 118//118 160//160
f 161//161 162//162 159//159 160//160
f 155//155 158//158 161//161 160//160
f 118//118 117//117 155//155 160//160
f 163//163 129//129 124//124 164//164
f 165//165 166//166 163//163 164//164
f 159//159 162//162 165//165 164//164
f 124//124 123//123 159//159 164//164
f 167//167 135//135 130//130 168//168
f 169//169 170//170 167//167 168//168
f 163//163 166//166 169//169 168//168
f 130//130 129//129 163//163 168//168
f 171//171 141//141 136//136 172//172
f 173//173 174//174 171//171 172//172
f 167//167 170//170 173//173 172//172
f 136//136 135//135 167//167 172//172
f 149//149 98//98 142//142 175//175
f 176//176 150//150 149//149 175//175
f 171//171 174//174 176//176 175//175
f 142//142 141//141 171//171 175//175
f 177//177 178//178 179//179 180//180
f 5//5 8//8 177//177 180//180
f 181//181 6//6 5//5 180//180
f 179//179 182//182 181//181 180//180
f 181//181 182//182 183//183 184//184
f 14//14 6//6 181//181 184//184
f 185//185 15//15 14//14 184//184
f 183//183 186//186 185//185 184//184
f 185//185 186//186 187//187 188//188
f 20//20 15//15 185//185 188//188
f 189//189 21//21 20//20 188//188
f 187//187 190//190 189//189 188//188
f 189//189 190//190 191//191 192//192
f 26//26 21//21 189//189 192//192
f 193//193 27//27 26//26 192//192
f 191//191 194//194 193//193 192//192
f 193//193 194//194 195//195 196//196
f 32//32 27//27 193//193 196//196
f 197//197 33//33 32//32 196//196
f 195//195 198//198 197//197 196//196
f 197//197 198//198 199//199 200//200
f 38//38 33//33 197//197 200//200
f 201//201 39//39 38//38 200//200
f 199//199 202//202 201//201 200//200
f 201//201 202//202 203//203 204//204
f 44//44 39//39 201//201 204//204
f 205//205 45//45 44//44 204//204
f 203//203 206//206 205//205 204//204
f 205//205 206//206 207//207 208//208
f 48//48 45//45 205//205 208//208
f 177//177 8//8 48//48 208//208
f 207//207 178//178 177//177 208//208
f 209//209 210//210 211//211 212//212
f 53//53 56//56 209//209 212//212
f 213//213 54//54 53//53 212//212
f 211//211 214//214 213//213 212//212
f 215//215 216//216 217//217 218//218
f 60//60 62//62 215//215 218//218
f 209//209 56//56 60//60 218//218
f 217//217 210//210 209//209 218//218
f 219//219 220//220 221//221 222//222
f 66//66 68//68 219//219 222//222
f 215//215 62//62 66//66 222//222
f 221//221 216//216 215//215 222//222
f 223//223 224//224 225//225 226//226
f 72//72 74//74 223//223 226//226
f 219//219 68//68 72//72 226//226
f 225//225 220//220 219//219 226//226
f 227//227 228//228 229//229 230//230
f 78//78 80//80 227//227 230//230
f 223//223 74//74 78//78 230//230
f 229//229 224//224 223//223 230//230
f 231//231 232//232 233//233 234//234
f 84//84 86//86 231//231 234//234
f 227//227 80//80 84//84 234//234
f 233//233 228//228 227//227 234//234
f 235//235 236//236 237//237 238//238
f 90//90 92//92 235//235 238//238
f 231//231 86//86 90//90 238//238
f 237//237 232//232 231//231 238//238
f 213//213 214//214 239//239 240//240
f 96//96 54//54 213//213 240//240
f 235//235 92//92 96//96 240//240
f 239//239 236//236 235//235 240//240
f 241//241 182//182 179//179 242//242
f 101//101 104//104 241//241 242//242
f 243//243 102//102 101//101 242//242
f 179//179 178//178 243//243 242//242
f 244//244 186//186 183//183 245//245
f 108//108 110//110 244//244 245//245
f 241//241 104//104 108//108 245//245
f 183//183 182//182 241//241 245//245
f 246//246 190//190 187//187 247//247
f 114//114 116//116 246//246 247//247
f 244//244 110//110 114//114 247//247
f 187//187 186//186 244//244 247//247
f 248//248 194//194 191//191 249//249
f 120//120 122//122 248//248 249//249
f 246//246 116//116 120//120 249//249
f 191//191 190//190 246//246 249//249
f 250//250 198//198 195//195 251//251
f 126//126 128//128 250//250 251//251
f 248//248 122//122 126//126 251//251
f 195//195 194//194 248//248 251//251
f 252//252 202//202 199//199 253//253
f 132//132 134//134 252//252 253//253
f 250//250 128//128 132//132 253//253
f 199//199 198//198 250//250 253//253
f 254//254 206//206 203//203 255//255
f 138//138 140//140 254//254 255//255
f 252//252 134//134 138//138 255//255
f 203//203 202//202 252//252 255//255
f 243//243 178//178 207//207 256//256
f 144//144 102//102 243//243 256//256
f 254//254 140//140 144//144 256//256
f 207//207 206//206 254//254 256//256
f 257//257 214//214 211//211 258//258
f 147//147 150//150 257//257 258//258
f 259//259 148//148 147//147 258//258
f 211//211 210//210 259//259 258//258
f 259//259 210//210 217//217 260//260
f 153//153 148//148 259//259 260//260
f 261//261 154//154 153//153 260//260
f 217//217 216//216 261//261 260//260
f 261//261 216//216 221//221 262//262
f 157//157 154//154 261//261 262//262
f 263//263 158//158 157//157 262//262
f 221//221 220//220 263//263 262//262
f 263//263 220//220 225//225 264//264
f 161//161 158//158 263//263 264//264
f 265//265 162//162 161//161 264//264
f 225//225 224//224 265//265 264//264
f 265//265 224//224 229//229 266//266
f 165//165 162//162 265//265 266//266
f 267//267 166//166 165//165 266//266
f 229//229 228//228 267//267 266//266
f 267//267 228//228 233//233 268//268
f 169//169 166//166 267//267 268//268
f 269//269 170//170 169//169 268//268
f 233//233 232//232 269//269 268//268
f 269//269 232//232 237//237 270//270
f 173//173 170//170 269//269 270//270
f 271//271 174//174 173//173 270//270
f 237//237 236//236 271//271 270//270
f 271//271 236//236 239//239 272//272
f 176//176 174//174 271//271 272//272
f 257//257 150//150 176//176 272//272
f 239//239 214//214 257//257 272//272
