# Blender v3.2.1 OBJ File: ''
# www.blender.org
mtllib scalene_right_3.mtl
o Scalene_Muscle_Right1
v -0.676404 17.533234 -0.261375
v -0.715180 17.482746 -0.308905
v -0.697414 17.477364 -0.310543
v -0.660585 17.531532 -0.268702
v -0.619067 17.589895 -0.229442
v -0.633445 17.589249 -0.218231
v -0.643672 17.531166 -0.278192
v -0.604392 17.592199 -0.243517
v -0.677639 17.472898 -0.313334
v -0.696137 17.538509 -0.256411
v -0.735633 17.492130 -0.309160
v -0.728371 17.487841 -0.308439
v -0.688568 17.535610 -0.256967
v -0.644928 17.589909 -0.211060
v -0.652888 17.592033 -0.209507
v -0.694848 17.544878 -0.268640
v -0.728802 17.496452 -0.313913
v -0.735612 17.495098 -0.311080
v -0.698173 17.541780 -0.260643
v -0.656697 17.595783 -0.215146
v -0.656206 17.600313 -0.226500
v -0.673267 17.548817 -0.290683
v -0.698188 17.493824 -0.321119
v -0.715699 17.495897 -0.317376
v -0.686337 17.547260 -0.279379
v -0.651265 17.604786 -0.242090
v -0.641650 17.608793 -0.258509
v -0.638956 17.548773 -0.307607
v -0.659124 17.486509 -0.327548
v -0.678155 17.490622 -0.324791
v -0.656268 17.549433 -0.300372
v -0.627132 17.611940 -0.272349
v -0.611281 17.613482 -0.282759
v -0.615803 17.543201 -0.311630
v -0.636325 17.476921 -0.327772
v -0.644619 17.481701 -0.328548
v -0.624952 17.546505 -0.311550
v -0.597665 17.612677 -0.288883
v -0.587744 17.610083 -0.289748
v -0.617080 17.535772 -0.299442
v -0.643330 17.470491 -0.321486
v -0.635930 17.472900 -0.325205
v -0.613059 17.539433 -0.307274
v -0.582982 17.606258 -0.284376
v -0.584150 17.601601 -0.273856
v -0.658422 17.470549 -0.317255
v -0.628227 17.532799 -0.289094
v -0.592020 17.596508 -0.259279
v -0.265377 18.260647 -0.089018
v -0.283456 18.155823 -0.103385
v -0.278239 18.156906 -0.111491
v -0.262095 18.263721 -0.095953
v -0.252761 18.360085 -0.080163
v -0.254228 18.356045 -0.074522
v -0.258954 18.266912 -0.104621
v -0.251716 18.363876 -0.087352
v -0.273126 18.158287 -0.121418
v -0.272535 18.257790 -0.084584
v -0.293891 18.156836 -0.097572
v -0.288501 18.155706 -0.098747
v -0.268686 18.258659 -0.085288
v -0.256171 18.352707 -0.071629
v -0.258973 18.349899 -0.071257
v -0.268393 18.159286 -0.131518
v -0.256069 18.269247 -0.113545
v -0.251039 18.366476 -0.094890
v -0.255226 18.270515 -0.121055
v -0.251674 18.367140 -0.101369
v -0.266531 18.160368 -0.139868
v -0.281770 18.259384 -0.091704
v -0.305182 18.162804 -0.105538
v -0.300140 18.159489 -0.099851
v -0.277434 18.258060 -0.086725
v -0.263017 18.347450 -0.073179
v -0.267139 18.346058 -0.077368
v -0.270031 18.161989 -0.144547
v -0.258212 18.270508 -0.125480
v -0.254568 18.365124 -0.105381
v -0.263549 18.269888 -0.127205
v -0.258837 18.361635 -0.107075
v -0.276894 18.164129 -0.146185
v -0.283659 18.264288 -0.108447
v -0.305423 18.168272 -0.124895
v -0.306953 18.165918 -0.114585
v -0.283931 18.261669 -0.099513
v -0.270174 18.346420 -0.083799
v -0.271536 18.348143 -0.091175
v -0.285123 18.166771 -0.145410
v -0.269757 18.269321 -0.126614
v -0.263598 18.357880 -0.106602
v -0.275814 18.268373 -0.123287
v -0.267862 18.354172 -0.103723
v -0.293438 18.168848 -0.141660
v -0.300561 18.169298 -0.134370
v -0.280701 18.266607 -0.116801
v -0.270636 18.350826 -0.098198
v -0.308166 18.051268 -0.125032
v -0.315480 18.051224 -0.113974
v -0.369987 17.945074 -0.117678
v -0.360476 17.944487 -0.129604
v -0.323336 18.051121 -0.104915
v -0.380482 17.945444 -0.107979
v -0.331134 18.051189 -0.099493
v -0.390825 17.945374 -0.101935
v -0.339223 18.051809 -0.098065
v -0.401099 17.945271 -0.100327
v -0.347955 18.053358 -0.100987
v -0.411388 17.945545 -0.103934
v -0.354807 18.055128 -0.107926
v -0.419099 17.945755 -0.112087
v -0.357257 18.056419 -0.118547
v -0.421637 17.945461 -0.124114
v -0.355150 18.057163 -0.130407
v -0.418690 17.945068 -0.137318
v -0.348329 18.057297 -0.141064
v -0.409941 17.944977 -0.149003
v -0.338177 18.056629 -0.149119
v -0.397140 17.944838 -0.157796
v -0.326076 18.054966 -0.153170
v -0.382032 17.944307 -0.162325
v -0.314193 18.053074 -0.153811
v -0.367460 17.943729 -0.162964
v -0.304696 18.051718 -0.151636
v -0.356264 17.943457 -0.160087
v -0.299868 18.050999 -0.146048
v -0.350715 17.943508 -0.153330
v -0.301993 18.051020 -0.136452
v -0.353086 17.943909 -0.142328
v -0.237476 18.435913 -0.082323
v -0.219734 18.495485 -0.083414
v -0.215401 18.497728 -0.079956
v -0.235951 18.434414 -0.076922
v -0.235141 18.432470 -0.072608
v -0.212084 18.499411 -0.076984
v -0.210603 18.500174 -0.075096
v -0.235441 18.430504 -0.070284
v -0.237026 18.428394 -0.069744
v -0.210885 18.500084 -0.074137
v -0.241598 18.435932 -0.092569
v -0.228260 18.490812 -0.089212
v -0.224257 18.493040 -0.086764
v -0.239320 18.436546 -0.087908
v -0.212853 18.499205 -0.073955
v -0.240068 18.426029 -0.070780
v -0.243854 18.424006 -0.073476
v -0.216243 18.497591 -0.074804
v -0.247435 18.430660 -0.095999
v -0.232689 18.488323 -0.089450
v -0.231030 18.489222 -0.089966
v -0.244424 18.433685 -0.095195
v -0.220788 18.495295 -0.076941
v -0.247668 18.422920 -0.077913
v -0.250729 18.422771 -0.083190
v -0.225582 18.492786 -0.079848
v -0.252138 18.425213 -0.092691
v -0.232528 18.488876 -0.085924
v -0.233353 18.488174 -0.088087
v -0.250269 18.427710 -0.095193
v -0.229716 18.490530 -0.083010
v -0.252255 18.423552 -0.088403
v -0.554488 17.658770 -0.209773
v -0.494871 17.737888 -0.178010
v -0.507817 17.737185 -0.164969
v -0.568170 17.656654 -0.195344
v -0.582118 17.656313 -0.183854
v -0.521423 17.737953 -0.154630
v -0.533088 17.739515 -0.147731
v -0.593613 17.657261 -0.176286
v -0.602131 17.659849 -0.174294
v -0.542364 17.742313 -0.145691
v -0.548805 17.746794 -0.149933
v -0.607148 17.664433 -0.179531
v -0.608188 17.669771 -0.190627
v -0.551416 17.751581 -0.159411
v -0.549203 17.755306 -0.173077
v -0.604775 17.674627 -0.206215
v -0.596636 17.678741 -0.222857
v -0.542095 17.758043 -0.187938
v -0.530021 17.759867 -0.201000
v -0.583502 17.681849 -0.237120
v -0.568594 17.683084 -0.248096
v -0.515708 17.759987 -0.211242
v -0.501883 17.757620 -0.217646
v -0.555139 17.681581 -0.254877
v -0.544613 17.678165 -0.256385
v -0.490302 17.753744 -0.219368
v -0.482720 17.749348 -0.215567
v -0.538493 17.673670 -0.251543
v -0.537858 17.668516 -0.241188
v -0.480546 17.744869 -0.206648
v -0.485189 17.740749 -0.193016
v -0.543787 17.663137 -0.226160
v -0.450362 17.837692 -0.126945
v -0.437928 17.836859 -0.136878
v -0.426456 17.836578 -0.149275
v -0.472082 17.839781 -0.118619
v -0.461817 17.838516 -0.120481
v -0.486511 17.844074 -0.131240
v -0.480945 17.841927 -0.122492
v -0.481892 17.846090 -0.157960
v -0.486888 17.845339 -0.144000
v -0.457437 17.846598 -0.179823
v -0.471337 17.846704 -0.170304
v -0.428707 17.843109 -0.186522
v -0.442408 17.845194 -0.185306
v -0.414553 17.838999 -0.175446
v -0.418791 17.840973 -0.183240
v -0.417886 17.837414 -0.163127
vn 0.1468 -0.7035 0.6954
vn -0.0030 -0.6786 0.7345
vn 0.1138 -0.6509 0.7506
vn 0.2667 -0.6801 0.6829
vn 0.4720 -0.6809 0.5600
vn 0.3648 -0.6831 0.6327
vn 0.3986 -0.6358 0.6609
vn 0.5878 -0.6618 0.4653
vn 0.2434 -0.5993 0.7626
vn -0.1924 -0.6008 0.7759
vn -0.2933 -0.5877 0.7540
vn -0.1789 -0.6407 0.7466
vn -0.0543 -0.6617 0.7478
vn 0.1470 -0.6265 0.7655
vn -0.0208 -0.5503 0.8347
vn -0.6775 0.6903 -0.2540
vn -0.5262 0.7415 -0.4163
vn -0.8419 0.5276 0.1134
vn -0.8624 0.4506 0.2309
vn -0.8406 0.3527 0.4112
vn -0.8207 0.5713 0.0073
vn -0.8349 0.1640 0.5254
vn -0.7570 0.1493 0.6362
vn -0.8610 0.1879 0.4726
vn -0.4600 0.5956 -0.6585
vn -0.3002 0.5670 -0.7671
vn -0.3804 0.6778 -0.6292
vn -0.5579 0.6727 -0.4860
vn -0.7496 0.6192 -0.2340
vn -0.6484 0.6176 -0.4452
vn -0.2450 0.4118 -0.8777
vn -0.1423 0.3510 -0.9255
vn -0.2288 0.4515 -0.8624
vn -0.3574 0.5012 -0.7881
vn -0.5191 0.5843 -0.6239
vn -0.3751 0.5328 -0.7585
vn 0.4910 0.0735 -0.8680
vn 0.5416 0.0380 -0.8398
vn 0.0223 0.2559 -0.9664
vn -0.0451 0.3134 -0.9485
vn -0.1312 0.4406 -0.8881
vn 0.4063 0.1563 -0.9003
vn 0.7433 -0.5045 0.4393
vn 0.6143 -0.4712 0.6329
vn 0.7444 -0.4318 0.5092
vn 0.9292 -0.3221 -0.1814
vn 0.8566 -0.2950 -0.4233
vn 0.8372 -0.5385 0.0959
vn 0.8355 -0.1364 -0.5323
vn 0.3901 -0.5327 0.7510
vn 0.5449 -0.5757 0.6096
vn 0.7079 -0.6210 0.3364
vn 0.8565 -0.1899 0.4799
vn 0.7500 -0.2432 0.6151
vn 0.8524 -0.2452 0.4619
vn 0.9326 -0.1633 0.3217
vn 0.9818 -0.1757 0.0729
vn 0.9522 -0.2065 0.2250
vn 0.9514 -0.1414 0.2736
vn 0.9885 -0.1473 0.0351
vn 0.8854 -0.2348 0.4012
vn -0.0873 -0.1183 0.9891
vn -0.0783 -0.0418 0.9961
vn 0.4397 -0.1848 0.8789
vn 0.5309 -0.1964 0.8244
vn 0.6616 -0.1987 0.7231
vn -0.0749 -0.0659 0.9950
vn 0.9340 -0.2233 0.2788
vn 0.9790 -0.1104 0.1716
vn 0.9928 -0.1094 -0.0478
vn 0.9629 -0.0189 -0.2690
vn 0.9228 -0.0262 -0.3845
vn 0.9556 -0.1662 -0.2434
vn -0.8550 0.0948 0.5099
vn -0.8276 0.2438 0.5057
vn -0.5267 0.1145 0.8423
vn -0.5741 -0.0049 0.8188
vn -0.5781 0.0560 0.8140
vn -0.8105 0.1260 0.5720
vn 0.5477 -0.0130 -0.8366
vn 0.5720 0.1152 -0.8121
vn 0.5449 0.0991 -0.8326
vn 0.0732 0.1889 -0.9793
vn -0.0091 0.1915 -0.9814
vn 0.0984 0.1017 -0.9899
vn -0.9726 0.2000 -0.1184
vn -0.9157 0.3266 -0.2341
vn -0.9432 0.3132 0.1108
vn -0.9704 0.1624 0.1787
vn -0.9276 0.1690 0.3332
vn -0.9758 0.1964 0.0961
vn -0.2164 0.1748 -0.9605
vn -0.3166 0.2215 -0.9223
vn -0.4838 0.2362 -0.8427
vn -0.6666 0.2328 -0.7082
vn -0.8213 0.2396 -0.5178
vn -0.5368 0.2486 -0.8063
vn -0.7823 0.3029 -0.5444
vn -0.8832 0.2223 -0.4130
vn -0.9596 0.2189 -0.1770
vn 0.8072 -0.3468 0.4777
vn 0.7538 -0.3392 0.5628
vn 0.6540 -0.4372 0.6174
vn 0.7299 -0.4590 0.5065
vn 0.6413 -0.3054 0.7039
vn 0.5460 -0.3966 0.7380
vn 0.3721 -0.1906 0.9084
vn 0.3209 -0.2828 0.9039
vn -0.0684 0.0222 0.9974
vn -0.0932 -0.0379 0.9949
vn -0.4857 0.2360 0.8416
vn -0.5228 0.2464 0.8161
vn -0.7806 0.3939 0.4853
vn -0.7897 0.4501 0.4168
vn -0.8875 0.4572 0.0584
vn -0.8493 0.5276 -0.0159
vn -0.8418 0.4421 -0.3098
vn -0.7754 0.5171 -0.3624
vn -0.6890 0.3745 -0.6204
vn -0.6193 0.4548 -0.6401
vn -0.4495 0.2689 -0.8519
vn -0.4043 0.3571 -0.8421
vn -0.1737 0.1497 -0.9734
vn -0.1589 0.2376 -0.9583
vn 0.0937 0.0368 -0.9949
vn 0.1120 0.0926 -0.9894
vn 0.5085 -0.1404 -0.8495
vn 0.5336 -0.1672 -0.8290
vn 0.9095 -0.3372 -0.2431
vn 0.8710 -0.4395 -0.2196
vn 0.8757 -0.3597 0.3220
vn 0.8161 -0.4808 0.3205
vn 0.9165 -0.2223 -0.3325
vn 0.8139 -0.2503 -0.5244
vn 0.8191 -0.2870 -0.4966
vn 0.9174 -0.2567 -0.3042
vn 0.9386 -0.2878 -0.1903
vn 0.8544 -0.3182 -0.4107
vn 0.9347 -0.3227 0.1491
vn 0.8705 -0.2751 0.4081
vn 0.1096 -0.0261 0.9936
vn 0.7619 -0.2355 0.6033
vn 0.7889 -0.1000 -0.6063
vn 0.6696 -0.1218 -0.7326
vn 0.7938 -0.2012 -0.5740
vn 0.9031 -0.1773 -0.3912
vn -0.2564 0.1444 0.9557
vn -0.3923 0.1839 0.9013
vn -0.4851 0.1636 0.8590
vn -0.6837 0.2170 0.6968
vn -0.5915 0.2345 0.7715
vn -0.2158 0.1856 -0.9586
vn -0.3727 0.1982 -0.9065
vn 0.2725 0.0227 -0.9619
vn 0.4026 0.0354 -0.9147
vn -0.6995 0.2496 0.6696
vn -0.7959 0.2388 0.5563
vn -0.8776 0.2493 0.4095
vn -0.7817 0.2527 0.5701
vn -0.9508 0.2795 -0.1336
vn -0.9514 0.2827 0.1219
vn -0.8567 0.2918 -0.4253
vn -0.7344 0.2727 -0.6216
vn -0.8669 0.2580 0.4265
vn -0.9425 0.2598 0.2101
vn 0.6386 -0.6584 0.3984
vn 0.6508 -0.6206 0.4374
vn 0.5441 -0.5901 0.5964
vn 0.5355 -0.6445 0.5458
vn 0.4406 -0.6149 0.6540
vn 0.4464 -0.5490 0.7066
vn 0.2547 -0.4522 0.8548
vn 0.2357 -0.5276 0.8161
vn -0.3218 -0.1673 0.9319
vn -0.2200 -0.1455 0.9646
vn -0.6866 0.2708 0.6747
vn -0.7729 0.3155 0.5505
vn -0.8399 0.5240 0.1411
vn -0.8311 0.5041 0.2349
vn -0.7984 0.5927 -0.1060
vn -0.7905 0.5984 -0.1305
vn -0.6910 0.6296 -0.3550
vn -0.6966 0.6193 -0.3623
vn -0.5542 0.6084 -0.5681
vn -0.5549 0.6281 -0.5455
vn -0.3952 0.5983 -0.6971
vn -0.3834 0.5665 -0.7294
vn -0.1467 0.4708 -0.8700
vn -0.1451 0.5105 -0.8476
vn 0.3325 0.2207 -0.9169
vn 0.2417 0.2269 -0.9434
vn 0.6894 -0.2107 -0.6931
vn 0.7740 -0.2627 -0.5761
vn 0.8272 -0.5557 -0.0833
vn 0.8290 -0.5364 -0.1580
vn 0.7514 -0.6225 0.2190
vn 0.7376 -0.6415 0.2108
vn 0.4738 -0.4869 0.7338
vn 0.5754 -0.5259 0.6263
vn 0.6735 -0.5553 0.4878
vn -0.1424 -0.1227 0.9822
vn 0.2789 -0.3887 0.8781
vn -0.8140 0.4785 0.3292
vn -0.5967 0.2356 0.7671
vn -0.7208 0.5808 -0.3784
vn -0.8171 0.5714 -0.0768
vn -0.3843 0.4779 -0.7899
vn -0.5710 0.5456 -0.6134
vn 0.1578 0.1835 -0.9703
vn -0.1549 0.3716 -0.9154
vn 0.8452 -0.4984 -0.1930
vn 0.6020 -0.1716 -0.7798
vn 0.7729 -0.5713 0.2760
usemtl material1641.003
s 1
f 1//1 2//2 3//3 4//4
f 5//5 6//6 1//1 4//4
f 7//7 8//8 5//5 4//4
f 3//3 9//9 7//7 4//4
f 10//10 11//11 12//12 13//13
f 14//14 15//15 10//10 13//13
f 1//1 6//6 14//14 13//13
f 12//12 2//2 1//1 13//13
f 16//16 17//17 18//18 19//19
f 20//20 21//21 16//16 19//19
f 10//22 15//23 20//20 19//19
f 18//18 11//24 10//22 19//19
f 22//25 23//26 24//27 25//28
f 26//29 27//30 22//25 25//28
f 16//16 21//21 26//29 25//28
f 24//27 17//17 16//16 25//28
f 28//31 29//32 30//33 31//34
f 32//35 33//36 28//31 31//34
f 22//25 27//30 32//35 31//34
f 30//33 23//26 22//25 31//34
f 34//37 35//38 36//39 37//40
f 38//41 39//42 34//37 37//40
f 28//31 33//36 38//41 37//40
f 36//39 29//32 28//31 37//40
f 40//43 41//44 42//45 43//46
f 44//47 45//48 40//43 43//46
f 34//37 39//42 44//47 43//46
f 42//49 35//38 34//37 43//46
f 7//7 9//9 46//50 47//51
f 48//52 8//8 7//7 47//51
f 40//43 45//48 48//52 47//51
f 46//50 41//44 40//43 47//51
f 49//53 50//54 51//55 52//56
f 53//57 54//58 49//53 52//56
f 55//59 56//60 53//57 52//56
f 51//55 57//61 55//59 52//56
f 58//62 59//63 60//64 61//65
f 62//66 63//67 58//62 61//65
f 49//53 54//58 62//66 61//65
f 60//64 50//54 49//53 61//65
f 55//59 57//61 64//68 65//69
f 66//70 56//60 55//59 65//69
f 67//71 68//72 66//70 65//69
f 64//68 69//73 67//71 65//69
f 70//74 71//75 72//76 73//77
f 74//78 75//79 70//74 73//77
f 58//62 63//67 74//78 73//77
f 72//76 59//63 58//62 73//77
f 67//71 69//73 76//80 77//81
f 78//82 68//72 67//71 77//81
f 79//83 80//84 78//82 77//81
f 76//80 81//85 79//83 77//81
f 82//86 83//87 84//88 85//89
f 86//90 87//91 82//86 85//89
f 70//74 75//79 86//90 85//89
f 84//88 71//75 70//74 85//89
f 79//83 81//85 88//92 89//93
f 90//94 80//84 79//83 89//93
f 91//95 92//96 90//94 89//93
f 88//92 93//97 91//95 89//93
f 91//95 93//97 94//98 95//99
f 96//100 92//96 91//95 95//99
f 82//86 87//91 96//100 95//99
f 94//98 83//87 82//86 95//99
f 97//101 57//61 51//55 98//102
f 99//103 100//104 97//101 98//102
f 101//105 102//106 99//103 98//102
f 51//55 50//54 101//105 98//102
f 101//105 50//54 60//64 103//107
f 104//108 102//106 101//105 103//107
f 105//109 106//110 104//108 103//107
f 60//64 59//63 105//109 103//107
f 105//109 59//63 72//76 107//111
f 108//112 106//110 105//109 107//111
f 109//113 110//114 108//112 107//111
f 72//76 71//75 109//113 107//111
f 109//113 71//75 84//88 111//115
f 112//116 110//114 109//113 111//115
f 113//117 114//118 112//116 111//115
f 84//88 83//87 113//117 111//115
f 113//117 83//87 94//98 115//119
f 116//120 114//118 113//117 115//119
f 117//121 118//122 116//120 115//119
f 94//98 93//97 117//121 115//119
f 117//121 93//97 88//92 119//123
f 120//124 118//122 117//121 119//123
f 121//125 122//126 120//124 119//123
f 88//92 81//85 121//125 119//123
f 121//125 81//85 76//80 123//127
f 124//128 122//126 121//125 123//127
f 125//129 126//130 124//128 123//127
f 76//80 69//73 125//129 123//127
f 125//129 69//73 64//68 127//131
f 128//132 126//130 125//129 127//131
f 97//101 100//104 128//132 127//131
f 64//68 57//61 97//101 127//131
f 129//133 130//134 131//135 132//136
f 53//57 56//60 129//133 132//136
f 133//137 54//58 53//57 132//136
f 131//135 134//138 133//137 132//136
f 133//137 134//138 135//139 136//140
f 62//66 54//58 133//137 136//140
f 137//141 63//67 62//66 136//140
f 135//139 138//142 137//141 136//140
f 139//143 140//144 141//145 142//146
f 66//70 68//72 139//143 142//146
f 129//133 56//60 66//70 142//146
f 141//145 130//134 129//133 142//146
f 137//141 138//147 143//148 144//149
f 74//78 63//67 137//141 144//149
f 145//150 75//79 74//78 144//149
f 143//148 146//151 145//150 144//149
f 147//152 148//153 149//154 150//155
f 78//82 80//84 147//152 150//155
f 139//143 68//72 78//82 150//155
f 149//154 140//144 139//143 150//155
f 145//150 146//151 151//156 152//157
f 86//90 75//79 145//150 152//157
f 153//158 87//91 86//90 152//157
f 151//156 154//159 153//158 152//157
f 155//160 156//161 157//162 158//163
f 90//94 92//96 155//160 158//163
f 147//152 80//84 90//94 158//163
f 157//162 148//153 147//152 158//163
f 153//158 154//159 159//164 160//165
f 96//100 87//91 153//158 160//165
f 155//160 92//96 96//100 160//165
f 159//164 156//161 155//160 160//165
f 161//166 162//167 163//168 164//169
f 5//5 8//8 161//166 164//169
f 165//170 6//6 5//5 164//169
f 163//168 166//171 165//170 164//169
f 165//170 166//171 167//172 168//173
f 14//14 6//6 165//170 168//173
f 169//174 15//15 14//14 168//173
f 167//172 170//175 169//174 168//173
f 169//174 170//175 171//176 172//177
f 20//20 15//23 169//174 172//177
f 173//178 21//21 20//20 172//177
f 171//176 174//179 173//178 172//177
f 173//178 174//179 175//180 176//181
f 26//29 21//21 173//178 176//181
f 177//182 27//30 26//29 176//181
f 175//180 178//183 177//182 176//181
f 177//182 178//183 179//184 180//185
f 32//35 27//30 177//182 180//185
f 181//186 33//36 32//35 180//185
f 179//184 182//187 181//186 180//185
f 181//186 182//187 183//188 184//189
f 38//41 33//36 181//186 184//189
f 185//190 39//42 38//41 184//189
f 183//188 186//191 185//190 184//189
f 185//190 186//191 187//192 188//193
f 44//47 39//42 185//190 188//193
f 189//194 45//48 44//47 188//193
f 187//192 190//195 189//194 188//193
f 189//194 190//195 191//196 192//197
f 48//52 45//48 189//194 192//197
f 161//166 8//8 48//52 192//197
f 191//196 162//167 161//166 192//197
f 193//198 166//171 163//168 194//199
f 99//103 102//106 193//198 194//199
f 195//200 100//104 99//103 194//199
f 163//168 162//167 195//200 194//199
f 196//201 170//175 167//172 197//202
f 104//108 106//110 196//201 197//202
f 193//198 102//106 104//108 197//202
f 167//172 166//171 193//198 197//202
f 198//203 174//179 171//176 199//204
f 108//112 110//114 198//203 199//204
f 196//201 106//110 108//112 199//204
f 171//176 170//175 196//201 199//204
f 200//205 178//183 175//180 201//206
f 112//116 114//118 200//205 201//206
f 198//203 110//114 112//116 201//206
f 175//180 174//179 198//203 201//206
f 202//207 182//187 179//184 203//208
f 116//120 118//122 202//207 203//208
f 200//205 114//118 116//120 203//208
f 179//184 178//183 200//205 203//208
f 204//209 186//191 183//188 205//210
f 120//124 122//126 204//209 205//210
f 202//207 118//122 120//124 205//210
f 183//188 182//187 202//207 205//210
f 206//211 190//195 187//192 207//212
f 124//128 126//130 206//211 207//212
f 204//209 122//126 124//128 207//212
f 187//192 186//191 204//209 207//212
f 195//200 162//167 191//196 208//213
f 128//132 100//104 195//200 208//213
f 206//211 126//130 128//132 208//213
f 191//196 190//195 206//211 208//213
