# Blender v3.2.1 OBJ File: ''
# www.blender.org
mtllib scalenus_anterior_right_2.mtl
o Scalenus_Anterior_Muscle_Right2
v -0.303514 17.908281 -0.362752
v -0.267976 17.943987 -0.370743
v -0.270058 17.944927 -0.365471
v -0.305256 17.910053 -0.357254
v -0.341416 17.869759 -0.345514
v -0.340226 17.867653 -0.351265
v -0.307574 17.912090 -0.351927
v -0.343533 17.872293 -0.339839
v -0.272333 17.946104 -0.360556
v -0.726854 17.458071 -0.204190
v -0.760889 17.426081 -0.211635
v -0.755599 17.422838 -0.210712
v -0.720420 17.453581 -0.202522
v -0.682509 17.487173 -0.196940
v -0.689941 17.492292 -0.199217
v -0.713899 17.449699 -0.201857
v -0.674816 17.482439 -0.195829
v -0.750627 17.420395 -0.210727
v -0.734834 17.465666 -0.208920
v -0.769564 17.432978 -0.215404
v -0.765805 17.429632 -0.213248
v -0.731809 17.462246 -0.206314
v -0.695163 17.496620 -0.201814
v -0.697945 17.499826 -0.204868
v -0.733752 17.468645 -0.215318
v -0.771026 17.437212 -0.220673
v -0.771381 17.435602 -0.217957
v -0.735480 17.467894 -0.212033
v -0.698056 17.501583 -0.208515
v -0.695583 17.501604 -0.212347
v -0.724345 17.465250 -0.220358
v -0.763819 17.436506 -0.225290
v -0.768269 17.437510 -0.223315
v -0.729660 17.467644 -0.218443
v -0.690610 17.499611 -0.215958
v -0.684592 17.496246 -0.217939
v -0.713840 17.457842 -0.217970
v -0.752893 17.431055 -0.225368
v -0.758387 17.434219 -0.226005
v -0.718952 17.461823 -0.220018
v -0.678981 17.492155 -0.216882
v -0.673877 17.487823 -0.213827
v -0.706123 17.450218 -0.211106
v -0.745000 17.423923 -0.220342
v -0.748259 17.427425 -0.223288
v -0.709371 17.453781 -0.214766
v -0.669378 17.483740 -0.209814
v -0.666040 17.480406 -0.205608
v -0.705404 17.446665 -0.204807
v -0.744177 17.419460 -0.214123
v -0.743630 17.421146 -0.217107
v -0.704675 17.447733 -0.207691
v -0.664417 17.478327 -0.201974
v -0.665133 17.477835 -0.198987
v -0.303515 17.906775 -0.372368
v -0.265049 17.943136 -0.379968
v -0.266188 17.943283 -0.375746
v -0.302693 17.906998 -0.368136
v -0.340485 17.866344 -0.356894
v -0.343056 17.866480 -0.361019
v -0.310769 17.910736 -0.373661
v -0.266002 17.945408 -0.383810
v -0.264910 17.943869 -0.382895
v -0.306700 17.908186 -0.374413
v -0.348803 17.868694 -0.362259
v -0.354998 17.872202 -0.360153
v -0.316930 17.916901 -0.363762
v -0.271769 17.949995 -0.378078
v -0.268553 17.947681 -0.381997
v -0.314241 17.913929 -0.369502
v -0.358914 17.876213 -0.354239
v -0.360875 17.879732 -0.347103
v -0.319259 17.919790 -0.353014
v -0.277389 17.952534 -0.366701
v -0.274855 17.951649 -0.372678
v -0.318651 17.918785 -0.358264
v -0.361203 17.881758 -0.341328
v -0.360028 17.882664 -0.336424
v -0.317082 17.919619 -0.344273
v -0.279390 17.951838 -0.356641
v -0.278949 17.952543 -0.361052
v -0.318609 17.920113 -0.348017
v -0.357481 17.882826 -0.331905
v -0.354371 17.882030 -0.328859
v -0.312688 17.916222 -0.343669
v -0.276873 17.949053 -0.354344
v -0.278568 17.950583 -0.354377
v -0.315058 17.918180 -0.342782
v -0.351508 17.880062 -0.328373
v -0.348774 17.877491 -0.330287
v -0.274700 17.947519 -0.356625
v -0.310122 17.914169 -0.347058
v -0.346050 17.874886 -0.334436
v -0.534756 17.610561 -0.224118
v -0.577708 17.561876 -0.208487
v -0.577775 17.561396 -0.212737
v -0.534781 17.609564 -0.229215
v -0.493626 17.659889 -0.251227
v -0.493824 17.661316 -0.245451
v -0.536944 17.609617 -0.234536
v -0.495460 17.659498 -0.257340
v -0.580039 17.562117 -0.217183
v -0.455725 17.712456 -0.270883
v -0.418685 17.765242 -0.297110
v -0.420366 17.768040 -0.292462
v -0.457599 17.715120 -0.266317
v -0.496073 17.663776 -0.240850
v -0.460918 17.718519 -0.262776
v -0.500548 17.666840 -0.237671
v -0.422731 17.771627 -0.288558
v -0.425475 17.775837 -0.284782
v -0.465615 17.722345 -0.259826
v -0.507423 17.670067 -0.236165
v -0.471182 17.726048 -0.258887
v -0.515152 17.673050 -0.236789
v -0.428977 17.779942 -0.282956
v -0.433612 17.783218 -0.284903
v -0.477108 17.729069 -0.261378
v -0.522188 17.675381 -0.240004
v -0.482310 17.730919 -0.266175
v -0.527599 17.676756 -0.244919
v -0.438256 17.785172 -0.289419
v -0.441784 17.785303 -0.295299
v -0.485702 17.731104 -0.272156
v -0.530449 17.676865 -0.250645
v -0.486812 17.729464 -0.278799
v -0.530386 17.675446 -0.256691
v -0.443643 17.783487 -0.302178
v -0.443276 17.779589 -0.309691
v -0.485171 17.725836 -0.285580
v -0.527053 17.672232 -0.262567
v -0.480734 17.721325 -0.290940
v -0.521087 17.668295 -0.266905
v -0.440101 17.774717 -0.315886
v -0.433533 17.769981 -0.318812
v -0.473457 17.717039 -0.293315
v -0.513124 17.664705 -0.268340
v -0.465810 17.713514 -0.292661
v -0.505189 17.661856 -0.266986
v -0.426401 17.766069 -0.318494
v -0.421532 17.763668 -0.314957
v -0.460261 17.711290 -0.288930
v -0.499308 17.660137 -0.262956
v -0.456787 17.710384 -0.283290
v -0.418778 17.762777 -0.309425
v -0.417992 17.763393 -0.303120
v -0.455365 17.710825 -0.276907
v -0.385402 17.826956 -0.311489
v -0.382990 17.823736 -0.315703
v -0.380928 17.820932 -0.320831
v -0.390854 17.833704 -0.307350
v -0.387877 17.830511 -0.308336
v -0.398594 17.836773 -0.314031
v -0.394775 17.835833 -0.309640
v -0.402388 17.834417 -0.325761
v -0.401266 17.836391 -0.319348
v -0.398149 17.825937 -0.339926
v -0.401558 17.830574 -0.333440
v -0.384751 17.818317 -0.342170
v -0.391531 17.821581 -0.342759
v -0.379286 17.817175 -0.332787
v -0.380852 17.816961 -0.338390
v -0.379502 17.818623 -0.326730
v -0.583960 17.563694 -0.221802
v -0.540939 17.610521 -0.239684
v -0.546748 17.612291 -0.243782
v -0.589409 17.566010 -0.225901
v -0.631024 17.522043 -0.195485
v -0.585746 17.567001 -0.202056
v -0.593803 17.570681 -0.202677
v -0.639134 17.526466 -0.196576
v -0.647267 17.530973 -0.199189
v -0.602316 17.574183 -0.205192
v -0.609056 17.576754 -0.208468
v -0.653215 17.534515 -0.202182
v -0.656736 17.536934 -0.205681
v -0.613609 17.578344 -0.212451
v -0.615562 17.578913 -0.217083
v -0.657589 17.538073 -0.209811
v -0.655621 17.537613 -0.214144
v -0.614500 17.578108 -0.221930
v -0.610006 17.575584 -0.226555
v -0.650679 17.535238 -0.218250
v -0.644280 17.531750 -0.220547
v -0.603463 17.572233 -0.229372
v -0.596254 17.568949 -0.228789
v -0.637939 17.527943 -0.219452
v -0.632093 17.524200 -0.216194
v -0.627174 17.520905 -0.212003
v -0.623541 17.518375 -0.207587
v -0.621552 17.516932 -0.203656
v -0.621867 17.516935 -0.200162
v -0.554352 17.614941 -0.245958
v -0.562198 17.618174 -0.245603
v -0.568731 17.621698 -0.242110
v -0.572852 17.624521 -0.236923
v -0.573459 17.625654 -0.231491
v -0.570964 17.625425 -0.226271
v -0.565775 17.624159 -0.221721
v -0.558570 17.621984 -0.218308
v -0.550026 17.619028 -0.216494
v -0.542206 17.615801 -0.216775
v -0.580373 17.563906 -0.204460
v -0.537173 17.612810 -0.219644
v -0.625147 17.518753 -0.197059
v -0.668812 17.479265 -0.196725
v -0.708686 17.447357 -0.202740
v -0.746664 17.419241 -0.211930
vn 0.7247 -0.6110 0.3186
vn 0.7001 -0.6228 0.3492
vn 0.6817 -0.5857 0.4385
vn 0.7052 -0.5565 0.4394
vn 0.7699 -0.5042 0.3912
vn 0.7794 -0.5941 0.1990
vn 0.6814 -0.5118 0.5232
vn 0.7465 -0.4395 0.4997
vn 0.6563 -0.5446 0.5222
vn -0.2533 0.0888 0.9633
vn -0.2537 0.0446 0.9663
vn -0.1725 -0.0659 0.9828
vn -0.1743 -0.0155 0.9846
vn -0.1556 0.0885 0.9838
vn -0.2367 0.1882 0.9532
vn -0.0389 -0.1910 0.9808
vn -0.0136 -0.0764 0.9970
vn -0.0303 -0.2559 0.9662
vn -0.5186 0.4402 0.7329
vn -0.4888 0.3667 0.7916
vn -0.3427 0.1624 0.9253
vn -0.3502 0.2137 0.9120
vn -0.3465 0.3225 0.8809
vn -0.5412 0.5597 0.6275
vn -0.5644 0.7084 -0.4238
vn -0.5934 0.7498 -0.2925
vn -0.6499 0.6546 0.3862
vn -0.6686 0.7037 0.2402
vn -0.6721 0.7398 0.0326
vn -0.5369 0.6162 -0.5762
vn -0.0623 0.2078 -0.9762
vn -0.0853 0.2845 -0.9549
vn -0.3345 0.5495 -0.7656
vn -0.3116 0.4843 -0.8175
vn -0.3097 0.3660 -0.8776
vn -0.0582 0.0732 -0.9956
vn 0.2979 -0.2231 -0.9281
vn 0.2754 -0.1429 -0.9507
vn 0.1240 0.0398 -0.9915
vn 0.1555 -0.0515 -0.9865
vn 0.1765 -0.2007 -0.9636
vn 0.3128 -0.3547 -0.8811
vn 0.4879 -0.4928 -0.7205
vn 0.4853 -0.4593 -0.7440
vn 0.3898 -0.2973 -0.8716
vn 0.3987 -0.3536 -0.8462
vn 0.4027 -0.4534 -0.7951
vn 0.4925 -0.5569 -0.6688
vn 0.5314 -0.7921 0.3004
vn 0.5337 -0.8228 0.1954
vn 0.5755 -0.6781 -0.4572
vn 0.5878 -0.7002 -0.4051
vn 0.6191 -0.7223 -0.3082
vn 0.5613 -0.7024 0.4378
vn 0.5528 -0.6924 -0.4637
vn 0.6261 -0.7291 -0.2766
vn 0.7090 -0.6818 0.1801
vn 0.7212 -0.6889 0.0728
vn 0.7077 -0.6849 -0.1736
vn 0.3625 -0.5865 -0.7243
vn -0.3730 0.1580 -0.9143
vn -0.2976 0.1098 -0.9484
vn 0.2157 -0.4506 -0.8663
vn 0.0742 -0.3421 -0.9367
vn -0.1355 -0.2174 -0.9666
vn -0.4999 0.1821 -0.8467
vn -0.6364 0.5902 -0.4967
vn -0.5972 0.5765 -0.5577
vn -0.5261 0.4436 -0.7256
vn -0.5747 0.4645 -0.6737
vn -0.6758 0.4613 -0.5750
vn -0.7245 0.5893 -0.3575
vn -0.6583 0.7489 -0.0762
vn -0.6432 0.7419 -0.1895
vn -0.6320 0.6703 -0.3889
vn -0.6635 0.6819 -0.3080
vn -0.7237 0.6817 -0.1073
vn -0.6600 0.7286 0.1831
vn -0.3992 0.6844 0.6101
vn -0.4798 0.7418 0.4686
vn -0.6205 0.7821 0.0582
vn -0.6049 0.7716 0.1969
vn -0.5208 0.7064 0.4793
vn -0.1717 0.5251 0.8336
vn 0.4895 -0.2026 0.8482
vn 0.4289 -0.1770 0.8858
vn -0.0422 0.3807 0.9237
vn 0.0771 0.2847 0.9555
vn 0.3251 0.1107 0.9392
vn 0.6076 -0.2193 0.7634
vn 0.6087 -0.4584 0.6476
vn 0.6400 -0.4366 0.6323
vn 0.7092 -0.3706 0.5998
vn 0.7725 -0.5179 0.3673
vn 0.7191 -0.5753 0.3899
vn 0.6960 -0.6982 -0.1677
vn 0.7411 -0.6661 -0.0845
vn 0.7835 -0.6213 -0.0145
vn 0.8087 -0.4617 0.3645
vn 0.5995 -0.6864 -0.4117
vn 0.6511 -0.6792 -0.3388
vn 0.5453 -0.6632 -0.5127
vn 0.8306 -0.4228 0.3624
vn 0.8320 -0.4009 0.3834
vn 0.7680 -0.2636 0.5837
vn 0.7378 -0.2237 0.6368
vn 0.6786 -0.2098 0.7039
vn 0.5947 -0.0559 0.8020
vn 0.4442 0.0444 0.8948
vn 0.6898 -0.1627 0.7055
vn 0.5474 -0.0151 0.8368
vn 0.4036 0.1081 0.9085
vn 0.1961 0.2406 0.9506
vn 0.0728 0.3520 0.9332
vn -0.0639 0.4135 0.9083
vn 0.1670 0.3021 0.9385
vn -0.2719 0.5628 0.7806
vn -0.2774 0.5567 0.7830
vn -0.3200 0.5609 0.7635
vn -0.5336 0.6579 0.5315
vn -0.5495 0.6569 0.5163
vn -0.5418 0.6614 0.5186
vn -0.7240 0.6636 0.1883
vn -0.7274 0.6642 0.1725
vn -0.7425 0.6601 0.1139
vn -0.8051 0.5408 -0.2436
vn -0.7868 0.4964 -0.3669
vn -0.8048 0.5681 -0.1719
vn -0.7746 0.3898 -0.4980
vn -0.7403 0.3177 -0.5924
vn -0.6601 0.2313 -0.7147
vn -0.5347 0.0207 -0.8448
vn -0.4263 -0.0599 -0.9026
vn -0.5946 0.0981 -0.7980
vn -0.2776 -0.2226 -0.9346
vn -0.2328 -0.2704 -0.9342
vn -0.1378 -0.3250 -0.9356
vn 0.1035 -0.5008 -0.8593
vn 0.1569 -0.5268 -0.8354
vn 0.1012 -0.4861 -0.8680
vn 0.4977 -0.6450 -0.5799
vn 0.4482 -0.6452 -0.6188
vn 0.4411 -0.6520 -0.6167
vn 0.6920 -0.6600 -0.2925
vn 0.7451 -0.6362 -0.2003
vn 0.8360 -0.5345 0.1243
vn 0.8155 -0.5775 0.0386
vn 0.6900 -0.2067 0.6937
vn 0.7597 -0.3050 0.5743
vn 0.8064 -0.3958 0.4394
vn 0.0766 0.3645 0.9281
vn 0.5188 -0.0080 0.8548
vn -0.6026 0.6835 0.4119
vn -0.3730 0.6153 0.6944
vn -0.7885 0.5738 -0.2214
vn -0.7409 0.6650 0.0937
vn -0.5801 0.1441 -0.8017
vn -0.7533 0.4259 -0.5011
vn 0.1961 -0.5154 -0.8342
vn -0.2442 -0.2056 -0.9477
vn 0.7952 -0.6063 -0.0099
vn 0.6145 -0.6638 -0.4263
vn 0.8274 -0.4963 0.2628
vn 0.4065 -0.5980 -0.6908
vn 0.4255 -0.6414 -0.6384
vn 0.2093 -0.5316 -0.8208
vn 0.2541 -0.4996 -0.8281
vn 0.0730 -0.0028 0.9973
vn 0.1876 0.0450 0.9812
vn -0.0511 0.2576 0.9649
vn -0.1116 0.1846 0.9765
vn -0.2115 0.2916 0.9329
vn -0.1897 0.3754 0.9072
vn -0.3383 0.5005 0.7969
vn -0.3346 0.4251 0.8410
vn -0.5349 0.6246 0.5690
vn -0.5403 0.6459 0.5393
vn -0.7163 0.6969 0.0336
vn -0.6845 0.7290 -0.0051
vn -0.5894 0.5546 -0.5875
vn -0.6762 0.5082 -0.5334
vn -0.4749 0.2192 -0.8523
vn -0.3780 0.2819 -0.8818
vn -0.1180 -0.0193 -0.9928
vn -0.2099 -0.0806 -0.9744
vn 0.0628 -0.3430 -0.9372
vn 0.1376 -0.2909 -0.9468
vn 0.2913 -0.4403 -0.8493
vn 0.3993 -0.5323 -0.7465
vn 0.5078 -0.6149 -0.6033
vn 0.6567 -0.7162 -0.2362
vn 0.6423 -0.6272 0.4405
vn -0.0335 -0.3560 -0.9339
vn -0.3143 -0.0997 -0.9441
vn -0.5692 0.1919 -0.7995
vn -0.7456 0.4792 -0.4631
vn -0.7413 0.6674 0.0706
vn -0.5522 0.6526 0.5189
vn -0.3407 0.5450 0.7661
vn -0.1495 0.4213 0.8945
vn 0.0430 0.2871 0.9569
vn 0.3083 0.0726 0.9485
vn 0.4981 -0.2713 0.8236
vn 0.6044 -0.2354 0.7611
vn 0.3540 -0.2930 0.8882
vn 0.2303 -0.3494 0.9082
vn 0.2077 -0.4871 0.8483
vn 0.2303 -0.5706 0.7883
usemtl material1647.003
s 1
f 1//1 2//2 3//3 4//4
f 5//5 6//6 1//1 4//4
f 7//7 8//8 5//5 4//4
f 3//3 9//9 7//7 4//4
f 10//10 11//11 12//12 13//13
f 14//14 15//15 10//10 13//13
f 16//16 17//17 14//14 13//13
f 12//12 18//18 16//16 13//13
f 19//19 20//20 21//21 22//22
f 23//23 24//24 19//19 22//22
f 10//10 15//15 23//23 22//22
f 21//21 11//11 10//10 22//22
f 25//25 26//26 27//27 28//28
f 29//29 30//30 25//25 28//28
f 19//19 24//24 29//29 28//28
f 27//27 20//20 19//19 28//28
f 31//31 32//32 33//33 34//34
f 35//35 36//36 31//31 34//34
f 25//25 30//30 35//35 34//34
f 33//33 26//26 25//25 34//34
f 37//37 38//38 39//39 40//40
f 41//41 42//42 37//37 40//40
f 31//31 36//36 41//41 40//40
f 39//39 32//32 31//31 40//40
f 43//43 44//44 45//45 46//46
f 47//47 48//48 43//43 46//46
f 37//37 42//42 47//47 46//46
f 45//45 38//38 37//37 46//46
f 49//49 50//50 51//51 52//52
f 53//53 54//54 49//49 52//52
f 43//43 48//48 53//53 52//52
f 51//51 44//44 43//43 52//52
f 55//55 56//56 57//57 58//58
f 59//59 60//60 55//55 58//58
f 1//1 6//6 59//59 58//58
f 57//57 2//2 1//1 58//58
f 61//61 62//62 63//63 64//64
f 65//65 66//66 61//61 64//64
f 55//55 60//60 65//65 64//64
f 63//63 56//56 55//55 64//64
f 67//67 68//68 69//69 70//70
f 71//71 72//72 67//67 70//70
f 61//61 66//66 71//71 70//70
f 69//69 62//62 61//61 70//70
f 73//73 74//74 75//75 76//76
f 77//77 78//78 73//73 76//76
f 67//67 72//72 77//77 76//76
f 75//75 68//68 67//67 76//76
f 79//79 80//80 81//81 82//82
f 83//83 84//84 79//79 82//82
f 73//73 78//78 83//83 82//82
f 81//81 74//74 73//73 82//82
f 85//85 86//86 87//87 88//88
f 89//89 90//90 85//85 88//88
f 79//79 84//84 89//89 88//88
f 87//87 80//80 79//79 88//88
f 7//7 9//9 91//91 92//92
f 93//93 8//8 7//7 92//92
f 85//85 90//90 93//93 92//92
f 91//91 86//86 85//85 92//92
f 94//94 95//95 96//96 97//97
f 98//98 99//99 94//94 97//97
f 100//100 101//101 98//98 97//97
f 96//96 102//102 100//100 97//97
f 103//103 104//104 105//105 106//106
f 107//107 99//99 103//103 106//106
f 108//108 109//109 107//107 106//106
f 105//105 110//110 108//108 106//106
f 108//108 110//110 111//111 112//112
f 113//113 109//109 108//108 112//112
f 114//114 115//115 113//113 112//112
f 111//111 116//116 114//114 112//112
f 114//114 116//116 117//117 118//118
f 119//119 115//115 114//114 118//118
f 120//120 121//121 119//119 118//118
f 117//117 122//122 120//120 118//118
f 120//120 122//122 123//123 124//124
f 125//125 121//121 120//120 124//124
f 126//126 127//127 125//125 124//124
f 123//123 128//128 126//126 124//124
f 126//126 128//128 129//129 130//130
f 131//131 127//127 126//126 130//130
f 132//132 133//133 131//131 130//130
f 129//129 134//134 132//132 130//130
f 132//132 134//134 135//135 136//136
f 137//137 133//133 132//132 136//136
f 138//138 139//139 137//137 136//136
f 135//135 140//140 138//138 136//136
f 138//138 140//140 141//141 142//142
f 143//143 139//139 138//138 142//142
f 144//144 101//101 143//143 142//142
f 141//141 145//145 144//144 142//142
f 144//144 145//145 146//146 147//147
f 98//98 101//101 144//144 147//147
f 103//103 99//99 98//98 147//147
f 146//146 104//104 103//103 147//147
f 148//148 110//110 105//105 149//149
f 93//93 90//90 148//148 149//149
f 150//150 8//8 93//93 149//149
f 105//105 104//104 150//150 149//149
f 151//151 116//116 111//111 152//152
f 89//89 84//84 151//151 152//152
f 148//148 90//90 89//89 152//152
f 111//111 110//110 148//148 152//152
f 153//153 122//122 117//117 154//154
f 83//83 78//78 153//153 154//154
f 151//151 84//84 83//83 154//154
f 117//117 116//116 151//151 154//154
f 155//155 128//128 123//123 156//156
f 77//77 72//72 155//155 156//156
f 153//153 78//78 77//77 156//156
f 123//123 122//122 153//153 156//156
f 157//157 134//134 129//129 158//158
f 71//71 66//66 157//157 158//158
f 155//155 72//72 71//71 158//158
f 129//129 128//128 155//155 158//158
f 159//159 140//140 135//135 160//160
f 65//65 60//60 159//159 160//160
f 157//157 66//66 65//65 160//160
f 135//135 134//134 157//157 160//160
f 161//161 145//145 141//141 162//162
f 59//59 6//6 161//161 162//162
f 159//159 60//60 59//59 162//162
f 141//141 140//140 159//159 162//162
f 150//150 104//104 146//146 163//163
f 5//5 8//8 150//150 163//163
f 161//161 6//6 5//5 163//163
f 146//146 145//145 161//161 163//163
f 100//100 102//102 164//164 165//165
f 143//143 101//101 100//100 165//165
f 166//166 139//139 143//143 165//165
f 164//164 167//167 166//166 165//165
f 168//168 169//169 170//170 171//171
f 14//14 17//17 168//168 171//171
f 172//172 15//15 14//14 171//171
f 170//170 173//173 172//172 171//171
f 172//172 173//173 174//174 175//175
f 23//23 15//15 172//172 175//175
f 176//176 24//24 23//23 175//175
f 174//174 177//177 176//176 175//175
f 176//176 177//177 178//178 179//179
f 29//29 24//24 176//176 179//179
f 180//180 30//30 29//29 179//179
f 178//178 181//181 180//180 179//179
f 180//180 181//181 182//182 183//183
f 35//35 30//30 180//180 183//183
f 184//184 36//36 35//35 183//183
f 182//182 185//185 184//184 183//183
f 184//184 185//185 186//186 187//187
f 41//41 36//36 184//184 187//187
f 188//188 42//42 41//41 187//187
f 186//186 167//167 188//188 187//187
f 188//188 167//167 164//164 189//189
f 47//47 42//42 188//188 189//189
f 190//190 48//48 47//47 189//189
f 164//164 102//102 190//190 189//189
f 190//190 102//102 96//96 191//191
f 53//53 48//48 190//190 191//191
f 192//192 54//54 53//53 191//191
f 96//96 95//95 192//192 191//191
f 166//166 167//167 186//186 193//193
f 137//137 139//139 166//166 193//193
f 194//194 133//133 137//137 193//193
f 186//186 185//185 194//194 193//193
f 194//194 185//185 182//182 195//195
f 131//131 133//133 194//194 195//195
f 196//196 127//127 131//131 195//195
f 182//182 181//181 196//196 195//195
f 196//196 181//181 178//178 197//197
f 125//125 127//127 196//196 197//197
f 198//198 121//121 125//125 197//197
f 178//178 177//177 198//198 197//197
f 198//198 177//177 174//174 199//199
f 119//119 121//121 198//198 199//199
f 200//200 115//115 119//119 199//199
f 174//174 173//173 200//200 199//199
f 200//200 173//173 170//170 201//201
f 113//113 115//115 200//200 201//201
f 202//202 109//109 113//113 201//201
f 170//170 169//169 202//202 201//201
f 202//202 169//169 203//203 204//204
f 107//107 109//109 202//202 204//204
f 94//94 99//99 107//107 204//204
f 203//203 95//95 94//94 204//204
f 203//203 169//169 168//168 205//205
f 192//192 95//95 203//203 205//205
f 206//206 54//54 192//192 205//205
f 168//168 17//17 206//206 205//205
f 206//206 17//17 16//16 207//207
f 49//49 54//54 206//206 207//207
f 208//208 50//50 49//49 207//207
f 16//16 18//18 208//208 207//207
