# Blender v3.2.1 OBJ File: ''
# www.blender.org
mtllib scalene_right_1.mtl
o Scalene_Muscle_Right2
v -0.708257 17.540632 -0.254511
v -0.734801 17.483131 -0.301324
v -0.713657 17.481628 -0.307205
v -0.689241 17.541245 -0.267045
v -0.654513 17.606510 -0.229316
v -0.671673 17.604834 -0.212060
v -0.667984 17.543592 -0.281864
v -0.635343 17.609760 -0.249086
v -0.690165 17.482149 -0.315193
v -0.730315 17.544125 -0.244596
v -0.759082 17.490107 -0.298244
v -0.750512 17.485903 -0.298115
v -0.722226 17.541485 -0.246577
v -0.684289 17.604654 -0.200674
v -0.692124 17.606459 -0.196970
v -0.726059 17.554596 -0.260859
v -0.750408 17.502106 -0.309444
v -0.758804 17.495913 -0.302375
v -0.731691 17.548882 -0.249919
v -0.694942 17.610720 -0.202759
v -0.691749 17.616226 -0.216066
v -0.695022 17.564812 -0.291734
v -0.713754 17.511427 -0.327959
v -0.734623 17.507471 -0.318387
v -0.713123 17.560112 -0.275726
v -0.681550 17.621758 -0.234913
v -0.666143 17.626764 -0.255506
v -0.653478 17.569281 -0.317236
v -0.667730 17.512882 -0.343702
v -0.690104 17.513386 -0.336916
v -0.673894 17.568077 -0.306097
v -0.647329 17.630692 -0.274049
v -0.628594 17.632772 -0.288779
v -0.627596 17.564217 -0.324512
v -0.640994 17.503981 -0.346037
v -0.650687 17.509453 -0.346758
v -0.637513 17.567795 -0.323571
v -0.613424 17.632238 -0.297932
v -0.603168 17.629604 -0.300482
v -0.631598 17.553431 -0.309746
v -0.649536 17.490772 -0.334063
v -0.640670 17.497351 -0.341487
v -0.625329 17.559139 -0.319468
v -0.599177 17.625381 -0.295405
v -0.603128 17.620192 -0.284111
v -0.667413 17.485451 -0.324722
v -0.647293 17.547953 -0.296654
v -0.616699 17.614653 -0.268011
v -0.278004 18.401512 -0.025879
v -0.286989 18.279257 -0.051074
v -0.278939 18.282331 -0.063610
v -0.272013 18.405909 -0.037571
v -0.270263 18.516817 -0.015489
v -0.274833 18.512077 -0.004998
v -0.265688 18.410784 -0.051579
v -0.264971 18.521528 -0.028318
v -0.271131 18.286179 -0.078368
v -0.287877 18.397917 -0.017219
v -0.301123 18.279190 -0.041195
v -0.294162 18.278112 -0.043633
v -0.282979 18.398855 -0.019216
v -0.278317 18.508331 0.000782
v -0.281701 18.505333 0.002296
v -0.264687 18.289631 -0.092475
v -0.259709 18.414879 -0.065189
v -0.259319 18.525181 -0.041110
v -0.256821 18.417732 -0.076061
v -0.256094 18.526905 -0.051481
v -0.262147 18.292744 -0.103684
v -0.298129 18.401138 -0.026382
v -0.313859 18.287876 -0.051174
v -0.308537 18.282778 -0.043664
v -0.293635 18.398680 -0.019526
v -0.285967 18.502836 -0.000009
v -0.289474 18.501823 -0.006340
v -0.266050 18.295568 -0.109750
v -0.259772 18.418884 -0.081856
v -0.258087 18.525831 -0.057050
v -0.266500 18.418985 -0.083339
v -0.263532 18.522976 -0.058531
v -0.274139 18.298304 -0.111414
v -0.296988 18.410030 -0.051738
v -0.311100 18.298481 -0.078614
v -0.314546 18.293491 -0.063856
v -0.299231 18.405293 -0.038033
v -0.290580 18.503279 -0.016905
v -0.289028 18.506466 -0.029351
v -0.284157 18.301146 -0.109414
v -0.274945 18.418682 -0.081276
v -0.270664 18.519350 -0.056641
v -0.283722 18.417320 -0.075229
v -0.278127 18.515171 -0.051025
v -0.294616 18.302732 -0.103233
v -0.304027 18.301702 -0.092353
v -0.291444 18.414238 -0.064760
v -0.284563 18.510654 -0.041326
v -0.305494 18.157028 -0.099210
v -0.315019 18.154650 -0.083584
v -0.373991 18.024895 -0.104477
v -0.362544 18.025974 -0.121262
v -0.325298 18.152521 -0.070368
v -0.386281 18.023687 -0.090409
v -0.334992 18.151276 -0.062276
v -0.397921 18.022306 -0.081469
v -0.344364 18.151371 -0.059692
v -0.408795 18.021309 -0.078557
v -0.353678 18.153263 -0.063000
v -0.418790 18.021250 -0.082574
v -0.360131 18.156172 -0.071916
v -0.425243 18.021721 -0.092805
v -0.360916 18.159319 -0.086154
v -0.425492 18.022314 -0.108536
v -0.356670 18.162210 -0.102344
v -0.420104 18.023226 -0.126279
v -0.348028 18.164351 -0.117117
v -0.409645 18.024647 -0.142547
v -0.336385 18.165310 -0.128605
v -0.395799 18.026026 -0.155303
v -0.323138 18.164661 -0.134940
v -0.380247 18.026812 -0.162508
v -0.310426 18.163273 -0.136635
v -0.365649 18.027256 -0.164414
v -0.300385 18.162018 -0.134205
v -0.354668 18.027617 -0.161271
v -0.295453 18.160675 -0.127041
v -0.349772 18.027615 -0.152709
v -0.298064 18.159023 -0.114536
v -0.353434 18.026976 -0.138356
v -0.244786 18.609097 -0.018060
v -0.214867 18.685076 -0.014303
v -0.219756 18.685574 -0.006270
v -0.249710 18.606503 -0.007385
v -0.253969 18.603737 0.001357
v -0.224259 18.685942 0.000449
v -0.227489 18.686186 0.004245
v -0.257054 18.601368 0.006167
v -0.259670 18.599222 0.007413
v -0.229713 18.686346 0.005331
v -0.236582 18.611521 -0.037252
v -0.207676 18.683855 -0.028199
v -0.210481 18.684450 -0.022044
v -0.239706 18.610949 -0.028667
v -0.231196 18.686472 0.003920
v -0.262525 18.597122 0.005466
v -0.264430 18.595804 0.000155
v -0.231192 18.686432 -0.000124
v -0.241254 18.607927 -0.043110
v -0.209321 18.683361 -0.032383
v -0.207530 18.683455 -0.031477
v -0.237527 18.610270 -0.041859
v -0.228950 18.686098 -0.006937
v -0.264198 18.596003 -0.008692
v -0.261915 18.597393 -0.019086
v -0.225225 18.685566 -0.014883
v -0.252255 18.602385 -0.037053
v -0.216244 18.684278 -0.028197
v -0.212327 18.683697 -0.031419
v -0.246473 18.605223 -0.041625
v -0.220766 18.684931 -0.022327
v -0.257668 18.599648 -0.029040
v -0.581784 17.685379 -0.217409
v -0.513340 17.778120 -0.185414
v -0.528938 17.777191 -0.165443
v -0.599162 17.683079 -0.196453
v -0.615011 17.682426 -0.178335
v -0.543729 17.777750 -0.148531
v -0.555693 17.779013 -0.136916
v -0.627050 17.683002 -0.166041
v -0.635085 17.685423 -0.161387
v -0.564485 17.781672 -0.132169
v -0.569761 17.786421 -0.135863
v -0.638920 17.690306 -0.166191
v -0.637515 17.696138 -0.178859
v -0.570412 17.791685 -0.146947
v -0.565329 17.795898 -0.164367
v -0.629828 17.701416 -0.197798
v -0.616971 17.705849 -0.219272
v -0.555021 17.799095 -0.184777
v -0.539996 17.801319 -0.204825
v -0.600054 17.709150 -0.239544
v -0.582444 17.710455 -0.256340
v -0.523347 17.801691 -0.221862
v -0.508172 17.799337 -0.233236
v -0.567505 17.708891 -0.267387
v -0.556679 17.705301 -0.271440
v -0.496274 17.795303 -0.237846
v -0.489456 17.790632 -0.234594
v -0.551403 17.700529 -0.267255
v -0.553591 17.695154 -0.255843
v -0.489692 17.785810 -0.223905
v -0.498956 17.781317 -0.206207
v -0.565156 17.689754 -0.238217
v -0.463289 17.895132 -0.117843
v -0.449589 17.895103 -0.133274
v -0.436042 17.895662 -0.151681
v -0.485612 17.895855 -0.103638
v -0.475402 17.895166 -0.107537
v -0.497496 17.900219 -0.118038
v -0.493601 17.897852 -0.107426
v -0.487810 17.903538 -0.153768
v -0.495424 17.902020 -0.134610
v -0.459626 17.905851 -0.187286
v -0.475080 17.905060 -0.172138
v -0.430098 17.903610 -0.200161
v -0.443838 17.905174 -0.196775
v -0.418136 17.899645 -0.187262
v -0.420784 17.901741 -0.197000
v -0.424390 17.897396 -0.170916
vn 0.3586 -0.6695 0.6505
vn 0.2418 -0.6731 0.6989
vn 0.3522 -0.6175 0.7034
vn 0.4496 -0.6215 0.6415
vn 0.5707 -0.6289 0.5280
vn 0.5140 -0.6472 0.5630
vn 0.5198 -0.5654 0.6404
vn 0.6131 -0.6051 0.5080
vn 0.4428 -0.5502 0.7080
vn -0.0394 -0.6383 0.7687
vn -0.1759 -0.6324 0.7544
vn 0.0008 -0.6741 0.7386
vn 0.1346 -0.6744 0.7260
vn 0.3375 -0.6338 0.6960
vn 0.1850 -0.5935 0.7833
vn -0.7539 0.6031 -0.2607
vn -0.7039 0.6270 -0.3337
vn -0.9112 0.4091 0.0491
vn -0.9110 0.3908 0.1320
vn -0.8704 0.3884 0.3027
vn -0.8078 0.5771 -0.1199
vn -0.9044 0.1754 0.3890
vn -0.8037 0.1975 0.5613
vn -0.9336 0.1803 0.3098
vn -0.5522 0.5989 -0.5800
vn -0.4765 0.6021 -0.6407
vn -0.5692 0.6426 -0.5129
vn -0.6379 0.6270 -0.4472
vn -0.7245 0.6086 -0.3235
vn -0.6516 0.6011 -0.4627
vn -0.3514 0.4896 -0.7980
vn -0.2656 0.4674 -0.8432
vn -0.3867 0.5391 -0.7482
vn -0.4654 0.5494 -0.6939
vn -0.5718 0.5769 -0.5833
vn -0.4687 0.5402 -0.6990
vn 0.0463 0.3486 -0.9361
vn 0.1382 0.3222 -0.9365
vn -0.0252 0.3806 -0.9244
vn -0.1179 0.4083 -0.9052
vn -0.2544 0.4681 -0.8463
vn 0.3637 0.1734 -0.9152
vn 0.7599 -0.4566 0.4627
vn 0.7105 -0.4253 0.5607
vn 0.9641 -0.2615 0.0455
vn 0.9562 -0.2801 -0.0845
vn 0.8858 -0.3310 -0.3252
vn 0.8021 -0.5373 0.2606
vn 0.8739 -0.0935 -0.4770
vn 0.9284 -0.0900 -0.3606
vn 0.5396 -0.4876 0.6864
vn 0.6004 -0.5130 0.6135
vn 0.6722 -0.5795 0.4607
vn 0.8560 -0.1416 0.4973
vn 0.7854 -0.2431 0.5692
vn 0.8632 -0.2257 0.4516
vn 0.9055 -0.1168 0.4079
vn 0.9201 -0.1659 0.3549
vn 0.8936 -0.1720 0.4146
vn 0.9174 -0.1059 0.3835
vn 0.9186 -0.1678 0.3577
vn 0.8941 -0.2119 0.3946
vn 0.0063 -0.1865 0.9824
vn -0.0269 -0.1627 0.9863
vn 0.5298 -0.2442 0.8122
vn 0.6272 -0.1859 0.7564
vn 0.7057 -0.1829 0.6844
vn 0.0112 -0.1171 0.9931
vn 0.9403 -0.1933 0.2801
vn 0.9463 -0.0896 0.3105
vn 0.9325 -0.1656 0.3208
vn 0.9943 -0.0008 -0.1071
vn 0.9934 -0.1123 -0.0233
vn 0.9768 -0.1060 -0.1864
vn -0.9412 0.0339 0.3361
vn -0.9137 0.1491 0.3781
vn -0.6026 -0.0015 0.7980
vn -0.6439 -0.0851 0.7603
vn -0.7161 0.0322 0.6973
vn -0.9527 0.1282 0.2755
vn 0.5881 0.0765 -0.8052
vn 0.6138 0.1590 -0.7733
vn 0.6629 0.0686 -0.7455
vn -0.0123 0.2305 -0.9730
vn -0.0694 0.2174 -0.9736
vn 0.0480 0.1966 -0.9793
vn -0.9585 0.1557 -0.2389
vn -0.9262 0.2655 -0.2677
vn -0.9726 0.2323 -0.0044
vn -0.9937 0.1119 -0.0050
vn -0.9833 0.1817 -0.0083
vn -0.9550 0.2152 -0.2039
vn -0.3151 0.2491 -0.9158
vn -0.4095 0.2375 -0.8809
vn -0.5007 0.2598 -0.8257
vn -0.6991 0.2196 -0.6804
vn -0.7543 0.2594 -0.6031
vn -0.6177 0.2764 -0.7362
vn -0.8182 0.2793 -0.5026
vn -0.8710 0.1894 -0.4532
vn -0.8886 0.2407 -0.3904
vn 0.8387 -0.3597 0.4089
vn 0.7930 -0.3663 0.4868
vn 0.7194 -0.4688 0.5125
vn 0.7706 -0.4701 0.4303
vn 0.7040 -0.3626 0.6107
vn 0.6404 -0.4543 0.6192
vn 0.4638 -0.3075 0.8309
vn 0.4410 -0.3837 0.8114
vn -0.0397 -0.1270 0.9911
vn -0.0508 -0.1434 0.9884
vn -0.5798 0.1235 0.8053
vn -0.6141 0.2043 0.7623
vn -0.8763 0.3068 0.3716
vn -0.8641 0.4159 0.2833
vn -0.9244 0.3805 -0.0279
vn -0.8733 0.4777 -0.0958
vn -0.8693 0.3941 -0.2984
vn -0.8095 0.4811 -0.3364
vn -0.7543 0.3828 -0.5334
vn -0.7033 0.4634 -0.5391
vn -0.5535 0.3447 -0.7581
vn -0.5306 0.4228 -0.7346
vn -0.2699 0.2733 -0.9233
vn -0.2796 0.3464 -0.8954
vn 0.0676 0.1687 -0.9834
vn 0.0730 0.2040 -0.9762
vn 0.5749 -0.0340 -0.8175
vn 0.6161 -0.1016 -0.7811
vn 0.9395 -0.2708 -0.2098
vn 0.9076 -0.3958 -0.1401
vn 0.8974 -0.3484 0.2706
vn 0.8344 -0.4654 0.2953
vn 0.8777 -0.3000 0.3736
vn 0.8433 -0.3502 0.4076
vn 0.8472 -0.3270 0.4188
vn 0.8834 -0.2839 0.3729
vn 0.8653 -0.2643 0.4259
vn 0.8273 -0.2958 0.4776
vn 0.6621 -0.2178 0.7171
vn 0.6980 -0.2122 0.6839
vn 0.5027 -0.1571 0.8501
vn 0.4771 -0.1450 0.8668
vn 0.9463 -0.3083 0.0970
vn 0.9084 -0.3828 0.1679
vn 0.8489 -0.3699 0.3775
vn 0.8837 -0.3132 0.3479
vn -0.6099 0.1663 0.7749
vn -0.6607 0.2440 0.7099
vn -0.8398 0.3057 0.4486
vn -0.8061 0.2315 0.5447
vn -0.9491 0.2947 0.1109
vn -0.9378 0.3472 -0.0044
vn -0.0343 0.1677 -0.9852
vn 0.0149 0.1340 -0.9909
vn 0.3730 -0.0237 -0.9275
vn 0.2986 0.0480 -0.9532
vn 0.9510 -0.2825 -0.1258
vn 0.9276 -0.3733 -0.0158
vn -0.9084 0.3604 -0.2120
vn -0.9404 0.3196 -0.1159
vn -0.9044 0.3383 -0.2600
vn -0.8662 0.3750 -0.3302
vn -0.7400 0.3456 -0.5770
vn -0.7104 0.3746 -0.5958
vn -0.4983 0.3202 -0.8057
vn -0.5176 0.3049 -0.7995
vn -0.8104 0.3838 -0.4426
vn -0.8475 0.3496 -0.3994
vn 0.6430 -0.6296 0.4361
vn 0.6715 -0.6026 0.4312
vn 0.6268 -0.5946 0.5035
vn 0.6066 -0.6286 0.4868
vn 0.5645 -0.6198 0.5451
vn 0.5776 -0.5782 0.5762
vn 0.4367 -0.5182 0.7354
vn 0.4218 -0.5726 0.7030
vn 0.2919 -0.5151 0.8059
vn -0.1171 -0.1894 0.9749
vn -0.6537 0.1963 0.7308
vn -0.7219 0.3352 0.6053
vn -0.7934 0.3873 0.4696
vn -0.8204 0.5718 -0.0038
vn -0.8321 0.5471 0.0905
vn -0.7843 0.5891 -0.1944
vn -0.7583 0.6060 -0.2405
vn -0.6910 0.6080 -0.3911
vn -0.7173 0.5923 -0.3670
vn -0.6355 0.5822 -0.5071
vn -0.6131 0.5972 -0.5171
vn -0.5098 0.5734 -0.6413
vn -0.5209 0.5583 -0.6457
vn -0.3191 0.4927 -0.8096
vn -0.3092 0.5063 -0.8050
vn 0.2306 0.2090 -0.9503
vn 0.1444 0.2474 -0.9581
vn 0.7376 -0.2655 -0.6209
vn 0.7947 -0.3395 -0.5031
vn 0.8018 -0.5878 0.1083
vn 0.8284 -0.5596 0.0258
vn 0.7300 -0.6023 0.3229
vn 0.6966 -0.6235 0.3549
vn 0.5985 -0.5258 0.6045
vn 0.6615 -0.5421 0.5182
vn 0.7126 -0.5482 0.4378
vn -0.0679 -0.1781 0.9817
vn 0.4373 -0.4603 0.7726
vn -0.8489 0.4966 0.1809
vn -0.6642 0.2692 0.6975
vn -0.7548 0.5504 -0.3569
vn -0.8217 0.5485 -0.1546
vn -0.5255 0.5057 -0.6842
vn -0.6632 0.5364 -0.5220
vn 0.0923 0.2498 -0.9639
vn -0.3067 0.4371 -0.8455
vn 0.8700 -0.4907 -0.0473
vn 0.6819 -0.1725 -0.7108
vn 0.7756 -0.5473 0.3145
usemtl material1640.003
s 1
f 1//1 2//2 3//3 4//4
f 5//5 6//6 1//1 4//4
f 7//7 8//8 5//5 4//4
f 3//3 9//9 7//7 4//4
f 10//10 11//11 12//12 13//13
f 14//14 15//15 10//10 13//13
f 1//1 6//6 14//14 13//13
f 12//12 2//2 1//1 13//13
f 16//16 17//17 18//18 19//19
f 20//20 21//21 16//16 19//19
f 10//22 15//23 20//20 19//19
f 18//18 11//24 10//22 19//19
f 22//25 23//26 24//27 25//28
f 26//29 27//30 22//25 25//28
f 16//16 21//21 26//29 25//28
f 24//27 17//17 16//16 25//28
f 28//31 29//32 30//33 31//34
f 32//35 33//36 28//31 31//34
f 22//25 27//30 32//35 31//34
f 30//33 23//26 22//25 31//34
f 34//37 35//38 36//39 37//40
f 38//41 39//42 34//37 37//40
f 28//31 33//36 38//41 37//40
f 36//39 29//32 28//31 37//40
f 40//43 41//44 42//45 43//46
f 44//47 45//48 40//43 43//46
f 34//49 39//42 44//47 43//46
f 42//45 35//50 34//49 43//46
f 7//7 9//9 46//51 47//52
f 48//53 8//8 7//7 47//52
f 40//43 45//48 48//53 47//52
f 46//51 41//44 40//43 47//52
f 49//54 50//55 51//56 52//57
f 53//58 54//59 49//54 52//57
f 55//60 56//61 53//58 52//57
f 51//56 57//62 55//60 52//57
f 58//63 59//64 60//65 61//66
f 62//67 63//68 58//63 61//66
f 49//54 54//59 62//67 61//66
f 60//65 50//55 49//54 61//66
f 55//60 57//62 64//69 65//70
f 66//71 56//61 55//60 65//70
f 67//72 68//73 66//71 65//70
f 64//69 69//74 67//72 65//70
f 70//75 71//76 72//77 73//78
f 74//79 75//80 70//75 73//78
f 58//63 63//68 74//79 73//78
f 72//77 59//64 58//63 73//78
f 67//72 69//74 76//81 77//82
f 78//83 68//73 67//72 77//82
f 79//84 80//85 78//83 77//82
f 76//81 81//86 79//84 77//82
f 82//87 83//88 84//89 85//90
f 86//91 87//92 82//87 85//90
f 70//75 75//80 86//91 85//90
f 84//89 71//76 70//75 85//90
f 79//84 81//86 88//93 89//94
f 90//95 80//85 79//84 89//94
f 91//96 92//97 90//95 89//94
f 88//93 93//98 91//96 89//94
f 91//96 93//98 94//99 95//100
f 96//101 92//97 91//96 95//100
f 82//87 87//92 96//101 95//100
f 94//99 83//88 82//87 95//100
f 97//102 57//62 51//56 98//103
f 99//104 100//105 97//102 98//103
f 101//106 102//107 99//104 98//103
f 51//56 50//55 101//106 98//103
f 101//106 50//55 60//65 103//108
f 104//109 102//107 101//106 103//108
f 105//110 106//111 104//109 103//108
f 60//65 59//64 105//110 103//108
f 105//110 59//64 72//77 107//112
f 108//113 106//111 105//110 107//112
f 109//114 110//115 108//113 107//112
f 72//77 71//76 109//114 107//112
f 109//114 71//76 84//89 111//116
f 112//117 110//115 109//114 111//116
f 113//118 114//119 112//117 111//116
f 84//89 83//88 113//118 111//116
f 113//118 83//88 94//99 115//120
f 116//121 114//119 113//118 115//120
f 117//122 118//123 116//121 115//120
f 94//99 93//98 117//122 115//120
f 117//122 93//98 88//93 119//124
f 120//125 118//123 117//122 119//124
f 121//126 122//127 120//125 119//124
f 88//93 81//86 121//126 119//124
f 121//126 81//86 76//81 123//128
f 124//129 122//127 121//126 123//128
f 125//130 126//131 124//129 123//128
f 76//81 69//74 125//130 123//128
f 125//130 69//74 64//69 127//132
f 128//133 126//131 125//130 127//132
f 97//102 100//105 128//133 127//132
f 64//69 57//62 97//102 127//132
f 129//134 130//135 131//136 132//137
f 53//58 56//61 129//134 132//137
f 133//138 54//59 53//58 132//137
f 131//136 134//139 133//138 132//137
f 133//138 134//139 135//140 136//141
f 62//67 54//59 133//138 136//141
f 137//142 63//68 62//67 136//141
f 135//140 138//143 137//142 136//141
f 139//144 140//145 141//146 142//147
f 66//71 68//73 139//144 142//147
f 129//134 56//61 66//71 142//147
f 141//146 130//135 129//134 142//147
f 137//148 138//149 143//150 144//151
f 74//79 63//68 137//148 144//151
f 145//152 75//80 74//79 144//151
f 143//150 146//153 145//152 144//151
f 147//154 148//155 149//156 150//157
f 78//83 80//85 147//154 150//157
f 139//144 68//73 78//83 150//158
f 149//159 140//145 139//144 150//158
f 145//152 146//153 151//160 152//161
f 86//91 75//80 145//152 152//161
f 153//162 87//92 86//91 152//161
f 151//160 154//163 153//162 152//161
f 155//164 156//165 157//166 158//167
f 90//95 92//97 155//164 158//167
f 147//154 80//85 90//95 158//167
f 157//166 148//155 147//154 158//167
f 153//162 154//163 159//168 160//169
f 96//101 87//92 153//162 160//169
f 155//164 92//97 96//101 160//169
f 159//168 156//165 155//164 160//169
f 161//170 162//171 163//172 164//173
f 5//5 8//8 161//170 164//173
f 165//174 6//6 5//5 164//173
f 163//172 166//175 165//174 164//173
f 165//174 166//175 167//176 168//177
f 14//14 6//6 165//174 168//177
f 169//178 15//15 14//14 168//177
f 167//176 170//179 169//178 168//177
f 169//180 170//179 171//181 172//182
f 20//20 15//23 169//180 172//182
f 173//183 21//21 20//20 172//182
f 171//181 174//184 173//183 172//182
f 173//183 174//184 175//185 176//186
f 26//29 21//21 173//183 176//186
f 177//187 27//30 26//29 176//186
f 175//185 178//188 177//187 176//186
f 177//187 178//188 179//189 180//190
f 32//35 27//30 177//187 180//190
f 181//191 33//36 32//35 180//190
f 179//189 182//192 181//191 180//190
f 181//191 182//192 183//193 184//194
f 38//41 33//36 181//191 184//194
f 185//195 39//42 38//41 184//194
f 183//193 186//196 185//195 184//194
f 185//195 186//196 187//197 188//198
f 44//47 39//42 185//195 188//198
f 189//199 45//48 44//47 188//198
f 187//197 190//200 189//199 188//198
f 189//199 190//200 191//201 192//202
f 48//53 45//48 189//199 192//202
f 161//170 8//8 48//53 192//202
f 191//201 162//171 161//170 192//202
f 193//203 166//175 163//172 194//204
f 99//104 102//107 193//203 194//204
f 195//205 100//105 99//104 194//204
f 163//172 162//171 195//205 194//204
f 196//206 170//179 167//176 197//207
f 104//109 106//111 196//206 197//207
f 193//203 102//107 104//109 197//207
f 167//176 166//175 193//203 197//207
f 198//208 174//184 171//181 199//209
f 108//113 110//115 198//208 199//209
f 196//206 106//111 108//113 199//209
f 171//181 170//179 196//206 199//209
f 200//210 178//188 175//185 201//211
f 112//117 114//119 200//210 201//211
f 198//208 110//115 112//117 201//211
f 175//185 174//184 198//208 201//211
f 202//212 182//192 179//189 203//213
f 116//121 118//123 202//212 203//213
f 200//210 114//119 116//121 203//213
f 179//189 178//188 200//210 203//213
f 204//214 186//196 183//193 205//215
f 120//125 122//127 204//214 205//215
f 202//212 118//123 120//125 205//215
f 183//193 182//192 202//212 205//215
f 206//216 190//200 187//197 207//217
f 124//129 126//131 206//216 207//217
f 204//214 122//127 124//129 207//217
f 187//197 186//196 204//214 207//217
f 195//205 162//171 191//201 208//218
f 128//133 100//105 195//205 208//218
f 206//216 126//131 128//133 208//218
f 191//201 190//200 206//216 208//218
