# Blender v3.2.1 OBJ File: ''
# www.blender.org
mtllib serratus_anterior_right.mtl
o Serratus_Anterior_Muscle_Right
v -0.977255 17.308119 -1.085578
v -0.962481 17.282907 -1.107174
v -1.018003 17.268929 -1.044281
v -1.031954 17.301935 -1.025474
v -1.043532 17.334341 -1.002597
v -0.997246 17.329262 -1.056112
v -1.080613 17.300768 -0.968659
v -1.069912 17.327021 -0.970721
v -1.055595 17.275658 -0.996403
v -1.043237 17.341722 -0.879054
v -1.050787 17.334131 -0.936371
v -1.051187 17.309757 -0.940063
v -1.041613 17.327051 -0.881995
v -1.045926 17.345488 -0.801557
v -1.048190 17.355051 -0.800482
v -1.026213 17.318617 -0.900101
v -1.027762 17.349173 -0.811648
v -1.036767 17.285419 -0.967229
v -0.995617 17.360310 -0.823943
v -0.995004 17.316544 -0.929015
v -0.963207 17.322266 -0.957580
v -0.963506 17.378176 -0.836287
v -1.002810 17.273546 -1.016219
v -0.967649 17.272264 -1.063769
v -1.010237 17.378313 -0.922313
v -1.017679 17.344727 -0.995222
v -1.040287 17.346111 -0.957803
v -1.033122 17.362501 -0.895634
v -1.032639 17.383663 -0.815235
v -1.005448 17.416178 -0.833147
v -0.935911 17.441010 -0.850454
v -0.937547 17.425228 -0.852103
v -0.937885 17.353506 -0.982046
v -0.933086 17.363289 -0.981656
v -0.941644 17.370249 -0.971515
v -0.945880 17.446159 -0.845597
v -0.938667 17.298801 -1.092144
v -0.948491 17.310003 -1.076502
v -0.942154 17.290375 -1.093240
v -0.784634 17.405790 -0.165512
v -0.775182 17.380611 -0.135631
v -0.773281 17.367128 -0.138671
v -0.785228 17.397432 -0.183639
v -0.799284 17.439886 -0.237022
v -0.801692 17.447910 -0.221777
v -0.791985 17.392454 -0.195438
v -0.801026 17.434912 -0.245770
v -0.786054 17.372538 -0.159093
v -0.877686 17.369759 -0.185802
v -0.826945 17.374277 -0.150853
v -0.814397 17.362804 -0.121892
v -0.872199 17.357531 -0.158676
v -0.940634 17.353712 -0.219450
v -0.938501 17.364811 -0.244198
v -0.866401 17.367188 -0.151150
v -0.938602 17.363766 -0.208987
v -0.805761 17.373354 -0.117676
v -0.870341 17.446548 -0.279873
v -0.831045 17.451466 -0.251479
v -0.831489 17.409409 -0.197417
v -0.876097 17.404411 -0.229239
v -0.930581 17.396694 -0.281187
v -0.918791 17.437193 -0.324297
v -0.867661 17.439991 -0.203903
v -0.823136 17.445257 -0.192513
v -0.823481 17.485888 -0.246776
v -0.861704 17.482038 -0.262448
v -0.909506 17.479452 -0.301436
v -0.924977 17.437529 -0.243517
v -0.855179 17.512163 -0.319888
v -0.895433 17.509302 -0.360413
v -0.820840 17.514326 -0.296198
v -0.822066 17.518711 -0.328840
v -0.854076 17.518190 -0.353963
v -0.890578 17.515268 -0.392251
v -0.857193 17.505938 -0.358817
v -0.894073 17.501997 -0.395175
v -0.825286 17.506144 -0.334490
v -1.045129 17.360470 -0.728948
v -1.062734 17.363794 -0.637937
v -1.078420 17.362923 -0.626328
v -1.063169 17.356485 -0.719941
v -1.065184 17.368956 -0.718523
v -1.079521 17.379490 -0.623148
v -0.982033 17.403122 -0.747970
v -1.003604 17.412308 -0.664287
v -1.035153 17.383083 -0.651293
v -1.014298 17.377590 -0.738638
v -1.019051 17.438820 -0.746691
v -1.035494 17.449730 -0.651404
v -1.001551 17.478848 -0.661421
v -0.986127 17.467457 -0.751304
v -0.972794 17.437447 -0.841548
v -0.958812 17.482035 -0.752393
v -0.972039 17.493961 -0.668545
v -0.957479 17.489157 -0.676190
v -0.946751 17.477488 -0.756907
v -0.947769 17.459145 -0.759770
v -0.958570 17.470232 -0.679798
v -1.076502 17.382700 -0.504326
v -1.076752 17.367666 -0.509904
v -1.053680 17.367722 -0.392677
v -1.052409 17.379419 -0.384591
v -1.064994 17.370434 -0.524555
v -1.045814 17.374321 -0.410680
v -1.013033 17.420942 -0.556891
v -0.976011 17.442986 -0.674809
v -0.981626 17.448952 -0.575290
v -0.972384 17.454546 -0.480810
v -1.003335 17.427925 -0.452672
v -0.959971 17.473467 -0.586938
v -0.949950 17.477135 -0.500410
v -1.039228 17.452393 -0.535743
v -1.063349 17.412518 -0.635076
v -1.063184 17.415056 -0.515999
v -1.042389 17.410845 -0.395033
v -1.023384 17.449165 -0.418382
v -0.959972 17.492443 -0.583477
v -0.950413 17.495178 -0.497481
v -0.977160 17.498028 -0.570695
v -0.967555 17.499657 -0.478268
v -0.984793 17.340773 -1.087554
v -0.974500 17.332876 -1.103763
v -0.965209 17.325483 -1.115979
v -0.964142 17.321741 -1.109534
v -0.944385 17.292166 -1.127659
v -0.950197 17.300480 -1.125550
v -0.949623 17.279701 -1.086612
v -0.946047 17.337208 -0.974639
v -0.945447 17.402048 -0.846527
v -0.973553 17.378075 -0.949671
v -0.980954 17.329000 -1.039492
v -0.802296 17.477215 -0.292768
v -0.800132 17.501085 -0.315372
v -0.792320 17.513872 -0.316229
v -0.796676 17.482670 -0.284282
v -0.796223 17.489084 -0.270902
v -0.793625 17.509710 -0.296921
v -0.905049 17.474133 -0.367408
v -0.863327 17.481224 -0.328593
v -0.828628 17.483719 -0.302937
v -0.934030 17.395334 -0.214855
v -0.867057 17.398191 -0.166515
v -0.812951 17.404291 -0.145348
v -0.959693 17.432329 -0.755903
v -1.047941 17.401194 -0.731602
v -1.028422 17.397787 -0.429987
v -1.042289 17.391481 -0.540098
v -0.995159 17.481544 -0.449015
v -1.007066 17.482363 -0.554380
v -1.003523 17.370474 -0.286473
v -1.004717 17.360088 -0.296654
v -0.999097 17.369389 -0.318192
v -0.986271 17.397005 -0.345893
v -0.967521 17.432163 -0.378519
v -0.936602 17.504274 -0.410691
v -0.958315 17.479931 -0.364162
v -0.981093 17.442398 -0.317991
v -0.926488 17.489519 -0.439430
v -0.924986 17.505194 -0.436915
v -0.944130 17.464090 -0.414831
v -0.995905 17.401913 -0.292840
v -0.963343 17.265053 -1.106769
v -1.009382 17.258570 -1.047919
v -1.055708 17.266205 -0.985956
v -0.943724 17.282225 -1.129326
v -0.944307 17.271420 -1.128818
v -0.968808 17.321129 -1.106912
v -0.953046 17.302017 -1.123551
v -1.012034 17.334921 -1.032907
v -0.987549 17.329880 -1.074830
v -1.071304 17.337440 -0.954565
v -1.045033 17.342896 -0.986748
v -1.075606 17.302185 -0.954570
v -0.775524 17.374874 -0.113280
v -0.782215 17.360794 -0.116656
v -0.796574 17.368414 -0.147197
v -0.805395 17.448799 -0.202705
v -0.789676 17.407452 -0.148881
v -0.797416 17.517252 -0.296428
v -0.803406 17.489197 -0.253997
v -0.807787 17.507408 -0.326326
v -0.801132 17.521580 -0.323672
v -0.809777 17.443180 -0.245350
v -0.810615 17.479973 -0.294991
v -0.805429 17.400934 -0.193091
vn -0.7936 -0.0014 -0.6084
vn -0.7672 -0.0221 -0.6411
vn -0.7691 -0.1373 -0.6242
vn -0.7558 0.1228 -0.6432
vn -0.6832 0.4640 -0.5639
vn -0.7559 0.2712 -0.5959
vn -0.9343 -0.0390 -0.3544
vn -0.8517 0.3775 -0.3635
vn -0.8277 -0.3809 -0.4122
vn -0.9819 0.1895 0.0045
vn -0.8292 0.4423 0.3419
vn -0.6045 -0.4957 0.6236
vn -0.9921 -0.1065 0.0664
vn -0.9815 -0.1616 -0.1024
vn -0.9822 0.1173 -0.1467
vn 0.1038 -0.9241 0.3677
vn 0.3063 -0.9138 0.2666
vn 0.2006 -0.9507 0.2365
vn -0.1201 -0.9295 0.3487
vn 0.0564 -0.8665 0.4959
vn 0.4847 -0.8171 0.3121
vn 0.4042 -0.8396 0.3628
vn 0.6351 -0.7036 0.3187
vn 0.6904 -0.6535 0.3103
vn 0.3725 -0.8581 0.3536
vn 0.5390 -0.7944 0.2802
vn -0.5164 0.7955 -0.3170
vn -0.1990 0.9467 -0.2534
vn -0.4828 0.8724 -0.0767
vn -0.7907 0.5968 -0.1367
vn -0.8520 0.4821 -0.2042
vn -0.6707 0.6816 -0.2925
vn 0.9729 -0.1750 0.1513
vn 0.9521 -0.2493 0.1770
vn 0.9179 -0.3537 0.1797
vn 0.9242 -0.3374 0.1786
vn -0.0051 0.8653 -0.5012
vn -0.0553 0.8982 -0.4360
vn 0.2077 0.8861 -0.4143
vn 0.1435 0.8522 -0.5032
vn 0.8514 0.4673 -0.2381
vn 0.3082 0.8962 -0.3192
vn 0.9687 -0.2381 0.0706
vn 0.9204 0.3898 0.0315
vn 0.9808 0.1841 0.0640
vn 0.8603 -0.4568 -0.2264
vn 0.9635 -0.0444 -0.2640
vn 0.9888 -0.0423 -0.1432
vn 0.9569 0.2677 0.1126
vn 0.8612 -0.3146 -0.3991
vn 0.9382 -0.2059 -0.2781
vn 0.1516 -0.8765 -0.4568
vn 0.4528 -0.7522 -0.4787
vn 0.1647 -0.8572 -0.4879
vn 0.1527 -0.9128 -0.3787
vn 0.3985 -0.8111 -0.4281
vn 0.3744 -0.8522 -0.3653
vn 0.4617 -0.7768 -0.4282
vn -0.5569 0.0574 0.8286
vn -0.7008 -0.0821 0.7086
vn -0.6431 -0.4329 0.6317
vn -0.5410 -0.2841 0.7915
vn -0.3282 -0.1776 0.9278
vn -0.3156 0.2292 0.9208
vn 0.4998 -0.7174 -0.4853
vn 0.1827 -0.8012 -0.5699
vn 0.1734 -0.7830 -0.5973
vn 0.5101 -0.6866 -0.5180
vn 0.5511 -0.6835 -0.4786
vn 0.5560 -0.7044 -0.4413
vn -0.3702 0.7051 0.6048
vn -0.0914 0.7701 0.6313
vn -0.1206 0.8323 0.5411
vn -0.3421 0.8165 0.4650
vn -0.4257 0.8158 0.3914
vn -0.5151 0.6729 0.5309
vn -0.2723 0.9200 0.2818
vn -0.3248 0.9201 0.2190
vn -0.1625 0.9323 0.3230
vn -0.1484 0.9770 0.1534
vn -0.1913 0.9695 0.1535
vn -0.2400 0.9657 0.0992
vn 0.6361 -0.3475 -0.6890
vn 0.7330 -0.3715 -0.5699
vn 0.7591 0.0016 -0.6510
vn 0.6595 0.1036 -0.7445
vn 0.4597 0.1796 -0.8697
vn 0.4492 -0.3435 -0.8248
vn 0.3870 -0.9056 0.1732
vn 0.4091 -0.9073 0.0966
vn 0.1854 -0.9803 0.0676
vn 0.2465 -0.9592 0.1383
vn -0.9718 0.1323 -0.1952
vn -0.9787 -0.1255 -0.1623
vn -0.9963 -0.0579 -0.0632
vn -0.9809 0.1776 -0.0795
vn 0.7223 -0.6347 0.2747
vn 0.7286 -0.6629 0.1721
vn 0.6563 -0.7405 0.1447
vn 0.5819 -0.7779 0.2373
vn -0.7343 0.6331 -0.2451
vn -0.7548 0.6450 -0.1195
vn -0.5798 0.8049 -0.1264
vn -0.5436 0.7951 -0.2690
vn -0.4262 0.8155 -0.3914
vn -0.0854 0.9616 -0.2608
vn -0.0993 0.9900 -0.1006
vn 0.2940 0.9539 -0.0596
vn 0.2800 0.9372 -0.2079
vn 0.9534 -0.2375 0.1858
vn 0.9854 -0.0884 0.1458
vn 0.9949 -0.0569 0.0830
vn 0.9486 -0.2962 0.1113
vn -0.9769 0.1875 0.1025
vn -0.9934 -0.0383 0.1082
vn -0.9389 -0.1483 0.3107
vn -0.9401 0.1174 0.3200
vn 0.4915 -0.8709 0.0009
vn 0.5306 -0.8280 -0.1816
vn 0.3606 -0.9212 -0.1464
vn 0.2708 -0.9626 -0.0005
vn 0.7078 -0.7054 0.0394
vn 0.8028 -0.5758 0.1547
vn 0.7286 -0.6844 0.0260
vn 0.6660 -0.7389 -0.1025
vn 0.6633 -0.7351 -0.1400
vn 0.9388 -0.3440 -0.0200
vn 0.9100 -0.3691 -0.1887
vn -0.7582 0.6507 0.0423
vn -0.8715 0.4796 -0.1022
vn -0.8725 0.4827 0.0759
vn -0.8378 0.4660 0.2844
vn -0.7208 0.6544 0.2282
vn 0.9989 -0.0004 -0.0460
vn 0.9681 0.0326 -0.2483
vn -0.1132 0.9933 -0.0225
vn -0.1934 0.9808 0.0231
vn 0.1035 0.9918 -0.0748
vn 0.2674 0.9629 -0.0372
vn -0.8297 -0.4298 -0.3562
vn -0.7670 -0.6095 -0.2006
vn -0.8153 -0.5634 -0.1336
vn -0.8574 -0.3720 -0.3556
vn -0.8609 -0.1978 -0.4688
vn -0.8563 -0.5124 -0.0651
vn 0.8026 -0.5598 0.2060
vn 0.8451 -0.4830 0.2291
vn 0.8707 -0.4269 0.2441
vn -0.2462 0.8581 -0.4505
vn 0.0821 0.9570 -0.2784
vn 0.4659 -0.6736 -0.5738
vn 0.5632 -0.5213 -0.6411
vn 0.9529 -0.0499 -0.2992
vn 0.9684 -0.2156 -0.1256
vn 0.9719 0.1333 0.1939
vn 0.9268 0.3332 0.1734
vn 0.5749 -0.7099 -0.4069
vn 0.4819 -0.7365 -0.4747
vn 0.2560 -0.7971 -0.5470
vn -0.6260 0.4228 0.6553
vn -0.4574 0.5092 0.7291
vn -0.1834 0.6723 0.7172
vn 0.8499 -0.4638 0.2503
vn -0.8604 0.4581 -0.2233
vn 0.6880 -0.7000 -0.1915
vn 0.7041 -0.7099 0.0189
vn -0.5575 0.8152 0.1569
vn -0.5823 0.8129 0.0101
vn -0.8414 -0.0220 0.5400
vn -0.7980 -0.3508 0.4901
vn 0.4716 -0.8078 -0.3536
vn 0.3428 -0.8941 -0.2882
vn 0.5972 -0.6967 -0.3974
vn 0.5963 -0.7283 -0.3376
vn -0.2982 0.9481 0.1108
vn -0.4945 0.8168 0.2971
vn -0.6297 0.6615 0.4074
vn 0.8344 -0.3786 -0.4004
vn 0.8710 0.0030 -0.4913
vn -0.1422 0.9895 -0.0276
vn 0.6273 -0.7310 -0.2687
vn -0.7524 0.4313 0.4980
vn 0.4723 -0.8505 0.2315
vn 0.3678 -0.8705 0.3269
vn -0.7566 -0.0521 -0.6518
vn -0.7520 -0.3122 -0.5806
vn -0.7952 -0.5446 -0.2666
vn 0.1357 -0.8133 0.5658
vn 0.9971 -0.0339 -0.0682
vn 0.7884 -0.5916 0.1690
vn -0.3693 -0.1774 0.9122
vn 0.1268 -0.0767 0.9890
vn -0.3694 -0.1774 0.9122
vn -0.7581 0.0281 -0.6515
vn 0.7712 0.6086 0.1865
vn 0.8866 0.3896 0.2494
vn 0.7354 0.1681 0.6565
vn 0.8497 0.2855 0.4433
vn -0.1501 0.9499 -0.2742
vn 0.6835 0.6982 0.2129
vn 0.8620 0.2581 0.4364
vn 0.8616 0.2273 0.4539
vn -0.7957 0.5798 0.1751
vn -0.4021 0.8801 -0.2524
vn -0.8019 -0.3455 0.4875
vn -0.1260 0.2755 0.9530
vn -0.1508 -0.2042 0.9672
vn 0.9691 0.1776 0.1711
vn 0.9681 -0.2025 0.1474
vn -0.1454 -0.9057 -0.3983
vn -0.0183 -0.9624 -0.2710
vn 0.5637 0.6756 0.4752
vn 0.4790 0.7340 0.4814
vn 0.4198 0.8443 0.3331
vn 0.0519 0.8229 0.5658
vn 0.8924 0.3139 0.3241
vn 0.3537 -0.4446 -0.8230
vn 0.4742 -0.0501 -0.8790
vn 0.3441 0.9294 0.1337
vn -0.2964 -0.7652 -0.5715
vn -0.0233 -0.7834 -0.6211
vn -0.4853 -0.6954 -0.5300
vn -0.3160 -0.7818 -0.5376
vn -0.4888 -0.7403 -0.4616
usemtl material1679.003
s 1
f 1//1 2//2 3//3 4//4
f 5//5 6//6 1//1 4//4
f 7//7 8//8 5//5 4//4
f 3//3 9//9 7//7 4//4
f 10//10 11//11 12//12 13//13
f 14//14 15//15 10//10 13//13
f 16//16 17//17 14//18 13//19
f 12//12 18//20 16//16 13//19
f 19//21 17//17 16//16 20//22
f 21//23 22//24 19//21 20//22
f 23//25 24//26 21//23 20//22
f 16//16 18//20 23//25 20//22
f 25//27 26//28 27//29 28//30
f 29//31 30//32 25//27 28//30
f 10//10 15//15 29//31 28//30
f 27//29 11//11 10//10 28//30
f 31//33 32//34 33//35 34//36
f 35//37 36//38 31//39 34//40
f 37//41 38//42 35//37 34//40
f 33//35 39//43 37//41 34//36
f 40//44 41//45 42//46 43//47
f 44//48 45//49 40//44 43//47
f 46//50 47//51 44//48 43//47
f 42//46 48//52 46//50 43//47
f 49//53 50//54 51//55 52//56
f 53//57 54//58 49//53 52//56
f 55//59 56//60 53//61 52//62
f 51//63 57//64 55//59 52//62
f 58//65 59//66 60//67 61//68
f 62//69 63//70 58//65 61//68
f 49//53 54//58 62//69 61//68
f 60//67 50//54 49//53 61//68
f 64//71 65//72 66//73 67//74
f 68//75 69//76 64//71 67//74
f 70//77 71//78 68//75 67//74
f 66//73 72//79 70//77 67//74
f 70//77 72//79 73//80 74//81
f 75//82 71//78 70//77 74//81
f 76//83 77//84 75//85 74//86
f 73//87 78//88 76//83 74//86
f 79//89 80//90 81//91 82//92
f 14//18 17//17 79//89 82//92
f 83//93 15//15 14//14 82//94
f 81//95 84//96 83//93 82//94
f 85//97 86//98 87//99 88//100
f 19//21 22//24 85//97 88//100
f 79//89 17//17 19//21 88//100
f 87//99 80//90 79//89 88//100
f 89//101 90//102 91//103 92//104
f 93//105 30//32 89//101 92//104
f 94//106 36//38 93//105 92//104
f 91//103 95//107 94//106 92//104
f 94//106 95//107 96//108 97//109
f 31//39 36//38 94//106 97//109
f 98//110 32//34 31//33 97//111
f 96//112 99//113 98//110 97//111
f 100//114 84//96 81//95 101//115
f 102//116 103//117 100//114 101//115
f 104//118 105//119 102//120 101//121
f 81//91 80//90 104//118 101//121
f 106//122 86//98 107//123 108//124
f 109//125 110//126 106//122 108//124
f 111//127 112//128 109//125 108//124
f 107//123 99//113 111//127 108//124
f 113//129 90//102 114//130 115//131
f 116//132 117//133 113//129 115//131
f 100//114 103//117 116//132 115//131
f 114//130 84//96 100//114 115//131
f 111//127 99//113 96//112 118//134
f 119//135 112//128 111//127 118//134
f 120//136 121//137 119//138 118//139
f 96//108 95//107 120//136 118//139
f 122//140 123//141 124//142 125//143
f 1//1 6//6 122//140 125//143
f 126//144 2//2 1//1 125//143
f 124//142 127//145 126//144 125//143
f 128//146 39//43 33//35 129//147
f 21//23 24//26 128//146 129//147
f 130//148 22//24 21//23 129//147
f 33//35 32//34 130//148 129//147
f 93//105 36//38 35//37 131//149
f 25//27 30//32 93//105 131//149
f 132//150 26//28 25//27 131//149
f 35//37 38//42 132//150 131//149
f 133//151 134//152 135//153 136//154
f 44//48 47//51 133//151 136//154
f 137//155 45//49 44//48 136//154
f 135//153 138//156 137//155 136//154
f 139//157 77//84 76//83 140//158
f 58//65 63//70 139//157 140//158
f 141//159 59//66 58//65 140//158
f 76//83 78//88 141//159 140//158
f 142//160 56//60 55//59 143//161
f 64//71 69//76 142//160 143//161
f 144//162 65//72 64//71 143//161
f 55//59 57//64 144//162 143//161
f 130//148 32//34 98//110 145//163
f 85//97 22//24 130//148 145//163
f 107//123 86//98 85//97 145//163
f 98//110 99//113 107//123 145//163
f 29//31 15//15 83//93 146//164
f 89//101 30//32 29//31 146//164
f 114//130 90//102 89//101 146//164
f 83//93 84//96 114//130 146//164
f 147//165 105//119 104//118 148//166
f 106//122 110//126 147//165 148//166
f 87//99 86//98 106//122 148//166
f 104//118 80//90 87//99 148//166
f 149//167 121//137 120//136 150//168
f 113//129 117//133 149//167 150//168
f 91//103 90//102 113//129 150//168
f 120//136 95//107 91//103 150//168
f 151//169 103//117 102//116 152//170
f 53//61 56//60 151//169 152//170
f 153//171 54//58 53//57 152//172
f 102//120 105//119 153//171 152//172
f 153//171 105//119 147//165 154//173
f 62//69 54//58 153//171 154//173
f 155//174 63//70 62//69 154//173
f 147//165 110//126 155//174 154//173
f 156//175 121//137 149//167 157//176
f 68//75 71//78 156//175 157//176
f 158//177 69//76 68//75 157//176
f 149//167 117//133 158//177 157//176
f 159//178 112//128 119//135 160//179
f 75//85 77//84 159//178 160//179
f 156//175 71//78 75//82 160//180
f 119//138 121//137 156//175 160//180
f 155//174 110//126 109//125 161//181
f 139//157 63//70 155//174 161//181
f 159//178 77//84 139//157 161//181
f 109//125 112//128 159//178 161//181
f 158//177 117//133 116//132 162//182
f 142//160 69//76 158//177 162//182
f 151//169 56//60 142//160 162//182
f 116//132 103//117 151//169 162//182
f 163//183 24//26 23//25 164//184
f 3//3 2//2 163//185 164//186
f 165//187 9//9 3//3 164//186
f 23//25 18//20 165//188 164//184
f 166//189 39//43 128//146 167//190
f 126//191 127//192 166//192 167//193
f 163//185 2//2 126//144 167//194
f 128//146 24//26 163//183 167//190
f 168//195 38//42 37//41 169//196
f 124//197 123//198 168//195 169//196
f 166//192 127//192 124//197 169//196
f 37//41 39//43 166//189 169//196
f 170//199 26//28 132//150 171//200
f 122//201 6//202 170//202 171//200
f 168//195 123//198 122//201 171//200
f 132//150 38//42 168//195 171//200
f 172//203 11//11 27//29 173//204
f 5//5 8//8 172//203 173//204
f 170//199 6//6 5//5 173//204
f 27//29 26//28 170//199 173//204
f 165//188 18//20 12//12 174//205
f 7//7 9//9 165//187 174//205
f 172//203 8//8 7//7 174//205
f 12//12 11//11 172//203 174//205
f 175//206 57//64 51//63 176//207
f 42//46 41//45 175//208 176//209
f 177//210 48//52 42//46 176//211
f 51//55 50//54 177//210 176//211
f 178//212 65//72 144//162 179//213
f 40//44 45//49 178//212 179//213
f 175//208 41//45 40//44 179//213
f 144//162 57//64 175//206 179//213
f 180//214 72//79 66//73 181//215
f 137//155 138//156 180//214 181//216
f 178//212 45//49 137//155 181//216
f 66//73 65//72 178//212 181//215
f 182//217 78//88 73//87 183//218
f 135//153 134//152 182//217 183//218
f 180//214 138//156 135//153 183//219
f 73//80 72//79 180//214 183//219
f 184//220 59//66 141//159 185//221
f 133//151 47//222 184//220 185//221
f 182//217 134//152 133//151 185//221
f 141//159 78//88 182//217 185//221
f 177//210 50//54 60//67 186//223
f 46//224 48//52 177//210 186//223
f 184//220 47//222 46//224 186//223
f 60//67 59//66 184//220 186//223
