# Blender v3.2.1 OBJ File: ''
# www.blender.org
mtllib side_right.mtl
o side_right_3DAnatomyModel_Torso.005
v 0.072776 -0.414675 0.058523
v 0.047238 -0.448560 0.097502
v 0.123802 -0.335490 0.113186
v 0.145898 -0.318059 0.071877
v 0.187763 -0.302005 0.030263
v 0.121411 -0.381375 0.015218
v 0.052678 -0.450997 -0.009625
v -0.003443 -0.506627 0.035691
v -0.031941 -0.561490 0.071325
v 0.472070 -0.282199 0.078071
v 0.516853 -0.300908 0.085999
v 0.546289 -0.215604 0.002305
v 0.507894 -0.179492 0.004430
v 0.447435 -0.169472 0.005781
v 0.454308 -0.259375 0.060450
v 0.407844 -0.405036 0.149756
v 0.426326 -0.395808 0.169625
v 0.480961 -0.382159 0.184152
v 0.056580 -0.475022 0.124086
v -0.019807 -0.603669 0.088617
v 0.061064 -0.621304 0.076269
v 0.125162 -0.489632 0.126628
v 0.190488 -0.361153 0.159902
v 0.131481 -0.349490 0.146477
v 0.885721 -0.291707 -0.103254
v 0.837028 -0.202405 -0.190830
v 0.845906 -0.201110 -0.164377
v 0.889946 -0.277892 -0.070630
v 0.936426 -0.349139 0.038083
v 0.936346 -0.379893 -0.002859
v 0.591920 0.840461 -0.541014
v 0.572010 0.853986 -0.580547
v 0.504434 1.088170 -0.665606
v 0.536515 1.077791 -0.624781
v 0.565054 1.059982 -0.578271
v 0.606352 0.820033 -0.498231
v 0.166653 -0.590932 0.035936
v 0.216455 -0.476167 0.094093
v 0.270065 -0.360339 0.133017
v 0.431554 1.650842 -0.882206
v 0.390487 1.663104 -0.920422
v 0.371661 1.320405 -0.827595
v 0.397330 1.317796 -0.788247
v 0.430800 1.312587 -0.745439
v 0.481242 1.642793 -0.838281
v 0.522908 1.529628 -0.607598
v 0.537978 1.553274 -0.635975
v 0.526652 1.246024 -0.552549
v 0.522412 1.216277 -0.516865
v 0.507261 1.183704 -0.479021
v 0.502382 1.508403 -0.583863
v 0.545216 1.604518 -0.709629
v 0.508206 1.292793 -0.629655
v 0.820881 -0.280537 -0.018208
v 0.788369 -0.204972 -0.117649
v 0.704462 -0.211917 -0.065600
v 0.719126 -0.289317 0.035437
v 0.733348 -0.359547 0.153778
v 0.854894 -0.349438 0.098012
v 0.496897 1.160188 -0.445788
v 0.488413 1.490543 -0.564197
v 0.262418 -0.437905 0.047925
v 0.318773 -0.332410 0.083115
v 0.217257 -0.530598 -0.005751
v 0.476917 1.471456 -0.546458
v 0.499449 1.141467 -0.421663
v 0.510419 1.125528 -0.400855
v 0.467692 1.456537 -0.529343
v 0.558471 1.607301 -0.677001
v 0.550829 1.572738 -0.622180
v 0.579692 1.209892 -0.518873
v 0.571370 1.265354 -0.591517
v 0.552538 1.295268 -0.646463
v 0.553632 1.637349 -0.739279
v 0.465632 1.456748 -0.518049
v 0.530184 1.118804 -0.388909
v 0.558724 1.121211 -0.392596
v 0.476218 1.472900 -0.518950
v 0.408402 1.670486 -0.918767
v 0.385741 1.312755 -0.824589
v 0.538161 1.545572 -0.589112
v 0.516686 1.516391 -0.560040
v 0.577250 1.154777 -0.451853
v 0.574839 1.132312 -0.416152
v 0.496342 1.494155 -0.536590
v 0.799581 -0.305533 -0.065335
v 0.844296 -0.407733 0.044512
v 0.743103 -0.419965 0.102901
v 0.708728 -0.312871 -0.016017
v 0.676522 -0.208178 -0.116605
v 0.756788 -0.205250 -0.159623
v 0.505781 0.868144 -0.618002
v 0.512685 0.860824 -0.589719
v 0.458161 1.097043 -0.671002
v 0.438150 1.105966 -0.705074
v 0.426935 1.110994 -0.736718
v 0.507011 0.874301 -0.646963
v 0.499099 -0.303502 0.032370
v 0.489466 -0.429827 0.133143
v 0.414198 -0.404952 0.131603
v 0.447517 -0.255532 0.037344
v 0.458053 -0.133591 -0.038913
v 0.505666 -0.188344 -0.049680
v 0.446785 1.665527 -0.888351
v 0.490969 1.657306 -0.844136
v 0.477434 1.305515 -0.743668
v 0.427219 1.308223 -0.790425
v 0.208108 -0.354645 -0.032407
v 0.154909 -0.401101 -0.068121
v 0.270306 -0.286757 -0.011887
v 0.212827 -0.212107 0.066276
v 0.301186 -0.050965 0.032920
v 0.330985 -0.043086 -0.005894
v 0.249353 -0.203141 0.025714
v 0.195133 -0.222138 0.107882
v 0.289489 -0.058656 0.072837
v 0.400671 0.174564 -0.051511
v 0.421683 0.184259 -0.088184
v 0.395330 0.166469 -0.014076
v 0.478222 0.441520 -0.181822
v 0.489790 0.454040 -0.216344
v 0.480425 0.431175 -0.147496
v 0.523878 -0.098584 -0.033383
v 0.547432 0.026778 -0.078100
v 0.499946 -0.003363 -0.024869
v 0.462877 -0.119658 0.003524
v 0.562811 -0.122187 -0.052471
v 0.584374 0.030841 -0.119416
v 0.603536 0.238319 -0.181369
v 0.569533 0.203723 -0.117671
v 0.625650 0.255016 -0.233505
v 0.637856 0.490745 -0.322962
v 0.618374 0.453750 -0.256990
v 0.646363 0.515704 -0.372663
v 0.203414 -0.230181 0.142715
v 0.300286 -0.064347 0.107562
v 0.258267 -0.239056 0.159009
v 0.352839 -0.070893 0.124523
v 0.409512 0.160478 0.022934
v 0.458394 0.152574 0.044221
v 0.498308 0.423621 -0.112250
v 0.542640 0.413421 -0.091610
v 0.652796 0.296789 -0.448022
v 0.585639 0.567272 -0.549071
v 0.606801 0.569188 -0.548840
v 0.681857 0.296514 -0.435090
v 0.729756 0.048465 -0.333296
v 0.753676 0.046706 -0.310707
v 0.792197 -0.110860 -0.252763
v 0.806746 -0.113259 -0.228192
v 0.451303 -0.061974 0.043526
v 0.375918 -0.222464 0.081909
v 0.534212 0.159038 -0.044383
v 0.599065 0.419046 -0.178511
v 0.331291 -0.242387 0.133478
v 0.418919 -0.074149 0.098154
v 0.513212 0.147550 0.017273
v 0.585791 0.406627 -0.117817
v 0.758859 -0.116078 -0.183531
v 0.723310 0.044086 -0.266622
v 0.674682 0.040355 -0.213946
v 0.688913 -0.120183 -0.132030
v 0.679639 0.289956 -0.393930
v 0.665650 0.280032 -0.340340
v 0.623240 0.561168 -0.514767
v 0.637444 0.548419 -0.467249
v 0.573579 0.280931 -0.332870
v 0.563179 0.548324 -0.456596
v 0.565234 0.554950 -0.488584
v 0.596630 0.287555 -0.375521
v 0.541913 0.257398 -0.256433
v 0.560831 0.520450 -0.391250
v 0.572741 0.049064 -0.215863
v 0.620404 0.050071 -0.257496
v 0.513137 0.040351 -0.146560
v 0.581257 -0.109700 -0.143189
v 0.648657 -0.108296 -0.180531
v 0.594239 -0.213711 -0.081881
v 0.506097 -0.095528 -0.094283
v 0.504154 0.212743 -0.161825
v 0.549478 0.477481 -0.297639
v 0.555452 0.482028 -0.319009
v 0.516670 0.224313 -0.180967
v 0.470406 0.200088 -0.136212
v 0.525091 0.472986 -0.266983
v 0.445691 -0.003613 -0.065880
v 0.468724 0.020133 -0.080121
v 0.395984 -0.031327 -0.047806
v 0.406048 -0.127793 -0.041365
v 0.453647 -0.083520 -0.054804
v 0.392235 -0.182229 -0.032151
v 0.324643 -0.188775 -0.017223
v 0.570606 0.560504 -0.518860
v 0.546468 0.758352 -0.367653
v 0.563161 0.770482 -0.399353
v 0.562775 0.783088 -0.426345
v 0.544942 0.824172 -0.498456
v 0.524663 0.739831 -0.327446
v 0.534589 0.709041 -0.268749
v 0.524212 0.723575 -0.297364
v 0.615357 0.788127 -0.448475
v 0.623642 0.744052 -0.379693
v 0.589378 0.694064 -0.236704
v 0.553432 0.700828 -0.245169
v 0.523250 0.872707 -0.648840
v 0.628858 0.708774 -0.307330
v 0.621073 0.692539 -0.260534
v 0.645689 0.534095 -0.420320
v 0.551030 0.995563 -0.456833
v 0.535851 0.973380 -0.422274
v 0.550693 1.017759 -0.490015
v 0.522530 1.061714 -0.568474
v 0.522604 0.954486 -0.387170
v 0.529115 0.935985 -0.358409
v 0.543753 0.919132 -0.332904
v 0.589186 1.028924 -0.521167
v 0.609906 0.979087 -0.446571
v 0.561028 0.911214 -0.318679
v 0.588504 0.908771 -0.321180
v 0.440993 1.104232 -0.734607
v 0.615546 0.931995 -0.382331
v 0.611069 0.912830 -0.344712
v 0.520216 1.304927 -0.696430
v 0.523774 0.852893 -0.560306
v 0.483408 1.089332 -0.636585
v 0.546574 0.865186 -0.620547
v 0.469671 1.096938 -0.705654
v 0.519959 1.635759 -0.789324
v 0.466655 1.312694 -0.702811
v 0.608494 -0.299695 0.070980
v 0.596003 -0.370263 0.180680
v 0.617790 -0.220937 -0.023327
v 0.610647 -0.322364 0.014410
v 0.628767 -0.433339 0.128193
v 0.528858 1.650964 -0.794718
v 0.620693 -0.125804 -0.086849
v 0.627580 0.035651 -0.164787
v 0.647004 0.268653 -0.286680
v 0.618224 0.292434 -0.416016
v 0.669492 0.049764 -0.301672
v 0.717836 -0.108805 -0.222794
v 0.264112 -0.381423 -0.013457
v 0.319870 -0.308110 0.011444
v 0.219317 -0.441005 -0.059492
v 0.443730 -0.248248 0.046392
v 0.425484 -0.183820 -0.009004
v 0.401266 -0.403666 0.137199
vn -0.7668 0.6277 -0.1343
vn -0.8110 0.4873 0.3238
vn -0.8387 0.5277 0.1347
vn -0.7750 0.5431 -0.3231
vn -0.6167 0.4809 -0.6232
vn -0.6189 0.6740 -0.4034
vn -0.6265 0.7290 -0.2759
vn -0.7670 0.6413 -0.0220
vn -0.7828 0.4426 0.4375
vn -0.0526 0.6337 0.7718
vn 0.0964 0.7075 0.7001
vn 0.3501 0.5192 0.7797
vn 0.2866 0.4233 0.8595
vn 0.4047 0.0458 0.9133
vn -0.4170 0.5439 0.7282
vn -0.5086 0.5780 0.6382
vn -0.2859 0.6756 0.6795
vn -0.0587 0.7656 0.6407
vn -0.4504 0.0600 0.8908
vn -0.3727 -0.0365 0.9272
vn 0.2018 -0.4270 0.8815
vn 0.1489 -0.3574 0.9220
vn 0.0723 -0.1493 0.9861
vn -0.5503 0.2635 0.7923
vn 0.6051 -0.3843 -0.6973
vn 0.5082 -0.3680 -0.7786
vn 0.8225 0.5539 0.1296
vn 0.7523 0.6463 0.1281
vn 0.7320 0.6707 0.1198
vn 0.6350 -0.3810 -0.6721
vn 0.9362 0.0626 -0.3458
vn 0.8874 0.0522 -0.4579
vn 0.7773 -0.0609 -0.6261
vn 0.8370 -0.0493 -0.5450
vn 0.9120 -0.0201 -0.4097
vn 0.9787 0.0826 -0.1880
vn 0.6289 -0.5472 0.5524
vn 0.6034 -0.5181 0.6062
vn 0.5763 -0.3946 0.7156
vn -0.6927 0.2588 0.6732
vn -0.8890 -0.0384 -0.4562
vn -0.8659 -0.2550 -0.4304
vn -0.7821 0.1494 0.6050
vn -0.7512 0.1942 0.6309
vn -0.7026 0.2829 0.6529
vn -0.8622 -0.1384 -0.4872
vn -0.9944 0.0187 -0.1037
vn -0.9991 -0.0337 -0.0239
vn -0.8880 -0.1750 -0.4253
vn -0.8179 -0.2203 -0.5315
vn -0.7952 -0.1961 -0.5738
vn -0.9344 0.1815 0.3067
vn -0.9274 0.1119 0.3569
vn 0.2642 0.8315 0.4887
vn 0.3766 0.7153 0.5887
vn 0.3039 0.6893 0.6577
vn 0.1589 0.8240 0.5438
vn 0.1108 0.8576 0.5023
vn 0.2315 0.8609 0.4530
vn -0.9295 -0.1843 -0.3194
vn -0.8755 -0.1869 -0.4455
vn 0.8799 -0.4745 0.0229
vn 0.8370 -0.5107 0.1966
vn 0.8990 -0.4369 -0.0299
vn -0.9680 -0.1469 -0.2037
vn -0.9940 -0.0973 0.0504
vn -0.8536 0.0608 0.5174
vn -0.9512 -0.0008 0.3085
vn 0.9961 0.0158 -0.0871
vn 0.9497 0.1439 0.2781
vn 0.9688 0.1563 0.1923
vn 0.9836 0.0081 -0.1802
vn 0.9044 -0.0907 -0.4170
vn 0.9274 -0.0961 -0.3615
vn -0.4520 0.2485 0.8567
vn -0.3339 0.2667 0.9041
vn 0.3317 0.3623 0.8710
vn 0.2489 0.3772 0.8921
vn 0.3764 -0.2603 -0.8891
vn 0.3515 -0.2827 -0.8925
vn 0.8596 0.2224 0.4600
vn 0.8286 0.2796 0.4850
vn 0.9101 0.2474 0.3325
vn 0.7583 0.3247 0.5652
vn 0.6606 0.3562 0.6608
vn -0.2217 -0.7414 -0.6334
vn -0.1931 -0.7611 -0.6192
vn -0.1789 -0.7493 -0.6377
vn -0.2135 -0.7264 -0.6532
vn -0.3099 -0.6371 -0.7058
vn -0.2963 -0.6647 -0.6858
vn -0.9737 -0.2245 0.0389
vn -0.9630 -0.1071 0.2474
vn -0.8526 0.0228 0.5221
vn -0.9179 -0.0748 0.3898
vn -0.7702 -0.4089 -0.4894
vn -0.6348 -0.4025 -0.6596
vn -0.3355 -0.5626 -0.7556
vn -0.2235 -0.5958 -0.7714
vn -0.5277 -0.3849 -0.7572
vn -0.4549 -0.4516 -0.7675
vn -0.1977 -0.4886 -0.8498
vn -0.4921 -0.4546 -0.7424
vn 0.6276 -0.2362 -0.7418
vn 0.7039 -0.2180 -0.6760
vn 0.7127 -0.1841 -0.6769
vn 0.6498 -0.1970 -0.7341
vn -0.0817 0.5015 -0.8613
vn -0.0895 0.6476 -0.7568
vn -0.1185 0.0837 -0.9894
vn -0.8110 0.4246 -0.4026
vn -0.8702 0.3234 -0.3716
vn -0.7016 0.1175 -0.7028
vn -0.6409 0.2684 -0.7191
vn -0.8543 0.5165 0.0579
vn -0.8728 0.4805 0.0861
vn -0.9368 0.2310 -0.2630
vn -0.7901 -0.0052 -0.6129
vn -0.8848 0.4298 0.1801
vn -0.9799 0.1913 -0.0559
vn -0.8868 -0.0386 -0.4605
vn -0.8615 0.3772 0.3399
vn 0.5118 0.2130 0.8322
vn 0.7338 0.0993 0.6720
vn 0.8016 -0.0585 0.5950
vn 0.6705 -0.0668 0.7389
vn 0.5335 0.3238 0.7814
vn 0.7270 0.1914 0.6594
vn 0.8807 0.0679 0.4687
vn 0.8970 -0.0157 0.4418
vn 0.9024 0.1065 0.4176
vn 0.9670 0.0941 0.2368
vn 0.9700 0.0269 0.2416
vn 0.9875 0.0978 0.1238
vn -0.5683 0.4181 0.7087
vn -0.5624 0.4902 0.6659
vn 0.0548 0.0825 0.9951
vn 0.0696 0.2451 0.9670
vn -0.5538 0.5145 0.6547
vn 0.0980 0.3740 0.9222
vn -0.5202 0.4869 0.7017
vn 0.1507 0.4286 0.8908
vn -0.1124 -0.4051 -0.9073
vn -0.4063 -0.3864 -0.8280
vn 0.6190 -0.1222 -0.7759
vn 0.8642 0.0083 -0.5031
vn 0.1415 -0.3880 -0.9107
vn 0.9644 0.2048 -0.1675
vn 0.3469 -0.3546 -0.8683
vn 0.9171 0.3954 0.0507
vn 0.8614 -0.2142 0.4606
vn 0.7994 -0.3106 0.5143
vn 0.9302 -0.1317 0.3425
vn 0.9764 -0.0541 0.2091
vn 0.5977 -0.2262 0.7692
vn 0.6709 -0.0984 0.7350
vn 0.7615 0.0223 0.6477
vn 0.8199 0.1231 0.5591
vn 0.5329 0.5450 0.6472
vn 0.7231 0.4217 0.5471
vn 0.6881 0.3649 0.6272
vn 0.4862 0.4965 0.7191
vn 0.9389 0.2811 0.1984
vn 0.9185 0.2361 0.3173
vn 0.9565 0.1174 -0.2671
vn 0.9849 0.1124 -0.1316
vn -0.8588 -0.2326 -0.4564
vn -0.9872 -0.1275 -0.0956
vn -0.9651 -0.2075 -0.1594
vn -0.8095 -0.3176 -0.4938
vn -0.9201 -0.1040 -0.3775
vn -0.9973 -0.0357 -0.0637
vn -0.6699 -0.3264 -0.6669
vn -0.6112 -0.4115 -0.6761
vn -0.7716 -0.1903 -0.6070
vn -0.4971 -0.4286 -0.7545
vn -0.4443 -0.5078 -0.7380
vn -0.3378 -0.5725 -0.7471
vn -0.6134 -0.3088 -0.7269
vn -0.6207 -0.2220 -0.7520
vn -0.8655 -0.1274 -0.4844
vn -0.9854 -0.0181 -0.1695
vn -0.8575 -0.1063 -0.5033
vn -0.5870 -0.1898 -0.7870
vn -0.7498 -0.1715 -0.6390
vn -0.3375 -0.1940 -0.9211
vn -0.6198 -0.1654 -0.7672
vn -0.4403 -0.0886 -0.8935
vn -0.1698 -0.1207 -0.9781
vn -0.4027 -0.2307 -0.8858
vn 0.1473 -0.3651 -0.9192
vn -0.3797 0.0642 -0.9229
vn -0.8901 -0.3010 -0.3422
vn -0.8351 -0.1512 -0.5289
vn -0.9446 -0.1000 -0.3127
vn -0.9978 -0.0073 0.0654
vn -0.9709 0.0001 0.2393
vn -0.9594 -0.0415 -0.2791
vn -0.7983 0.2871 0.5294
vn -0.9680 0.1521 0.1996
vn 0.9952 0.0753 -0.0621
vn 0.9994 0.0334 -0.0046
vn 0.2487 0.3846 0.8890
vn -0.4277 0.3911 0.8150
vn 0.4202 -0.1867 -0.8880
vn 0.9944 0.0288 0.1022
vn 0.8418 0.1902 0.5052
vn 0.9952 0.0968 -0.0128
vn -0.9344 -0.1653 -0.3156
vn -0.8487 -0.2030 -0.4883
vn -0.9937 -0.0534 0.0989
vn -0.9230 0.0276 0.3838
vn -0.9757 -0.1187 -0.1842
vn -0.9494 0.0356 0.3120
vn -0.7364 0.1701 0.6548
vn 0.9685 0.0201 -0.2481
vn 0.9946 0.0784 -0.0679
vn -0.2872 0.3023 0.9089
vn 0.3623 0.3449 0.8659
vn 0.3457 -0.2603 -0.9015
vn 0.9820 0.1454 0.1204
vn 0.8445 0.2541 0.4715
vn 0.7952 -0.1550 -0.5863
vn -0.9545 -0.0392 0.2958
vn -0.8543 0.0527 0.5171
vn 0.8329 0.0388 -0.5520
vn 0.7263 -0.0696 -0.6838
vn -0.7991 0.2651 0.5396
vn -0.8093 0.1854 0.5574
vn 0.1047 0.7875 0.6074
vn 0.0307 0.8294 0.5577
vn 0.2862 0.6293 0.7226
vn -0.1845 -0.6768 -0.7127
vn -0.1116 -0.7031 -0.7023
vn 0.8032 -0.1781 -0.5685
vn 0.4866 0.4225 0.7647
vn 0.6975 0.2847 0.6576
vn 0.9111 0.1676 0.3764
vn -0.7010 -0.3913 -0.5962
vn -0.5208 -0.4697 -0.7128
vn -0.3943 -0.5523 -0.7345
vn 0.7140 -0.1247 -0.6889
vn 0.6340 -0.4468 -0.6312
vn 0.7209 0.0137 -0.6929
vn -0.9951 0.0537 -0.0835
vn 0.2292 -0.7145 -0.6611
vn -0.9714 0.2346 -0.0378
usemtl material1702
s 1
f 1//1 2//2 3//3 4//4
f 1//1 4//4 5//5 6//6
f 1//1 6//6 7//7 8//8
f 1//1 8//8 9//9 2//2
f 10//10 11//11 12//12 13//13
f 10//10 13//13 14//14 15//15
f 10//10 15//15 16//16 17//17
f 10//10 17//17 18//18 11//11
f 19//19 20//20 21//21 22//22
f 19//19 22//22 23//23 24//24
f 19//19 24//24 3//3 2//2
f 19//19 2//2 9//9 20//20
f 25//25 26//26 27//27 28//28
f 25//25 28//28 29//29 30//30
f 31//31 32//32 33//33 34//34
f 31//31 34//34 35//35 36//36
f 22//22 21//21 37//37 38//38
f 22//22 38//38 39//39 23//23
f 40//40 41//41 42//42 43//43
f 40//40 43//43 44//44 45//45
f 46//46 47//47 48//48 49//49
f 46//46 49//49 50//50 51//51
f 52//52 53//53 48//48 47//47
f 54//54 28//28 27//27 55//55
f 54//54 55//55 56//56 57//57
f 54//54 57//57 58//58 59//59
f 54//54 59//59 29//29 28//28
f 51//51 50//50 60//60 61//61
f 62//62 63//63 39//39 38//38
f 62//62 38//38 37//37 64//64
f 65//65 61//61 60//60 66//66
f 65//65 66//66 67//67 68//68
f 69//69 70//70 71//71 72//72
f 69//69 72//72 73//73 74//74
f 75//75 68//68 67//67 76//76
f 75//75 76//76 77//77 78//78
f 41//41 79//79 80//80 42//42
f 81//81 82//82 83//83 71//71
f 81//81 71//71 70//70
f 78//78 77//77 84//84 85//85
f 86//86 87//87 88//88 89//89
f 86//86 89//89 90//90 91//91
f 86//86 91//91 26//26 25//25
f 86//86 25//25 30//30 87//87
f 92//92 93//93 94//94 95//95
f 92//92 95//95 96//96 97//97
f 98//98 99//99 100//100 101//101
f 98//98 101//101 102//102 103//103
f 104//104 105//105 106//106 107//107
f 104//104 107//107 80//80 79//79
f 108//108 109//109 7//7 6//6
f 108//108 6//6 5//5 110//110
f 82//82 85//85 84//84 83//83
f 111//111 112//112 113//113 114//114
f 111//111 114//114 5//5 4//4
f 111//111 4//4 3//3 115//115
f 111//111 115//115 116//116 112//112
f 112//112 117//117 118//118 113//113
f 112//112 116//116 119//119 117//117
f 117//117 120//120 121//121 118//118
f 117//117 119//119 122//122 120//120
f 123//123 124//124 125//125 126//126
f 123//123 126//126 14//14 13//13
f 123//123 13//13 12//12 127//127
f 123//123 127//127 128//128 124//124
f 124//124 129//129 130//130 125//125
f 124//124 128//128 131//131 129//129
f 129//129 132//132 133//133 130//130
f 129//129 131//131 134//134 132//132
f 135//135 136//136 116//116 115//115
f 135//135 115//115 3//3 24//24
f 135//135 24//24 23//23 137//137
f 135//135 137//137 138//138 136//136
f 136//136 139//139 119//119 116//116
f 136//136 138//138 140//140 139//139
f 139//139 141//141 122//122 119//119
f 139//139 140//140 142//142 141//141
f 143//143 144//144 145//145 146//146
f 147//147 143//143 146//146 148//148
f 149//149 147//147 148//148 150//150
f 149//149 150//150 27//27 26//26
f 126//126 125//125 151//151 152//152
f 126//126 152//152 63//63 14//14
f 125//125 130//130 153//153 151//151
f 130//130 133//133 154//154 153//153
f 137//137 23//23 39//39 155//155
f 137//137 155//155 156//156 138//138
f 138//138 156//156 157//157 140//140
f 140//140 157//157 158//158 142//142
f 159//159 160//160 161//161 162//162
f 159//159 162//162 56//56 55//55
f 159//159 55//55 27//27 150//150
f 159//159 150//150 148//148 160//160
f 160//160 163//163 164//164 161//161
f 160//160 148//148 146//146 163//163
f 163//163 165//165 166//166 164//164
f 163//163 146//146 145//145 165//165
f 152//152 151//151 156//156 155//155
f 152//152 155//155 39//39 63//63
f 151//151 153//153 157//157 156//156
f 153//153 154//154 158//158 157//157
f 167//167 168//168 169//169 170//170
f 167//167 171//171 172//172 168//168
f 173//173 167//167 170//170 174//174
f 173//173 175//175 171//171 167//167
f 176//176 173//173 174//174 177//177
f 176//176 177//177 90//90 178//178
f 176//176 178//178 103//103 179//179
f 176//176 179//179 175//175 173//173
f 180//180 181//181 182//182 183//183
f 180//180 184//184 185//185 181//181
f 186//186 180//180 183//183 187//187
f 186//186 188//188 184//184 180//180
f 189//189 186//186 187//187 190//190
f 189//189 190//190 102//102 191//191
f 189//189 191//191 110//110 192//192
f 189//189 192//192 188//188 186//186
f 171//171 183//183 182//182 172//172
f 175//175 187//187 183//183 171//171
f 179//179 103//103 102//102 190//190
f 179//179 190//190 187//187 175//175
f 184//184 118//118 121//121 185//185
f 188//188 113//113 118//118 184//184
f 192//192 110//110 5//5 114//114
f 192//192 114//114 113//113 188//188
f 193//193 169//169 93//93 92//92
f 193//193 92//92 97//97 144//144
f 181//181 185//185 194//194 195//195
f 181//181 195//195 196//196 182//182
f 172//172 182//182 196//196 197//197
f 185//185 121//121 198//198 194//194
f 120//120 122//122 199//199 200//200
f 120//120 200//200 198//198 121//121
f 132//132 134//134 36//36 201//201
f 132//132 201//201 202//202 133//133
f 141//141 142//142 203//203 204//204
f 141//141 204//204 199//199 122//122
f 144//144 97//97 205//205 145//145
f 133//133 202//202 206//206 154//154
f 142//142 158//158 207//207 203//203
f 208//208 166//166 32//32 31//31
f 208//208 31//31 36//36 134//134
f 154//154 206//206 207//207 158//158
f 43//43 95//95 94//94 44//44
f 43//43 42//42 96//96 95//95
f 49//49 209//209 210//210 50//50
f 49//49 48//48 211//211 209//209
f 53//53 212//212 211//211 48//48
f 50//50 210//210 213//213 60//60
f 66//66 214//214 215//215 67//67
f 66//66 60//60 213//213 214//214
f 72//72 216//216 35//35 73//73
f 72//72 71//71 217//217 216//216
f 76//76 218//218 219//219 77//77
f 76//76 67//67 215//215 218//218
f 42//42 80//80 220//220 96//96
f 71//71 83//83 221//221 217//217
f 77//77 219//219 222//222 84//84
f 223//223 34//34 33//33 106//106
f 223//223 73//73 35//35 34//34
f 83//83 84//84 222//222 221//221
f 224//224 225//225 94//94 93//93
f 224//224 197//197 212//212 225//225
f 195//195 209//209 211//211 196//196
f 195//195 194//194 210//210 209//209
f 197//197 196//196 211//211 212//212
f 194//194 198//198 213//213 210//210
f 200//200 214//214 213//213 198//198
f 200//200 199//199 215//215 214//214
f 201//201 216//216 217//217 202//202
f 201//201 36//36 35//35 216//216
f 204//204 218//218 215//215 199//199
f 204//204 203//203 219//219 218//218
f 97//97 96//96 220//220 205//205
f 202//202 217//217 221//221 206//206
f 203//203 207//207 222//222 219//219
f 226//226 227//227 33//33 32//32
f 226//226 205//205 220//220 227//227
f 206//206 221//221 222//222 207//207
f 228//228 45//45 44//44 229//229
f 228//228 229//229 53//53 52//52
f 230//230 11//11 18//18 231//231
f 230//230 231//231 58//58 57//57
f 230//230 57//57 56//56 232//232
f 230//230 232//232 12//12 11//11
f 233//233 98//98 103//103 178//178
f 233//233 178//178 90//90 89//89
f 233//233 89//89 88//88 234//234
f 233//233 234//234 99//99 98//98
f 235//235 74//74 73//73 223//223
f 235//235 223//223 106//106 105//105
f 236//236 127//127 12//12 232//232
f 236//236 232//232 56//56 162//162
f 236//236 162//162 161//161 237//237
f 236//236 237//237 128//128 127//127
f 237//237 161//161 164//164 238//238
f 237//237 238//238 131//131 128//128
f 238//238 164//164 166//166 208//208
f 238//238 208//208 134//134 131//131
f 239//239 170//170 169//169 193//193
f 239//239 193//193 144//144 143//143
f 240//240 174//174 170//170 239//239
f 240//240 239//239 143//143 147//147
f 241//241 149//149 26//26 91//91
f 241//241 91//91 90//90 177//177
f 241//241 177//177 174//174 240//240
f 241//241 240//240 147//147 149//149
f 168//168 172//172 197//197 224//224
f 168//168 224//224 93//93 169//169
f 165//165 145//145 205//205 226//226
f 165//165 226//226 32//32 166//166
f 229//229 44//44 94//94 225//225
f 229//229 225//225 212//212 53//53
f 107//107 106//106 33//33 227//227
f 107//107 227//227 220//220 80//80
f 242//242 108//108 110//110 243//243
f 242//242 243//243 63//63 62//62
f 242//242 62//62 64//64 244//244
f 242//242 244//244 109//109 108//108
f 245//245 15//15 14//14 246//246
f 245//245 246//246 102//102 101//101
f 245//245 101//101 100//100 247//247
f 245//245 247//247 16//16 15//15
f 246//246 14//14 63//63 243//243
f 246//246 243//243 110//110 191//191
f 246//246 191//191 102//102
