# Blender v3.2.1 OBJ File: ''
# www.blender.org
mtllib splenius_cervicis_right.mtl
o Splenius_Cervicis_Muscle_Right
v -0.122494 18.176010 -0.754859
v -0.115335 18.280586 -0.703318
v -0.078952 18.218557 -0.711978
v -0.077975 18.096041 -0.765751
v -0.078778 17.926205 -0.832272
v -0.133282 18.028816 -0.813956
v -0.033428 18.014254 -0.773279
v -0.023620 17.820417 -0.846421
v -0.042913 18.156818 -0.718846
v -0.435871 18.973927 -0.361623
v -0.469796 19.166426 -0.392154
v -0.485022 19.130463 -0.340642
v -0.456330 18.931280 -0.293292
v -0.426270 18.735455 -0.264811
v -0.404734 18.785311 -0.344810
v -0.475270 18.895712 -0.246734
v -0.449026 18.697962 -0.207082
v -0.497047 19.095333 -0.309584
v -0.075870 18.211735 -0.673433
v -0.041245 18.149908 -0.679998
v -0.045001 18.200327 -0.681588
v -0.078046 18.255678 -0.676042
v -0.111563 18.311947 -0.669256
v -0.111089 18.273811 -0.665747
v -0.167144 17.377356 -1.066832
v -0.179136 17.426598 -1.072084
v -0.104861 17.260820 -1.141438
v -0.096497 17.213091 -1.142929
v -0.085721 17.252474 -1.097760
v -0.151574 17.409521 -1.019811
v -0.030946 17.052736 -1.204550
v -0.024436 17.102304 -1.166353
v -0.034350 17.095385 -1.194937
v -0.320722 18.299486 -0.609619
v -0.340254 18.218523 -0.598302
v -0.303775 18.104637 -0.686509
v -0.283027 18.201477 -0.678061
v -0.260605 18.295937 -0.663233
v -0.296552 18.381575 -0.612715
v -0.235474 18.099230 -0.736415
v -0.217710 18.211494 -0.708094
v -0.253371 17.980413 -0.760643
v -0.071903 17.925224 -0.789839
v -0.024705 17.822004 -0.813699
v -0.033201 18.010700 -0.732572
v -0.073041 18.091055 -0.719643
v -0.113824 18.169909 -0.705868
v -0.119948 18.025873 -0.765504
v -0.411562 19.023106 -0.524211
v -0.442467 19.167578 -0.533850
v -0.410268 19.157135 -0.584717
v -0.374380 19.045418 -0.572930
v -0.347035 18.925442 -0.566656
v -0.389615 18.877878 -0.522185
v -0.343828 19.062185 -0.606004
v -0.312635 18.961729 -0.596691
v -0.382328 19.148317 -0.618308
v -0.365165 19.153551 -0.625526
v -0.326497 19.073786 -0.611451
v -0.294757 18.977528 -0.599445
v -0.326117 19.074053 -0.591577
v -0.295529 18.967978 -0.578033
v -0.364471 19.166019 -0.608590
v -0.511012 19.080414 -0.309556
v -0.498326 18.885647 -0.245317
v -0.479283 18.689863 -0.202788
v -0.512484 18.897079 -0.280075
v -0.499924 18.704954 -0.245112
v -0.519122 19.087538 -0.331999
v -0.359817 18.484322 -0.603009
v -0.381608 18.595695 -0.562696
v -0.329424 18.658831 -0.586513
v -0.310807 18.557953 -0.611314
v -0.283223 18.475157 -0.642962
v -0.325530 18.388968 -0.651452
v -0.269395 18.613630 -0.609632
v -0.248579 18.540457 -0.628440
v -0.284754 18.706167 -0.597260
v -0.341817 18.724098 -0.491140
v -0.339648 18.586346 -0.521300
v -0.303833 18.653574 -0.552956
v -0.308091 18.786547 -0.538284
v -0.317076 18.928219 -0.535571
v -0.348309 18.876356 -0.479164
v -0.280471 18.833681 -0.571430
v -0.271181 18.703238 -0.572687
v -0.265081 18.720869 -0.590053
v -0.251613 18.630062 -0.597068
v -0.233841 18.559622 -0.610673
v -0.257894 18.608717 -0.582726
v -0.239167 18.534679 -0.599500
v -0.384091 18.198954 -0.414537
v -0.386587 18.331635 -0.278979
v -0.421175 18.314693 -0.266814
v -0.418342 18.180281 -0.411028
v -0.413368 18.052837 -0.580403
v -0.380524 18.073298 -0.571588
v -0.446851 18.200180 -0.437179
v -0.435342 18.075026 -0.600041
v -0.453191 18.333599 -0.300304
v -0.354010 18.324886 -0.493251
v -0.361498 18.446081 -0.402060
v -0.369321 18.380026 -0.331531
v -0.365202 18.252598 -0.447686
v -0.358170 18.135826 -0.581589
v -0.461884 18.614508 -0.433791
v -0.452175 18.467600 -0.476153
v -0.462743 18.392752 -0.384720
v -0.478841 18.555145 -0.335465
v -0.493829 18.737034 -0.327240
v -0.468649 18.780127 -0.415476
v -0.475521 18.509495 -0.244068
v -0.276874 18.848291 -0.591579
v -0.296056 18.832628 -0.593361
v -0.447527 18.492050 -0.203677
v -0.413848 18.503952 -0.213829
v -0.186476 18.125072 -0.787301
v -0.237143 18.215738 -0.750852
v -0.209675 18.326342 -0.712094
v -0.166955 18.252348 -0.737241
v -0.152404 18.343199 -0.691077
v -0.188237 18.406872 -0.674202
v -0.179272 18.430365 -0.646969
v -0.146027 18.370043 -0.659989
v -0.147497 18.336393 -0.655818
v -0.182512 18.400133 -0.641579
v -0.226564 17.580318 -0.923149
v -0.297215 17.754587 -0.814656
v -0.324105 17.724184 -0.841333
v -0.247984 17.549444 -0.961785
v -0.260938 17.593061 -0.971021
v -0.337863 17.759182 -0.853366
v -0.197842 17.843039 -0.823479
v -0.273794 17.852764 -0.787241
v -0.210977 17.692913 -0.873827
v -0.144282 17.532780 -0.951791
v -0.139047 17.700825 -0.879719
v -0.348937 18.107672 -0.728233
v -0.292040 17.983187 -0.807411
v -0.321885 17.857210 -0.836849
v -0.381371 18.004070 -0.735379
v -0.425082 18.140442 -0.622507
v -0.396439 18.225630 -0.641602
v -0.397505 17.923931 -0.734238
v -0.213554 18.465691 -0.620962
v -0.209135 18.493307 -0.628918
v -0.220911 18.472078 -0.651643
v -0.380595 17.896393 -0.719022
v -0.350050 17.922045 -0.701215
v -0.197691 18.319485 -0.669218
v -0.234079 18.391953 -0.638300
v -0.264718 18.467651 -0.604761
v -0.029642 17.235374 -1.132362
v -0.102188 17.391413 -1.078352
v -0.093801 17.566355 -0.988437
v -0.022990 17.426636 -1.039695
v -0.175696 17.547564 -1.014795
v -0.163179 17.706488 -0.934488
v -0.020561 17.623098 -0.939803
v -0.085026 17.747131 -0.906456
v -0.147942 17.869608 -0.870687
v -0.346418 19.056826 -0.548686
v -0.377197 19.030937 -0.491404
v -0.385937 19.178900 -0.569716
v -0.417282 19.186680 -0.515752
v -0.378138 18.830500 -0.415919
v -0.408254 19.005224 -0.428355
v -0.446225 19.183842 -0.453544
v -0.325280 18.001476 -0.692302
v -0.363262 18.307131 -0.651124
v -0.284067 18.301571 -0.703150
v -0.316945 18.205603 -0.718591
v -0.264195 18.102024 -0.780685
v -0.081162 17.383224 -1.020866
v -0.078846 17.562092 -0.934067
v -0.019829 17.238958 -1.085495
v -0.017942 17.425100 -0.987470
v -0.129646 17.867352 -0.820538
v -0.074799 17.745831 -0.859186
v -0.019593 17.623127 -0.897768
v -0.432032 18.828257 -0.476125
v -0.481383 18.962069 -0.412271
v -0.448778 18.994877 -0.471826
v -0.472404 19.167221 -0.474802
v -0.497101 19.152172 -0.416621
v -0.504727 18.926010 -0.342040
v -0.513579 19.118532 -0.368353
v -0.430606 18.341789 -0.551499
v -0.400395 18.414040 -0.585618
v -0.423827 18.533600 -0.530694
v -0.448515 18.262260 -0.493011
v -0.393472 18.546341 -0.274065
v -0.379174 18.604460 -0.355434
v -0.363734 18.663557 -0.428991
v -0.355238 18.516018 -0.468159
v -0.323730 18.475273 -0.563615
v -0.342847 18.399496 -0.534010
v -0.288672 18.551067 -0.575714
v -0.336775 18.788954 -0.571405
v -0.385586 18.731144 -0.535384
v -0.429044 18.673084 -0.494972
v -0.229689 17.847445 -0.875154
v -0.207763 17.988964 -0.830073
v -0.251127 17.703936 -0.932140
v -0.169688 18.121386 -0.740219
v -0.183775 17.986504 -0.781761
v -0.156490 18.245762 -0.690400
v -0.248972 18.399282 -0.678611
vn 0.3374 0.3597 -0.8699
vn 0.5565 0.4446 -0.7019
vn 0.5975 0.4275 -0.6784
vn 0.4307 0.3452 -0.8339
vn 0.3535 0.3453 -0.8694
vn 0.2050 0.3351 -0.9196
vn 0.4591 0.3399 -0.8208
vn 0.4118 0.3525 -0.8403
vn 0.6076 0.4206 -0.6737
vn 0.8849 0.2074 0.4170
vn 0.8769 0.2284 0.4229
vn 0.8440 0.2384 0.4805
vn 0.8630 0.2181 0.4556
vn 0.9026 0.1676 0.3964
vn 0.9194 0.1480 0.3645
vn 0.4404 0.2765 0.8541
vn 0.5644 0.1619 0.8095
vn 0.7975 0.2524 0.5480
vn -0.0506 -0.1452 0.9881
vn -0.0811 -0.1517 0.9851
vn 0.2756 0.0600 0.9594
vn 0.3063 0.0704 0.9493
vn 0.3701 0.0864 0.9250
vn 0.0221 -0.1340 0.9907
vn 0.6885 0.4902 -0.5345
vn 0.7091 0.4799 -0.5166
vn 0.7145 0.4759 -0.5128
vn -0.9075 -0.2460 -0.3405
vn -0.3514 0.1970 -0.9153
vn -0.7785 -0.0967 -0.6202
vn -0.4069 -0.5155 0.7541
vn -0.3126 -0.5404 0.7812
vn -0.5411 -0.5690 0.6192
vn -0.5827 -0.5219 0.6229
vn -0.5627 -0.5045 0.6549
vn -0.4156 -0.5027 0.7580
vn -0.2179 0.2377 -0.9466
vn -0.6255 0.0144 -0.7801
vn 0.8221 -0.1529 0.5484
vn 0.9077 -0.1321 0.3983
vn 0.7212 -0.1933 0.6653
vn 0.6146 -0.2210 0.7572
vn 0.4301 -0.2803 0.8582
vn 0.6223 -0.2126 0.7533
vn 0.3681 -0.2635 0.8916
vn 0.1842 -0.3138 0.9314
vn 0.4768 -0.2523 0.8420
vn -0.2982 -0.3578 0.8849
vn -0.3407 -0.3665 0.8658
vn -0.4223 -0.3516 0.8355
vn -0.3922 -0.3486 0.8513
vn -0.3155 -0.3427 0.8849
vn -0.2039 -0.3402 0.9180
vn -0.7635 -0.1640 -0.6247
vn -0.8039 -0.2078 -0.5572
vn -0.7356 -0.2948 -0.6099
vn -0.6920 -0.2393 -0.6811
vn -0.6248 -0.1002 -0.7743
vn -0.7137 -0.0428 -0.6991
vn -0.4206 -0.2463 -0.8731
vn -0.3197 -0.1163 -0.9404
vn -0.4737 -0.3072 -0.8254
vn -0.2222 -0.2531 -0.9416
vn -0.1701 -0.1991 -0.9651
vn -0.0539 -0.0933 -0.9942
vn 0.9069 0.3461 0.2402
vn 0.9076 0.2011 0.3684
vn 0.9674 0.2182 0.1287
vn 0.9381 0.3440 -0.0409
vn 0.9113 0.3801 -0.1581
vn 0.9065 0.3960 0.1465
vn -0.1590 0.2902 0.9437
vn -0.6187 0.2054 0.7583
vn -0.5762 0.1694 0.7996
vn 0.1256 0.1139 0.9855
vn -0.9917 -0.0200 0.1273
vn -0.9807 -0.0771 0.1796
vn -0.8956 -0.0583 0.4411
vn -0.9944 -0.0040 0.1056
vn -0.5555 0.1994 -0.8073
vn -0.6324 0.1402 -0.7619
vn -0.4419 0.1125 -0.8900
vn -0.3478 0.2009 -0.9158
vn -0.2739 0.2857 -0.9183
vn -0.4769 0.2630 -0.8387
vn 0.0919 0.2244 -0.9702
vn 0.1696 0.3488 -0.9217
vn -0.0251 0.0944 -0.9952
vn 0.8895 -0.0161 0.4567
vn 0.8697 -0.0684 0.4887
vn 0.6712 -0.0712 0.7378
vn 0.7819 0.0016 0.6233
vn 0.8055 0.1439 0.5748
vn 0.8514 0.1127 0.5122
vn 0.8764 0.0716 0.4762
vn 0.7832 0.0209 0.6215
vn 0.2830 0.0912 -0.9548
vn 0.4037 0.2326 -0.8848
vn 0.4744 0.3690 -0.7993
vn 0.6820 -0.0141 0.7312
vn 0.5966 -0.0567 0.8005
vn 0.7964 0.0941 0.5974
vn 0.8603 0.0905 0.5017
vn 0.9199 0.0823 0.3833
vn 0.7520 -0.4860 0.4454
vn 0.7721 -0.2910 0.5650
vn 0.4452 -0.4606 0.7679
vn 0.4244 -0.6822 0.5954
vn 0.2634 -0.6889 0.6754
vn 0.6279 -0.5177 0.5812
vn -0.9371 -0.2953 0.1861
vn -0.9689 -0.2448 0.0353
vn -0.8068 -0.4911 0.3284
vn -0.7604 -0.5093 0.4031
vn -0.7843 -0.3903 0.4823
vn -0.9324 -0.2561 0.2549
vn 0.9809 -0.0642 0.1836
vn 0.9874 0.0098 0.1580
vn 0.9769 -0.0327 0.2114
vn 0.9723 -0.1431 0.1849
vn 0.9096 -0.1958 0.3664
vn -0.9450 0.0045 -0.3271
vn -0.9505 0.0280 -0.3094
vn -0.9945 -0.0587 -0.0863
vn -0.9904 -0.0734 -0.1170
vn -0.9790 -0.0735 -0.1900
vn -0.9175 -0.0364 -0.3960
vn -0.9567 -0.1635 0.2410
vn 0.9636 0.1050 0.2460
vn -0.1869 -0.0064 -0.9823
vn 0.1076 -0.0072 -0.9942
vn -0.8454 -0.2061 0.4928
vn 0.6842 -0.0224 0.7290
vn 0.3113 -0.1238 0.9422
vn 0.0144 0.3315 -0.9434
vn -0.1984 0.3282 -0.9235
vn 0.0015 0.3728 -0.9279
vn 0.1896 0.3722 -0.9086
vn 0.4821 0.4583 -0.7466
vn 0.3730 0.4604 -0.8056
vn 0.5984 0.4918 -0.6325
vn 0.6532 0.4964 -0.5717
vn 0.1315 -0.1271 0.9831
vn 0.4559 0.0915 0.8853
vn 0.5846 0.0887 0.8065
vn 0.3058 -0.1203 0.9445
vn -0.0945 -0.5371 0.8382
vn 0.1557 -0.4997 0.8521
vn -0.1589 -0.5958 0.7873
vn -0.3696 -0.6045 0.7057
vn -0.9308 -0.3176 -0.1809
vn -0.9277 -0.3733 0.0051
vn -0.9046 -0.0803 -0.4186
vn 0.2194 -0.3109 0.9248
vn 0.4854 -0.3025 0.8203
vn 0.2212 -0.3735 0.9008
vn -0.0153 -0.4302 0.9026
vn 0.0193 -0.3628 0.9317
vn -0.6211 0.2506 -0.7426
vn -0.4166 0.3025 -0.8573
vn -0.5490 0.2758 -0.7890
vn -0.7537 0.1961 -0.6273
vn -0.9187 0.1021 -0.3814
vn -0.7953 0.1777 -0.5796
vn -0.9685 -0.1613 -0.1896
vn 0.4819 -0.0969 0.8708
vn 0.7101 0.0899 0.6984
vn 0.2554 0.4302 -0.8659
vn 0.5324 0.4572 -0.7123
vn -0.8808 -0.4269 0.2050
vn 0.3981 -0.4873 0.7773
vn 0.0411 -0.6115 0.7902
vn 0.0258 -0.3291 0.9439
vn 0.2540 -0.2932 0.9217
vn 0.4060 -0.2244 0.8859
vn 0.2399 0.4144 -0.8779
vn 0.1964 0.4236 -0.8843
vn 0.2031 0.4145 -0.8871
vn 0.2483 0.4195 -0.8732
vn 0.0042 0.4219 -0.9067
vn 0.0596 0.3958 -0.9164
vn -0.0663 0.4119 -0.9088
vn 0.3211 0.3941 -0.8612
vn 0.2516 0.3779 -0.8910
vn 0.0896 0.3454 -0.9342
vn 0.8020 0.2925 0.5208
vn 0.8214 0.2459 0.5146
vn 0.8128 0.3444 0.4699
vn 0.8260 0.2897 0.4835
vn 0.8967 0.1220 0.4255
vn 0.8579 0.2182 0.4652
vn 0.8569 0.2500 0.4507
vn 0.7308 -0.2407 0.6387
vn -0.6442 0.2239 -0.7313
vn -0.3733 0.3082 -0.8750
vn -0.5136 0.2721 -0.8137
vn -0.3328 0.2981 -0.8946
vn -0.1640 -0.4578 0.8738
vn -0.1088 -0.4019 0.9092
vn -0.2134 -0.4648 0.8593
vn -0.1626 -0.4172 0.8942
vn -0.0469 -0.3295 0.9430
vn -0.1551 -0.3626 0.9190
vn -0.2065 -0.3779 0.9025
vn -0.8076 -0.0164 -0.5895
vn -0.9024 -0.0813 -0.4231
vn -0.8262 -0.1044 -0.5537
vn -0.8525 -0.1344 -0.5052
vn -0.9036 -0.0969 -0.4173
vn -0.9651 -0.0786 -0.2500
vn -0.9585 -0.0829 -0.2728
vn -0.9112 0.0852 -0.4030
vn -0.7508 0.1574 -0.6415
vn -0.8149 0.1099 -0.5691
vn -0.9865 0.0020 -0.1637
vn 0.9451 0.0906 0.3139
vn 0.9641 0.0789 0.2534
vn 0.9534 0.0288 0.3002
vn 0.9722 -0.0125 0.2338
vn 0.7779 -0.1248 0.6159
vn 0.9431 -0.0667 0.3258
vn 0.5305 -0.1406 0.8360
vn -0.5524 0.0266 -0.8332
vn -0.6889 0.0744 -0.7211
vn -0.8253 0.0692 -0.5604
vn -0.1699 0.3547 -0.9194
vn -0.1111 0.3183 -0.9414
vn -0.4029 0.3346 -0.8519
vn -0.2957 0.3622 -0.8840
vn -0.0576 -0.3263 0.9435
vn 0.1190 -0.2965 0.9476
vn -0.1896 -0.3374 0.9221
vn -0.1702 0.3459 -0.9227
usemtl material1701.003
s 1
f 1//1 2//2 3//3 4//4
f 5//5 6//6 1//1 4//4
f 7//7 8//8 5//5 4//4
f 3//3 9//9 7//7 4//4
f 10//10 11//11 12//12 13//13
f 14//14 15//15 10//10 13//13
f 16//16 17//17 14//14 13//13
f 12//12 18//18 16//16 13//13
f 19//19 20//20 21//21 22//22
f 23//23 24//24 19//19 22//22
f 3//3 2//2 23//25 22//26
f 21//27 9//9 3//3 22//26
f 25//28 26//28 27//29 28//30
f 29//31 30//32 25//33 28//34
f 31//35 32//36 29//31 28//34
f 27//29 33//37 31//38 28//30
f 34//39 35//40 36//41 37//42
f 38//43 39//44 34//39 37//42
f 40//45 41//46 38//43 37//42
f 36//41 42//47 40//45 37//42
f 43//48 44//49 45//50 46//51
f 47//52 48//53 43//48 46//51
f 19//19 24//24 47//52 46//51
f 45//50 20//20 19//19 46//51
f 49//54 50//55 51//56 52//57
f 53//58 54//59 49//54 52//57
f 55//60 56//61 53//58 52//57
f 51//56 57//62 55//60 52//57
f 55//60 57//62 58//63 59//64
f 60//65 56//61 55//60 59//64
f 61//66 62//67 60//68 59//69
f 58//70 63//71 61//66 59//69
f 16//16 18//72 64//73 65//74
f 66//75 17//17 16//16 65//74
f 67//76 68//77 66//78 65//74
f 64//73 69//79 67//76 65//74
f 70//80 71//81 72//82 73//83
f 74//84 75//85 70//80 73//83
f 76//86 77//87 74//84 73//83
f 72//82 78//88 76//86 73//83
f 79//89 80//90 81//91 82//92
f 83//93 84//94 79//89 82//92
f 85//95 62//67 83//93 82//92
f 81//91 86//96 85//95 82//92
f 76//86 78//88 87//97 88//98
f 89//99 77//87 76//86 88//98
f 90//100 91//101 89//102 88//103
f 87//104 86//96 90//100 88//103
f 92//105 93//106 94//107 95//108
f 96//109 97//110 92//105 95//108
f 98//111 99//112 96//113 95//114
f 94//115 100//116 98//111 95//114
f 101//117 102//118 103//119 104//120
f 105//121 35//40 101//117 104//120
f 92//105 97//110 105//121 104//120
f 103//119 93//106 92//105 104//120
f 106//122 107//123 108//124 109//125
f 110//126 111//127 106//122 109//125
f 112//128 68//77 110//126 109//125
f 108//124 100//116 112//128 109//125
f 85//95 86//96 87//104 113//129
f 60//68 62//67 85//95 113//129
f 114//130 56//61 60//65 113//131
f 87//97 78//88 114//130 113//131
f 112//128 100//116 94//115 115//132
f 66//78 68//77 112//128 115//132
f 116//133 17//17 66//75 115//134
f 94//107 93//106 116//133 115//134
f 117//135 118//136 119//137 120//138
f 1//1 6//6 117//135 120//138
f 121//139 2//2 1//1 120//138
f 119//137 122//140 121//139 120//138
f 121//139 122//140 123//141 124//142
f 23//25 2//2 121//139 124//142
f 125//143 24//24 23//23 124//144
f 123//145 126//146 125//143 124//144
f 127//147 128//148 129//149 130//150
f 25//33 30//32 127//147 130//150
f 131//151 26//28 25//28 130//151
f 129//152 132//153 131//151 130//151
f 133//154 42//47 134//155 135//156
f 136//157 137//158 133//154 135//156
f 127//147 30//32 136//157 135//156
f 134//155 128//148 127//147 135//156
f 138//159 139//160 140//161 141//162
f 142//163 143//164 138//159 141//162
f 144//165 99//112 142//163 141//162
f 140//161 132//153 144//165 141//162
f 145//166 126//146 123//145 146//167
f 89//102 91//101 145//166 146//167
f 147//168 77//87 89//99 146//169
f 123//141 122//140 147//168 146//169
f 144//165 132//153 129//152 148//170
f 96//113 99//112 144//165 148//170
f 149//171 97//110 96//109 148//172
f 129//149 128//148 149//171 148//172
f 38//43 41//46 150//173 151//174
f 152//175 39//44 38//43 151//174
f 145//166 91//101 152//175 151//174
f 150//173 126//146 145//166 151//174
f 153//176 33//37 27//29 154//177
f 155//178 156//179 153//176 154//177
f 157//180 158//181 155//178 154//177
f 27//29 26//182 157//180 154//177
f 159//183 156//179 155//178 160//184
f 5//5 8//8 159//183 160//184
f 161//185 6//6 5//5 160//184
f 155//178 158//181 161//185 160//184
f 83//93 62//67 61//66 162//186
f 163//187 84//94 83//93 162//186
f 164//188 165//189 163//187 162//186
f 61//66 63//71 164//188 162//186
f 166//190 84//94 163//187 167//191
f 10//10 15//15 166//190 167//191
f 168//192 11//11 10//10 167//191
f 163//187 165//189 168//192 167//191
f 105//121 97//110 149//171 169//193
f 36//41 35//40 105//121 169//193
f 134//155 42//47 36//41 169//193
f 149//171 128//148 134//155 169//193
f 170//194 75//85 171//195 172//196
f 138//159 143//164 170//194 172//196
f 173//197 139//160 138//159 172//196
f 171//195 118//136 173//197 172//196
f 136//157 30//32 29//31 174//198
f 175//199 137//158 136//157 174//198
f 176//200 177//201 175//199 174//198
f 29//31 32//36 176//200 174//198
f 178//202 137//158 175//199 179//203
f 43//48 48//53 178//202 179//203
f 180//204 44//49 43//48 179//203
f 175//199 177//201 180//204 179//203
f 181//205 111//127 182//206 183//207
f 49//54 54//59 181//205 183//207
f 184//208 50//55 49//54 183//207
f 182//206 185//209 184//208 183//207
f 110//126 68//77 67//76 186//210
f 182//206 111//127 110//126 186//210
f 187//211 185//209 182//206 186//210
f 67//76 69//79 187//211 186//210
f 170//194 143//164 188//212 189//213
f 70//80 75//85 170//194 189//213
f 190//214 71//81 70//80 189//213
f 188//212 107//123 190//214 189//213
f 142//163 99//112 98//111 191//215
f 188//212 143//164 142//163 191//215
f 108//124 107//123 188//212 191//215
f 98//111 100//116 108//124 191//215
f 14//14 17//17 116//133 192//216
f 193//217 15//15 14//14 192//216
f 103//119 102//118 193//217 192//216
f 116//133 93//106 103//119 192//216
f 166//190 15//15 193//217 194//218
f 79//89 84//94 166//190 194//218
f 195//219 80//90 79//89 194//218
f 193//217 102//118 195//219 194//218
f 34//39 39//44 196//220 197//221
f 101//117 35//40 34//39 197//221
f 195//219 102//118 101//117 197//221
f 196//220 80//90 195//219 197//221
f 152//175 91//101 90//100 198//222
f 196//220 39//44 152//175 198//222
f 81//91 80//90 196//220 198//222
f 90//100 86//96 81//91 198//222
f 53//58 56//61 114//130 199//223
f 200//224 54//59 53//58 199//223
f 72//82 71//81 200//224 199//223
f 114//130 78//88 72//82 199//223
f 181//205 54//59 200//224 201//225
f 106//122 111//127 181//205 201//225
f 190//214 107//123 106//122 201//225
f 200//224 71//81 190//214 201//225
f 161//185 158//181 202//226 203//227
f 117//135 6//6 161//185 203//227
f 173//197 118//136 117//135 203//227
f 202//226 139//160 173//197 203//227
f 157//180 26//182 131//228 204//229
f 202//226 158//181 157//180 204//229
f 140//161 139//160 202//226 204//229
f 131//228 132//153 140//161 204//229
f 178//202 48//53 205//230 206//231
f 133//154 137//158 178//202 206//231
f 40//45 42//47 133//154 206//231
f 205//230 41//46 40//45 206//231
f 47//52 24//24 125//143 207//232
f 205//230 48//53 47//52 207//232
f 150//173 41//46 205//230 207//232
f 125//143 126//146 150//173 207//232
f 74//84 77//87 147//168 208//233
f 171//195 75//85 74//84 208//233
f 119//137 118//136 171//195 208//233
f 147//168 122//140 119//137 208//233
