# Blender v3.2.1 OBJ File: ''
# www.blender.org
mtllib sternohyoid_left.mtl
o Sternohyoid_Muscle_Left
v 0.018846 17.615137 0.322315
v 0.004036 17.612547 0.333508
v -0.005011 17.703964 0.366744
v 0.009724 17.706470 0.355861
v 0.031108 17.709284 0.344648
v 0.040380 17.618029 0.310771
v 0.049088 17.543154 0.278155
v 0.027028 17.540232 0.289679
v 0.011830 17.537619 0.300942
v 0.023481 17.226311 0.209468
v 0.019577 17.285675 0.207982
v 0.025486 17.285910 0.200265
v 0.030267 17.226574 0.201348
v 0.038707 17.174025 0.216502
v 0.030111 17.174412 0.223665
v 0.039088 17.179461 0.227314
v 0.033166 17.229425 0.214436
v 0.028587 17.287350 0.212742
v 0.000816 17.610876 0.340347
v 0.008503 17.535965 0.308018
v 0.016967 17.535868 0.310936
v 0.009112 17.610731 0.342970
v -0.000188 17.702276 0.375800
v -0.008312 17.702381 0.373321
v 0.090668 17.621794 0.301473
v 0.082656 17.622097 0.299495
v 0.073089 17.713263 0.333874
v 0.080945 17.713009 0.335755
v 0.077912 17.711575 0.342929
v 0.087732 17.620287 0.308954
v 0.097417 17.545511 0.277007
v 0.100446 17.546982 0.269244
v 0.092281 17.547253 0.267016
v 0.140351 17.174660 0.227275
v 0.167104 17.179977 0.221042
v 0.157445 17.211052 0.202801
v 0.134021 17.206347 0.211453
v 0.101410 17.197992 0.219740
v 0.105826 17.163940 0.235427
v 0.108264 17.134741 0.254025
v 0.144585 17.147362 0.246245
v 0.175314 17.152660 0.243468
v 0.028846 17.612713 0.341517
v 0.037143 17.537914 0.309724
v 0.061653 17.540854 0.303238
v 0.052804 17.615601 0.334912
v 0.043132 17.706993 0.368014
v 0.019351 17.704197 0.374388
v 0.030553 17.476004 0.254867
v 0.053882 17.478813 0.244093
v 0.058198 17.417995 0.214118
v 0.033232 17.415380 0.223737
v 0.015702 17.413181 0.233866
v 0.014345 17.473545 0.265690
v 0.107548 17.482677 0.237187
v 0.104037 17.481487 0.245135
v 0.110573 17.421146 0.218004
v 0.114771 17.421886 0.210135
v 0.106296 17.421652 0.206743
v 0.099235 17.482746 0.234408
v 0.088737 17.479610 0.258062
v 0.083115 17.543427 0.290335
v 0.066012 17.477184 0.270240
v 0.069418 17.417496 0.240788
v 0.093855 17.419647 0.229913
v 0.010531 17.472157 0.272940
v 0.011212 17.412197 0.241251
v 0.019939 17.412661 0.245332
v 0.019147 17.472277 0.276422
v 0.053211 17.230877 0.192019
v 0.046025 17.288279 0.191208
v 0.074637 17.291475 0.183579
v 0.084656 17.236925 0.184117
v 0.097968 17.187695 0.199573
v 0.064204 17.179304 0.207759
v 0.151074 17.249405 0.185347
v 0.137247 17.297550 0.184886
v 0.131665 17.297752 0.191927
v 0.144889 17.249638 0.192932
v 0.164986 17.209919 0.195927
v 0.156381 17.204575 0.192474
v 0.141834 17.246778 0.180640
v 0.128331 17.296286 0.180662
v 0.123498 17.246813 0.201930
v 0.111737 17.296652 0.200895
v 0.083454 17.294287 0.208870
v 0.093037 17.241747 0.209877
v 0.028597 18.088966 0.604030
v 0.016380 18.203814 0.631642
v 0.038313 18.208321 0.628122
v 0.049879 18.092560 0.598029
v 0.053313 18.002062 0.557258
v 0.032462 17.999138 0.565388
v 0.017866 17.996592 0.572896
v 0.013631 18.085793 0.609442
v 0.000895 18.199778 0.634682
v 0.009640 18.084179 0.613350
v -0.003384 18.197819 0.637598
v 0.014121 17.995205 0.577698
v 0.021140 17.995754 0.580288
v 0.016578 18.084883 0.616292
v 0.003597 18.198624 0.640968
v 0.098093 18.097082 0.589925
v 0.087735 18.213591 0.621669
v 0.083326 18.212444 0.626925
v 0.093981 18.096161 0.595754
v 0.097050 18.005194 0.554406
v 0.100862 18.006027 0.548114
v 0.093753 18.006090 0.547007
v 0.091020 18.097097 0.588987
v 0.080626 18.213558 0.620850
v 0.078629 18.095106 0.607060
v 0.067452 18.210779 0.637322
v 0.045260 18.207842 0.645819
v 0.057085 18.092936 0.617020
v 0.061201 18.002668 0.577475
v 0.082217 18.004400 0.566375
v 0.093840 17.355667 0.189393
v 0.104766 17.294203 0.180145
v 0.065467 17.353691 0.193763
v 0.084995 17.420219 0.208262
v 0.116240 17.357037 0.189095
v 0.124908 17.357611 0.192925
v 0.120004 17.357412 0.200276
v 0.046601 17.352066 0.223946
v 0.052808 17.290703 0.212929
v 0.075407 17.354700 0.219753
v 0.042060 17.414797 0.245553
v 0.023632 17.349724 0.223574
v 0.014857 17.348839 0.219087
v 0.020023 17.349375 0.211581
v 0.043008 17.133652 0.250694
v 0.059038 17.098461 0.284139
v 0.058579 17.108198 0.277681
v 0.048068 17.140963 0.250037
v 0.055145 17.130928 0.247401
v 0.075582 17.092556 0.286172
v 0.149025 17.153179 0.225862
v 0.168299 17.110878 0.266626
v 0.138937 17.096670 0.278279
v 0.117018 17.141439 0.234147
v 0.131368 17.196642 0.194084
v 0.171606 17.165733 0.219609
v 0.187169 17.128572 0.254395
v 0.177577 17.175835 0.218244
v 0.189508 17.144449 0.246430
v 0.072037 17.151884 0.243981
v 0.077291 17.120989 0.266074
v 0.066310 17.188175 0.225516
v 0.047718 17.825253 0.375223
v 0.066307 17.826735 0.372185
v 0.054353 17.711784 0.337079
v 0.024617 17.822767 0.382494
v 0.026034 17.919895 0.430568
v 0.048939 17.922371 0.423511
v 0.067327 17.923861 0.420476
v 0.082770 17.133774 0.241606
v 0.105123 17.091263 0.284506
v 0.073772 17.618174 0.322079
v 0.063980 17.709511 0.355605
v 0.079061 17.481258 0.236992
v 0.073000 17.545734 0.270294
v 0.040228 17.474344 0.275941
v 0.116946 17.242422 0.180277
v 0.059639 17.235262 0.214309
v 0.072818 18.095428 0.592351
v 0.075823 18.004574 0.550593
v 0.061940 18.211685 0.623763
v 0.034397 18.088663 0.618806
v 0.038838 17.999014 0.581164
v 0.021893 18.202879 0.645371
v 0.038877 17.351294 0.202149
v 0.101689 17.356462 0.210540
v 0.003381 17.819975 0.393404
v 0.004965 17.917112 0.440995
v -0.011283 17.817501 0.404002
v -0.009629 17.914661 0.451070
v -0.014668 17.815971 0.410334
v -0.013107 17.913185 0.457076
v -0.006705 17.815907 0.412702
v -0.005376 17.913233 0.459402
v 0.074006 17.826521 0.373973
v 0.074845 17.923691 0.422114
v 0.071584 17.922415 0.428814
v 0.070885 17.825136 0.380885
v 0.012673 17.817829 0.411403
v 0.013659 17.915348 0.458437
v 0.036301 17.820606 0.405292
v 0.036996 17.918236 0.452763
v 0.019621 17.959343 0.504682
v 0.005100 17.956951 0.513737
v 0.040482 17.962084 0.495130
v 0.001514 17.955568 0.519235
v 0.008864 17.955860 0.521628
v 0.088455 17.965878 0.486169
v 0.081166 17.965996 0.484793
v 0.084945 17.964857 0.492707
v 0.070629 17.963629 0.504842
v 0.057636 17.920593 0.440959
v 0.049900 17.961679 0.516440
v 0.063772 17.620594 0.302879
v 0.057011 17.823103 0.393222
v 0.063086 17.964516 0.488140
v 0.027153 17.958492 0.521366
vn -0.5446 0.2625 -0.7965
vn -0.7802 0.1615 -0.6044
vn -0.7725 0.1534 -0.6162
vn -0.5412 0.2391 -0.8062
vn -0.4015 0.2758 -0.8734
vn -0.4055 0.3036 -0.8622
vn -0.3904 0.3692 -0.8434
vn -0.5277 0.3364 -0.7800
vn -0.7707 0.2344 -0.5925
vn -0.7322 -0.1806 -0.6567
vn -0.7945 -0.0157 -0.6070
vn -0.6210 0.0074 -0.7838
vn -0.5484 -0.1905 -0.8142
vn -0.3894 -0.4771 -0.7879
vn -0.5637 -0.4588 -0.6868
vn -0.4687 0.0814 0.8796
vn -0.4838 0.2686 0.8329
vn -0.2689 0.3225 0.9076
vn -0.2504 0.1100 0.9619
vn -0.2293 -0.0886 0.9693
vn -0.4476 -0.0987 0.8888
vn -0.2878 -0.3766 0.8805
vn -0.3017 -0.4336 0.8491
vn -0.1073 -0.4383 0.8924
vn -0.0955 -0.3725 0.9231
vn -0.0925 -0.3288 0.9399
vn -0.2801 -0.3302 0.9014
vn -0.9065 0.0732 -0.4159
vn -0.8985 0.0789 -0.4318
vn -0.9030 0.1371 -0.4072
vn 0.2376 0.3879 -0.8905
vn 0.0253 0.3777 -0.9256
vn 0.0229 0.3375 -0.9410
vn 0.2294 0.3442 -0.9104
vn 0.9305 -0.0358 0.3645
vn 0.9239 -0.0561 0.3786
vn 0.8200 -0.1272 0.5580
vn 0.8281 -0.1205 0.5475
vn 0.8226 -0.1582 0.5462
vn 0.9292 -0.0591 0.3647
vn 0.2553 0.4337 -0.8641
vn 0.0403 0.4289 -0.9024
vn 0.0659 0.5282 0.8465
vn 0.2593 0.6042 0.7534
vn 0.4276 0.4599 0.7782
vn 0.1857 0.3816 0.9055
vn 0.1043 0.3481 0.9316
vn 0.0454 0.5019 0.8638
vn 0.0213 0.5589 0.8289
vn 0.0087 0.5803 0.8144
vn 0.1770 0.6528 0.7365
vn 0.1928 -0.3402 0.9204
vn 0.1822 -0.4107 0.8934
vn 0.3925 -0.3606 0.8461
vn 0.4067 -0.2943 0.8649
vn 0.4023 -0.2687 0.8752
vn 0.1896 -0.3045 0.9334
vn -0.4859 0.3877 -0.7833
vn -0.3506 0.4060 -0.8440
vn -0.2983 0.3322 -0.8948
vn -0.4379 0.3233 -0.8389
vn -0.6992 0.2550 -0.6679
vn -0.7364 0.3008 -0.6061
vn 0.9127 -0.0874 0.3992
vn 0.7946 -0.1916 0.5761
vn 0.7483 -0.1418 0.6480
vn 0.8807 -0.0490 0.4711
vn 0.2884 0.4377 -0.8516
vn 0.3350 0.3583 -0.8714
vn 0.1267 0.3554 -0.9261
vn 0.0753 0.4395 -0.8951
vn 0.5509 -0.3271 0.7678
vn 0.5923 -0.2872 0.7527
vn 0.3537 -0.4027 0.8442
vn 0.3042 -0.3390 0.8902
vn 0.4920 -0.2677 0.8284
vn -0.8789 0.2079 -0.4294
vn -0.8518 0.1790 -0.4923
vn -0.3286 -0.4516 0.8295
vn -0.3722 -0.3815 0.8461
vn -0.1724 -0.3953 0.9022
vn -0.1338 -0.4667 0.8742
vn -0.2678 -0.1899 -0.9446
vn -0.3386 0.0337 -0.9403
vn -0.1972 0.0442 -0.9794
vn -0.1465 -0.1813 -0.9725
vn -0.0625 -0.4655 -0.8828
vn -0.1501 -0.4753 -0.8669
vn 0.7271 0.3096 0.6128
vn 0.7863 0.1528 0.5986
vn 0.6228 0.0958 0.7765
vn 0.5541 0.2706 0.7872
vn 0.6032 0.4869 0.6318
vn 0.4351 0.0124 -0.9003
vn 0.4728 -0.2236 -0.8523
vn 0.2799 -0.3274 -0.9025
vn 0.2388 -0.0617 -0.9691
vn 0.2103 0.1179 -0.9705
vn 0.4051 0.1575 -0.9006
vn 0.2848 0.1913 0.9393
vn 0.3518 0.0055 0.9361
vn 0.2105 -0.0403 0.9768
vn 0.1645 0.1539 0.9743
vn -0.3341 0.2750 -0.9015
vn -0.2756 0.1971 -0.9409
vn -0.2409 0.2196 -0.9454
vn -0.2795 0.3000 -0.9121
vn -0.3100 0.6344 -0.7082
vn -0.3890 0.6116 -0.6889
vn -0.6053 0.5374 -0.5872
vn -0.5546 0.2092 -0.8054
vn -0.4901 0.1387 -0.8606
vn -0.7153 0.1497 -0.6826
vn -0.6564 0.0886 -0.7492
vn -0.7523 0.4567 -0.4748
vn -0.3479 -0.3028 0.8873
vn -0.2429 -0.6086 0.7554
vn -0.0932 -0.6302 0.7708
vn -0.2128 -0.3084 0.9271
vn -0.2587 -0.2356 0.9368
vn -0.3800 -0.2359 0.8944
vn 0.8172 -0.1491 0.5568
vn 0.7976 -0.0892 0.5965
vn 0.6938 -0.1257 0.7091
vn 0.7106 -0.1958 0.6758
vn 0.6694 -0.5233 0.5273
vn 0.7872 -0.4519 0.4197
vn 0.1254 0.3457 -0.9299
vn 0.1235 0.6449 -0.7542
vn -0.0362 0.6572 -0.7528
vn -0.0362 0.3393 -0.9400
vn -0.0341 0.2597 -0.9651
vn 0.1180 0.2713 -0.9552
vn 0.5057 -0.2546 0.8243
vn 0.4890 -0.1752 0.8545
vn 0.2405 -0.2113 0.9474
vn 0.2777 -0.2911 0.9155
vn 0.3092 -0.6232 0.7184
vn 0.4684 -0.5946 0.6534
vn -0.1004 0.2011 -0.9744
vn -0.0608 0.0620 -0.9962
vn -0.2428 0.1957 -0.9501
vn -0.1573 0.3358 -0.9287
vn 0.1758 0.2312 -0.9569
vn 0.3751 0.2488 -0.8930
vn 0.8337 0.0363 0.5510
vn 0.6846 -0.0385 0.7279
vn 0.0903 -0.2411 0.9663
vn 0.0706 -0.0663 0.9953
vn 0.2543 -0.2070 0.9447
vn 0.1170 -0.3812 0.9171
vn -0.2053 -0.2589 0.9438
vn -0.4150 -0.2554 0.8732
vn -0.8247 0.0859 -0.5591
vn -0.6615 0.1387 -0.7370
vn -0.5091 0.4045 0.7598
vn -0.5278 0.4445 0.7238
vn -0.2816 0.5498 0.7864
vn -0.2792 0.4910 0.8252
vn -0.3409 -0.6786 -0.6506
vn -0.2194 -0.6818 -0.6979
vn -0.1603 -0.7360 -0.6578
vn -0.2497 -0.7386 -0.6262
vn 0.0780 -0.6210 -0.7799
vn 0.0968 -0.6675 -0.7383
vn 0.0235 -0.6963 -0.7174
vn 0.0061 -0.6491 -0.7607
vn 0.0231 -0.4366 -0.8993
vn 0.3301 -0.5114 -0.7934
vn 0.3564 -0.5563 -0.7507
vn 0.5221 -0.3941 -0.7563
vn 0.5527 -0.4326 -0.7123
vn 0.4258 0.6292 0.6503
vn 0.3355 0.6786 0.6535
vn 0.0057 0.5254 0.8508
vn 0.0119 0.5890 0.8080
vn 0.0143 0.3511 0.9362
vn -0.2490 0.3654 -0.8969
vn 0.0190 0.3837 -0.9233
vn -0.2553 0.3052 -0.9175
vn -0.3916 0.3428 -0.8539
vn -0.3484 0.6468 -0.6785
vn -0.2320 0.6620 -0.7126
vn 0.0001 0.6657 -0.7462
vn -0.0586 -0.6667 -0.7430
vn -0.0378 -0.7177 -0.6954
vn 0.6061 -0.2310 0.7611
vn 0.6006 -0.2178 0.7693
vn -0.2106 0.4174 -0.8840
vn -0.2475 0.3943 -0.8850
vn 0.1529 -0.4501 0.8798
vn -0.0301 -0.1529 -0.9878
vn 0.0446 0.1369 0.9896
vn -0.2286 0.3168 -0.9205
vn -0.2355 0.6482 -0.7242
vn -0.2101 0.2349 -0.9490
vn 0.0266 -0.3082 0.9510
vn 0.1356 -0.6368 0.7590
vn -0.0298 -0.2304 0.9726
vn -0.3877 0.1883 -0.9024
vn 0.4195 -0.1467 0.8958
vn -0.5287 0.3115 -0.7896
vn -0.4638 0.6205 -0.6323
vn -0.7575 0.2322 -0.6101
vn -0.6822 0.5381 -0.4950
vn -0.8854 0.1589 -0.4368
vn -0.8158 0.4497 -0.3637
vn -0.2696 -0.3636 0.8917
vn -0.0876 -0.3724 0.9239
vn -0.0534 -0.6491 0.7588
vn -0.2194 -0.6244 0.7497
vn 0.9123 -0.1354 0.3864
vn 0.8405 -0.4267 0.3339
vn 0.7210 -0.5144 0.4644
vn 0.8051 -0.2067 0.5559
vn 0.2178 0.3790 -0.8994
vn 0.1751 0.6449 -0.7439
vn 0.1856 -0.3626 0.9133
vn 0.1867 -0.6530 0.7340
vn 0.3924 -0.3361 0.8562
vn 0.3504 -0.6356 0.6879
vn -0.3635 0.8126 -0.4557
vn -0.5587 0.7415 -0.3716
vn -0.2814 0.8310 -0.4799
vn -0.1588 -0.7991 0.5798
vn -0.0168 -0.8241 0.5662
vn -0.6943 0.6591 -0.2890
vn 0.1184 0.8205 -0.5592
vn -0.0227 0.8405 -0.5414
vn 0.7085 -0.6478 0.2800
vn 0.5811 -0.7284 0.3630
vn 0.3901 -0.7994 0.4570
vn 0.5076 -0.6020 0.6164
vn 0.2847 -0.8193 0.4977
vn -0.2598 0.3369 -0.9050
vn 0.5864 -0.2922 0.7555
vn -0.2022 0.8409 -0.5021
vn 0.1757 -0.8301 0.5292
usemtl material1704.003
s 1
f 1//1 2//2 3//3 4//4
f 1//1 4//4 5//5 6//6
f 1//1 6//6 7//7 8//8
f 1//1 8//8 9//9 2//2
f 10//10 11//11 12//12 13//13
f 10//10 13//13 14//14 15//15
f 10//16 15//17 16//18 17//19
f 10//16 17//19 18//20 11//21
f 19//22 20//23 21//24 22//25
f 19//22 22//25 23//26 24//27
f 19//28 24//29 3//3 2//2
f 19//28 2//2 9//9 20//30
f 25//31 26//32 27//33 28//34
f 25//35 28//36 29//37 30//38
f 25//35 30//38 31//39 32//40
f 25//31 32//41 33//42 26//32
f 34//43 35//44 36//45 37//46
f 34//43 37//46 38//47 39//48
f 34//43 39//48 40//49 41//50
f 34//43 41//50 42//51 35//44
f 43//52 44//53 45//54 46//55
f 43//52 46//55 47//56 48//57
f 43//52 48//57 23//26 22//25
f 43//52 22//25 21//24 44//53
f 49//58 8//8 7//7 50//59
f 49//58 50//59 51//60 52//61
f 49//58 52//61 53//62 54//63
f 49//58 54//63 9//9 8//8
f 55//64 32//40 31//39 56//65
f 55//64 56//65 57//66 58//67
f 55//68 58//69 59//70 60//71
f 55//68 60//71 33//42 32//41
f 61//72 62//73 45//54 63//74
f 61//72 63//74 64//75 65//76
f 61//72 65//76 57//66 56//65
f 61//72 56//65 31//39 62//73
f 66//77 20//30 9//9 54//63
f 66//77 54//63 53//62 67//78
f 66//79 67//80 68//81 69//82
f 66//79 69//82 21//24 20//23
f 70//83 71//84 72//85 73//86
f 70//83 73//86 74//87 75//88
f 70//83 75//88 14//14 13//13
f 70//83 13//13 12//12 71//84
f 76//89 77//90 78//91 79//92
f 76//89 79//92 36//45 80//93
f 76//94 80//95 81//96 82//97
f 76//94 82//97 83//98 77//99
f 84//100 85//101 86//102 87//103
f 84//100 87//103 38//47 37//46
f 84//100 37//46 36//45 79//92
f 84//100 79//92 78//91 85//101
f 88//104 89//105 90//106 91//107
f 88//104 91//107 92//108 93//109
f 88//104 93//109 94//110 95//111
f 88//104 95//111 96//112 89//105
f 97//113 98//114 96//112 95//111
f 97//113 95//111 94//110 99//115
f 97//116 99//117 100//118 101//119
f 97//116 101//119 102//120 98//121
f 103//122 104//123 105//124 106//125
f 103//122 106//125 107//126 108//127
f 103//128 108//129 109//130 110//131
f 103//128 110//131 111//132 104//133
f 112//134 113//135 114//136 115//137
f 112//134 115//137 116//138 117//139
f 112//134 117//139 107//126 106//125
f 112//134 106//125 105//124 113//135
f 118//140 119//141 72//85 120//142
f 118//140 120//142 51//60 121//143
f 118//140 121//143 59//70 122//144
f 118//140 122//144 83//98 119//141
f 123//145 77//99 83//98 122//144
f 123//145 122//144 59//70 58//69
f 123//146 58//67 57//66 124//147
f 123//146 124//147 78//91 77//90
f 125//148 126//149 86//102 127//150
f 125//148 127//150 64//75 128//151
f 125//148 128//151 68//81 129//152
f 125//148 129//152 18//20 126//149
f 130//153 11//21 18//20 129//152
f 130//153 129//152 68//81 67//80
f 130//154 67//78 53//62 131//155
f 130//154 131//155 12//12 11//11
f 132//156 133//157 134//158 135//159
f 132//156 135//159 16//18 15//17
f 132//160 15//15 14//14 136//161
f 132//160 136//161 137//162 133//163
f 138//164 139//165 140//166 141//167
f 138//164 141//167 74//87 142//168
f 138//164 142//168 81//96 143//169
f 138//164 143//169 144//170 139//165
f 145//171 146//172 144//170 143//169
f 145//171 143//169 81//96 80//95
f 145//173 80//93 36//45 35//44
f 145//173 35//44 42//51 146//174
f 147//175 148//176 40//49 39//48
f 147//175 39//48 38//47 149//177
f 147//175 149//177 16//18 135//159
f 147//175 135//159 134//158 148//176
f 150//178 151//179 27//33 152//180
f 150//178 152//180 5//5 153//181
f 150//178 153//181 154//182 155//183
f 150//178 155//183 156//184 151//179
f 157//185 136//161 14//14 75//88
f 157//185 75//88 74//87 141//167
f 157//185 141//167 140//166 158//186
f 157//185 158//186 137//162 136//161
f 159//187 30//38 29//37 160//188
f 159//187 160//188 47//56 46//55
f 159//187 46//55 45//54 62//73
f 159//187 62//73 31//39 30//38
f 161//189 60//71 59//70 121//143
f 161//189 121//143 51//60 50//59
f 161//189 50//59 7//7 162//190
f 161//189 162//190 33//42 60//71
f 163//191 69//82 68//81 128//151
f 163//191 128//151 64//75 63//74
f 163//191 63//74 45//54 44//53
f 163//191 44//53 21//24 69//82
f 164//192 82//97 81//96 142//168
f 164//192 142//168 74//87 73//86
f 164//192 73//86 72//85 119//141
f 164//192 119//141 83//98 82//97
f 165//193 17//19 16//18 149//177
f 165//193 149//177 38//47 87//103
f 165//193 87//103 86//102 126//149
f 165//193 126//149 18//20 17//19
f 166//194 110//131 109//130 167//195
f 166//194 167//195 92//108 91//107
f 166//194 91//107 90//106 168//196
f 166//194 168//196 111//132 110//131
f 169//197 101//119 100//118 170//198
f 169//197 170//198 116//138 115//137
f 169//197 115//137 114//136 171//199
f 169//197 171//199 102//120 101//119
f 172//200 131//155 53//62 52//61
f 172//200 52//61 51//60 120//142
f 172//200 120//142 72//85 71//84
f 172//200 71//84 12//12 131//155
f 173//201 124//147 57//66 65//76
f 173//201 65//76 64//75 127//150
f 173//201 127//150 86//102 85//101
f 173//201 85//101 78//91 124//147
f 174//202 175//203 154//182 153//181
f 174//202 153//181 5//5 4//4
f 174//202 4//4 3//3 176//204
f 174//202 176//204 177//205 175//203
f 178//206 179//207 177//205 176//204
f 178//206 176//204 3//3 24//29
f 178//208 24//27 23//26 180//209
f 178//208 180//209 181//210 179//211
f 182//212 183//213 184//214 185//215
f 182//212 185//215 29//37 28//36
f 182//216 28//34 27//33 151//179
f 182//216 151//179 156//184 183//217
f 186//218 187//219 181//210 180//209
f 186//218 180//209 23//26 48//57
f 186//218 48//57 47//56 188//220
f 186//218 188//220 189//221 187//219
f 190//222 175//203 177//205 191//223
f 190//222 191//223 94//110 93//109
f 190//222 93//109 92//108 192//224
f 190//222 192//224 154//182 175//203
f 193//225 179//211 181//210 194//226
f 193//225 194//226 100//118 99//117
f 193//227 99//115 94//110 191//223
f 193//227 191//223 177//205 179//207
f 195//228 183//217 156//184 196//229
f 195//228 196//229 109//130 108//129
f 195//230 108//127 107//126 197//231
f 195//230 197//231 184//214 183//213
f 198//232 199//233 184//214 197//231
f 198//232 197//231 107//126 117//139
f 198//232 117//139 116//138 200//234
f 198//232 200//234 189//221 199//233
f 201//235 162//190 7//7 6//6
f 201//235 6//6 5//5 152//180
f 201//235 152//180 27//33 26//32
f 201//235 26//32 33//42 162//190
f 202//236 199//233 189//221 188//220
f 202//236 188//220 47//56 160//188
f 202//236 160//188 29//37 185//215
f 202//236 185//215 184//214 199//233
f 203//237 155//183 154//182 192//224
f 203//237 192//224 92//108 167//195
f 203//237 167//195 109//130 196//229
f 203//237 196//229 156//184 155//183
f 204//238 187//219 189//221 200//234
f 204//238 200//234 116//138 170//198
f 204//238 170//198 100//118 194//226
f 204//238 194//226 181//210 187//219
