# Blender v3.2.1 OBJ File: ''
# www.blender.org
mtllib sternothyroideus_right.mtl
o Sternothyroideus_Muscle_Right
v -0.054585 17.193399 0.170684
v -0.021580 17.190441 0.183729
v -0.044242 17.095463 0.236915
v -0.079738 17.094109 0.231851
v -0.125958 17.102299 0.222819
v -0.099966 17.200769 0.157548
v -0.115511 16.993547 0.310604
v -0.161645 17.001060 0.305433
v -0.077368 17.001757 0.306453
v -0.125127 17.629948 0.240834
v -0.122552 17.706619 0.270626
v -0.157823 17.706835 0.236099
v -0.160386 17.628242 0.209400
v -0.159923 17.547710 0.183554
v -0.124455 17.549866 0.211101
v -0.184806 17.626776 0.180311
v -0.184603 17.545809 0.157519
v -0.182318 17.707237 0.204944
v -0.040489 17.115362 0.241456
v -0.067475 17.035887 0.299780
v -0.059937 17.016739 0.304038
v -0.030147 17.103119 0.240604
v -0.009944 17.192738 0.192496
v -0.022001 17.199238 0.196982
v -0.197140 17.229874 0.147532
v -0.186063 17.222607 0.144773
v -0.206436 17.147943 0.192761
v -0.216474 17.167234 0.187126
v -0.204368 17.175087 0.192023
v -0.185112 17.232059 0.157252
v -0.240045 17.109125 0.233624
v -0.228218 17.124861 0.232566
v -0.231814 17.074459 0.250442
v -0.187887 17.708275 0.188493
v -0.190516 17.626547 0.162804
v -0.191191 17.545368 0.140896
v -0.176262 17.627293 0.158916
v -0.178289 17.546083 0.136044
v -0.172939 17.709549 0.186996
v -0.127544 17.147499 0.227991
v -0.153072 17.080511 0.273977
v -0.104240 17.056595 0.290097
v -0.078307 17.130482 0.238005
v -0.060075 17.208891 0.197186
v -0.108880 17.219213 0.190520
v -0.091275 17.939732 0.325680
v -0.094415 17.962200 0.328854
v -0.071061 17.951029 0.355350
v -0.065102 17.928652 0.356633
v -0.060636 17.906393 0.354887
v -0.089142 17.917658 0.320719
v -0.052919 17.930748 0.388389
v -0.045986 17.903782 0.388077
v -0.061910 17.957455 0.384186
v -0.071733 17.977789 0.396388
v -0.058851 17.944639 0.403498
v -0.048518 17.910580 0.403951
v -0.077667 17.964821 0.407352
v -0.065844 17.923170 0.405363
v -0.091833 18.005129 0.401798
v -0.181976 18.024885 0.344257
v -0.172624 18.073830 0.370450
v -0.172377 18.059956 0.349092
v -0.180234 18.015285 0.325057
v -0.185832 17.970419 0.301027
v -0.187388 17.974905 0.317202
v -0.161028 17.994312 0.314212
v -0.164740 17.956766 0.296120
v -0.157245 18.032549 0.332767
v -0.134069 18.004938 0.394178
v -0.135872 18.055962 0.411346
v -0.158016 18.071104 0.394639
v -0.163302 18.019705 0.370557
v -0.165347 17.967361 0.345220
v -0.130984 17.953224 0.374675
v -0.093364 17.293705 0.126965
v -0.096965 17.382080 0.123431
v -0.057604 17.382353 0.145597
v -0.050673 17.290152 0.144689
v -0.019846 17.287966 0.163249
v -0.029118 17.382549 0.167974
v -0.018861 17.383749 0.181612
v -0.008915 17.288839 0.175039
v -0.020506 17.291918 0.180210
v -0.029659 17.385098 0.186108
v -0.175040 17.302530 0.134027
v -0.173178 17.381304 0.125941
v -0.183076 17.379810 0.112193
v -0.186280 17.301567 0.121745
v -0.175701 17.299625 0.116168
v -0.172977 17.379452 0.106659
v -0.103943 17.300377 0.170079
v -0.108143 17.385328 0.167590
v -0.146311 17.383495 0.146811
v -0.145401 17.302286 0.152627
v -0.153125 17.227722 0.174395
v -0.101585 17.466871 0.139313
v -0.139848 17.380663 0.110428
v -0.142786 17.464590 0.122438
v -0.144500 17.547647 0.145320
v -0.103481 17.549164 0.165938
v -0.175517 17.462538 0.115955
v -0.043112 17.470474 0.209649
v -0.031583 17.469790 0.205595
v -0.041163 17.550823 0.239396
v -0.054071 17.551373 0.243025
v -0.039474 17.468708 0.190403
v -0.046272 17.550064 0.222912
v -0.186712 17.462101 0.121301
v -0.178546 17.463190 0.136583
v -0.116887 17.468409 0.183976
v -0.064339 17.385742 0.181062
v -0.075870 17.470003 0.201500
v -0.085503 17.551071 0.232259
v -0.090510 17.792847 0.263115
v -0.092910 17.710825 0.226622
v -0.135884 17.710661 0.200701
v -0.134014 17.796127 0.237571
v -0.132970 17.868149 0.270843
v -0.089838 17.860046 0.294756
v -0.171822 17.796228 0.222711
v -0.170937 17.871767 0.256538
v -0.053338 17.771727 0.339260
v -0.053650 17.705860 0.311846
v -0.039043 17.706188 0.310652
v -0.039134 17.773964 0.342068
v -0.040899 17.831108 0.369078
v -0.054968 17.829216 0.363723
v -0.040893 17.779196 0.329471
v -0.042221 17.838154 0.359487
v -0.041129 17.707275 0.293872
v -0.186500 17.793188 0.219431
v -0.186220 17.869434 0.250606
v -0.180300 17.788338 0.231405
v -0.180564 17.862675 0.259346
v -0.120380 17.777847 0.297930
v -0.084657 17.706150 0.297189
v -0.083377 17.773556 0.324064
v -0.084299 17.833906 0.348862
v -0.120634 17.842672 0.324104
v -0.098912 17.630039 0.194635
v -0.060205 17.709259 0.261770
v -0.065444 17.630278 0.227325
v -0.068892 17.549740 0.195114
v -0.044873 17.630241 0.257877
v -0.041684 17.630716 0.275421
v -0.055739 17.631123 0.278429
v -0.203047 17.033234 0.279878
v -0.172227 17.123272 0.207224
v -0.148732 17.211704 0.148511
v -0.086899 17.630886 0.265371
v -0.172145 17.165438 0.209154
v -0.196812 17.109297 0.250409
v -0.128177 17.936813 0.301907
v -0.127313 17.965372 0.312980
v -0.127200 17.994669 0.323673
v -0.095574 17.937941 0.395164
v -0.104131 17.985783 0.405344
v -0.113512 18.032578 0.410258
v -0.139884 17.296934 0.117683
v -0.057247 17.296343 0.178915
v -0.064978 17.467991 0.165138
v -0.153191 17.465715 0.159906
v -0.059061 17.848923 0.329508
v -0.058744 17.786345 0.298451
v -0.155712 17.853006 0.289055
v -0.155474 17.782999 0.262307
v -0.140789 17.628752 0.170679
v -0.043169 17.876299 0.378732
v -0.059157 17.884378 0.347083
v -0.089023 17.896374 0.312184
v -0.058707 17.878834 0.388289
v -0.043281 17.874691 0.391092
v -0.168310 17.920599 0.278952
v -0.186913 17.925156 0.277008
v -0.184922 17.922850 0.288422
v -0.160910 17.913128 0.317372
v -0.125337 17.900133 0.350501
v -0.130543 17.909725 0.290075
v -0.088664 17.888008 0.374449
vn 0.2579 -0.4073 -0.8761
vn 0.4718 -0.3634 -0.8034
vn 0.3307 -0.5828 -0.7423
vn 0.1038 -0.5870 -0.8029
vn 0.0330 -0.5929 -0.8046
vn 0.1388 -0.4394 -0.8875
vn 0.0519 -0.6263 -0.7778
vn -0.0007 -0.6273 -0.7788
vn 0.2882 -0.6381 -0.7140
vn -0.5710 -0.2841 0.7703
vn -0.6149 -0.2650 0.7428
vn -0.7262 -0.2055 0.6560
vn -0.6919 -0.2203 0.6875
vn -0.6402 -0.2505 0.7262
vn -0.5093 -0.3081 0.8036
vn -0.8594 -0.1366 0.4927
vn -0.8225 -0.1769 0.5405
vn -0.8660 -0.1344 0.4816
vn 0.3127 0.4371 0.8433
vn 0.3298 0.4784 0.8139
vn 0.5231 0.3807 0.7625
vn 0.4979 0.3562 0.7907
vn 0.4514 0.2445 0.8581
vn 0.2640 0.2882 0.9205
vn 0.6130 -0.3313 -0.7172
vn 0.5013 -0.5636 -0.6566
vn 0.4734 -0.6243 -0.6215
vn -0.4215 -0.3312 -0.8442
vn -0.2284 -0.3958 -0.8895
vn -0.2410 -0.5127 -0.8241
vn -0.4074 -0.4368 -0.8020
vn -0.4439 0.6140 0.6526
vn -0.5149 0.4465 0.7318
vn -0.6349 0.4453 0.6313
vn -0.6346 0.5905 0.4985
vn -0.6745 0.6188 0.4027
vn -0.4366 0.6655 0.6054
vn -0.2508 -0.5439 -0.8008
vn -0.4135 -0.4656 -0.7824
vn -0.9373 -0.0867 0.3375
vn -0.9420 -0.0790 0.3262
vn -0.9162 -0.1253 0.3806
vn 0.0191 0.2961 -0.9550
vn -0.0573 0.2540 -0.9655
vn -0.3498 0.2277 -0.9088
vn -0.2511 0.2855 -0.9249
vn -0.0954 0.3388 -0.9360
vn 0.1139 0.3435 -0.9322
vn -0.0638 0.5360 0.8418
vn -0.0261 0.5819 0.8129
vn 0.0688 0.5605 0.8253
vn 0.0562 0.5092 0.8588
vn -0.0037 0.3360 0.9419
vn -0.1640 0.3731 0.9132
vn 0.6401 0.2340 -0.7318
vn 0.6241 0.2251 -0.7482
vn 0.8507 0.2120 -0.4811
vn 0.8497 0.2142 -0.4818
vn 0.8460 0.2236 -0.4840
vn 0.6594 0.2623 -0.7046
vn 0.9495 0.2798 -0.1420
vn 0.9656 0.2082 -0.1556
vn 0.9428 0.3047 -0.1349
vn 0.8166 0.3757 0.4382
vn 0.7793 0.2944 0.5531
vn 0.9794 0.1864 0.0779
vn 0.1704 0.0632 0.9834
vn -0.2252 -0.2435 0.9434
vn -0.0298 -0.1779 0.9836
vn 0.4078 0.2095 0.8887
vn -0.9806 0.0340 0.1933
vn -0.9812 0.0786 0.1762
vn -0.9351 0.2850 -0.2108
vn -0.9505 0.2448 -0.1912
vn -0.9928 0.0912 -0.0776
vn -0.9625 -0.1020 0.2514
vn 0.1383 0.4179 -0.8979
vn 0.2103 0.4090 -0.8880
vn 0.0878 0.4466 -0.8904
vn -0.0053 0.4570 -0.8894
vn -0.0499 0.4619 -0.8855
vn 0.0994 0.4226 -0.9008
vn -0.5780 -0.2756 0.7681
vn -0.5375 -0.2530 0.8044
vn -0.7660 -0.1992 0.6113
vn -0.7578 -0.2294 0.6108
vn -0.7450 -0.3049 0.5933
vn -0.6301 -0.3364 0.6999
vn 0.2780 -0.1692 -0.9456
vn 0.3853 0.0846 -0.9189
vn 0.5461 0.1361 -0.8266
vn 0.4347 -0.1080 -0.8941
vn 0.6197 -0.0472 -0.7834
vn 0.7034 0.1735 -0.6893
vn 0.7876 0.1840 -0.5881
vn 0.7255 -0.0179 -0.6880
vn 0.1936 0.0706 0.9785
vn 0.4116 0.0677 0.9089
vn 0.3650 -0.1131 0.9241
vn 0.1168 -0.1429 0.9828
vn -0.6318 0.2066 0.7471
vn -0.7179 -0.0249 0.6957
vn -0.8138 -0.0076 0.5811
vn -0.7308 0.2132 0.6485
vn -0.2188 -0.2048 -0.9540
vn -0.4608 -0.1707 -0.8709
vn -0.4681 -0.0027 -0.8837
vn -0.1875 0.0056 -0.9822
vn -0.2834 0.1313 0.9500
vn -0.3792 -0.1064 0.9192
vn -0.5389 -0.0628 0.8400
vn -0.4521 0.1749 0.8746
vn -0.3189 0.4160 0.8516
vn 0.4573 0.2352 -0.8577
vn 0.1979 0.0352 -0.9796
vn 0.2690 0.2063 -0.9408
vn 0.3314 0.2636 -0.9059
vn 0.5222 0.2662 -0.8102
vn -0.1281 0.1731 -0.9765
vn 0.0410 -0.3119 0.9492
vn 0.3009 -0.2730 0.9137
vn 0.2364 -0.3691 0.8988
vn -0.0287 -0.3891 0.9208
vn 0.7721 0.2621 -0.5790
vn 0.8543 0.2192 -0.4713
vn 0.9342 0.1740 -0.3115
vn 0.8540 0.2492 -0.4567
vn -0.4228 0.1397 -0.8954
vn -0.7709 -0.1700 0.6139
vn -0.8682 -0.1351 0.4775
vn -0.4451 -0.2704 0.8537
vn -0.2136 -0.1462 0.9659
vn -0.2939 -0.3121 0.9035
vn -0.3657 -0.3599 0.8583
vn 0.6234 0.3190 -0.7139
vn 0.6054 0.2851 -0.7431
vn 0.4038 0.3237 -0.8557
vn 0.4177 0.3632 -0.8328
vn 0.4312 0.3682 -0.8237
vn 0.6413 0.3218 -0.6965
vn 0.2241 0.3768 -0.8988
vn 0.2874 0.3885 -0.8755
vn -0.2772 -0.3813 0.8819
vn -0.1771 -0.3903 0.9035
vn 0.0578 -0.4103 0.9101
vn -0.1073 -0.4063 0.9074
vn -0.2344 -0.4259 0.8739
vn -0.3516 -0.4075 0.8428
vn 0.9475 0.1468 -0.2841
vn 0.9579 0.1468 -0.2467
vn 0.9957 0.0656 -0.0647
vn 0.9921 0.0650 -0.1071
vn 0.9900 0.0424 -0.1346
vn 0.9384 0.1254 -0.3219
vn 0.1062 0.3749 -0.9210
vn 0.2200 0.3959 -0.8915
vn -0.8516 -0.1700 0.4958
vn -0.8586 -0.2235 0.4614
vn -0.9211 -0.1701 0.3502
vn -0.9104 -0.1355 0.3908
vn -0.6404 -0.2726 0.7180
vn -0.4758 -0.3236 0.8178
vn -0.5059 -0.3237 0.7995
vn -0.5244 -0.3658 0.7689
vn -0.6494 -0.3259 0.6871
vn 0.5756 0.2564 -0.7765
vn 0.7830 0.2290 -0.5783
vn 0.7459 0.2208 -0.6283
vn 0.6845 0.2604 -0.6809
vn 0.9139 0.1374 -0.3821
vn 0.9785 0.0651 -0.1956
vn -0.0959 -0.4020 0.9106
vn 0.1685 -0.4067 0.8979
vn -0.0473 -0.6161 -0.7862
vn -0.0299 -0.5825 -0.8123
vn 0.0274 -0.4470 -0.8941
vn -0.4295 -0.3437 0.8351
vn -0.1765 0.5773 0.7972
vn -0.1124 0.6215 0.7753
vn 0.4253 0.3294 -0.8430
vn 0.3785 0.3190 -0.8689
vn 0.3454 0.3168 -0.8834
vn -0.4867 -0.3205 0.8126
vn -0.2759 -0.1801 0.9442
vn -0.0957 -0.0982 0.9905
vn 0.1134 -0.2117 -0.9707
vn -0.1095 0.0891 0.9900
vn 0.6147 0.2588 -0.7451
vn -0.5885 -0.2232 0.7771
vn 0.8248 0.2526 -0.5059
vn 0.8060 0.2529 -0.5352
vn -0.7467 -0.2877 0.5997
vn -0.7434 -0.2225 0.6308
vn 0.3790 0.2801 -0.8820
vn 0.9695 0.1504 -0.1935
vn 0.8382 0.2387 -0.4904
vn 0.6568 0.2985 -0.6925
vn -0.3642 -0.4074 0.8375
vn -0.2493 -0.4083 0.8782
vn 0.9967 0.0787 0.0210
vn 0.2699 0.3984 -0.8766
vn 0.1843 0.4250 -0.8862
vn -0.9084 -0.2210 0.3550
vn -0.9835 -0.1005 0.1503
vn -0.7416 -0.3417 0.5773
vn -0.6455 -0.3699 0.6682
vn 0.4390 0.3500 -0.8275
vn -0.5310 -0.3920 0.7513
usemtl material1707.003
s 1
f 1//1 2//2 3//3 4//4
f 5//5 6//6 1//1 4//4
f 7//7 8//8 5//5 4//4
f 3//3 9//9 7//7 4//4
f 10//10 11//11 12//12 13//13
f 14//14 15//15 10//10 13//13
f 16//16 17//17 14//14 13//13
f 12//12 18//18 16//16 13//13
f 19//19 20//20 21//21 22//22
f 23//23 24//24 19//19 22//22
f 3//3 2//2 23//25 22//26
f 21//27 9//9 3//3 22//26
f 25//28 26//29 27//30 28//31
f 29//32 30//33 25//34 28//35
f 31//36 32//37 29//32 28//35
f 27//30 33//38 31//39 28//31
f 16//16 18//18 34//40 35//41
f 36//42 17//17 16//16 35//41
f 37//43 38//44 36//45 35//46
f 34//47 39//48 37//43 35//46
f 40//49 41//50 42//51 43//52
f 44//53 45//54 40//49 43//52
f 19//19 24//24 44//53 43//52
f 42//51 20//20 19//19 43//52
f 46//55 47//56 48//57 49//58
f 50//59 51//60 46//55 49//58
f 52//61 53//62 50//59 49//58
f 48//57 54//63 52//61 49//58
f 52//61 54//63 55//64 56//65
f 57//66 53//62 52//61 56//65
f 58//67 59//68 57//69 56//65
f 55//64 60//70 58//67 56//65
f 61//71 62//72 63//73 64//74
f 65//75 66//76 61//71 64//74
f 67//77 68//78 65//79 64//80
f 63//81 69//82 67//77 64//80
f 70//83 71//84 72//85 73//86
f 74//87 75//88 70//83 73//86
f 61//71 66//76 74//87 73//86
f 72//85 62//72 61//71 73//86
f 76//89 77//90 78//91 79//92
f 1//1 6//6 76//89 79//92
f 80//93 2//2 1//1 79//92
f 78//91 81//94 80//93 79//92
f 80//93 81//94 82//95 83//96
f 23//25 2//2 80//93 83//96
f 84//97 24//24 23//23 83//98
f 82//99 85//100 84//97 83//98
f 86//101 87//102 88//103 89//104
f 25//34 30//33 86//101 89//104
f 90//105 26//29 25//28 89//106
f 88//107 91//108 90//105 89//106
f 92//109 93//110 94//111 95//112
f 96//113 45//54 92//109 95//112
f 86//101 30//33 96//113 95//112
f 94//111 87//102 86//101 95//112
f 97//114 77//90 98//115 99//116
f 100//117 101//118 97//114 99//116
f 102//119 38//44 100//117 99//116
f 98//115 91//108 102//119 99//116
f 103//120 85//100 82//99 104//121
f 105//122 106//123 103//120 104//121
f 107//124 108//125 105//126 104//127
f 82//95 81//94 107//124 104//127
f 102//119 91//108 88//107 109//128
f 36//45 38//44 102//119 109//128
f 110//129 17//17 36//42 109//130
f 88//103 87//102 110//129 109//130
f 111//131 93//110 112//132 113//133
f 114//134 15//15 111//131 113//133
f 103//120 106//123 114//134 113//133
f 112//132 85//100 103//120 113//133
f 115//135 116//136 117//137 118//138
f 119//139 120//140 115//135 118//138
f 121//141 122//142 119//139 118//138
f 117//137 39//48 121//141 118//138
f 123//143 124//144 125//145 126//146
f 127//147 128//148 123//143 126//146
f 129//149 130//150 127//151 126//152
f 125//153 131//154 129//149 126//152
f 121//141 39//48 34//47 132//155
f 133//156 122//142 121//141 132//155
f 134//157 135//158 133//159 132//160
f 34//40 18//18 134//157 132//160
f 136//161 11//11 137//162 138//163
f 139//164 140//165 136//161 138//163
f 123//143 128//148 139//164 138//163
f 137//162 124//144 123//143 138//163
f 141//166 116//136 142//167 143//168
f 144//169 101//118 141//166 143//168
f 145//170 108//125 144//169 143//168
f 142//167 131//154 145//170 143//168
f 145//170 131//154 125//153 146//171
f 105//126 108//125 145//170 146//171
f 147//172 106//123 105//122 146//173
f 125//145 124//144 147//172 146//173
f 148//174 33//38 27//30 149//175
f 5//5 8//8 148//174 149//175
f 150//176 6//6 5//5 149//175
f 27//30 26//29 150//176 149//175
f 114//134 106//123 147//172 151//177
f 10//10 15//15 114//134 151//177
f 137//162 11//11 10//10 151//177
f 147//172 124//144 137//162 151//177
f 96//113 30//33 29//32 152//178
f 40//49 45//54 96//113 152//178
f 153//179 41//50 40//49 152//178
f 29//32 32//37 153//179 152//178
f 154//180 68//78 67//77 155//181
f 46//55 51//60 154//180 155//181
f 156//182 47//56 46//55 155//181
f 67//77 69//82 156//182 155//181
f 157//183 59//68 58//67 158//184
f 70//83 75//88 157//183 158//184
f 159//185 71//84 70//83 158//184
f 58//67 60//70 159//185 158//184
f 150//176 26//29 90//105 160//186
f 76//89 6//6 150//176 160//186
f 98//115 77//90 76//89 160//186
f 90//105 91//108 98//115 160//186
f 44//53 24//24 84//97 161//187
f 92//109 45//54 44//53 161//187
f 112//132 93//110 92//109 161//187
f 84//97 85//100 112//132 161//187
f 144//169 108//125 107//124 162//188
f 97//114 101//118 144//169 162//188
f 78//91 77//90 97//114 162//188
f 107//124 81//94 78//91 162//188
f 14//14 17//17 110//129 163//189
f 111//131 15//15 14//14 163//189
f 94//111 93//110 111//131 163//189
f 110//129 87//102 94//111 163//189
f 164//190 130//150 129//149 165//191
f 115//135 120//140 164//190 165//191
f 142//167 116//136 115//135 165//191
f 129//149 131//154 142//167 165//191
f 166//192 135//158 134//157 167//193
f 136//161 140//165 166//192 167//193
f 12//12 11//11 136//161 167//193
f 134//157 18//18 12//12 167//193
f 100//117 38//44 37//43 168//194
f 141//166 101//118 100//117 168//194
f 117//137 116//136 141//166 168//194
f 37//43 39//48 117//137 168//194
f 169//195 130//150 164//190 170//196
f 50//59 53//62 169//195 170//196
f 171//197 51//60 50//59 170//196
f 164//190 120//140 171//197 170//196
f 172//198 128//148 127//147 173//199
f 57//69 59//68 172//198 173//199
f 169//195 53//62 57//66 173//200
f 127//151 130//150 169//195 173//200
f 174//201 122//142 133//156 175//202
f 65//79 68//78 174//201 175//202
f 176//203 66//76 65//75 175//204
f 133//159 135//158 176//203 175//204
f 176//203 135//158 166//192 177//205
f 74//87 66//76 176//203 177//205
f 178//206 75//88 74//87 177//205
f 166//192 140//165 178//206 177//205
f 171//197 120//140 119//139 179//207
f 154//180 51//60 171//197 179//207
f 174//201 68//78 154//180 179//207
f 119//139 122//142 174//201 179//207
f 178//206 140//165 139//164 180//208
f 157//183 75//88 178//206 180//208
f 172//198 59//68 157//183 180//208
f 139//164 128//148 172//198 180//208
