# Blender v3.2.1 OBJ File: ''
# www.blender.org
mtllib stylohyoid_right.mtl
o Stylohyoid_Muscle_Right
v -0.149102 18.300402 0.600382
v -0.114747 18.273285 0.617336
v -0.116589 18.272724 0.614016
v -0.151061 18.298689 0.595783
v -0.184802 18.325907 0.574992
v -0.182847 18.328722 0.580855
v -0.153362 18.295511 0.591576
v -0.187438 18.321564 0.569329
v -0.118452 18.270781 0.611309
v -0.146096 18.296490 0.611868
v -0.109985 18.268013 0.627316
v -0.112290 18.271467 0.622230
v -0.147289 18.299458 0.606261
v -0.181782 18.328638 0.587707
v -0.181768 18.326172 0.593819
v -0.146934 18.287132 0.617199
v -0.108251 18.259142 0.633432
v -0.108600 18.263662 0.631211
v -0.145995 18.292131 0.615649
v -0.182963 18.321829 0.597465
v -0.185139 18.316391 0.598316
v -0.151395 18.278170 0.612720
v -0.110810 18.252300 0.631550
v -0.109055 18.255175 0.633496
v -0.148858 18.282240 0.616111
v -0.188063 18.310635 0.596041
v -0.191230 18.305447 0.591191
v -0.156749 18.274887 0.600958
v -0.116174 18.251472 0.622762
v -0.113317 18.251053 0.627739
v -0.154170 18.275637 0.607363
v -0.194133 18.301706 0.584315
v -0.196334 18.299854 0.576552
v -0.159797 18.279158 0.588733
v -0.121323 18.257008 0.612227
v -0.118981 18.253601 0.617315
v -0.158699 18.276176 0.594422
v -0.197399 18.300331 0.569037
v -0.197269 18.302876 0.562855
v -0.158660 18.288130 0.583892
v -0.122848 18.265402 0.606656
v -0.122789 18.261263 0.608327
v -0.159822 18.283485 0.584868
v -0.195891 18.307228 0.559091
v -0.193552 18.312315 0.558811
v -0.120970 18.268457 0.608253
v -0.156201 18.292067 0.586870
v -0.190545 18.317062 0.563079
v -0.563636 18.836105 -0.013625
v -0.569859 18.881500 -0.050432
v -0.568276 18.881443 -0.046211
v -0.560339 18.838783 -0.006996
v -0.548928 18.795622 0.034432
v -0.553640 18.790579 0.025969
v -0.558409 18.840797 -0.001079
v -0.545981 18.799601 0.042010
v -0.567688 18.881142 -0.042469
v -0.569115 18.880096 -0.039603
v -0.559460 18.841213 0.003556
v -0.546875 18.801229 0.048044
v -0.562752 18.840282 0.006130
v -0.550749 18.800667 0.051497
v -0.571886 18.878696 -0.038071
v -0.575336 18.877321 -0.038331
v -0.567541 18.838255 0.005865
v -0.556744 18.798075 0.051330
v -0.572966 18.835506 0.003023
v -0.563781 18.793940 0.047847
v -0.578884 18.876196 -0.040199
v -0.581951 18.875536 -0.043491
v -0.578161 18.832413 -0.002133
v -0.570778 18.788757 0.041349
v -0.582224 18.829515 -0.008630
v -0.576455 18.783455 0.033070
v -0.584123 18.875422 -0.047614
v -0.584985 18.875929 -0.051973
v -0.584248 18.827366 -0.015496
v -0.579534 18.778961 0.024246
v -0.584268 18.826172 -0.021731
v -0.580025 18.775818 0.016174
v -0.584531 18.876917 -0.055930
v -0.582750 18.878244 -0.058845
v -0.582316 18.826141 -0.026336
v -0.577941 18.774567 0.010153
v -0.578892 18.827147 -0.028816
v -0.573877 18.775187 0.006820
v -0.580000 18.879681 -0.060371
v -0.576636 18.880995 -0.060160
v -0.574493 18.829058 -0.028678
v -0.568432 18.777658 0.006816
v -0.570098 18.831400 -0.025883
v -0.562767 18.781382 0.010261
v -0.573497 18.881823 -0.058265
v -0.571418 18.881809 -0.054736
v -0.566684 18.833696 -0.020393
v -0.558045 18.785761 0.017279
v -0.344782 18.486107 0.382786
v -0.378985 18.524689 0.335000
v -0.373088 18.533676 0.343849
v -0.339272 18.494520 0.391378
v -0.308094 18.457197 0.435652
v -0.312847 18.449591 0.427172
v -0.336330 18.501442 0.399514
v -0.305562 18.463331 0.443889
v -0.369959 18.541130 0.352021
v -0.372083 18.545322 0.359828
v -0.338096 18.505136 0.407491
v -0.306904 18.466269 0.452119
v -0.343336 18.505400 0.413347
v -0.311131 18.465952 0.458346
v -0.378052 18.545975 0.365368
v -0.386460 18.542801 0.366741
v -0.350818 18.502028 0.415122
v -0.317254 18.462318 0.460577
v -0.359314 18.495890 0.413028
v -0.324301 18.456242 0.458917
v -0.395904 18.536648 0.364228
v -0.404979 18.528364 0.358111
v -0.367598 18.487862 0.407279
v -0.331301 18.448587 0.453474
v -0.374530 18.479195 0.398934
v -0.337295 18.440588 0.445361
v -0.412428 18.519211 0.349433
v -0.416990 18.510445 0.339240
v -0.378966 18.471140 0.389056
v -0.341322 18.433479 0.435691
v -0.380405 18.464819 0.379172
v -0.342885 18.428202 0.425935
v -0.418192 18.503342 0.329131
v -0.415559 18.499176 0.320709
v -0.378345 18.461357 0.370809
v -0.341484 18.425695 0.417565
v -0.373280 18.461155 0.365172
v -0.337469 18.426159 0.411698
v -0.409705 18.498491 0.315237
v -0.401247 18.501831 0.313981
v -0.365703 18.464611 0.363464
v -0.331190 18.429790 0.409450
v -0.357541 18.470587 0.366087
v -0.324230 18.435511 0.411421
v -0.392347 18.508020 0.317203
v -0.385166 18.515886 0.325164
v -0.350720 18.477940 0.373442
v -0.318171 18.442236 0.418212
v -0.408009 18.582256 0.299772
v -0.411023 18.574879 0.291245
v -0.448232 18.617758 0.236421
v -0.445343 18.624746 0.245244
v -0.416748 18.565918 0.281886
v -0.453716 18.609135 0.226675
v -0.416111 18.586992 0.312882
v -0.410175 18.586369 0.307577
v -0.447375 18.628462 0.252998
v -0.452979 18.628824 0.258067
v -0.433695 18.577902 0.310963
v -0.424405 18.583918 0.313909
v -0.460807 18.625751 0.258835
v -0.469613 18.619902 0.255595
v -0.449921 18.560583 0.295217
v -0.442619 18.569704 0.304352
v -0.478152 18.611938 0.248641
v -0.485184 18.603111 0.239213
v -0.455428 18.544641 0.274427
v -0.454346 18.551792 0.284700
v -0.489469 18.594667 0.228555
v -0.490554 18.587877 0.218290
v -0.446815 18.539715 0.260713
v -0.452699 18.540442 0.266028
v -0.487987 18.584013 0.210046
v -0.482412 18.583496 0.204924
v -0.429689 18.549133 0.263229
v -0.438434 18.542982 0.259692
v -0.474474 18.586748 0.204029
v -0.466163 18.592758 0.207670
v -0.422715 18.557056 0.271587
v -0.459468 18.600512 0.216155
v -0.219846 18.350254 0.542053
v -0.251144 18.381336 0.509167
v -0.248104 18.387590 0.517200
v -0.217082 18.355633 0.549082
v -0.215371 18.359455 0.556183
v -0.246510 18.392296 0.525211
v -0.247232 18.393835 0.533647
v -0.215262 18.360210 0.563981
v -0.216561 18.358265 0.570568
v -0.249749 18.392426 0.540474
v -0.253540 18.388281 0.543658
v -0.219078 18.353985 0.574035
v -0.222389 18.348188 0.574131
v -0.257990 18.382254 0.543042
v -0.262485 18.375195 0.538467
v -0.226070 18.341692 0.570601
v -0.229564 18.335533 0.564261
v -0.266412 18.368258 0.530969
v -0.269157 18.362595 0.521583
v -0.232314 18.330750 0.555924
v -0.233939 18.327923 0.546942
v -0.270374 18.358906 0.511803
v -0.269716 18.357899 0.503122
v -0.234060 18.327641 0.538667
v -0.232737 18.329727 0.532209
v -0.267336 18.359495 0.496640
v -0.263387 18.363621 0.493456
v -0.230032 18.334011 0.528679
v -0.226605 18.339409 0.529095
v -0.258863 18.369200 0.494490
v -0.254756 18.375156 0.500662
v -0.223115 18.344835 0.534472
v -0.527256 18.756697 0.088496
v -0.503711 18.712774 0.138194
v -0.506974 18.706741 0.129813
v -0.530566 18.751453 0.080291
v -0.536098 18.744793 0.071138
v -0.512800 18.699055 0.120482
v -0.533011 18.758650 0.099194
v -0.510487 18.715336 0.149602
v -0.505301 18.715590 0.145217
v -0.528427 18.759043 0.095189
v -0.548061 18.750616 0.095874
v -0.526697 18.706589 0.146841
v -0.518010 18.712152 0.150070
v -0.539943 18.755663 0.099335
v -0.562949 18.737076 0.080203
v -0.542621 18.691187 0.131165
v -0.535373 18.699186 0.140136
v -0.556205 18.744040 0.089077
v -0.567823 18.726252 0.061490
v -0.548280 18.678154 0.111617
v -0.547027 18.683825 0.121137
v -0.566867 18.730871 0.070517
v -0.561051 18.724373 0.050619
v -0.540995 18.675285 0.099703
v -0.546072 18.675230 0.104171
v -0.565682 18.724051 0.054598
v -0.547570 18.732180 0.053927
v -0.525704 18.684172 0.102667
v -0.533637 18.678555 0.099116
v -0.554534 18.727329 0.050330
v -0.518901 18.691267 0.110611
v -0.541596 18.738184 0.061607
v -0.276098 18.426935 0.486784
v -0.278073 18.421499 0.478492
v -0.281889 18.414558 0.470085
v -0.280604 18.428307 0.501894
v -0.277198 18.429178 0.495265
v -0.291244 18.418318 0.503446
v -0.285546 18.424398 0.504630
v -0.301789 18.403442 0.490354
v -0.296913 18.410929 0.498314
v -0.306448 18.392614 0.470806
v -0.305106 18.397068 0.480686
v -0.302201 18.391954 0.455995
v -0.305399 18.390896 0.462212
v -0.291370 18.401474 0.454744
v -0.297096 18.395838 0.453247
v -0.286312 18.407799 0.461263
v -0.485536 18.653673 0.172601
v -0.479873 18.661945 0.182233
v -0.476825 18.668522 0.190914
v -0.478684 18.671799 0.198349
v -0.484124 18.671833 0.203100
v -0.491820 18.668673 0.203730
v -0.500581 18.662907 0.200485
v -0.509213 18.655127 0.193613
v -0.516392 18.646587 0.184349
v -0.520795 18.638550 0.173925
v -0.522014 18.632206 0.163952
v -0.519643 18.628748 0.156040
v -0.514293 18.628506 0.151196
v -0.506579 18.631819 0.150427
v -0.498369 18.637735 0.154032
v -0.491528 18.645313 0.162312
vn 0.6931 0.6610 -0.2876
vn 0.6763 0.6821 -0.2779
vn 0.6643 0.4711 -0.5803
vn 0.6834 0.4566 -0.5696
vn 0.7356 0.4152 -0.5352
vn 0.7366 0.6126 -0.2867
vn 0.6647 0.3606 -0.6543
vn 0.7245 0.3391 -0.6001
vn 0.6402 0.3585 -0.6795
vn 0.3528 0.7564 0.5509
vn 0.3682 0.7605 0.5349
vn 0.5794 0.8037 0.1355
vn 0.5917 0.7963 0.1261
vn 0.6189 0.7763 0.1197
vn 0.3183 0.7517 0.5776
vn -0.3117 0.1571 0.9371
vn -0.2545 0.1973 0.9468
vn 0.0543 0.5349 0.8432
vn 0.0019 0.5066 0.8622
vn -0.1069 0.4669 0.8778
vn -0.4268 0.1060 0.8981
vn -0.6093 -0.4100 0.6787
vn -0.5855 -0.4154 0.6962
vn -0.4706 -0.1343 0.8721
vn -0.5094 -0.1560 0.8463
vn -0.5943 -0.1735 0.7853
vn -0.6716 -0.3840 0.6337
vn -0.5731 -0.8054 0.1512
vn -0.5441 -0.8299 0.1230
vn -0.6131 -0.6510 0.4475
vn -0.6344 -0.6266 0.4527
vn -0.6916 -0.5689 0.4450
vn -0.6401 -0.7459 0.1841
vn -0.0938 -0.7957 -0.5984
vn -0.0829 -0.7878 -0.6103
vn -0.3609 -0.8961 -0.2583
vn -0.3935 -0.8911 -0.2259
vn -0.4615 -0.8688 -0.1793
vn -0.1122 -0.8072 -0.5795
vn 0.5309 -0.0595 -0.8453
vn 0.4954 -0.0822 -0.8648
vn 0.2266 -0.5004 -0.8356
vn 0.2499 -0.4926 -0.8336
vn 0.3018 -0.4886 -0.8186
vn 0.6042 -0.0459 -0.7955
vn 0.6184 0.2462 -0.7463
vn 0.6475 0.2619 -0.7157
vn 0.7122 0.2577 -0.6530
vn 0.9137 -0.1534 -0.3763
vn 0.9176 -0.1663 -0.3612
vn 0.9452 -0.1053 -0.3089
vn 0.9364 -0.1033 -0.3354
vn 0.9193 -0.0750 -0.3864
vn 0.9015 -0.1174 -0.4166
vn 0.9749 0.2182 -0.0440
vn 0.9687 0.1966 -0.1512
vn 0.9644 0.2623 0.0334
vn 0.5095 0.6910 0.5127
vn 0.6019 0.6634 0.4446
vn 0.6968 0.6348 0.3339
vn -0.0441 0.7467 0.6637
vn 0.0278 0.7558 0.6542
vn -0.0932 0.7391 0.6672
vn -0.4462 0.6287 0.6369
vn -0.4543 0.6176 0.6420
vn -0.4545 0.5969 0.6611
vn -0.6675 0.4833 0.5664
vn -0.6812 0.4408 0.5845
vn -0.6509 0.5062 0.5658
vn -0.7973 0.3806 0.4684
vn -0.8074 0.3566 0.4701
vn -0.8142 0.3079 0.4923
vn -0.9179 0.2170 0.3323
vn -0.9136 0.1683 0.3701
vn -0.9168 0.2372 0.3214
vn -0.9940 0.0574 0.0930
vn -0.9910 0.0460 0.1254
vn -0.9807 0.0015 0.1954
vn -0.9636 -0.1803 -0.1971
vn -0.9719 -0.2215 -0.0791
vn -0.9479 -0.1800 -0.2628
vn -0.6095 -0.4244 -0.6697
vn -0.6628 -0.4363 -0.6086
vn -0.7161 -0.4998 -0.4872
vn -0.0724 -0.5446 -0.8355
vn -0.1043 -0.6189 -0.7785
vn -0.0427 -0.5178 -0.8544
vn 0.4300 -0.4568 -0.7788
vn 0.4433 -0.4631 -0.7675
vn 0.4561 -0.4881 -0.7441
vn 0.7540 -0.3121 -0.5780
vn 0.7612 -0.2929 -0.5786
vn 0.7408 -0.3263 -0.5871
vn 0.8907 -0.2013 -0.4075
vn 0.8918 -0.1843 -0.4131
vn 0.8844 -0.1491 -0.4422
vn 0.8288 0.0435 -0.5578
vn 0.8281 0.0391 -0.5592
vn 0.8465 0.1049 -0.5219
vn 0.8524 0.1116 -0.5108
vn 0.8631 0.1479 -0.4829
vn 0.8380 0.0761 -0.5404
vn 0.8751 0.3933 -0.2819
vn 0.8752 0.4100 -0.2568
vn 0.8667 0.4001 -0.2980
vn 0.6486 0.7480 0.1409
vn 0.6683 0.7283 0.1512
vn 0.6747 0.7217 0.1547
vn 0.1643 0.8024 0.5737
vn 0.1732 0.7999 0.5746
vn 0.1432 0.8160 0.5600
vn -0.3399 0.5945 0.7288
vn -0.3343 0.5785 0.7440
vn -0.3490 0.5658 0.7470
vn -0.6037 0.3209 0.7298
vn -0.6279 0.2895 0.7224
vn -0.6036 0.3458 0.7184
vn -0.7443 0.1388 0.6533
vn -0.7407 0.1087 0.6630
vn -0.7587 0.0692 0.6477
vn -0.8164 -0.0822 0.5716
vn -0.8233 -0.1198 0.5548
vn -0.8264 -0.0519 0.5606
vn -0.8663 -0.2553 0.4294
vn -0.8513 -0.2833 0.4415
vn -0.8474 -0.3154 0.4272
vn -0.8182 -0.5286 0.2261
vn -0.8061 -0.5513 0.2150
vn -0.8358 -0.5054 0.2145
vn -0.6199 -0.7717 -0.1418
vn -0.6050 -0.7851 -0.1329
vn -0.5929 -0.7931 -0.1392
vn -0.1209 -0.8353 -0.5363
vn -0.1200 -0.8325 -0.5409
vn -0.1225 -0.8326 -0.5401
vn 0.3828 -0.5878 -0.7128
vn 0.3734 -0.5879 -0.7177
vn 0.3719 -0.5782 -0.7262
vn 0.6769 -0.2593 -0.6889
vn 0.6807 -0.2382 -0.6927
vn 0.6860 -0.2594 -0.6798
vn 0.8097 -0.0186 -0.5865
vn 0.8049 -0.0180 -0.5931
vn 0.8099 0.0084 -0.5865
vn 0.8654 0.4081 -0.2908
vn 0.8536 0.1125 -0.5086
vn 0.8740 0.0934 -0.4768
vn 0.8873 0.3828 -0.2572
vn 0.8386 0.0467 -0.5427
vn 0.8564 0.0295 -0.5155
vn 0.1200 0.8248 0.5525
vn 0.6358 0.7587 0.1420
vn 0.6460 0.7429 0.1754
vn 0.1022 0.8169 0.5676
vn -0.6254 0.3540 0.6953
vn -0.3634 0.6011 0.7118
vn -0.3893 0.5997 0.6991
vn -0.6485 0.3610 0.6702
vn -0.8453 -0.0333 0.5333
vn -0.7642 0.1516 0.6269
vn -0.7833 0.1659 0.5991
vn -0.8620 -0.0128 0.5068
vn -0.8550 -0.4821 0.1911
vn -0.8851 -0.2329 0.4030
vn -0.9021 -0.2070 0.3787
vn -0.8748 -0.4553 0.1657
vn -0.1222 -0.8235 -0.5540
vn -0.6353 -0.7549 -0.1628
vn -0.6508 -0.7340 -0.1942
vn -0.1197 -0.8060 -0.5797
vn 0.7022 -0.2498 -0.6667
vn 0.3973 -0.5789 -0.7121
vn 0.4105 -0.5655 -0.7154
vn 0.7157 -0.2499 -0.6521
vn 0.8222 -0.0110 -0.5691
vn 0.8368 -0.0251 -0.5469
vn 0.7853 0.2884 -0.5479
vn 0.8268 0.2210 -0.5173
vn 0.8407 0.2933 -0.4552
vn 0.7948 0.3613 -0.4877
vn 0.7855 0.5625 -0.2581
vn 0.8287 0.5088 -0.2329
vn 0.6564 0.7395 0.1492
vn 0.6418 0.7553 0.1331
vn 0.2741 0.7583 0.5915
vn 0.2219 0.7782 0.5875
vn -0.3085 0.5017 0.8082
vn -0.2153 0.4662 0.8581
vn -0.5354 0.1089 0.8375
vn -0.6178 0.1639 0.7691
vn -0.7484 -0.0824 0.6582
vn -0.6813 -0.1495 0.7166
vn -0.7424 -0.3379 0.5785
vn -0.7995 -0.2677 0.5378
vn -0.8067 -0.4419 0.3923
vn -0.7553 -0.5075 0.4146
vn -0.7044 -0.6860 0.1822
vn -0.7520 -0.6349 0.1770
vn -0.5526 -0.8177 -0.1612
vn -0.5179 -0.8395 -0.1644
vn -0.1210 -0.8138 -0.5684
vn -0.1212 -0.8200 -0.5594
vn 0.3713 -0.5284 -0.7635
vn 0.3477 -0.5030 -0.7913
vn 0.6641 -0.0752 -0.7439
vn 0.6923 -0.1272 -0.7103
vn 0.8068 0.1461 -0.5725
vn 0.7716 0.2116 -0.5999
vn 0.9498 0.2446 -0.1951
vn 0.9337 0.2901 -0.2100
vn 0.8967 0.0031 -0.4427
vn 0.9046 -0.0311 -0.4250
vn 0.8844 -0.0822 -0.4595
vn 0.8731 -0.0556 -0.4843
vn 0.0564 0.7650 0.6415
vn 0.0696 0.7814 0.6202
vn 0.6755 0.6908 0.2577
vn 0.6945 0.6606 0.2852
vn -0.6697 0.4148 0.6160
vn -0.6585 0.4020 0.6362
vn -0.4154 0.5952 0.6879
vn -0.4340 0.5888 0.6819
vn -0.8989 0.1204 0.4212
vn -0.8837 0.0776 0.4615
vn -0.7932 0.2393 0.5600
vn -0.8033 0.2695 0.5310
vn -0.9556 -0.2942 0.0146
vn -0.9299 -0.3575 0.0863
vn -0.9408 -0.1086 0.3211
vn -0.9625 -0.0560 0.2656
vn -0.1067 -0.6954 -0.7107
vn -0.1100 -0.7447 -0.6582
vn -0.6908 -0.6561 -0.3038
vn -0.7099 -0.5901 -0.3846
vn 0.7434 -0.2903 -0.6025
vn 0.7256 -0.2863 -0.6258
vn 0.4290 -0.5424 -0.7223
vn 0.4458 -0.5213 -0.7277
vn 0.8498 -0.1033 -0.5169
vn 0.8650 -0.1239 -0.4863
vn 0.8613 0.4510 -0.2340
vn 0.8645 0.2123 -0.4557
vn 0.8434 0.1393 -0.5189
vn 0.1846 0.7964 0.5759
vn 0.6686 0.7273 0.1550
vn -0.6472 0.2394 0.7237
vn -0.3545 0.5444 0.7602
vn -0.8271 -0.1812 0.5320
vn -0.7736 0.0067 0.6337
vn -0.7876 -0.5859 0.1908
vn -0.8391 -0.3681 0.4005
vn -0.1201 -0.8266 -0.5499
vn -0.5773 -0.8021 -0.1527
vn 0.6924 -0.1905 -0.6959
vn 0.3754 -0.5571 -0.7408
vn 0.8168 0.0679 -0.5729
vn 0.8681 -0.0151 -0.4962
vn 0.8905 0.0457 -0.4526
vn 0.9152 0.3344 -0.2247
vn 0.6619 0.7160 0.2220
vn 0.0850 0.8002 0.5936
vn -0.4048 0.5998 0.6902
vn -0.6566 0.3824 0.6502
vn -0.7905 0.2008 0.5786
vn -0.8732 0.0281 0.4865
vn -0.9200 -0.1640 0.3560
vn -0.9000 -0.4146 0.1349
vn -0.6691 -0.7033 -0.2402
vn -0.1152 -0.7796 -0.6156
vn 0.4187 -0.5538 -0.7197
vn 0.7201 -0.2677 -0.6402
vn 0.8444 -0.0656 -0.5317
usemtl material1709.003
s 1
f 1//1 2//2 3//3 4//4
f 5//5 6//6 1//1 4//4
f 7//7 8//8 5//5 4//4
f 3//3 9//9 7//7 4//4
f 10//10 11//11 12//12 13//13
f 14//14 15//15 10//10 13//13
f 1//1 6//6 14//14 13//13
f 12//12 2//2 1//1 13//13
f 16//16 17//17 18//18 19//19
f 20//20 21//21 16//16 19//19
f 10//10 15//15 20//20 19//19
f 18//18 11//11 10//10 19//19
f 22//22 23//23 24//24 25//25
f 26//26 27//27 22//22 25//25
f 16//16 21//21 26//26 25//25
f 24//24 17//17 16//16 25//25
f 28//28 29//29 30//30 31//31
f 32//32 33//33 28//28 31//31
f 22//22 27//27 32//32 31//31
f 30//30 23//23 22//22 31//31
f 34//34 35//35 36//36 37//37
f 38//38 39//39 34//34 37//37
f 28//28 33//33 38//38 37//37
f 36//36 29//29 28//28 37//37
f 40//40 41//41 42//42 43//43
f 44//44 45//45 40//40 43//43
f 34//34 39//39 44//44 43//43
f 42//42 35//35 34//34 43//43
f 7//7 9//9 46//46 47//47
f 48//48 8//8 7//7 47//47
f 40//40 45//45 48//48 47//47
f 46//46 41//41 40//40 47//47
f 49//49 50//50 51//51 52//52
f 53//53 54//54 49//49 52//52
f 55//55 56//56 53//53 52//52
f 51//51 57//57 55//55 52//52
f 55//55 57//57 58//58 59//59
f 60//60 56//56 55//55 59//59
f 61//61 62//62 60//60 59//59
f 58//58 63//63 61//61 59//59
f 61//61 63//63 64//64 65//65
f 66//66 62//62 61//61 65//65
f 67//67 68//68 66//66 65//65
f 64//64 69//69 67//67 65//65
f 67//67 69//69 70//70 71//71
f 72//72 68//68 67//67 71//71
f 73//73 74//74 72//72 71//71
f 70//70 75//75 73//73 71//71
f 73//73 75//75 76//76 77//77
f 78//78 74//74 73//73 77//77
f 79//79 80//80 78//78 77//77
f 76//76 81//81 79//79 77//77
f 79//79 81//81 82//82 83//83
f 84//84 80//80 79//79 83//83
f 85//85 86//86 84//84 83//83
f 82//82 87//87 85//85 83//83
f 85//85 87//87 88//88 89//89
f 90//90 86//86 85//85 89//89
f 91//91 92//92 90//90 89//89
f 88//88 93//93 91//91 89//89
f 91//91 93//93 94//94 95//95
f 96//96 92//92 91//91 95//95
f 49//49 54//54 96//96 95//95
f 94//94 50//50 49//49 95//95
f 97//97 98//98 99//99 100//100
f 101//101 102//102 97//97 100//100
f 103//103 104//104 101//101 100//100
f 99//99 105//105 103//103 100//100
f 103//103 105//105 106//106 107//107
f 108//108 104//104 103//103 107//107
f 109//109 110//110 108//108 107//107
f 106//106 111//111 109//109 107//107
f 109//109 111//111 112//112 113//113
f 114//114 110//110 109//109 113//113
f 115//115 116//116 114//114 113//113
f 112//112 117//117 115//115 113//113
f 115//115 117//117 118//118 119//119
f 120//120 116//116 115//115 119//119
f 121//121 122//122 120//120 119//119
f 118//118 123//123 121//121 119//119
f 121//121 123//123 124//124 125//125
f 126//126 122//122 121//121 125//125
f 127//127 128//128 126//126 125//125
f 124//124 129//129 127//127 125//125
f 127//127 129//129 130//130 131//131
f 132//132 128//128 127//127 131//131
f 133//133 134//134 132//132 131//131
f 130//130 135//135 133//133 131//131
f 133//133 135//135 136//136 137//137
f 138//138 134//134 133//133 137//137
f 139//139 140//140 138//138 137//137
f 136//136 141//141 139//139 137//137
f 139//139 141//141 142//142 143//143
f 144//144 140//140 139//139 143//143
f 97//97 102//102 144//144 143//143
f 142//142 98//98 97//97 143//143
f 145//145 105//105 99//99 146//146
f 147//147 148//148 145//145 146//146
f 149//149 150//150 147//147 146//146
f 99//99 98//98 149//149 146//146
f 151//151 111//111 106//106 152//152
f 153//153 154//154 151//151 152//152
f 145//145 148//148 153//153 152//152
f 106//106 105//105 145//145 152//152
f 155//155 117//117 112//112 156//156
f 157//157 158//158 155//155 156//156
f 151//151 154//154 157//157 156//156
f 112//112 111//111 151//151 156//156
f 159//159 123//123 118//118 160//160
f 161//161 162//162 159//159 160//160
f 155//155 158//158 161//161 160//160
f 118//118 117//117 155//155 160//160
f 163//163 129//129 124//124 164//164
f 165//165 166//166 163//163 164//164
f 159//159 162//162 165//165 164//164
f 124//124 123//123 159//159 164//164
f 167//167 135//135 130//130 168//168
f 169//169 170//170 167//167 168//168
f 163//163 166//166 169//169 168//168
f 130//130 129//129 163//163 168//168
f 171//171 141//141 136//136 172//172
f 173//173 174//174 171//171 172//172
f 167//167 170//170 173//173 172//172
f 136//136 135//135 167//167 172//172
f 149//149 98//98 142//142 175//175
f 176//176 150//150 149//149 175//175
f 171//171 174//174 176//176 175//175
f 142//142 141//141 171//171 175//175
f 177//177 178//178 179//179 180//180
f 5//5 8//8 177//177 180//180
f 181//181 6//6 5//5 180//180
f 179//179 182//182 181//181 180//180
f 181//181 182//182 183//183 184//184
f 14//14 6//6 181//181 184//184
f 185//185 15//15 14//14 184//184
f 183//183 186//186 185//185 184//184
f 185//185 186//186 187//187 188//188
f 20//20 15//15 185//185 188//188
f 189//189 21//21 20//20 188//188
f 187//187 190//190 189//189 188//188
f 189//189 190//190 191//191 192//192
f 26//26 21//21 189//189 192//192
f 193//193 27//27 26//26 192//192
f 191//191 194//194 193//193 192//192
f 193//193 194//194 195//195 196//196
f 32//32 27//27 193//193 196//196
f 197//197 33//33 32//32 196//196
f 195//195 198//198 197//197 196//196
f 197//197 198//198 199//199 200//200
f 38//38 33//33 197//197 200//200
f 201//201 39//39 38//38 200//200
f 199//199 202//202 201//201 200//200
f 201//201 202//202 203//203 204//204
f 44//44 39//39 201//201 204//204
f 205//205 45//45 44//44 204//204
f 203//203 206//206 205//205 204//204
f 205//205 206//206 207//207 208//208
f 48//48 45//45 205//205 208//208
f 177//177 8//8 48//48 208//208
f 207//207 178//178 177//177 208//208
f 209//209 210//210 211//211 212//212
f 53//53 56//56 209//209 212//212
f 213//213 54//54 53//53 212//212
f 211//211 214//214 213//213 212//212
f 215//215 216//216 217//217 218//218
f 60//60 62//62 215//215 218//218
f 209//209 56//56 60//60 218//218
f 217//217 210//210 209//209 218//218
f 219//219 220//220 221//221 222//222
f 66//66 68//68 219//219 222//222
f 215//215 62//62 66//66 222//222
f 221//221 216//216 215//215 222//222
f 223//223 224//224 225//225 226//226
f 72//72 74//74 223//223 226//226
f 219//219 68//68 72//72 226//226
f 225//225 220//220 219//219 226//226
f 227//227 228//228 229//229 230//230
f 78//78 80//80 227//227 230//230
f 223//223 74//74 78//78 230//230
f 229//229 224//224 223//223 230//230
f 231//231 232//232 233//233 234//234
f 84//84 86//86 231//231 234//234
f 227//227 80//80 84//84 234//234
f 233//233 228//228 227//227 234//234
f 235//235 236//236 237//237 238//238
f 90//90 92//92 235//235 238//238
f 231//231 86//86 90//90 238//238
f 237//237 232//232 231//231 238//238
f 213//213 214//214 239//239 240//240
f 96//96 54//54 213//213 240//240
f 235//235 92//92 96//96 240//240
f 239//239 236//236 235//235 240//240
f 241//241 182//182 179//179 242//242
f 101//101 104//104 241//241 242//242
f 243//243 102//102 101//101 242//242
f 179//179 178//178 243//243 242//242
f 244//244 186//186 183//183 245//245
f 108//108 110//110 244//244 245//245
f 241//241 104//104 108//108 245//245
f 183//183 182//182 241//241 245//245
f 246//246 190//190 187//187 247//247
f 114//114 116//116 246//246 247//247
f 244//244 110//110 114//114 247//247
f 187//187 186//186 244//244 247//247
f 248//248 194//194 191//191 249//249
f 120//120 122//122 248//248 249//249
f 246//246 116//116 120//120 249//249
f 191//191 190//190 246//246 249//249
f 250//250 198//198 195//195 251//251
f 126//126 128//128 250//250 251//251
f 248//248 122//122 126//126 251//251
f 195//195 194//194 248//248 251//251
f 252//252 202//202 199//199 253//253
f 132//132 134//134 252//252 253//253
f 250//250 128//128 132//132 253//253
f 199//199 198//198 250//250 253//253
f 254//254 206//206 203//203 255//255
f 138//138 140//140 254//254 255//255
f 252//252 134//134 138//138 255//255
f 203//203 202//202 252//252 255//255
f 243//243 178//178 207//207 256//256
f 144//144 102//102 243//243 256//256
f 254//254 140//140 144//144 256//256
f 207//207 206//206 254//254 256//256
f 257//257 214//214 211//211 258//258
f 147//147 150//150 257//257 258//258
f 259//259 148//148 147//147 258//258
f 211//211 210//210 259//259 258//258
f 259//259 210//210 217//217 260//260
f 153//153 148//148 259//259 260//260
f 261//261 154//154 153//153 260//260
f 217//217 216//216 261//261 260//260
f 261//261 216//216 221//221 262//262
f 157//157 154//154 261//261 262//262
f 263//263 158//158 157//157 262//262
f 221//221 220//220 263//263 262//262
f 263//263 220//220 225//225 264//264
f 161//161 158//158 263//263 264//264
f 265//265 162//162 161//161 264//264
f 225//225 224//224 265//265 264//264
f 265//265 224//224 229//229 266//266
f 165//165 162//162 265//265 266//266
f 267//267 166//166 165//165 266//266
f 229//229 228//228 267//267 266//266
f 267//267 228//228 233//233 268//268
f 169//169 166//166 267//267 268//268
f 269//269 170//170 169//169 268//268
f 233//233 232//232 269//269 268//268
f 269//269 232//232 237//237 270//270
f 173//173 170//170 269//269 270//270
f 271//271 174//174 173//173 270//270
f 237//237 236//236 271//271 270//270
f 271//271 236//236 239//239 272//272
f 176//176 174//174 271//271 272//272
f 257//257 150//150 176//176 272//272
f 239//239 214//214 257//257 272//272
