# Blender v3.2.1 OBJ File: ''
# www.blender.org
mtllib stylohyoid_left.mtl
o Stylohyoid_Muscle_Left
v 0.151061 18.298689 0.595783
v 0.116589 18.272724 0.614016
v 0.114747 18.273285 0.617336
v 0.149102 18.300402 0.600382
v 0.182847 18.328722 0.580855
v 0.184802 18.325907 0.574992
v 0.187438 18.321564 0.569329
v 0.153362 18.295511 0.591576
v 0.118452 18.270781 0.611309
v 0.147289 18.299458 0.606261
v 0.112290 18.271467 0.622230
v 0.109985 18.268013 0.627316
v 0.146096 18.296490 0.611868
v 0.181768 18.326172 0.593819
v 0.181782 18.328638 0.587707
v 0.145995 18.292131 0.615649
v 0.108600 18.263662 0.631211
v 0.108251 18.259142 0.633432
v 0.146934 18.287132 0.617199
v 0.185139 18.316391 0.598316
v 0.182963 18.321829 0.597465
v 0.148858 18.282240 0.616111
v 0.109055 18.255175 0.633496
v 0.110810 18.252300 0.631550
v 0.151395 18.278170 0.612720
v 0.191230 18.305447 0.591191
v 0.188063 18.310635 0.596041
v 0.154170 18.275637 0.607363
v 0.113317 18.251053 0.627739
v 0.116174 18.251472 0.622762
v 0.156749 18.274887 0.600958
v 0.196334 18.299854 0.576552
v 0.194133 18.301706 0.584315
v 0.158699 18.276176 0.594422
v 0.118981 18.253601 0.617315
v 0.121323 18.257008 0.612227
v 0.159797 18.279158 0.588733
v 0.197269 18.302876 0.562855
v 0.197399 18.300331 0.569037
v 0.159822 18.283485 0.584868
v 0.122789 18.261263 0.608327
v 0.122848 18.265402 0.606656
v 0.158660 18.288130 0.583892
v 0.193552 18.312315 0.558811
v 0.195891 18.307228 0.559091
v 0.156201 18.292067 0.586870
v 0.120970 18.268457 0.608253
v 0.190545 18.317062 0.563079
v 0.560339 18.838783 -0.006996
v 0.568276 18.881443 -0.046211
v 0.569859 18.881500 -0.050432
v 0.563636 18.836105 -0.013625
v 0.553640 18.790579 0.025969
v 0.548928 18.795622 0.034432
v 0.545981 18.799601 0.042010
v 0.558409 18.840797 -0.001079
v 0.567688 18.881142 -0.042469
v 0.559460 18.841213 0.003556
v 0.569115 18.880096 -0.039603
v 0.546875 18.801229 0.048044
v 0.550749 18.800667 0.051497
v 0.562752 18.840282 0.006130
v 0.571886 18.878696 -0.038071
v 0.567541 18.838255 0.005865
v 0.575336 18.877321 -0.038331
v 0.556744 18.798075 0.051330
v 0.563781 18.793940 0.047847
v 0.572966 18.835506 0.003023
v 0.578884 18.876196 -0.040199
v 0.578161 18.832413 -0.002133
v 0.581951 18.875536 -0.043491
v 0.570778 18.788757 0.041349
v 0.576455 18.783455 0.033070
v 0.582224 18.829515 -0.008630
v 0.584123 18.875422 -0.047614
v 0.584248 18.827366 -0.015496
v 0.584985 18.875929 -0.051973
v 0.579534 18.778961 0.024246
v 0.580025 18.775818 0.016174
v 0.584268 18.826172 -0.021731
v 0.584531 18.876917 -0.055930
v 0.582316 18.826141 -0.026336
v 0.582750 18.878244 -0.058845
v 0.577941 18.774567 0.010153
v 0.573877 18.775187 0.006820
v 0.578892 18.827147 -0.028816
v 0.580000 18.879681 -0.060371
v 0.574493 18.829058 -0.028678
v 0.576636 18.880995 -0.060160
v 0.568432 18.777658 0.006816
v 0.562767 18.781382 0.010261
v 0.570098 18.831400 -0.025883
v 0.573497 18.881823 -0.058265
v 0.566684 18.833696 -0.020393
v 0.571418 18.881809 -0.054736
v 0.558045 18.785761 0.017279
v 0.339272 18.494520 0.391378
v 0.373088 18.533676 0.343849
v 0.378985 18.524689 0.335000
v 0.344782 18.486107 0.382786
v 0.312847 18.449591 0.427172
v 0.308094 18.457197 0.435652
v 0.305562 18.463331 0.443889
v 0.336330 18.501442 0.399514
v 0.369959 18.541130 0.352021
v 0.338096 18.505136 0.407491
v 0.372083 18.545322 0.359828
v 0.306904 18.466269 0.452119
v 0.311131 18.465952 0.458346
v 0.343336 18.505400 0.413347
v 0.378052 18.545975 0.365368
v 0.350818 18.502028 0.415122
v 0.386460 18.542801 0.366741
v 0.317254 18.462318 0.460577
v 0.324301 18.456242 0.458917
v 0.359314 18.495890 0.413028
v 0.395904 18.536648 0.364228
v 0.367598 18.487862 0.407279
v 0.404979 18.528364 0.358111
v 0.331301 18.448587 0.453474
v 0.337295 18.440588 0.445361
v 0.374530 18.479195 0.398934
v 0.412428 18.519211 0.349433
v 0.378966 18.471140 0.389056
v 0.416990 18.510445 0.339240
v 0.341322 18.433479 0.435691
v 0.342885 18.428202 0.425935
v 0.380405 18.464819 0.379172
v 0.418192 18.503342 0.329131
v 0.378345 18.461357 0.370809
v 0.415559 18.499176 0.320709
v 0.341484 18.425695 0.417565
v 0.337469 18.426159 0.411698
v 0.373280 18.461155 0.365172
v 0.409705 18.498491 0.315237
v 0.365703 18.464611 0.363464
v 0.401247 18.501831 0.313981
v 0.331190 18.429790 0.409450
v 0.324230 18.435511 0.411421
v 0.357541 18.470587 0.366087
v 0.392347 18.508020 0.317203
v 0.350720 18.477940 0.373442
v 0.385166 18.515886 0.325164
v 0.318171 18.442236 0.418212
v 0.411023 18.574879 0.291245
v 0.408009 18.582256 0.299772
v 0.445343 18.624746 0.245244
v 0.448232 18.617758 0.236421
v 0.453716 18.609135 0.226675
v 0.416748 18.565918 0.281886
v 0.410175 18.586369 0.307577
v 0.416111 18.586992 0.312882
v 0.452979 18.628824 0.258067
v 0.447375 18.628462 0.252998
v 0.424405 18.583918 0.313909
v 0.433695 18.577902 0.310963
v 0.469613 18.619902 0.255595
v 0.460807 18.625751 0.258835
v 0.442619 18.569704 0.304352
v 0.449921 18.560583 0.295217
v 0.485184 18.603111 0.239213
v 0.478152 18.611938 0.248641
v 0.454346 18.551792 0.284700
v 0.455428 18.544641 0.274427
v 0.490554 18.587877 0.218290
v 0.489469 18.594667 0.228555
v 0.452699 18.540442 0.266028
v 0.446815 18.539715 0.260713
v 0.482412 18.583496 0.204924
v 0.487987 18.584013 0.210046
v 0.438434 18.542982 0.259692
v 0.429689 18.549133 0.263229
v 0.466163 18.592758 0.207670
v 0.474474 18.586748 0.204029
v 0.422715 18.557056 0.271587
v 0.459468 18.600512 0.216155
v 0.217082 18.355633 0.549082
v 0.248104 18.387590 0.517200
v 0.251144 18.381336 0.509167
v 0.219846 18.350254 0.542053
v 0.215371 18.359455 0.556183
v 0.246510 18.392296 0.525211
v 0.215262 18.360210 0.563981
v 0.247232 18.393835 0.533647
v 0.216561 18.358265 0.570568
v 0.249749 18.392426 0.540474
v 0.219078 18.353985 0.574035
v 0.253540 18.388281 0.543658
v 0.222389 18.348188 0.574131
v 0.257990 18.382254 0.543042
v 0.226070 18.341692 0.570601
v 0.262485 18.375195 0.538467
v 0.229564 18.335533 0.564261
v 0.266412 18.368258 0.530969
v 0.232314 18.330750 0.555924
v 0.269157 18.362595 0.521583
v 0.233939 18.327923 0.546942
v 0.270374 18.358906 0.511803
v 0.234060 18.327641 0.538667
v 0.269716 18.357899 0.503122
v 0.232737 18.329727 0.532209
v 0.267336 18.359495 0.496640
v 0.230032 18.334011 0.528679
v 0.263387 18.363621 0.493456
v 0.226605 18.339409 0.529095
v 0.258863 18.369200 0.494490
v 0.223115 18.344835 0.534472
v 0.254756 18.375156 0.500662
v 0.530566 18.751453 0.080291
v 0.506974 18.706741 0.129813
v 0.503711 18.712774 0.138194
v 0.527256 18.756697 0.088496
v 0.536098 18.744793 0.071138
v 0.512800 18.699055 0.120482
v 0.528427 18.759043 0.095189
v 0.505301 18.715590 0.145217
v 0.510487 18.715336 0.149602
v 0.533011 18.758650 0.099194
v 0.539943 18.755663 0.099335
v 0.518010 18.712152 0.150070
v 0.526697 18.706589 0.146841
v 0.548061 18.750616 0.095874
v 0.556205 18.744040 0.089077
v 0.535373 18.699186 0.140136
v 0.542621 18.691187 0.131165
v 0.562949 18.737076 0.080203
v 0.566867 18.730871 0.070517
v 0.547027 18.683825 0.121137
v 0.548280 18.678154 0.111617
v 0.567823 18.726252 0.061490
v 0.565682 18.724051 0.054598
v 0.546072 18.675230 0.104171
v 0.540995 18.675285 0.099703
v 0.561051 18.724373 0.050619
v 0.554534 18.727329 0.050330
v 0.533637 18.678555 0.099116
v 0.525704 18.684172 0.102667
v 0.547570 18.732180 0.053927
v 0.541596 18.738184 0.061607
v 0.518901 18.691267 0.110611
v 0.278073 18.421499 0.478492
v 0.276098 18.426935 0.486784
v 0.281889 18.414558 0.470085
v 0.277198 18.429178 0.495265
v 0.280604 18.428307 0.501894
v 0.285546 18.424398 0.504630
v 0.291244 18.418318 0.503446
v 0.296913 18.410929 0.498314
v 0.301789 18.403442 0.490354
v 0.305106 18.397068 0.480686
v 0.306448 18.392614 0.470806
v 0.305399 18.390896 0.462212
v 0.302201 18.391954 0.455995
v 0.297096 18.395838 0.453247
v 0.291370 18.401474 0.454744
v 0.286312 18.407799 0.461263
v 0.479873 18.661945 0.182233
v 0.485536 18.653673 0.172601
v 0.476825 18.668522 0.190914
v 0.478684 18.671799 0.198349
v 0.484124 18.671833 0.203100
v 0.491820 18.668673 0.203730
v 0.500581 18.662907 0.200485
v 0.509213 18.655127 0.193613
v 0.516392 18.646587 0.184349
v 0.520795 18.638550 0.173925
v 0.522014 18.632206 0.163952
v 0.519643 18.628748 0.156040
v 0.514293 18.628506 0.151196
v 0.506579 18.631819 0.150427
v 0.498369 18.637735 0.154032
v 0.491528 18.645313 0.162312
vn -0.6834 0.4566 -0.5696
vn -0.6643 0.4711 -0.5803
vn -0.6763 0.6821 -0.2779
vn -0.6931 0.6609 -0.2877
vn -0.7366 0.6126 -0.2866
vn -0.7356 0.4152 -0.5352
vn -0.7245 0.3391 -0.6001
vn -0.6647 0.3606 -0.6543
vn -0.6402 0.3585 -0.6795
vn -0.5917 0.7962 0.1261
vn -0.5794 0.8037 0.1355
vn -0.3682 0.7605 0.5349
vn -0.3528 0.7564 0.5509
vn -0.3183 0.7517 0.5776
vn -0.6190 0.7763 0.1197
vn -0.0019 0.5066 0.8622
vn -0.0543 0.5349 0.8432
vn 0.2545 0.1972 0.9468
vn 0.3117 0.1571 0.9371
vn 0.4268 0.1060 0.8981
vn 0.1069 0.4669 0.8778
vn 0.5093 -0.1560 0.8463
vn 0.4706 -0.1343 0.8721
vn 0.5855 -0.4153 0.6962
vn 0.6093 -0.4100 0.6787
vn 0.6716 -0.3839 0.6337
vn 0.5943 -0.1735 0.7853
vn 0.6344 -0.6266 0.4527
vn 0.6131 -0.6510 0.4475
vn 0.5441 -0.8300 0.1230
vn 0.5731 -0.8054 0.1512
vn 0.6402 -0.7458 0.1841
vn 0.6916 -0.5689 0.4450
vn 0.3935 -0.8911 -0.2259
vn 0.3609 -0.8961 -0.2584
vn 0.0829 -0.7878 -0.6103
vn 0.0938 -0.7957 -0.5984
vn 0.1122 -0.8072 -0.5795
vn 0.4615 -0.8688 -0.1793
vn -0.2499 -0.4926 -0.8336
vn -0.2266 -0.5004 -0.8356
vn -0.4954 -0.0822 -0.8648
vn -0.5309 -0.0595 -0.8453
vn -0.6042 -0.0459 -0.7955
vn -0.3018 -0.4887 -0.8186
vn -0.6475 0.2619 -0.7157
vn -0.6184 0.2462 -0.7463
vn -0.7121 0.2577 -0.6530
vn -0.9364 -0.1033 -0.3354
vn -0.9452 -0.1053 -0.3089
vn -0.9176 -0.1663 -0.3612
vn -0.9137 -0.1535 -0.3763
vn -0.9015 -0.1174 -0.4166
vn -0.9193 -0.0750 -0.3864
vn -0.9688 0.1966 -0.1512
vn -0.9749 0.2182 -0.0440
vn -0.9644 0.2624 0.0334
vn -0.6019 0.6634 0.4446
vn -0.5095 0.6910 0.5127
vn -0.6968 0.6348 0.3339
vn -0.0278 0.7558 0.6542
vn 0.0441 0.7467 0.6637
vn 0.0932 0.7391 0.6672
vn 0.4543 0.6176 0.6420
vn 0.4461 0.6287 0.6369
vn 0.4545 0.5969 0.6611
vn 0.6812 0.4408 0.5845
vn 0.6675 0.4833 0.5665
vn 0.6508 0.5062 0.5658
vn 0.8074 0.3566 0.4701
vn 0.7973 0.3806 0.4684
vn 0.8142 0.3079 0.4923
vn 0.9136 0.1683 0.3701
vn 0.9179 0.2169 0.3323
vn 0.9168 0.2372 0.3214
vn 0.9910 0.0460 0.1254
vn 0.9940 0.0574 0.0930
vn 0.9807 0.0015 0.1954
vn 0.9719 -0.2215 -0.0791
vn 0.9636 -0.1803 -0.1972
vn 0.9479 -0.1800 -0.2628
vn 0.6628 -0.4363 -0.6086
vn 0.6095 -0.4244 -0.6697
vn 0.7161 -0.4998 -0.4872
vn 0.1043 -0.6189 -0.7785
vn 0.0724 -0.5446 -0.8355
vn 0.0427 -0.5178 -0.8544
vn -0.4433 -0.4631 -0.7675
vn -0.4300 -0.4568 -0.7788
vn -0.4561 -0.4881 -0.7441
vn -0.7612 -0.2929 -0.5786
vn -0.7541 -0.3120 -0.5780
vn -0.7408 -0.3263 -0.5871
vn -0.8918 -0.1843 -0.4131
vn -0.8907 -0.2013 -0.4075
vn -0.8844 -0.1491 -0.4422
vn -0.8524 0.1116 -0.5108
vn -0.8465 0.1049 -0.5219
vn -0.8280 0.0390 -0.5593
vn -0.8288 0.0435 -0.5578
vn -0.8380 0.0761 -0.5404
vn -0.8629 0.1476 -0.4833
vn -0.8752 0.4100 -0.2568
vn -0.8751 0.3932 -0.2819
vn -0.8667 0.4001 -0.2980
vn -0.6682 0.7284 0.1515
vn -0.6486 0.7480 0.1409
vn -0.6747 0.7217 0.1547
vn -0.1732 0.7999 0.5746
vn -0.1643 0.8025 0.5737
vn -0.1432 0.8160 0.5600
vn 0.3343 0.5785 0.7440
vn 0.3398 0.5945 0.7288
vn 0.3490 0.5658 0.7470
vn 0.6279 0.2894 0.7224
vn 0.6037 0.3209 0.7298
vn 0.6036 0.3458 0.7184
vn 0.7404 0.1087 0.6633
vn 0.7439 0.1389 0.6537
vn 0.7587 0.0693 0.6478
vn 0.8231 -0.1201 0.5550
vn 0.8165 -0.0822 0.5715
vn 0.8264 -0.0518 0.5607
vn 0.8513 -0.2833 0.4415
vn 0.8663 -0.2552 0.4294
vn 0.8475 -0.3154 0.4270
vn 0.8061 -0.5513 0.2150
vn 0.8181 -0.5287 0.2260
vn 0.8358 -0.5054 0.2145
vn 0.6049 -0.7851 -0.1329
vn 0.6199 -0.7717 -0.1418
vn 0.5929 -0.7931 -0.1392
vn 0.1200 -0.8325 -0.5409
vn 0.1209 -0.8353 -0.5363
vn 0.1224 -0.8326 -0.5401
vn -0.3734 -0.5878 -0.7177
vn -0.3827 -0.5878 -0.7127
vn -0.3719 -0.5782 -0.7262
vn -0.6807 -0.2382 -0.6927
vn -0.6770 -0.2591 -0.6889
vn -0.6860 -0.2594 -0.6798
vn -0.8048 -0.0180 -0.5932
vn -0.8094 -0.0183 -0.5869
vn -0.8099 0.0084 -0.5865
vn -0.8535 0.1121 -0.5089
vn -0.8652 0.4083 -0.2910
vn -0.8873 0.3828 -0.2572
vn -0.8740 0.0934 -0.4768
vn -0.8564 0.0295 -0.5155
vn -0.8386 0.0467 -0.5427
vn -0.6357 0.7587 0.1420
vn -0.1200 0.8248 0.5525
vn -0.1022 0.8169 0.5676
vn -0.6460 0.7429 0.1754
vn 0.3634 0.6011 0.7118
vn 0.6255 0.3540 0.6954
vn 0.6484 0.3610 0.6702
vn 0.3893 0.5997 0.6991
vn 0.7642 0.1516 0.6269
vn 0.8453 -0.0334 0.5333
vn 0.8620 -0.0128 0.5068
vn 0.7833 0.1659 0.5991
vn 0.8851 -0.2329 0.4030
vn 0.8550 -0.4821 0.1912
vn 0.8748 -0.4553 0.1658
vn 0.9021 -0.2071 0.3787
vn 0.6354 -0.7549 -0.1628
vn 0.1222 -0.8235 -0.5540
vn 0.1197 -0.8060 -0.5797
vn 0.6508 -0.7340 -0.1942
vn -0.3973 -0.5789 -0.7121
vn -0.7022 -0.2497 -0.6667
vn -0.7157 -0.2499 -0.6521
vn -0.4105 -0.5655 -0.7154
vn -0.8222 -0.0114 -0.5692
vn -0.8368 -0.0252 -0.5469
vn -0.7947 0.3613 -0.4877
vn -0.8407 0.2933 -0.4552
vn -0.8268 0.2210 -0.5172
vn -0.7853 0.2884 -0.5479
vn -0.7855 0.5625 -0.2581
vn -0.8287 0.5089 -0.2329
vn -0.6418 0.7553 0.1331
vn -0.6564 0.7395 0.1492
vn -0.2742 0.7583 0.5915
vn -0.2219 0.7782 0.5875
vn 0.2153 0.4662 0.8581
vn 0.3085 0.5017 0.8082
vn 0.5354 0.1089 0.8376
vn 0.6178 0.1638 0.7691
vn 0.6813 -0.1495 0.7166
vn 0.7483 -0.0824 0.6582
vn 0.7424 -0.3379 0.5785
vn 0.7995 -0.2677 0.5378
vn 0.7555 -0.5076 0.4141
vn 0.8067 -0.4419 0.3923
vn 0.7044 -0.6860 0.1822
vn 0.7520 -0.6349 0.1770
vn 0.5179 -0.8395 -0.1644
vn 0.5526 -0.8177 -0.1612
vn 0.1210 -0.8138 -0.5684
vn 0.1212 -0.8200 -0.5594
vn -0.3476 -0.5030 -0.7913
vn -0.3713 -0.5284 -0.7635
vn -0.6641 -0.0752 -0.7438
vn -0.6923 -0.1272 -0.7103
vn -0.7716 0.2116 -0.5999
vn -0.8068 0.1461 -0.5725
vn -0.9046 -0.0311 -0.4250
vn -0.8967 0.0030 -0.4427
vn -0.9336 0.2902 -0.2100
vn -0.9498 0.2446 -0.1951
vn -0.8843 -0.0823 -0.4596
vn -0.8731 -0.0555 -0.4844
vn -0.6945 0.6606 0.2852
vn -0.6755 0.6908 0.2578
vn -0.0696 0.7814 0.6202
vn -0.0565 0.7650 0.6415
vn 0.4341 0.5887 0.6819
vn 0.4154 0.5953 0.6879
vn 0.6585 0.4019 0.6362
vn 0.6697 0.4148 0.6160
vn 0.8033 0.2695 0.5310
vn 0.7932 0.2394 0.5600
vn 0.8837 0.0776 0.4615
vn 0.8989 0.1204 0.4212
vn 0.9625 -0.0560 0.2656
vn 0.9408 -0.1086 0.3211
vn 0.9299 -0.3575 0.0863
vn 0.9556 -0.2942 0.0146
vn 0.7099 -0.5901 -0.3846
vn 0.6908 -0.6561 -0.3038
vn 0.1100 -0.7447 -0.6582
vn 0.1067 -0.6954 -0.7107
vn -0.4459 -0.5213 -0.7276
vn -0.4290 -0.5424 -0.7223
vn -0.7256 -0.2863 -0.6258
vn -0.7434 -0.2903 -0.6025
vn -0.8650 -0.1239 -0.4863
vn -0.8498 -0.1033 -0.5170
vn -0.8643 0.2121 -0.4561
vn -0.8613 0.4510 -0.2340
vn -0.8434 0.1394 -0.5189
vn -0.6686 0.7273 0.1551
vn -0.1846 0.7964 0.5759
vn 0.3545 0.5445 0.7602
vn 0.6472 0.2394 0.7237
vn 0.7736 0.0067 0.6337
vn 0.8271 -0.1813 0.5320
vn 0.8391 -0.3681 0.4005
vn 0.7876 -0.5859 0.1908
vn 0.5773 -0.8021 -0.1527
vn 0.1201 -0.8266 -0.5499
vn -0.3754 -0.5571 -0.7408
vn -0.6924 -0.1905 -0.6959
vn -0.8168 0.0679 -0.5729
vn -0.8905 0.0457 -0.4526
vn -0.8681 -0.0151 -0.4962
vn -0.9154 0.3341 -0.2244
vn -0.6619 0.7160 0.2220
vn -0.0850 0.8002 0.5936
vn 0.4048 0.5999 0.6902
vn 0.6566 0.3823 0.6502
vn 0.7905 0.2008 0.5786
vn 0.8732 0.0281 0.4865
vn 0.9200 -0.1640 0.3560
vn 0.9000 -0.4146 0.1349
vn 0.6691 -0.7033 -0.2401
vn 0.1152 -0.7796 -0.6156
vn -0.4187 -0.5538 -0.7197
vn -0.7201 -0.2677 -0.6402
vn -0.8444 -0.0656 -0.5316
usemtl material1708.003
s 1
f 1//1 2//2 3//3 4//4
f 1//1 4//4 5//5 6//6
f 1//1 6//6 7//7 8//8
f 1//1 8//8 9//9 2//2
f 10//10 11//11 12//12 13//13
f 10//10 13//13 14//14 15//15
f 10//10 15//15 5//5 4//4
f 10//10 4//4 3//3 11//11
f 16//16 17//17 18//18 19//19
f 16//16 19//19 20//20 21//21
f 16//16 21//21 14//14 13//13
f 16//16 13//13 12//12 17//17
f 22//22 23//23 24//24 25//25
f 22//22 25//25 26//26 27//27
f 22//22 27//27 20//20 19//19
f 22//22 19//19 18//18 23//23
f 28//28 29//29 30//30 31//31
f 28//28 31//31 32//32 33//33
f 28//28 33//33 26//26 25//25
f 28//28 25//25 24//24 29//29
f 34//34 35//35 36//36 37//37
f 34//34 37//37 38//38 39//39
f 34//34 39//39 32//32 31//31
f 34//34 31//31 30//30 35//35
f 40//40 41//41 42//42 43//43
f 40//40 43//43 44//44 45//45
f 40//40 45//45 38//38 37//37
f 40//40 37//37 36//36 41//41
f 46//46 47//47 9//9 8//8
f 46//46 8//8 7//7 48//48
f 46//46 48//48 44//44 43//43
f 46//46 43//43 42//42 47//47
f 49//49 50//50 51//51 52//52
f 49//49 52//52 53//53 54//54
f 49//49 54//54 55//55 56//56
f 49//49 56//56 57//57 50//50
f 58//58 59//59 57//57 56//56
f 58//58 56//56 55//55 60//60
f 58//58 60//60 61//61 62//62
f 58//58 62//62 63//63 59//59
f 64//64 65//65 63//63 62//62
f 64//64 62//62 61//61 66//66
f 64//64 66//66 67//67 68//68
f 64//64 68//68 69//69 65//65
f 70//70 71//71 69//69 68//68
f 70//70 68//68 67//67 72//72
f 70//70 72//72 73//73 74//74
f 70//70 74//74 75//75 71//71
f 76//76 77//77 75//75 74//74
f 76//76 74//74 73//73 78//78
f 76//76 78//78 79//79 80//80
f 76//76 80//80 81//81 77//77
f 82//82 83//83 81//81 80//80
f 82//82 80//80 79//79 84//84
f 82//82 84//84 85//85 86//86
f 82//82 86//86 87//87 83//83
f 88//88 89//89 87//87 86//86
f 88//88 86//86 85//85 90//90
f 88//88 90//90 91//91 92//92
f 88//88 92//92 93//93 89//89
f 94//94 95//95 93//93 92//92
f 94//94 92//92 91//91 96//96
f 94//94 96//96 53//53 52//52
f 94//94 52//52 51//51 95//95
f 97//97 98//98 99//99 100//100
f 97//97 100//100 101//101 102//102
f 97//97 102//102 103//103 104//104
f 97//97 104//104 105//105 98//98
f 106//106 107//107 105//105 104//104
f 106//106 104//104 103//103 108//108
f 106//106 108//108 109//109 110//110
f 106//106 110//110 111//111 107//107
f 112//112 113//113 111//111 110//110
f 112//112 110//110 109//109 114//114
f 112//112 114//114 115//115 116//116
f 112//112 116//116 117//117 113//113
f 118//118 119//119 117//117 116//116
f 118//118 116//116 115//115 120//120
f 118//118 120//120 121//121 122//122
f 118//118 122//122 123//123 119//119
f 124//124 125//125 123//123 122//122
f 124//124 122//122 121//121 126//126
f 124//124 126//126 127//127 128//128
f 124//124 128//128 129//129 125//125
f 130//130 131//131 129//129 128//128
f 130//130 128//128 127//127 132//132
f 130//130 132//132 133//133 134//134
f 130//130 134//134 135//135 131//131
f 136//136 137//137 135//135 134//134
f 136//136 134//134 133//133 138//138
f 136//136 138//138 139//139 140//140
f 136//136 140//140 141//141 137//137
f 142//142 143//143 141//141 140//140
f 142//142 140//140 139//139 144//144
f 142//142 144//144 101//101 100//100
f 142//142 100//100 99//99 143//143
f 145//145 98//98 105//105 146//146
f 145//145 146//146 147//147 148//148
f 145//145 148//148 149//149 150//150
f 145//145 150//150 99//99 98//98
f 151//151 107//107 111//111 152//152
f 151//151 152//152 153//153 154//154
f 151//151 154//154 147//147 146//146
f 151//151 146//146 105//105 107//107
f 155//155 113//113 117//117 156//156
f 155//155 156//156 157//157 158//158
f 155//155 158//158 153//153 152//152
f 155//155 152//152 111//111 113//113
f 159//159 119//119 123//123 160//160
f 159//159 160//160 161//161 162//162
f 159//159 162//162 157//157 156//156
f 159//159 156//156 117//117 119//119
f 163//163 125//125 129//129 164//164
f 163//163 164//164 165//165 166//166
f 163//163 166//166 161//161 160//160
f 163//163 160//160 123//123 125//125
f 167//167 131//131 135//135 168//168
f 167//167 168//168 169//169 170//170
f 167//167 170//170 165//165 164//164
f 167//167 164//164 129//129 131//131
f 171//171 137//137 141//141 172//172
f 171//171 172//172 173//173 174//174
f 171//171 174//174 169//169 168//168
f 171//171 168//168 135//135 137//137
f 175//175 143//143 99//99 150//150
f 175//175 150//150 149//149 176//176
f 175//175 176//176 173//173 172//172
f 175//175 172//172 141//141 143//143
f 177//177 178//178 179//179 180//180
f 177//177 180//180 7//7 6//6
f 177//177 6//6 5//5 181//181
f 177//177 181//181 182//182 178//178
f 183//183 184//184 182//182 181//181
f 183//183 181//181 5//5 15//15
f 183//183 15//15 14//14 185//185
f 183//183 185//185 186//186 184//184
f 187//187 188//188 186//186 185//185
f 187//187 185//185 14//14 21//21
f 187//187 21//21 20//20 189//189
f 187//187 189//189 190//190 188//188
f 191//191 192//192 190//190 189//189
f 191//191 189//189 20//20 27//27
f 191//191 27//27 26//26 193//193
f 191//191 193//193 194//194 192//192
f 195//195 196//196 194//194 193//193
f 195//195 193//193 26//26 33//33
f 195//195 33//33 32//32 197//197
f 195//195 197//197 198//198 196//196
f 199//199 200//200 198//198 197//197
f 199//199 197//197 32//32 39//39
f 199//199 39//39 38//38 201//201
f 199//199 201//201 202//202 200//200
f 203//203 204//204 202//202 201//201
f 203//203 201//201 38//38 45//45
f 203//203 45//45 44//44 205//205
f 203//203 205//205 206//206 204//204
f 207//207 208//208 206//206 205//205
f 207//207 205//205 44//44 48//48
f 207//207 48//48 7//7 180//180
f 207//207 180//180 179//179 208//208
f 209//209 210//210 211//211 212//212
f 209//209 212//212 55//55 54//54
f 209//209 54//54 53//53 213//213
f 209//209 213//213 214//214 210//210
f 215//215 216//216 217//217 218//218
f 215//215 218//218 61//61 60//60
f 215//215 60//60 55//55 212//212
f 215//215 212//212 211//211 216//216
f 219//219 220//220 221//221 222//222
f 219//219 222//222 67//67 66//66
f 219//219 66//66 61//61 218//218
f 219//219 218//218 217//217 220//220
f 223//223 224//224 225//225 226//226
f 223//223 226//226 73//73 72//72
f 223//223 72//72 67//67 222//222
f 223//223 222//222 221//221 224//224
f 227//227 228//228 229//229 230//230
f 227//227 230//230 79//79 78//78
f 227//227 78//78 73//73 226//226
f 227//227 226//226 225//225 228//228
f 231//231 232//232 233//233 234//234
f 231//231 234//234 85//85 84//84
f 231//231 84//84 79//79 230//230
f 231//231 230//230 229//229 232//232
f 235//235 236//236 237//237 238//238
f 235//235 238//238 91//91 90//90
f 235//235 90//90 85//85 234//234
f 235//235 234//234 233//233 236//236
f 239//239 240//240 214//214 213//213
f 239//239 213//213 53//53 96//96
f 239//239 96//96 91//91 238//238
f 239//239 238//238 237//237 240//240
f 241//241 178//178 182//182 242//242
f 241//241 242//242 103//103 102//102
f 241//241 102//102 101//101 243//243
f 241//241 243//243 179//179 178//178
f 244//244 184//184 186//186 245//245
f 244//244 245//245 109//109 108//108
f 244//244 108//108 103//103 242//242
f 244//244 242//242 182//182 184//184
f 246//246 188//188 190//190 247//247
f 246//246 247//247 115//115 114//114
f 246//246 114//114 109//109 245//245
f 246//246 245//245 186//186 188//188
f 248//248 192//192 194//194 249//249
f 248//248 249//249 121//121 120//120
f 248//248 120//120 115//115 247//247
f 248//248 247//247 190//190 192//192
f 250//250 196//196 198//198 251//251
f 250//250 251//251 127//127 126//126
f 250//250 126//126 121//121 249//249
f 250//250 249//249 194//194 196//196
f 252//252 200//200 202//202 253//253
f 252//252 253//253 133//133 132//132
f 252//252 132//132 127//127 251//251
f 252//252 251//251 198//198 200//200
f 254//254 204//204 206//206 255//255
f 254//254 255//255 139//139 138//138
f 254//254 138//138 133//133 253//253
f 254//254 253//253 202//202 204//204
f 256//256 208//208 179//179 243//243
f 256//256 243//243 101//101 144//144
f 256//256 144//144 139//139 255//255
f 256//256 255//255 206//206 208//208
f 257//257 210//210 214//214 258//258
f 257//257 258//258 149//149 148//148
f 257//257 148//148 147//147 259//259
f 257//257 259//259 211//211 210//210
f 260//260 216//216 211//211 259//259
f 260//260 259//259 147//147 154//154
f 260//260 154//154 153//153 261//261
f 260//260 261//261 217//217 216//216
f 262//262 220//220 217//217 261//261
f 262//262 261//261 153//153 158//158
f 262//262 158//158 157//157 263//263
f 262//262 263//263 221//221 220//220
f 264//264 224//224 221//221 263//263
f 264//264 263//263 157//157 162//162
f 264//264 162//162 161//161 265//265
f 264//264 265//265 225//225 224//224
f 266//266 228//228 225//225 265//265
f 266//266 265//265 161//161 166//166
f 266//266 166//166 165//165 267//267
f 266//266 267//267 229//229 228//228
f 268//268 232//232 229//229 267//267
f 268//268 267//267 165//165 170//170
f 268//268 170//170 169//169 269//269
f 268//268 269//269 233//233 232//232
f 270//270 236//236 233//233 269//269
f 270//270 269//269 169//169 174//174
f 270//270 174//174 173//173 271//271
f 270//270 271//271 237//237 236//236
f 272//272 240//240 237//237 271//271
f 272//272 271//271 173//173 176//176
f 272//272 176//176 149//149 258//258
f 272//272 258//258 214//214 240//240
