# Blender v3.2.1 OBJ File: ''
# www.blender.org
mtllib superior_auricular_left.mtl
o Superior_Auricular_Muscle_Left
v 0.724732 19.243582 0.106383
v 0.727510 19.244453 0.117812
v 0.726647 19.278057 0.114000
v 0.723573 19.277678 0.102972
v 0.720585 19.276911 0.086621
v 0.722317 19.242203 0.089132
v 0.724394 19.207214 0.092471
v 0.726176 19.209694 0.110833
v 0.728640 19.211399 0.122748
v 0.716899 19.369865 0.036202
v 0.726368 19.405458 0.029911
v 0.723923 19.402016 0.011980
v 0.715197 19.367905 0.019769
v 0.711285 19.336596 0.024340
v 0.712574 19.338272 0.039607
v 0.714718 19.340136 0.054587
v 0.719435 19.371845 0.052246
v 0.729400 19.408302 0.047851
v 0.730643 19.244101 0.116139
v 0.732416 19.210835 0.119172
v 0.735831 19.209261 0.107253
v 0.733101 19.243212 0.106244
v 0.731025 19.277325 0.105480
v 0.729310 19.277834 0.113778
v 0.721884 19.235197 -0.006045
v 0.717952 19.236099 0.003824
v 0.715753 19.271612 0.001212
v 0.719125 19.271046 -0.006790
v 0.722866 19.270897 -0.007508
v 0.726166 19.234940 -0.008159
v 0.729920 19.197018 -0.010190
v 0.724827 19.197430 -0.006280
v 0.719990 19.198839 0.006340
v 0.786341 19.566828 0.073320
v 0.789502 19.624962 0.085527
v 0.790248 19.623108 0.134246
v 0.787428 19.565092 0.113325
v 0.778885 19.508327 0.092200
v 0.777480 19.509644 0.062237
v 0.774316 19.505194 0.032389
v 0.783323 19.558889 0.032283
v 0.786773 19.614187 0.034225
v 0.733853 19.242474 0.093009
v 0.737207 19.207937 0.094142
v 0.737082 19.206697 0.080233
v 0.733413 19.241709 0.078105
v 0.730480 19.276241 0.076758
v 0.731253 19.276848 0.092282
v 0.782660 19.655169 0.177103
v 0.782980 19.696371 0.179873
v 0.785241 19.702232 0.138935
v 0.782503 19.665352 0.139635
v 0.779338 19.622677 0.133901
v 0.781086 19.610247 0.167689
v 0.782905 19.596415 0.187368
v 0.782617 19.643993 0.199914
v 0.780120 19.690258 0.206630
v 0.783514 19.643820 0.207548
v 0.778845 19.696571 0.216112
v 0.785336 19.591824 0.193517
v 0.787753 19.596441 0.186692
v 0.785148 19.652334 0.200612
v 0.779518 19.709927 0.208979
v 0.744973 19.499271 -0.096105
v 0.735829 19.523411 -0.112920
v 0.741450 19.546144 -0.112904
v 0.751133 19.515032 -0.094392
v 0.757392 19.488163 -0.077406
v 0.750958 19.478329 -0.080394
v 0.748754 19.487793 -0.073748
v 0.744546 19.508377 -0.087499
v 0.737889 19.531031 -0.101569
v 0.761029 19.556599 -0.078462
v 0.753258 19.600937 -0.094989
v 0.766757 19.662212 -0.061785
v 0.771786 19.605944 -0.050238
v 0.774355 19.555241 -0.038648
v 0.765748 19.517685 -0.062848
v 0.714674 19.366152 0.002688
v 0.715959 19.364779 -0.011625
v 0.712572 19.334057 -0.005548
v 0.711081 19.335167 0.008244
v 0.722473 19.398453 -0.006041
v 0.722961 19.395596 -0.020613
v 0.724511 19.305582 0.031954
v 0.727215 19.273390 0.032125
v 0.726495 19.272453 0.017616
v 0.723683 19.304392 0.016864
v 0.723247 19.335068 0.015453
v 0.724326 19.336664 0.031600
v 0.725821 19.338482 0.047101
v 0.725539 19.306948 0.046785
v 0.727921 19.274340 0.046572
v 0.789012 19.682159 0.091986
v 0.786696 19.738890 0.095571
v 0.785622 19.736336 0.147780
v 0.788962 19.680002 0.143844
v 0.786518 19.671303 0.036152
v 0.784411 19.729328 0.038073
v 0.728472 19.235989 0.002768
v 0.725184 19.271494 0.002516
v 0.729591 19.237514 0.019363
v 0.732830 19.201073 0.021608
v 0.732093 19.198702 0.002431
v 0.751847 19.541403 -0.072474
v 0.753090 19.516171 -0.059402
v 0.760540 19.552477 -0.036903
v 0.762200 19.583502 -0.048349
v 0.763226 19.613207 -0.059423
v 0.749126 19.567297 -0.085388
v 0.787319 19.667229 0.179715
v 0.789527 19.610235 0.167452
v 0.782503 19.724930 0.185892
v 0.722462 19.373655 0.068158
v 0.717488 19.342127 0.069825
v 0.720883 19.344120 0.085382
v 0.726296 19.375593 0.084278
v 0.736524 19.411364 0.084112
v 0.732611 19.410061 0.065901
v 0.730316 19.238682 0.034255
v 0.733614 19.202717 0.037364
v 0.731074 19.239691 0.048512
v 0.734612 19.204021 0.051527
v 0.763829 19.543261 0.001579
v 0.767679 19.585718 -0.005797
v 0.757614 19.518806 -0.024714
v 0.750861 19.481998 -0.012062
v 0.756194 19.496387 0.010159
v 0.760979 19.506950 0.035618
v 0.769191 19.561604 0.034426
v 0.773530 19.610910 0.034714
v 0.732297 19.240740 0.063200
v 0.729189 19.275349 0.061486
v 0.735993 19.205370 0.065922
v 0.781008 19.662552 0.088029
v 0.777406 19.647224 0.033573
v 0.777118 19.623064 0.085428
v 0.784718 19.695162 0.086911
v 0.781051 19.677040 0.031718
v 0.780529 19.645039 -0.011644
v 0.781544 19.589176 -0.006728
v 0.777453 19.704390 -0.015905
v 0.717598 19.238924 0.044004
v 0.718677 19.239979 0.058474
v 0.716380 19.274948 0.055708
v 0.715232 19.273952 0.041104
v 0.714646 19.273039 0.026927
v 0.716963 19.237913 0.029907
v 0.719079 19.201433 0.033863
v 0.719926 19.202747 0.048020
v 0.721122 19.204092 0.062306
v 0.712787 19.306684 0.040440
v 0.711927 19.305452 0.025899
v 0.714380 19.308086 0.055077
v 0.770928 19.619825 -0.012443
v 0.773878 19.649755 -0.018723
v 0.728784 19.368036 0.028923
v 0.730660 19.369902 0.045471
v 0.727280 19.366226 0.011728
v 0.736186 19.400284 0.005304
v 0.738580 19.403593 0.023705
v 0.741029 19.406330 0.041952
v 0.741587 19.449043 0.020416
v 0.745482 19.454594 0.041201
v 0.737720 19.441559 0.000769
v 0.760867 19.455294 0.059148
v 0.757899 19.452885 0.036602
v 0.763005 19.455191 0.081993
v 0.746448 19.409077 0.078522
v 0.743692 19.407894 0.060209
v 0.722987 19.312191 0.101638
v 0.724903 19.345991 0.101318
v 0.719543 19.311052 0.085767
v 0.726314 19.312761 0.112435
v 0.728683 19.347103 0.112286
v 0.731256 19.377954 0.100946
v 0.741664 19.412838 0.102534
v 0.735925 19.379625 0.112719
v 0.746536 19.413767 0.115723
v 0.728855 19.312500 0.112762
v 0.731356 19.346815 0.112938
v 0.730257 19.311762 0.105208
v 0.732595 19.345634 0.105701
v 0.738887 19.379499 0.114153
v 0.749648 19.413431 0.118233
v 0.739837 19.378059 0.107232
v 0.750645 19.412258 0.111495
v 0.719677 19.363962 -0.019752
v 0.726329 19.394274 -0.028202
v 0.730573 19.394676 -0.026555
v 0.723704 19.363890 -0.018911
v 0.720309 19.333193 -0.013688
v 0.716364 19.333332 -0.013903
v 0.716733 19.303059 -0.009495
v 0.720471 19.302921 -0.009619
v 0.713231 19.303635 -0.001590
v 0.730164 19.310896 0.092363
v 0.732072 19.344063 0.093000
v 0.729017 19.309816 0.076973
v 0.730368 19.342257 0.077630
v 0.738468 19.375790 0.093938
v 0.749172 19.410669 0.096938
v 0.735873 19.373388 0.077607
v 0.755747 19.455404 0.108091
v 0.759015 19.452965 0.123285
v 0.770660 19.497139 0.138175
v 0.769022 19.504230 0.121085
v 0.767342 19.510612 0.095589
v 0.752308 19.457317 0.086538
v 0.777004 19.557890 0.144983
v 0.778771 19.546209 0.163162
v 0.775318 19.568415 0.115298
v 0.761838 19.451494 0.127004
v 0.763680 19.451452 0.120183
v 0.775911 19.495419 0.136004
v 0.773196 19.494019 0.142949
v 0.781463 19.541344 0.168552
v 0.784304 19.543941 0.161665
v 0.750622 19.463774 -0.066892
v 0.745213 19.448050 -0.054073
v 0.742767 19.452902 -0.047411
v 0.748065 19.471348 -0.060639
v 0.756802 19.469786 -0.063469
v 0.750802 19.451580 -0.050867
v 0.735978 19.423594 -0.040409
v 0.733148 19.426311 -0.033306
v 0.740833 19.425226 -0.037884
v 0.764361 19.489628 -0.049061
v 0.757485 19.463766 -0.036344
v 0.772003 19.515673 -0.026970
v 0.764188 19.479666 -0.015418
v 0.745736 19.431446 -0.023945
v 0.733688 19.396996 -0.013418
v 0.750369 19.439650 -0.004202
v 0.711852 19.304434 0.011048
v 0.714540 19.272268 0.013040
v 0.716696 19.236988 0.016160
v 0.718587 19.200153 0.019845
v 0.725913 19.364744 -0.006318
v 0.722256 19.333841 -0.001773
v 0.722562 19.303434 0.001087
v 0.751377 19.492266 -0.046016
v 0.745517 19.465860 -0.032330
v 0.734318 19.433140 -0.018359
v 0.764006 19.453297 0.103759
v 0.778085 19.501888 0.117939
v 0.786520 19.554661 0.143015
v 0.716653 19.309614 0.070216
v 0.718176 19.275969 0.070873
v 0.720274 19.241037 0.073339
v 0.722660 19.205463 0.076709
v 0.727259 19.308430 0.061786
v 0.728060 19.340370 0.062387
v 0.733147 19.371555 0.061575
v 0.772867 19.569820 0.075388
v 0.764678 19.511604 0.065597
v 0.748971 19.457197 0.063741
v 0.778434 19.540298 -0.000501
v 0.769842 19.494337 0.006998
v 0.754412 19.447231 0.015732
vn -0.9819 -0.0183 0.1887
vn -0.9718 -0.0044 0.2359
vn -0.9638 -0.0015 0.2668
vn -0.9747 -0.0119 0.2230
vn -0.9855 -0.0307 0.1672
vn -0.9898 -0.0400 0.1368
vn -0.9915 -0.0441 0.1221
vn -0.9851 -0.0219 0.1706
vn -0.9755 -0.0067 0.2198
vn -0.9730 0.2082 0.1001
vn -0.9479 0.3068 0.0859
vn -0.9542 0.2964 0.0418
vn -0.9801 0.1934 0.0449
vn -0.9974 0.0570 0.0430
vn -0.9923 0.0714 0.1013
vn -0.9859 0.0842 0.1449
vn -0.9665 0.2160 0.1389
vn -0.9442 0.3073 0.1186
vn 0.7902 0.0982 0.6050
vn 0.8315 0.1058 0.5454
vn 0.9830 0.0855 0.1626
vn 0.9866 0.0750 0.1449
vn 0.9927 0.0444 0.1123
vn 0.6908 0.0654 0.7201
vn 0.1529 0.0679 0.9859
vn 0.4710 0.1104 0.8752
vn 0.6106 0.1208 0.7827
vn -0.7353 -0.0556 -0.6754
vn -0.9700 -0.0718 -0.2324
vn -0.9666 -0.0866 -0.2413
vn -0.6456 -0.0840 -0.7591
vn -0.2258 -0.0566 -0.9725
vn -0.4408 -0.0263 -0.8972
vn -0.5416 -0.0228 -0.8404
vn -0.7754 -0.0502 -0.6295
vn -0.9712 -0.0673 -0.2285
vn 0.9943 -0.0974 -0.0437
vn 0.9993 -0.0176 -0.0328
vn 0.9999 -0.0149 0.0050
vn 0.9952 -0.0965 -0.0181
vn 0.9767 -0.2100 -0.0449
vn 0.9741 -0.2178 -0.0614
vn 0.9699 -0.2352 -0.0632
vn 0.9912 -0.1126 -0.0690
vn 0.9963 -0.0251 -0.0824
vn 0.9964 0.0845 0.0093
vn 0.9952 0.0950 0.0234
vn 0.9936 0.0987 -0.0550
vn 0.9942 0.0898 -0.0593
vn 0.9953 0.0628 -0.0736
vn 0.9984 0.0532 -0.0173
vn -0.9998 0.0181 0.0005
vn -0.9991 0.0109 -0.0417
vn -0.9978 0.0663 -0.0040
vn -0.9977 0.0653 0.0171
vn -0.9969 0.0598 0.0504
vn -0.9972 0.0316 0.0674
vn -0.9834 -0.0345 0.1779
vn -0.9980 -0.0411 0.0483
vn -0.9985 -0.0454 -0.0303
vn -0.9914 -0.0750 0.1071
vn -0.9973 -0.0728 0.0041
vn -0.9577 -0.0843 0.2753
vn 0.9681 0.0130 0.2503
vn 0.9591 -0.1109 0.2604
vn 0.9826 -0.0723 0.1713
vn 0.9807 0.0280 0.1935
vn 0.9774 0.0611 0.2021
vn 0.9689 0.0533 0.2418
vn 0.7245 -0.2167 -0.6543
vn 0.7138 -0.1881 -0.6747
vn 0.8017 -0.1077 -0.5879
vn 0.8179 -0.1300 -0.5605
vn 0.8634 -0.2295 -0.4492
vn 0.7580 -0.3350 -0.5597
vn -0.9719 -0.1847 0.1462
vn -0.9848 -0.1627 -0.0615
vn -0.9973 -0.0421 0.0594
vn -0.9659 -0.0670 0.2501
vn -0.9441 -0.0604 0.3242
vn -0.9585 -0.1751 0.2252
vn 0.9151 -0.0222 -0.4025
vn 0.8996 -0.0073 -0.4367
vn 0.9473 0.0218 -0.3196
vn 0.9557 0.0057 -0.2944
vn 0.9750 -0.0578 -0.2144
vn 0.9536 -0.0933 -0.2861
vn -0.9852 0.1661 -0.0422
vn -0.9599 0.1007 -0.2618
vn -0.9652 0.0011 -0.2615
vn -0.9981 0.0392 -0.0477
vn -0.9626 0.2689 -0.0325
vn -0.9505 0.1793 -0.2539
vn 0.9969 0.0426 -0.0668
vn 0.9948 0.0837 -0.0586
vn 0.9939 0.0848 -0.0700
vn 0.9967 0.0456 -0.0669
vn 0.9961 -0.0639 -0.0613
vn 0.9947 -0.0712 -0.0736
vn 0.9909 -0.0824 -0.1069
vn 0.9950 0.0320 -0.0950
vn 0.9938 0.0789 -0.0789
vn 0.9993 0.0292 -0.0234
vn 0.9988 0.0450 -0.0182
vn 0.9972 0.0564 0.0490
vn 0.9987 0.0379 0.0336
vn 0.9952 0.0249 -0.0942
vn 0.9944 0.0408 -0.0980
vn 0.9857 0.0929 -0.1408
vn 0.9731 0.0962 -0.2095
vn 0.9732 0.0779 -0.2162
vn 0.9853 0.0814 -0.1500
vn 0.9941 0.0874 -0.0642
vn 0.9943 0.0883 -0.0592
vn 0.9868 0.0966 -0.1297
vn 0.9750 0.1018 -0.1973
vn -0.9511 0.0751 0.2996
vn -0.9805 0.0972 0.1707
vn -0.9836 0.1137 0.1400
vn -0.9759 0.1030 0.1925
vn -0.9700 0.1031 0.2202
vn -0.9316 0.0767 0.3552
vn 0.9941 0.0430 0.0999
vn 0.9983 -0.0243 0.0525
vn 0.9901 0.0662 0.1235
vn -0.9601 0.2192 0.1737
vn -0.9790 0.0960 0.1797
vn -0.9706 0.1092 0.2144
vn -0.9505 0.2230 0.2162
vn -0.9367 0.2901 0.1961
vn -0.9412 0.3020 0.1512
vn 0.9945 0.0866 -0.0592
vn 0.9942 0.0873 -0.0627
vn 0.9931 0.0884 -0.0776
vn 0.9924 0.0911 -0.0825
vn -0.9855 0.1410 0.0949
vn -0.9891 0.1073 0.1009
vn -0.9824 0.1635 0.0907
vn -0.9646 0.2595 0.0473
vn -0.9677 0.2411 0.0732
vn -0.9717 0.2208 0.0838
vn -0.9897 0.1182 0.0812
vn -0.9931 0.0957 0.0683
vn 0.9920 0.0898 -0.0882
vn 0.9929 0.0715 -0.0955
vn 0.9914 0.0956 -0.0895
vn -0.9947 0.0985 0.0292
vn -0.9922 0.1120 0.0548
vn -0.9956 0.0806 0.0480
vn -0.9942 0.1055 0.0201
vn -0.9916 0.1188 0.0511
vn 0.9820 0.0201 -0.1877
vn 0.9884 -0.0374 -0.1469
vn 0.9790 0.0369 -0.2005
vn -0.9960 -0.0585 0.0669
vn -0.9936 -0.0566 0.0979
vn -0.9926 -0.0572 0.1076
vn -0.9953 -0.0663 0.0701
vn -0.9969 -0.0712 0.0330
vn -0.9976 -0.0576 0.0381
vn -0.9976 -0.0530 0.0442
vn -0.9960 -0.0558 0.0703
vn -0.9937 -0.0564 0.0970
vn -0.9954 -0.0374 0.0880
vn -0.9981 -0.0482 0.0378
vn -0.9912 -0.0226 0.1304
vn -0.9884 0.1110 0.1038
vn -0.9875 0.1137 0.1093
vn 0.9748 -0.2102 -0.0746
vn 0.9703 -0.2185 -0.1040
vn 0.9778 -0.1996 -0.0634
vn 0.9495 -0.3069 -0.0652
vn 0.9475 -0.3122 -0.0684
vn 0.9452 -0.3138 -0.0903
vn -0.9436 0.3240 0.0678
vn -0.9444 0.3150 0.0944
vn -0.9446 0.3265 0.0332
vn 0.9455 -0.3141 -0.0855
vn 0.9429 -0.3253 -0.0719
vn 0.9499 -0.3024 -0.0789
vn 0.9461 -0.3051 -0.1085
vn 0.9440 -0.3108 -0.1104
vn -0.9674 0.0235 0.2520
vn -0.9541 0.1227 0.2731
vn -0.9806 0.0087 0.1961
vn -0.9554 0.0307 0.2937
vn -0.6835 0.0920 0.7241
vn -0.9329 0.2258 0.2806
vn -0.9269 0.2694 0.2612
vn -0.7378 0.1593 0.6560
vn -0.8090 0.1764 0.5608
vn -0.1004 0.0249 0.9946
vn -0.2643 0.0335 0.9638
vn 0.9819 -0.0253 0.1879
vn 0.9956 -0.0217 0.0908
vn 0.9866 -0.1426 0.0794
vn 0.9710 -0.1486 0.1874
vn -0.4436 0.0683 0.8936
vn -0.6282 0.0808 0.7738
vn 0.9432 -0.2715 0.1914
vn 0.9623 -0.2622 0.0718
vn 0.9437 -0.3208 0.0807
vn 0.9199 -0.3327 0.2075
vn 0.2059 -0.2474 -0.9468
vn 0.3728 -0.3810 -0.8460
vn 0.7317 -0.3878 -0.5606
vn 0.7013 -0.2664 -0.6612
vn 0.0654 -0.1643 -0.9842
vn -0.9072 0.0505 -0.4177
vn -0.9116 -0.0263 -0.4102
vn -0.9029 0.1042 -0.4169
vn -0.0541 -0.1110 -0.9923
vn -0.0540 -0.1111 -0.9923
vn -0.9141 -0.0872 -0.3960
vn -0.9647 -0.0753 -0.2522
vn 0.9991 -0.0114 -0.0418
vn 0.9901 -0.1253 -0.0640
vn 0.9953 0.0026 -0.0964
vn 0.9874 -0.1079 -0.1156
vn 0.9672 -0.2411 -0.0802
vn 0.9501 -0.3030 -0.0746
vn 0.9660 -0.2282 -0.1215
vn -0.9465 0.2463 0.2084
vn -0.8840 0.1441 0.4446
vn -0.9409 0.0631 0.3329
vn -0.9768 0.1563 0.1464
vn -0.9777 0.1807 0.1074
vn -0.9478 0.2792 0.1543
vn -0.9922 0.0671 0.1047
vn -0.9667 -0.0104 0.2556
vn -0.9938 0.0836 0.0736
vn 0.9064 -0.3454 0.2433
vn 0.9394 -0.3233 0.1141
vn 0.9491 -0.2789 0.1461
vn 0.9062 -0.3248 0.2709
vn -0.7785 0.0541 0.6254
vn -0.8760 -0.0178 0.4821
vn 0.9299 -0.2506 0.2694
vn 0.9686 -0.1928 0.1572
vn -0.9223 -0.0781 0.3785
vn -0.9579 -0.0603 -0.2807
vn -0.9189 0.0611 -0.3896
vn -0.9598 0.1623 -0.2289
vn -0.9895 0.0522 -0.1349
vn 0.7390 -0.4932 -0.4588
vn 0.8671 -0.3831 -0.3185
vn 0.8186 -0.4734 -0.3252
vn 0.6512 -0.5532 -0.5196
vn -0.9036 0.1188 -0.4117
vn -0.9456 0.2115 -0.2473
vn 0.5274 -0.4989 -0.6877
vn 0.7683 -0.4666 -0.4382
vn 0.9644 -0.2220 -0.1436
vn 0.9395 -0.3318 -0.0856
vn 0.9787 -0.1702 -0.1152
vn 0.9562 -0.2865 -0.0603
vn 0.9259 -0.3643 -0.0997
vn 0.9441 -0.3092 -0.1146
vn 0.9372 -0.3442 -0.0561
vn -0.9973 -0.0570 -0.0457
vn -0.9962 -0.0756 -0.0426
vn -0.9975 -0.0609 -0.0367
vn -0.9979 -0.0561 -0.0327
vn 0.9741 -0.1964 -0.1121
vn 0.9912 -0.0682 -0.1136
vn 0.9832 -0.0748 -0.1666
vn 0.9904 0.0356 -0.1336
vn 0.9808 0.0263 -0.1932
vn -0.9845 0.1684 0.0498
vn -0.9647 0.2629 -0.0144
vn -0.9499 0.3110 -0.0298
vn 0.9541 -0.2962 -0.0439
vn 0.9758 -0.2186 -0.0073
vn 0.9931 -0.1161 0.0191
vn -0.9862 -0.0070 0.1656
vn -0.9890 -0.0454 0.1410
vn -0.9911 -0.0512 0.1231
vn -0.9917 -0.0534 0.1171
vn 0.9930 0.0179 -0.1163
vn 0.9869 -0.0938 -0.1311
vn 0.9665 -0.2226 -0.1277
vn -0.9928 0.0989 0.0675
vn -0.9755 0.2007 0.0900
vn -0.9463 0.3006 0.1192
vn 0.9861 -0.1368 -0.0942
vn 0.9645 -0.2576 -0.0589
vn 0.9409 -0.3342 -0.0551
usemtl material1712.003
s 1
f 1//1 2//2 3//3 4//4
f 1//1 4//4 5//5 6//6
f 1//1 6//6 7//7 8//8
f 1//1 8//8 9//9 2//2
f 10//10 11//11 12//12 13//13
f 10//10 13//13 14//14 15//15
f 10//10 15//15 16//16 17//17
f 10//10 17//17 18//18 11//11
f 19//19 20//20 21//21 22//22
f 19//19 22//22 23//23 24//24
f 19//19 24//24 3//25 2//26
f 19//19 2//26 9//27 20//20
f 25//28 26//29 27//30 28//31
f 25//28 28//31 29//32 30//33
f 25//28 30//33 31//34 32//35
f 25//28 32//35 33//36 26//29
f 34//37 35//38 36//39 37//40
f 34//37 37//40 38//41 39//42
f 34//37 39//42 40//43 41//44
f 34//37 41//44 42//45 35//38
f 43//46 44//47 45//48 46//49
f 43//46 46//49 47//50 48//51
f 43//46 48//51 23//23 22//22
f 43//46 22//22 21//21 44//47
f 49//52 50//53 51//54 52//55
f 49//52 52//55 53//56 54//57
f 49//52 54//57 55//58 56//59
f 49//52 56//59 57//60 50//53
f 58//61 59//62 57//60 56//59
f 58//61 56//59 55//58 60//63
f 58//64 60//65 61//66 62//67
f 58//64 62//67 63//68 59//69
f 64//70 65//71 66//72 67//73
f 64//70 67//73 68//74 69//75
f 64//76 69//77 70//78 71//79
f 64//76 71//79 72//80 65//81
f 73//82 74//83 75//84 76//85
f 73//82 76//85 77//86 78//87
f 73//82 78//87 68//74 67//73
f 73//82 67//73 66//72 74//83
f 79//88 80//89 81//90 82//91
f 79//88 82//91 14//14 13//13
f 79//88 13//13 12//12 83//92
f 79//88 83//92 84//93 80//89
f 85//94 86//95 87//96 88//97
f 85//94 88//97 89//98 90//99
f 85//94 90//99 91//100 92//101
f 85//94 92//101 93//102 86//95
f 94//103 95//104 96//105 97//106
f 94//103 97//106 36//39 35//38
f 94//103 35//38 42//45 98//107
f 94//103 98//107 99//108 95//104
f 100//109 30//110 29//111 101//112
f 100//109 101//112 87//96 102//113
f 100//109 102//113 103//114 104//115
f 100//109 104//115 31//116 30//110
f 105//117 71//79 70//78 106//118
f 105//117 106//118 107//119 108//120
f 105//117 108//120 109//121 110//122
f 105//117 110//122 72//80 71//79
f 111//123 62//67 61//66 112//124
f 111//123 112//124 36//39 97//106
f 111//123 97//106 96//105 113//125
f 111//123 113//125 63//68 62//67
f 114//126 17//17 16//16 115//127
f 114//126 115//127 116//128 117//129
f 114//126 117//129 118//130 119//131
f 114//126 119//131 18//18 17//17
f 120//132 121//133 103//114 102//113
f 120//132 102//113 87//96 86//95
f 120//132 86//95 93//102 122//134
f 120//132 122//134 123//135 121//133
f 124//136 125//137 107//119 126//138
f 124//136 126//138 127//139 128//140
f 124//136 128//140 129//141 130//142
f 124//136 130//142 131//143 125//137
f 132//144 122//134 93//102 133//145
f 132//144 133//145 47//50 46//49
f 132//144 46//49 45//48 134//146
f 132//144 134//146 123//135 122//134
f 135//147 136//148 131//143 137//149
f 135//147 137//149 53//56 52//55
f 135//147 52//55 51//54 138//150
f 135//147 138//150 139//151 136//148
f 140//152 98//107 42//45 141//153
f 140//152 141//153 77//86 76//85
f 140//152 76//85 75//84 142//154
f 140//152 142//154 99//108 98//107
f 143//155 144//156 145//157 146//158
f 143//155 146//158 147//159 148//160
f 143//155 148//160 149//161 150//162
f 143//155 150//162 151//163 144//156
f 152//164 15//15 14//14 153//165
f 152//164 153//165 147//159 146//158
f 152//164 146//158 145//157 154//166
f 152//164 154//166 16//16 15//15
f 155//167 156//168 109//121 108//120
f 155//167 108//120 107//119 125//137
f 155//167 125//137 131//143 136//148
f 155//167 136//148 139//151 156//168
f 157//169 158//170 91//100 90//99
f 157//169 90//99 89//98 159//171
f 157//169 159//171 160//172 161//173
f 157//169 161//173 162//174 158//170
f 163//175 164//176 129//141 128//140
f 163//175 128//140 127//139 165//177
f 163//175 165//177 12//12 11//11
f 163//175 11//11 18//18 164//176
f 166//178 167//179 40//43 39//42
f 166//178 39//42 38//41 168//180
f 166//178 168//180 169//181 170//182
f 166//178 170//182 162//174 167//179
f 171//183 172//184 116//128 173//185
f 171//183 173//185 5//5 4//4
f 171//183 4//4 3//3 174//186
f 171//183 174//186 175//187 172//184
f 176//188 177//189 118//130 117//129
f 176//188 117//129 116//128 172//184
f 176//188 172//184 175//187 178//190
f 176//188 178//190 179//191 177//189
f 180//192 181//193 175//187 174//192
f 180//192 174//192 3//25 24//24
f 180//194 24//24 23//23 182//195
f 180//194 182//195 183//196 181//197
f 184//198 185//199 179//191 178//190
f 184//198 178//190 175//187 181//193
f 184//200 181//197 183//196 186//201
f 184//200 186//201 187//202 185//203
f 188//204 189//205 190//206 191//207
f 188//204 191//207 192//208 193//208
f 188//209 193//210 81//90 80//89
f 188//209 80//89 84//93 189//211
f 194//212 193//208 192//208 195//213
f 194//212 195//213 29//32 28//31
f 194//214 28//31 27//30 196//215
f 194//214 196//215 81//90 193//210
f 197//216 198//217 183//196 182//195
f 197//216 182//195 23//23 48//51
f 197//216 48//51 47//50 199//218
f 197//216 199//218 200//219 198//217
f 201//220 202//221 187//202 186//201
f 201//220 186//201 183//196 198//217
f 201//220 198//217 200//219 203//222
f 201//220 203//222 169//181 202//221
f 204//223 177//189 179//191 205//224
f 204//223 205//224 206//225 207//226
f 204//223 207//226 208//227 209//228
f 204//223 209//228 118//130 177//189
f 210//229 207//226 206//225 211//230
f 210//229 211//230 55//58 54//57
f 210//229 54//57 53//56 212//231
f 210//229 212//231 208//227 207//226
f 213//232 185//203 187//202 214//233
f 213//232 214//233 215//234 216//235
f 213//236 216//237 206//225 205//224
f 213//236 205//224 179//191 185//199
f 217//238 216//235 215//234 218//239
f 217//238 218//239 61//66 60//65
f 217//240 60//63 55//58 211//230
f 217//240 211//230 206//225 216//237
f 219//241 220//242 221//243 222//244
f 219//241 222//244 70//78 69//77
f 219//245 69//75 68//74 223//246
f 219//245 223//246 224//247 220//248
f 225//249 189//211 84//93 226//250
f 225//249 226//250 221//243 220//242
f 225//251 220//248 224//247 227//252
f 225//251 227//252 190//206 189//205
f 228//253 229//254 224//247 223//246
f 228//253 223//246 68//74 78//87
f 228//253 78//87 77//86 230//255
f 228//253 230//255 231//256 229//254
f 232//257 233//258 190//206 227//252
f 232//257 227//252 224//247 229//254
f 232//257 229//254 231//256 234//259
f 232//257 234//259 160//172 233//258
f 235//260 236//261 147//159 153//165
f 235//260 153//165 14//14 82//91
f 235//260 82//91 81//90 196//215
f 235//260 196//215 27//30 236//261
f 237//262 238//263 149//161 148//160
f 237//262 148//160 147//159 236//261
f 237//262 236//261 27//30 26//29
f 237//262 26//29 33//36 238//263
f 239//264 233//258 160//172 159//171
f 239//264 159//171 89//98 240//265
f 239//264 240//265 192//266 191//207
f 239//264 191//207 190//206 233//258
f 241//267 240//265 89//98 88//97
f 241//267 88//97 87//96 101//112
f 241//267 101//112 29//111 195//268
f 241//267 195//268 192//266 240//265
f 242//269 243//270 127//139 126//138
f 242//269 126//138 107//119 106//118
f 242//269 106//118 70//78 222//244
f 242//269 222//244 221//243 243//270
f 244//271 83//92 12//12 165//177
f 244//271 165//177 127//139 243//270
f 244//271 243//270 221//243 226//250
f 244//271 226//250 84//93 83//92
f 245//272 202//221 169//181 168//180
f 245//272 168//180 38//41 246//273
f 245//272 246//273 215//234 214//233
f 245//272 214//233 187//202 202//221
f 247//274 246//273 38//41 37//40
f 247//274 37//40 36//39 112//124
f 247//274 112//124 61//66 218//239
f 247//274 218//239 215//234 246//273
f 248//275 249//276 5//5 173//185
f 248//275 173//185 116//128 115//127
f 248//275 115//127 16//16 154//166
f 248//275 154//166 145//157 249//276
f 250//277 251//278 7//7 6//6
f 250//277 6//6 5//5 249//276
f 250//277 249//276 145//157 144//156
f 250//277 144//156 151//163 251//278
f 252//279 253//280 200//219 199//218
f 252//279 199//218 47//50 133//145
f 252//279 133//145 93//102 92//101
f 252//279 92//101 91//100 253//280
f 254//281 170//182 169//181 203//222
f 254//281 203//222 200//219 253//280
f 254//281 253//280 91//100 158//170
f 254//281 158//170 162//174 170//182
f 255//282 256//283 208//227 212//231
f 255//282 212//231 53//56 137//149
f 255//282 137//149 131//143 130//142
f 255//282 130//142 129//141 256//283
f 257//284 119//131 118//130 209//228
f 257//284 209//228 208//227 256//283
f 257//284 256//283 129//141 164//176
f 257//284 164//176 18//18 119//131
f 258//285 259//286 231//256 230//255
f 258//285 230//255 77//86 141//153
f 258//285 141//153 42//45 41//44
f 258//285 41//44 40//43 259//286
f 260//287 161//173 160//172 234//259
f 260//287 234//259 231//256 259//286
f 260//287 259//286 40//43 167//179
f 260//287 167//179 162//174 161//173
