# Blender v3.2.1 OBJ File: ''
# www.blender.org
mtllib thyrohyoid_left.mtl
o Thyrohyoid_Muscle_Left
v 0.242213 18.154308 0.333988
v 0.233092 18.153152 0.345811
v 0.232481 18.185415 0.364644
v 0.243213 18.186295 0.353994
v 0.249509 18.175526 0.352644
v 0.246370 18.146139 0.331212
v 0.242112 18.121544 0.313044
v 0.240323 18.126383 0.316873
v 0.233055 18.124571 0.329399
v 0.161784 18.252474 0.582931
v 0.144083 18.235439 0.599326
v 0.146879 18.206699 0.580075
v 0.169361 18.221258 0.564961
v 0.194160 18.242989 0.543023
v 0.181360 18.277208 0.559538
v 0.165304 18.309841 0.572838
v 0.151809 18.282604 0.598736
v 0.139860 18.263651 0.617364
v 0.223097 18.146172 0.362241
v 0.223721 18.121260 0.345520
v 0.213233 18.117388 0.366281
v 0.212638 18.136972 0.383215
v 0.211756 18.159773 0.401402
v 0.222060 18.174482 0.380760
v 0.241473 18.125151 0.341922
v 0.246619 18.151508 0.364429
v 0.236190 18.128519 0.388186
v 0.229727 18.105637 0.366514
v 0.221865 18.089458 0.348383
v 0.235006 18.104904 0.323014
v 0.196591 18.304264 0.536748
v 0.212125 18.267416 0.521304
v 0.224296 18.294825 0.498494
v 0.208056 18.332958 0.512794
v 0.188887 18.368942 0.522961
v 0.177738 18.339348 0.548341
v 0.135540 18.104094 0.498361
v 0.137751 18.092932 0.486767
v 0.143217 18.085220 0.480619
v 0.141535 18.098621 0.493869
v 0.140959 18.112991 0.507356
v 0.133909 18.116468 0.510491
v 0.142326 18.123003 0.500299
v 0.143936 18.112055 0.489232
v 0.145257 18.102989 0.479178
v 0.214098 18.395081 0.457103
v 0.200299 18.425770 0.463265
v 0.203414 18.417007 0.471564
v 0.219118 18.385805 0.464530
v 0.232817 18.350361 0.453546
v 0.226055 18.360336 0.447170
v 0.215688 18.354654 0.453532
v 0.205554 18.389509 0.463740
v 0.193831 18.421043 0.470207
v 0.147850 18.256874 0.574941
v 0.144287 18.285419 0.593889
v 0.160480 18.311415 0.572092
v 0.165000 18.281368 0.554214
v 0.170013 18.250204 0.534630
v 0.151368 18.227739 0.554889
v 0.137099 18.211227 0.571870
v 0.135037 18.239141 0.591818
v 0.132262 18.266838 0.610870
v 0.216335 18.362619 0.485907
v 0.198528 18.396446 0.494416
v 0.231712 18.325499 0.473281
v 0.134474 18.231497 0.601117
v 0.132065 18.258989 0.620052
v 0.135864 18.203785 0.581322
v 0.197769 18.368162 0.484557
v 0.205981 18.332541 0.472011
v 0.195891 18.303114 0.495113
v 0.189267 18.338825 0.510714
v 0.182527 18.372488 0.522339
v 0.188658 18.401142 0.493077
v 0.178575 18.309290 0.533369
v 0.184378 18.275499 0.515346
v 0.173180 18.341509 0.548459
v 0.164675 18.117641 0.466260
v 0.163465 18.129751 0.478801
v 0.186694 18.137634 0.451933
v 0.187492 18.122723 0.436915
v 0.187772 18.110777 0.422890
v 0.165311 18.108042 0.454796
v 0.202125 18.129162 0.408670
v 0.201379 18.147566 0.425630
v 0.202497 18.113894 0.392728
v 0.223864 18.150240 0.445589
v 0.200519 18.141476 0.475773
v 0.196819 18.119448 0.459267
v 0.219866 18.120825 0.422751
v 0.239857 18.164808 0.416939
v 0.239696 18.208199 0.447833
v 0.224521 18.186769 0.471518
v 0.201983 18.170065 0.495922
v 0.169193 18.133598 0.503181
v 0.142595 18.129299 0.521318
v 0.166223 18.115412 0.488875
v 0.171594 18.157082 0.520556
v 0.145023 18.149839 0.537689
v 0.242432 18.226406 0.379781
v 0.239570 18.271263 0.406599
v 0.248319 18.259346 0.409732
v 0.250406 18.214487 0.380605
v 0.230572 18.225040 0.388318
v 0.227311 18.268724 0.413247
v 0.172141 18.187881 0.542659
v 0.200449 18.205587 0.520078
v 0.146822 18.176905 0.558402
v 0.220194 18.209583 0.402873
v 0.217106 18.249346 0.426963
v 0.210300 18.188997 0.422093
v 0.207423 18.223791 0.445431
v 0.249126 18.190088 0.394134
v 0.247995 18.235357 0.425357
v 0.221022 18.227039 0.498158
v 0.234676 18.252388 0.475929
v 0.133438 18.131266 0.523693
v 0.133938 18.150364 0.539591
v 0.138299 18.157309 0.529629
v 0.140138 18.137718 0.513391
v 0.234328 18.317486 0.429699
v 0.222646 18.313160 0.435843
v 0.242503 18.306421 0.434663
v 0.154797 18.197426 0.532633
v 0.158068 18.169336 0.511170
v 0.137736 18.182880 0.550131
v 0.176012 18.216808 0.511634
v 0.181470 18.184971 0.488609
v 0.242228 18.281786 0.452418
v 0.135215 18.175638 0.559807
v 0.212397 18.291632 0.451411
v 0.202281 18.263300 0.471562
v 0.190997 18.238562 0.491457
v 0.196733 18.202726 0.466338
v 0.161110 18.146881 0.493499
v 0.184859 18.158482 0.468936
v 0.199888 18.172241 0.444624
v 0.213339 18.101894 0.405384
v 0.205549 18.088207 0.390752
v 0.191643 18.103617 0.446038
v 0.185730 18.090881 0.434447
v 0.163972 18.100492 0.475980
v 0.162082 18.087212 0.463791
vn -0.7600 0.3458 -0.5504
vn -0.8191 0.2976 -0.4904
vn -0.7852 0.3080 -0.5372
vn -0.6663 0.3836 -0.6394
vn 0.3874 0.4927 -0.7792
vn 0.5935 0.4386 -0.6748
vn 0.9097 0.1852 -0.3716
vn 0.3873 0.4927 -0.7792
vn 0.2341 0.5231 -0.8195
vn -0.8026 0.3244 -0.5006
vn -0.8348 0.2917 -0.4670
vn 0.7805 -0.1125 0.6149
vn 0.5882 -0.3630 0.7227
vn 0.4794 -0.4688 0.7419
vn 0.7183 -0.2751 0.6390
vn 0.7803 -0.1339 0.6108
vn 0.7792 0.0365 0.6257
vn 0.7808 0.1072 0.6155
vn 0.8128 -0.0357 0.5815
vn 0.6488 -0.3074 0.6961
vn -0.8890 0.2394 -0.3902
vn -0.8797 0.2564 -0.4006
vn -0.9024 0.2627 -0.3415
vn -0.9130 0.2387 -0.3308
vn -0.9284 0.1929 -0.3177
vn -0.9038 0.2056 -0.3753
vn 0.9468 -0.3116 0.0806
vn 0.9750 -0.2189 0.0372
vn 0.9760 -0.1980 0.0911
vn 0.9039 -0.3602 0.2308
vn 0.8453 -0.4969 0.1963
vn 0.8067 -0.5616 0.1837
vn 0.9247 -0.3710 0.0856
vn 0.9597 -0.2755 0.0557
vn 0.7823 0.1342 0.6083
vn 0.8339 -0.0137 0.5518
vn 0.8816 0.0803 0.4650
vn 0.8105 0.2031 0.5494
vn 0.7787 0.2485 0.5761
vn 0.7601 0.1895 0.6215
vn -0.1250 -0.7047 0.6984
vn -0.1939 -0.7127 0.6741
vn 0.1967 -0.6973 0.6893
vn 0.2215 -0.6839 0.6951
vn 0.2657 -0.6558 0.7066
vn -0.0104 -0.6764 0.7364
vn -0.8280 0.3344 -0.4501
vn -0.8348 0.3246 -0.4446
vn -0.7767 0.3797 -0.5026
vn -0.7717 0.4100 -0.4862
vn -0.7767 0.4160 -0.4729
vn -0.8353 0.3271 -0.4419
vn 0.9058 0.4120 -0.0987
vn 0.9042 0.4265 0.0214
vn 0.8905 0.3824 0.2464
vn 0.9189 0.3588 0.1639
vn 0.9548 0.2967 -0.0209
vn 0.8669 0.3751 -0.3283
vn -0.6088 -0.0265 -0.7929
vn -0.5738 0.1406 -0.8068
vn -0.7539 0.0689 -0.6534
vn -0.7642 -0.0801 -0.6400
vn -0.7730 -0.1458 -0.6175
vn -0.6284 -0.1012 -0.7713
vn -0.8620 0.2033 -0.4644
vn -0.8722 0.1855 -0.4526
vn -0.8845 0.1290 -0.4483
vn -0.8741 0.1461 -0.4633
vn -0.8535 0.1839 -0.4876
vn -0.8356 0.2496 -0.4893
vn -0.9419 0.1623 -0.2939
vn -0.9575 0.1003 -0.2706
vn -0.9618 0.0788 -0.2622
vn 0.8484 0.2570 0.4627
vn 0.8131 0.2974 0.5005
vn 0.9229 0.1539 0.3531
vn -0.9963 -0.0186 -0.0840
vn -0.9963 -0.0415 -0.0757
vn -0.9930 0.0490 -0.1073
vn 0.3621 -0.4978 0.7881
vn 0.2472 -0.5589 0.7915
vn 0.4287 -0.4636 0.7754
vn -0.9035 -0.1020 -0.4163
vn -0.9076 0.0004 -0.4198
vn -0.9186 0.0367 -0.3935
vn -0.9200 -0.0299 -0.3908
vn -0.9243 -0.0610 -0.3766
vn -0.9052 -0.1476 -0.3985
vn -0.9041 0.0572 -0.4235
vn -0.8947 0.1010 -0.4352
vn -0.9118 0.0356 -0.4090
vn -0.7180 0.4843 -0.4999
vn -0.7283 0.4226 -0.5394
vn -0.8166 0.3516 -0.4578
vn -0.7996 0.4210 -0.4283
vn -0.7882 0.4526 -0.4169
vn -0.7133 0.5094 -0.4813
vn -0.8922 0.2983 -0.3391
vn -0.9064 0.2419 -0.3463
vn -0.8819 0.3267 -0.3400
vn 0.8362 -0.3650 0.4093
vn 0.7111 -0.4640 0.5283
vn 0.6759 -0.5494 0.4913
vn 0.7922 -0.4854 0.3699
vn 0.9312 -0.2444 0.2704
vn 0.9376 -0.1540 0.3118
vn 0.8545 -0.2736 0.4416
vn 0.7401 -0.3872 0.5498
vn 0.5867 -0.5367 0.6064
vn 0.3043 -0.6249 0.7189
vn 0.5704 -0.5763 0.5853
vn 0.6201 -0.4830 0.6183
vn 0.3459 -0.5915 0.7284
vn 0.6814 0.4134 -0.6041
vn 0.7335 0.3846 -0.5604
vn 0.9389 0.2256 -0.2600
vn 0.9276 0.2092 -0.3094
vn -0.5758 0.4000 -0.7130
vn -0.7522 0.3067 -0.5832
vn -0.7353 0.2745 -0.6197
vn -0.5259 0.3694 -0.7662
vn 0.6651 -0.4072 0.6259
vn 0.7676 -0.2913 0.5710
vn 0.4013 -0.5473 0.7344
vn -0.9117 0.1728 -0.3728
vn -0.9143 0.1375 -0.3809
vn -0.9343 0.1540 -0.3216
vn -0.9321 0.1221 -0.3409
vn 0.9868 -0.1070 0.1214
vn 0.9861 -0.0315 0.1633
vn 0.8599 -0.1678 0.4820
vn 0.9273 -0.0530 0.3705
vn -0.8810 0.2773 -0.3833
vn -0.9385 0.2133 -0.2714
vn -0.8597 0.2947 -0.4173
vn -0.8094 0.3352 -0.4823
vn 0.0598 -0.6457 0.7612
vn 0.1092 -0.6243 0.7735
vn -0.5382 0.2860 -0.7928
vn -0.7430 0.2000 -0.6387
vn 0.7944 0.3613 -0.4883
vn 0.9531 0.2454 -0.1771
vn -0.7971 0.3031 -0.5222
vn -0.7594 0.3407 -0.5543
vn -0.9089 0.2387 -0.3419
vn -0.8358 0.2222 -0.5020
vn -0.8250 0.2566 -0.5035
vn 0.9707 0.0485 0.2352
vn 0.1670 -0.6016 0.7811
vn -0.9767 0.1369 -0.1651
vn -0.9140 0.0875 -0.3962
vn -0.9254 0.0898 -0.3681
vn -0.8964 0.1355 -0.4220
vn -0.9038 0.1623 -0.3959
vn -0.7387 0.3695 -0.5637
vn -0.8222 0.2934 -0.4878
vn -0.9093 0.1953 -0.3674
vn 0.7208 -0.6129 0.3238
vn 0.6815 -0.6671 0.3009
vn 0.6459 -0.6238 0.4402
vn 0.6360 -0.6521 0.4126
vn 0.5811 -0.5953 0.5549
vn 0.5939 -0.5991 0.5369
usemtl material1726.003
s 1
f 1//1 2//2 3//3 4//4
f 1//5 4//6 5//7 6//8
f 1//5 6//8 7//9 8//9
f 1//1 8//10 9//11 2//2
f 10//12 11//13 12//14 13//15
f 10//12 13//15 14//16 15//17
f 10//12 15//17 16//18 17//19
f 10//12 17//19 18//20 11//13
f 19//21 20//22 21//23 22//24
f 19//21 22//24 23//25 24//26
f 19//21 24//26 3//3 2//2
f 19//21 2//2 9//11 20//22
f 25//27 6//28 5//7 26//29
f 25//27 26//29 27//30 28//31
f 25//27 28//31 29//32 30//33
f 25//27 30//33 7//34 6//28
f 31//35 15//17 14//16 32//36
f 31//35 32//36 33//37 34//38
f 31//35 34//38 35//39 36//40
f 31//35 36//40 16//18 15//17
f 37//41 38//42 39//43 40//44
f 37//41 40//44 41//45 42//46
f 37//47 42//48 43//49 44//50
f 37//47 44//50 45//51 38//52
f 46//53 47//54 48//55 49//56
f 46//53 49//56 50//57 51//58
f 46//59 51//60 52//61 53//62
f 46//59 53//62 54//63 47//64
f 55//65 56//66 57//67 58//68
f 55//65 58//68 59//69 60//70
f 55//65 60//70 61//71 62//72
f 55//65 62//72 63//73 56//66
f 64//74 65//75 35//39 34//38
f 64//74 34//38 33//37 66//76
f 64//74 66//76 50//57 49//56
f 64//74 49//56 48//55 65//75
f 67//77 68//78 63//73 62//72
f 67//77 62//72 61//71 69//79
f 67//80 69//81 12//14 11//13
f 67//80 11//13 18//20 68//82
f 70//83 53//62 52//61 71//84
f 70//83 71//84 72//85 73//86
f 70//83 73//86 74//87 75//88
f 70//83 75//88 54//63 53//62
f 76//89 73//86 72//85 77//90
f 76//89 77//90 59//69 58//68
f 76//89 58//68 57//67 78//91
f 76//89 78//91 74//87 73//86
f 79//92 44//50 43//49 80//93
f 79//92 80//93 81//94 82//95
f 79//92 82//95 83//96 84//97
f 79//92 84//97 45//51 44//50
f 85//98 82//95 81//94 86//99
f 85//98 86//99 23//25 22//24
f 85//98 22//24 21//23 87//100
f 85//98 87//100 83//96 82//95
f 88//101 89//102 90//103 91//104
f 88//101 91//104 27//30 92//105
f 88//101 92//105 93//106 94//107
f 88//101 94//107 95//108 89//102
f 96//109 97//110 41//45 98//111
f 96//109 98//111 90//103 89//102
f 96//109 89//102 95//108 99//112
f 96//109 99//112 100//113 97//110
f 101//114 102//115 103//116 104//117
f 101//114 104//117 5//7 4//6
f 101//118 4//4 3//3 105//119
f 101//118 105//119 106//120 102//121
f 107//122 99//112 95//108 108//123
f 107//122 108//123 14//16 13//15
f 107//122 13//15 12//14 109//124
f 107//122 109//124 100//113 99//112
f 110//125 111//126 106//120 105//119
f 110//125 105//119 3//3 24//26
f 110//125 24//26 23//25 112//127
f 110//125 112//127 113//128 111//126
f 114//129 115//130 93//106 92//105
f 114//129 92//105 27//30 26//29
f 114//129 26//29 5//7 104//117
f 114//129 104//117 103//116 115//130
f 116//131 94//107 93//106 117//132
f 116//131 117//132 33//37 32//36
f 116//131 32//36 14//16 108//123
f 116//131 108//123 95//108 94//107
f 118//133 119//134 120//135 121//136
f 118//133 121//136 43//49 42//48
f 118//137 42//46 41//45 97//110
f 118//137 97//110 100//113 119//138
f 122//139 102//121 106//120 123//140
f 122//139 123//140 52//61 51//60
f 122//141 51//58 50//57 124//142
f 122//141 124//142 103//116 102//115
f 125//143 126//144 120//135 127//145
f 125//143 127//145 61//71 60//70
f 125//143 60//70 59//69 128//146
f 125//143 128//146 129//147 126//144
f 130//148 115//130 103//116 124//142
f 130//148 124//142 50//57 66//76
f 130//148 66//76 33//37 117//132
f 130//148 117//132 93//106 115//130
f 131//149 119//138 100//113 109//124
f 131//149 109//124 12//14 69//81
f 131//150 69//79 61//71 127//145
f 131//150 127//145 120//135 119//134
f 132//151 111//126 113//128 133//152
f 132//151 133//152 72//85 71//84
f 132//151 71//84 52//61 123//140
f 132//151 123//140 106//120 111//126
f 134//153 135//154 129//147 128//146
f 134//153 128//146 59//69 77//90
f 134//153 77//90 72//85 133//152
f 134//153 133//152 113//128 135//154
f 136//155 126//144 129//147 137//156
f 136//155 137//156 81//94 80//93
f 136//155 80//93 43//49 121//136
f 136//155 121//136 120//135 126//144
f 138//157 135//154 113//128 112//127
f 138//157 112//127 23//25 86//99
f 138//157 86//99 81//94 137//156
f 138//157 137//156 129//147 135//154
f 139//158 140//159 29//32 28//31
f 139//158 28//31 27//30 91//104
f 139//158 91//104 90//103 141//160
f 139//158 141//160 142//161 140//159
f 143//162 144//163 142//161 141//160
f 143//162 141//160 90//103 98//111
f 143//162 98//111 41//45 40//44
f 143//162 40//44 39//43 144//163
