# Blender v3.2.1 OBJ File: ''
# www.blender.org
mtllib thyrohyoid_right.mtl
o Thyrohyoid_Muscle_Right
v -0.243213 18.186295 0.353994
v -0.232481 18.185415 0.364644
v -0.233092 18.153152 0.345811
v -0.242213 18.154308 0.333988
v -0.246370 18.146139 0.331212
v -0.249509 18.175526 0.352644
v -0.240323 18.126383 0.316873
v -0.242112 18.121544 0.313044
v -0.233055 18.124571 0.329399
v -0.169361 18.221258 0.564961
v -0.146879 18.206699 0.580075
v -0.144083 18.235439 0.599326
v -0.161784 18.252474 0.582931
v -0.181360 18.277208 0.559538
v -0.194160 18.242989 0.543023
v -0.151809 18.282604 0.598736
v -0.165304 18.309841 0.572838
v -0.139860 18.263651 0.617364
v -0.212638 18.136972 0.383215
v -0.213233 18.117388 0.366281
v -0.223721 18.121260 0.345520
v -0.223097 18.146172 0.362241
v -0.222060 18.174482 0.380760
v -0.211756 18.159773 0.401402
v -0.246619 18.151508 0.364429
v -0.241473 18.125151 0.341922
v -0.229727 18.105637 0.366514
v -0.236190 18.128519 0.388186
v -0.235006 18.104904 0.323014
v -0.221865 18.089458 0.348383
v -0.212125 18.267416 0.521304
v -0.196591 18.304264 0.536748
v -0.208056 18.332958 0.512794
v -0.224296 18.294825 0.498494
v -0.177738 18.339348 0.548341
v -0.188887 18.368942 0.522961
v -0.141535 18.098621 0.493869
v -0.143217 18.085220 0.480619
v -0.137751 18.092932 0.486767
v -0.135540 18.104094 0.498361
v -0.133909 18.116468 0.510491
v -0.140959 18.112991 0.507356
v -0.143936 18.112055 0.489232
v -0.142326 18.123003 0.500299
v -0.145257 18.102989 0.479178
v -0.219118 18.385805 0.464530
v -0.203414 18.417007 0.471564
v -0.200299 18.425770 0.463265
v -0.214098 18.395081 0.457103
v -0.226055 18.360336 0.447170
v -0.232817 18.350361 0.453546
v -0.205554 18.389509 0.463740
v -0.215688 18.354654 0.453532
v -0.193831 18.421043 0.470207
v -0.165000 18.281368 0.554214
v -0.160480 18.311415 0.572092
v -0.144287 18.285419 0.593889
v -0.147850 18.256874 0.574941
v -0.151368 18.227739 0.554889
v -0.170013 18.250204 0.534630
v -0.135037 18.239141 0.591818
v -0.137099 18.211227 0.571870
v -0.132262 18.266838 0.610870
v -0.198528 18.396446 0.494416
v -0.216335 18.362619 0.485907
v -0.231712 18.325499 0.473281
v -0.132065 18.258989 0.620052
v -0.134474 18.231497 0.601117
v -0.135864 18.203785 0.581322
v -0.205981 18.332541 0.472011
v -0.197769 18.368162 0.484557
v -0.189267 18.338825 0.510714
v -0.195891 18.303114 0.495113
v -0.188658 18.401142 0.493077
v -0.182527 18.372488 0.522339
v -0.184378 18.275499 0.515346
v -0.178575 18.309290 0.533369
v -0.173180 18.341509 0.548459
v -0.163465 18.129751 0.478801
v -0.164675 18.117641 0.466260
v -0.187492 18.122723 0.436915
v -0.186694 18.137634 0.451933
v -0.165311 18.108042 0.454796
v -0.187772 18.110777 0.422890
v -0.201379 18.147566 0.425630
v -0.202125 18.129162 0.408670
v -0.202497 18.113894 0.392728
v -0.219866 18.120825 0.422751
v -0.196819 18.119448 0.459267
v -0.200519 18.141476 0.475773
v -0.223864 18.150240 0.445589
v -0.239857 18.164808 0.416939
v -0.224521 18.186769 0.471518
v -0.239696 18.208199 0.447833
v -0.201983 18.170065 0.495922
v -0.166223 18.115412 0.488875
v -0.142595 18.129299 0.521318
v -0.169193 18.133598 0.503181
v -0.171594 18.157082 0.520556
v -0.145023 18.149839 0.537689
v -0.250406 18.214487 0.380605
v -0.248319 18.259346 0.409732
v -0.239570 18.271263 0.406599
v -0.242432 18.226406 0.379781
v -0.230572 18.225040 0.388318
v -0.227311 18.268724 0.413247
v -0.200449 18.205587 0.520078
v -0.172141 18.187881 0.542659
v -0.146822 18.176905 0.558402
v -0.217106 18.249346 0.426963
v -0.220194 18.209583 0.402873
v -0.210300 18.188997 0.422093
v -0.207423 18.223791 0.445431
v -0.247995 18.235357 0.425357
v -0.249126 18.190088 0.394134
v -0.234676 18.252388 0.475929
v -0.221022 18.227039 0.498158
v -0.140138 18.137718 0.513391
v -0.138299 18.157309 0.529629
v -0.133938 18.150364 0.539591
v -0.133438 18.131266 0.523693
v -0.222646 18.313160 0.435843
v -0.234328 18.317486 0.429699
v -0.242503 18.306421 0.434663
v -0.137736 18.182880 0.550131
v -0.158068 18.169336 0.511170
v -0.154797 18.197426 0.532633
v -0.176012 18.216808 0.511634
v -0.181470 18.184971 0.488609
v -0.242228 18.281786 0.452418
v -0.135215 18.175638 0.559807
v -0.202281 18.263300 0.471562
v -0.212397 18.291632 0.451411
v -0.196733 18.202726 0.466338
v -0.190997 18.238562 0.491457
v -0.184859 18.158482 0.468936
v -0.161110 18.146881 0.493499
v -0.199888 18.172241 0.444624
v -0.205549 18.088207 0.390752
v -0.213339 18.101894 0.405384
v -0.191643 18.103617 0.446038
v -0.185730 18.090881 0.434447
v -0.162082 18.087212 0.463791
v -0.163972 18.100492 0.475980
vn 0.6663 0.3836 -0.6394
vn 0.7852 0.3080 -0.5372
vn 0.8191 0.2976 -0.4904
vn 0.7600 0.3458 -0.5504
vn -0.3873 0.4927 -0.7792
vn -0.9097 0.1852 -0.3716
vn -0.5936 0.4386 -0.6748
vn -0.3874 0.4927 -0.7792
vn -0.2341 0.5231 -0.8195
vn 0.8348 0.2917 -0.4669
vn 0.8026 0.3244 -0.5006
vn -0.7183 -0.2751 0.6390
vn -0.4794 -0.4688 0.7419
vn -0.5881 -0.3630 0.7228
vn -0.7805 -0.1123 0.6149
vn -0.7792 0.0366 0.6257
vn -0.7803 -0.1339 0.6108
vn -0.8128 -0.0357 0.5815
vn -0.7808 0.1072 0.6155
vn -0.6488 -0.3074 0.6961
vn 0.9130 0.2387 -0.3307
vn 0.9024 0.2627 -0.3415
vn 0.8797 0.2564 -0.4006
vn 0.8891 0.2393 -0.3902
vn 0.9038 0.2056 -0.3753
vn 0.9283 0.1929 -0.3177
vn -0.9760 -0.1980 0.0911
vn -0.9750 -0.2189 0.0372
vn -0.9468 -0.3116 0.0806
vn -0.8453 -0.4969 0.1963
vn -0.9039 -0.3602 0.2308
vn -0.9247 -0.3710 0.0856
vn -0.8067 -0.5616 0.1837
vn -0.9597 -0.2755 0.0557
vn -0.8339 -0.0137 0.5518
vn -0.7823 0.1342 0.6083
vn -0.8105 0.2031 0.5494
vn -0.8816 0.0803 0.4650
vn -0.7601 0.1895 0.6215
vn -0.7787 0.2485 0.5761
vn -0.2215 -0.6839 0.6951
vn -0.1967 -0.6973 0.6893
vn 0.1940 -0.7124 0.6744
vn 0.1250 -0.7047 0.6984
vn 0.0104 -0.6765 0.7364
vn -0.2657 -0.6558 0.7066
vn 0.7717 0.4100 -0.4862
vn 0.7767 0.3797 -0.5026
vn 0.8348 0.3246 -0.4446
vn 0.8280 0.3344 -0.4501
vn 0.8353 0.3271 -0.4419
vn 0.7767 0.4160 -0.4729
vn -0.9189 0.3588 0.1639
vn -0.8905 0.3824 0.2464
vn -0.9042 0.4265 0.0214
vn -0.9058 0.4120 -0.0987
vn -0.8669 0.3751 -0.3282
vn -0.9548 0.2967 -0.0209
vn 0.7642 -0.0801 -0.6400
vn 0.7539 0.0689 -0.6534
vn 0.5738 0.1407 -0.8068
vn 0.6088 -0.0265 -0.7929
vn 0.6284 -0.1012 -0.7713
vn 0.7730 -0.1458 -0.6175
vn 0.8741 0.1461 -0.4633
vn 0.8845 0.1290 -0.4483
vn 0.8722 0.1855 -0.4527
vn 0.8620 0.2033 -0.4644
vn 0.8358 0.2493 -0.4892
vn 0.8535 0.1839 -0.4876
vn 0.9574 0.1003 -0.2709
vn 0.9420 0.1623 -0.2939
vn 0.9618 0.0788 -0.2622
vn -0.8131 0.2974 0.5005
vn -0.8484 0.2570 0.4627
vn -0.9229 0.1539 0.3530
vn 0.9963 -0.0415 -0.0757
vn 0.9963 -0.0186 -0.0840
vn 0.9930 0.0490 -0.1073
vn -0.2472 -0.5589 0.7915
vn -0.3621 -0.4978 0.7881
vn -0.4287 -0.4636 0.7754
vn 0.9076 0.0003 -0.4198
vn 0.9035 -0.1020 -0.4163
vn 0.9200 -0.0298 -0.3908
vn 0.9186 0.0367 -0.3935
vn 0.9052 -0.1476 -0.3985
vn 0.9243 -0.0610 -0.3766
vn 0.8947 0.1009 -0.4352
vn 0.9041 0.0573 -0.4235
vn 0.9118 0.0356 -0.4090
vn 0.7283 0.4226 -0.5394
vn 0.7180 0.4843 -0.4999
vn 0.7996 0.4210 -0.4283
vn 0.8166 0.3516 -0.4578
vn 0.7133 0.5094 -0.4813
vn 0.7882 0.4526 -0.4169
vn 0.9064 0.2418 -0.3463
vn 0.8922 0.2983 -0.3391
vn 0.8819 0.3267 -0.3400
vn -0.7922 -0.4854 0.3699
vn -0.6759 -0.5494 0.4913
vn -0.7111 -0.4640 0.5283
vn -0.8362 -0.3650 0.4093
vn -0.9312 -0.2444 0.2704
vn -0.8544 -0.2735 0.4417
vn -0.9376 -0.1540 0.3118
vn -0.7402 -0.3872 0.5497
vn -0.5704 -0.5763 0.5853
vn -0.3043 -0.6249 0.7189
vn -0.5868 -0.5366 0.6064
vn -0.6201 -0.4830 0.6183
vn -0.3459 -0.5915 0.7284
vn -0.9276 0.2092 -0.3094
vn -0.9389 0.2256 -0.2600
vn -0.7335 0.3846 -0.5604
vn -0.6814 0.4134 -0.6041
vn 0.7522 0.3067 -0.5832
vn 0.5758 0.4000 -0.7130
vn 0.5259 0.3694 -0.7661
vn 0.7353 0.2745 -0.6197
vn -0.7676 -0.2913 0.5709
vn -0.6651 -0.4072 0.6259
vn -0.4014 -0.5473 0.7344
vn 0.9143 0.1375 -0.3809
vn 0.9117 0.1728 -0.3728
vn 0.9342 0.1541 -0.3216
vn 0.9321 0.1221 -0.3409
vn -0.9861 -0.0316 0.1633
vn -0.9868 -0.1070 0.1214
vn -0.9273 -0.0530 0.3705
vn -0.8599 -0.1679 0.4820
vn 0.8094 0.3351 -0.4823
vn 0.8597 0.2947 -0.4172
vn 0.9385 0.2134 -0.2715
vn 0.8810 0.2773 -0.3833
vn -0.0598 -0.6457 0.7612
vn -0.1092 -0.6243 0.7735
vn 0.7430 0.2001 -0.6387
vn 0.5382 0.2860 -0.7928
vn -0.9531 0.2454 -0.1770
vn -0.7944 0.3613 -0.4883
vn 0.9089 0.2387 -0.3419
vn 0.7593 0.3407 -0.5544
vn 0.7971 0.3032 -0.5222
vn 0.8358 0.2223 -0.5020
vn 0.8250 0.2566 -0.5035
vn -0.9708 0.0485 0.2351
vn -0.1671 -0.6016 0.7811
vn 0.9767 0.1370 -0.1651
vn 0.9254 0.0898 -0.3681
vn 0.9140 0.0876 -0.3962
vn 0.9038 0.1623 -0.3959
vn 0.8964 0.1354 -0.4220
vn 0.8221 0.2935 -0.4878
vn 0.7387 0.3696 -0.5637
vn 0.9093 0.1953 -0.3674
vn -0.6815 -0.6671 0.3009
vn -0.7208 -0.6129 0.3238
vn -0.6459 -0.6237 0.4402
vn -0.6360 -0.6521 0.4126
vn -0.5939 -0.5991 0.5369
vn -0.5811 -0.5953 0.5550
usemtl material1727.003
s 1
f 1//1 2//2 3//3 4//4
f 5//5 6//6 1//7 4//8
f 7//9 8//9 5//5 4//8
f 3//3 9//10 7//11 4//4
f 10//12 11//13 12//14 13//15
f 14//16 15//17 10//12 13//15
f 16//18 17//19 14//16 13//15
f 12//14 18//20 16//18 13//15
f 19//21 20//22 21//23 22//24
f 23//25 24//26 19//21 22//24
f 3//3 2//2 23//25 22//24
f 21//23 9//10 3//3 22//24
f 25//27 6//6 5//28 26//29
f 27//30 28//31 25//27 26//29
f 29//32 30//33 27//30 26//29
f 5//28 8//34 29//32 26//29
f 31//35 15//17 14//16 32//36
f 33//37 34//38 31//35 32//36
f 35//39 36//40 33//37 32//36
f 14//16 17//19 35//39 32//36
f 37//41 38//42 39//43 40//44
f 41//45 42//46 37//41 40//44
f 43//47 44//48 41//49 40//50
f 39//51 45//52 43//47 40//50
f 46//53 47//54 48//55 49//56
f 50//57 51//58 46//53 49//56
f 52//59 53//60 50//61 49//62
f 48//63 54//64 52//59 49//62
f 55//65 56//66 57//67 58//68
f 59//69 60//70 55//65 58//68
f 61//71 62//72 59//69 58//68
f 57//67 63//73 61//71 58//68
f 33//37 36//40 64//74 65//75
f 66//76 34//38 33//37 65//75
f 46//53 51//58 66//76 65//75
f 64//74 47//54 46//53 65//75
f 61//71 63//73 67//77 68//78
f 69//79 62//72 61//71 68//78
f 12//14 11//13 69//80 68//81
f 67//82 18//20 12//14 68//81
f 70//83 53//60 52//59 71//84
f 72//85 73//86 70//83 71//84
f 74//87 75//88 72//85 71//84
f 52//59 54//64 74//87 71//84
f 76//89 73//86 72//85 77//90
f 55//65 60//70 76//89 77//90
f 78//91 56//66 55//65 77//90
f 72//85 75//88 78//91 77//90
f 79//92 44//48 43//47 80//93
f 81//94 82//95 79//92 80//93
f 83//96 84//97 81//94 80//93
f 43//47 45//52 83//96 80//93
f 85//98 82//95 81//94 86//99
f 19//21 24//26 85//98 86//99
f 87//100 20//22 19//21 86//99
f 81//94 84//97 87//100 86//99
f 88//101 89//102 90//103 91//104
f 92//105 28//31 88//101 91//104
f 93//106 94//107 92//105 91//104
f 90//103 95//108 93//106 91//104
f 96//109 42//46 97//110 98//111
f 90//103 89//102 96//109 98//111
f 99//112 95//108 90//103 98//111
f 97//110 100//113 99//112 98//111
f 101//114 102//115 103//116 104//117
f 1//7 6//6 101//114 104//117
f 105//118 2//2 1//1 104//119
f 103//120 106//121 105//118 104//119
f 107//122 95//108 99//112 108//123
f 10//12 15//17 107//122 108//123
f 109//124 11//13 10//12 108//123
f 99//112 100//113 109//124 108//123
f 105//118 106//121 110//125 111//126
f 23//25 2//2 105//118 111//126
f 112//127 24//26 23//25 111//126
f 110//125 113//128 112//127 111//126
f 92//105 94//107 114//129 115//130
f 25//27 28//31 92//105 115//130
f 101//114 6//6 25//27 115//130
f 114//129 102//115 101//114 115//130
f 116//131 94//107 93//106 117//132
f 31//35 34//38 116//131 117//132
f 107//122 15//17 31//35 117//132
f 93//106 95//108 107//122 117//132
f 118//133 119//134 120//135 121//136
f 41//49 44//48 118//133 121//136
f 97//110 42//46 41//45 121//137
f 120//138 100//113 97//110 121//137
f 122//139 106//121 103//120 123//140
f 50//61 53//60 122//139 123//140
f 124//141 51//58 50//57 123//142
f 103//116 102//115 124//141 123//142
f 125//143 119//134 126//144 127//145
f 59//69 62//72 125//143 127//145
f 128//146 60//70 59//69 127//145
f 126//144 129//147 128//146 127//145
f 124//141 102//115 114//129 130//148
f 66//76 51//58 124//141 130//148
f 116//131 34//38 66//76 130//148
f 114//129 94//107 116//131 130//148
f 109//124 100//113 120//138 131//149
f 69//80 11//13 109//124 131//149
f 125//143 62//72 69//79 131//150
f 120//135 119//134 125//143 131//150
f 132//151 113//128 110//125 133//152
f 70//83 73//86 132//151 133//152
f 122//139 53//60 70//83 133//152
f 110//125 106//121 122//139 133//152
f 128//146 129//147 134//153 135//154
f 76//89 60//70 128//146 135//154
f 132//151 73//86 76//89 135//154
f 134//153 113//128 132//151 135//154
f 136//155 129//147 126//144 137//156
f 79//92 82//95 136//155 137//156
f 118//133 44//48 79//92 137//156
f 126//144 119//134 118//133 137//156
f 112//127 113//128 134//153 138//157
f 85//98 24//26 112//127 138//157
f 136//155 82//95 85//98 138//157
f 134//153 129//147 136//155 138//157
f 27//30 30//33 139//158 140//159
f 88//101 28//31 27//30 140//159
f 141//160 89//102 88//101 140//159
f 139//158 142//161 141//160 140//159
f 141//160 142//161 143//162 144//163
f 96//109 89//102 141//160 144//163
f 37//41 42//46 96//109 144//163
f 143//162 38//42 37//41 144//163
