# Blender v3.2.1 OBJ File: ''
# www.blender.org
mtllib zygomaticus_major_left.mtl
o Zygomaticus_Major_Muscle_Left
v 0.313177 18.618374 1.135939
v 0.301347 18.605349 1.144330
v 0.289957 18.611364 1.163780
v 0.301783 18.624819 1.155844
v 0.314166 18.637999 1.147435
v 0.325127 18.631145 1.127738
v 0.337527 18.620834 1.107547
v 0.326433 18.608356 1.114828
v 0.315256 18.595440 1.122378
v 0.295062 18.628534 1.170493
v 0.284501 18.614071 1.175145
v 0.283055 18.613012 1.180201
v 0.292712 18.627703 1.178496
v 0.304435 18.641611 1.173132
v 0.307019 18.642263 1.163587
v 0.294429 18.620501 1.178462
v 0.283696 18.607740 1.180729
v 0.288541 18.599066 1.173900
v 0.301290 18.609245 1.170416
v 0.315556 18.621395 1.164698
v 0.307163 18.633715 1.173006
v 0.314372 18.596256 1.154383
v 0.299706 18.587797 1.156890
v 0.313608 18.575155 1.135513
v 0.329328 18.583017 1.134409
v 0.345323 18.593765 1.130888
v 0.329965 18.607477 1.149693
v 0.341813 18.571014 1.114540
v 0.326664 18.562351 1.115584
v 0.336977 18.552631 1.099141
v 0.350805 18.561241 1.096381
v 0.363731 18.572077 1.092104
v 0.356562 18.582058 1.111178
v 0.355284 18.554691 1.081537
v 0.342647 18.549231 1.088218
v 0.344515 18.550982 1.082863
v 0.356084 18.554426 1.073067
v 0.366720 18.561895 1.065122
v 0.366874 18.563543 1.075208
v 0.354041 18.563509 1.074033
v 0.343419 18.556721 1.083118
v 0.338344 18.566669 1.089746
v 0.348483 18.577990 1.082506
v 0.358241 18.589392 1.075876
v 0.363996 18.572569 1.066479
v 0.338742 18.593918 1.096561
v 0.328272 18.581062 1.103508
v 0.348991 18.606199 1.089913
v 0.595646 18.919493 0.945470
v 0.605071 18.928911 0.938050
v 0.635056 18.918070 0.899368
v 0.624820 18.908123 0.908031
v 0.614068 18.898367 0.916495
v 0.586121 18.910303 0.952672
v 0.561583 18.924356 0.985226
v 0.568667 18.932779 0.978991
v 0.576108 18.940912 0.972361
v 0.556696 18.947191 1.000842
v 0.563667 18.952332 0.993886
v 0.550509 18.940119 1.006956
v 0.551243 18.952200 1.017029
v 0.557054 18.958607 1.010181
v 0.563739 18.961912 1.002067
v 0.567060 18.962906 1.006166
v 0.572317 18.968395 0.996346
v 0.562127 18.955215 1.014615
v 0.583161 18.954685 0.996941
v 0.586868 18.964754 0.986175
v 0.590053 18.973948 0.974511
v 0.616633 18.968821 0.947589
v 0.617602 18.980736 0.934353
v 0.614344 18.956133 0.961238
v 0.645127 18.953323 0.919925
v 0.645698 18.968140 0.904485
v 0.644535 18.982033 0.890580
v 0.663408 18.955755 0.870937
v 0.660423 18.971119 0.857902
v 0.664962 18.940031 0.885420
v 0.673654 18.922735 0.857377
v 0.670998 18.938263 0.845615
v 0.667367 18.953981 0.835554
v 0.669702 18.922256 0.827185
v 0.667467 18.936619 0.822773
v 0.671009 18.907911 0.835448
v 0.663603 18.896030 0.825859
v 0.664481 18.908955 0.819764
v 0.664313 18.921574 0.818941
v 0.660295 18.899576 0.827470
v 0.661495 18.911390 0.823441
v 0.658013 18.887571 0.834833
v 0.650009 18.884542 0.856227
v 0.654231 18.895840 0.846844
v 0.657438 18.907200 0.838096
v 0.643378 18.899464 0.874427
v 0.650569 18.910130 0.864727
v 0.635362 18.888960 0.883897
v 0.434678 18.743069 1.058328
v 0.471842 18.787224 1.033430
v 0.481195 18.775923 1.015062
v 0.442632 18.732887 1.041992
v 0.407107 18.692711 1.065194
v 0.399590 18.702393 1.081234
v 0.394035 18.709326 1.095861
v 0.429067 18.750559 1.073567
v 0.465477 18.795933 1.050717
v 0.426964 18.753864 1.085091
v 0.463362 18.799856 1.063525
v 0.391574 18.712646 1.106644
v 0.392470 18.712486 1.113042
v 0.428480 18.753513 1.092295
v 0.465417 18.799969 1.071522
v 0.433724 18.750032 1.094573
v 0.471563 18.797241 1.074379
v 0.396985 18.708977 1.114514
v 0.405131 18.702217 1.111040
v 0.442582 18.743240 1.091956
v 0.481780 18.791018 1.071761
v 0.454937 18.732962 1.084477
v 0.496046 18.780643 1.063332
v 0.416918 18.692314 1.102604
v 0.428618 18.680700 1.088925
v 0.467228 18.720980 1.071322
v 0.510266 18.768242 1.048770
v 0.475891 18.709082 1.051680
v 0.520340 18.755934 1.027755
v 0.436501 18.668812 1.069723
v 0.439754 18.659702 1.050929
v 0.479520 18.700413 1.032008
v 0.524663 18.746851 1.006749
v 0.476711 18.698120 1.018763
v 0.521628 18.744127 0.992212
v 0.437567 18.656427 1.038476
v 0.432831 18.657732 1.032322
v 0.471039 18.700108 1.011789
v 0.515256 18.745438 0.984137
v 0.466082 18.704277 1.010929
v 0.509569 18.748457 0.982518
v 0.428439 18.662355 1.032425
v 0.423083 18.670197 1.038476
v 0.460203 18.711216 1.016091
v 0.502574 18.754335 0.987446
v 0.451763 18.721512 1.027179
v 0.492278 18.764225 0.999014
v 0.415455 18.681147 1.050170
v 0.505071 18.824593 1.010454
v 0.497543 18.835138 1.031636
v 0.522684 18.866579 1.016399
v 0.532298 18.854387 0.991136
v 0.546810 18.841171 0.963340
v 0.516543 18.812178 0.987581
v 0.494930 18.841064 1.046432
v 0.497107 18.843241 1.054870
v 0.521135 18.879370 1.041940
v 0.519041 18.874729 1.033214
v 0.503950 18.842535 1.056979
v 0.515894 18.838156 1.052190
v 0.542782 18.878918 1.035378
v 0.528730 18.881031 1.042936
v 0.533374 18.829306 1.039935
v 0.551248 18.817650 1.021268
v 0.586728 18.861877 0.994685
v 0.564247 18.872225 1.018442
v 0.564371 18.804842 0.997244
v 0.570621 18.794115 0.973937
v 0.612533 18.836231 0.940503
v 0.603828 18.848797 0.966664
v 0.567873 18.788704 0.957421
v 0.560725 18.787086 0.948212
v 0.601520 18.822161 0.912699
v 0.609830 18.827438 0.922328
v 0.553772 18.787750 0.946828
v 0.544648 18.791876 0.953315
v 0.582332 18.822397 0.920875
v 0.593406 18.820139 0.912174
v 0.530987 18.800646 0.967717
v 0.565144 18.829958 0.938925
v 0.372589 18.675463 1.098235
v 0.380877 18.665031 1.081489
v 0.361980 18.646166 1.092739
v 0.352292 18.657417 1.110680
v 0.344306 18.664791 1.126963
v 0.366105 18.682547 1.113275
v 0.363031 18.685764 1.123698
v 0.340154 18.668095 1.138218
v 0.340065 18.667631 1.144574
v 0.363562 18.685499 1.129620
v 0.367897 18.682142 1.131156
v 0.344267 18.663706 1.146157
v 0.353113 18.655979 1.141489
v 0.376257 18.675344 1.127275
v 0.388860 18.664757 1.116944
v 0.366959 18.644119 1.129091
v 0.380035 18.630472 1.111904
v 0.400920 18.652239 1.101577
v 0.407648 18.639648 1.082586
v 0.386571 18.617393 1.092871
v 0.388728 18.606670 1.075361
v 0.409926 18.629622 1.064727
v 0.408641 18.624798 1.052754
v 0.388666 18.600094 1.062742
v 0.386886 18.599072 1.056182
v 0.405389 18.624949 1.046892
v 0.401767 18.629841 1.047364
v 0.383887 18.605017 1.056851
v 0.378921 18.616283 1.063907
v 0.396763 18.638956 1.053829
v 0.389368 18.651775 1.065945
v 0.371237 18.631227 1.076509
v 0.551456 18.875816 0.977214
v 0.538320 18.888664 1.005080
v 0.547985 18.904039 0.996798
v 0.565253 18.890881 0.967159
v 0.588094 18.877754 0.933889
v 0.570131 18.862423 0.946129
v 0.533070 18.898096 1.023273
v 0.535086 18.904396 1.032337
v 0.542566 18.922934 1.025620
v 0.540768 18.914976 1.016150
v 0.543749 18.907848 1.032816
v 0.560304 18.907570 1.023456
v 0.571249 18.927692 1.014332
v 0.552342 18.927156 1.025613
v 0.585993 18.902678 1.003006
v 0.613262 18.893604 0.974889
v 0.631249 18.917105 0.957575
v 0.600440 18.924591 0.989978
v 0.634556 18.880783 0.942530
v 0.645540 18.867224 0.913376
v 0.667023 18.890032 0.891180
v 0.655012 18.904488 0.922142
v 0.641880 18.855934 0.894873
v 0.631715 18.847775 0.886282
v 0.651392 18.866896 0.864402
v 0.662574 18.877037 0.872190
v 0.623184 18.843607 0.886865
v 0.611532 18.844456 0.897303
v 0.632067 18.860600 0.880127
v 0.643206 18.861004 0.867047
v 0.592002 18.851349 0.918274
v 0.612031 18.866922 0.903643
v 0.337319 18.643402 1.119916
v 0.348453 18.632437 1.100804
v 0.327667 18.650633 1.138079
v 0.321767 18.654524 1.152172
v 0.320288 18.653961 1.160451
v 0.323899 18.647840 1.161173
v 0.332855 18.637486 1.154509
v 0.347411 18.624229 1.140634
v 0.361864 18.610283 1.122530
v 0.370512 18.597857 1.103178
v 0.374851 18.587355 1.084792
v 0.376373 18.579176 1.069584
v 0.375492 18.577415 1.060876
v 0.372621 18.586164 1.061987
v 0.367233 18.600960 1.070466
v 0.358801 18.617334 1.083863
v 0.576399 18.901569 0.959440
v 0.555214 18.915358 0.990671
v 0.602282 18.888988 0.924563
v 0.545891 18.929180 1.011384
v 0.547183 18.939589 1.021346
v 0.557845 18.943123 1.020321
v 0.578412 18.942865 1.005910
v 0.609418 18.941898 0.975712
v 0.641091 18.936663 0.938438
v 0.663656 18.923590 0.902797
v 0.674362 18.907598 0.872539
v 0.670458 18.893600 0.851416
v 0.660631 18.882496 0.842499
v 0.653566 18.875187 0.848864
v 0.643757 18.873379 0.866878
v 0.625699 18.878786 0.892910
vn -0.7503 0.3230 -0.5768
vn -0.7535 0.3158 -0.5766
vn -0.7725 0.3791 -0.5094
vn -0.7692 0.3886 -0.5073
vn -0.7575 0.4156 -0.5034
vn -0.7399 0.3440 -0.5782
vn -0.7174 0.2826 -0.6368
vn -0.7266 0.2641 -0.6342
vn -0.7295 0.2582 -0.6334
vn -0.8025 0.5037 -0.3199
vn -0.8151 0.4832 -0.3196
vn -0.8271 0.5381 -0.1624
vn -0.8063 0.5677 -0.1664
vn -0.7312 0.6682 -0.1373
vn -0.7614 0.5729 -0.3033
vn 0.3811 -0.0982 0.9193
vn 0.3193 -0.1299 0.9387
vn 0.4981 -0.4021 0.7683
vn 0.5198 -0.3413 0.7831
vn 0.5701 -0.2058 0.7954
vn 0.4863 0.0079 0.8737
vn 0.3895 0.1635 0.9064
vn 0.2186 0.0732 0.9731
vn 0.1119 0.0604 0.9919
vn 0.4905 -0.4814 0.7264
vn 0.4521 -0.5549 0.6983
vn 0.4013 -0.6315 0.6635
vn 0.4637 -0.5713 0.6772
vn 0.6046 -0.4188 0.6775
vn 0.5760 -0.3181 0.7530
vn 0.4993 -0.6023 0.6229
vn 0.4268 -0.6428 0.6361
vn 0.5020 -0.6674 0.5501
vn 0.5720 -0.6269 0.5289
vn 0.7336 -0.5024 0.4577
vn 0.6660 -0.4781 0.5726
vn 0.5643 -0.7845 0.2573
vn 0.4523 -0.8614 0.2313
vn 0.3211 -0.9462 -0.0398
vn 0.4846 -0.8742 0.0313
vn 0.7619 -0.6436 0.0730
vn 0.7741 -0.5863 0.2386
vn -0.6480 0.0482 -0.7601
vn -0.6611 0.0371 -0.7494
vn -0.6904 0.1637 -0.7046
vn -0.6886 0.1708 -0.7047
vn -0.6800 0.1869 -0.7090
vn -0.5966 0.0721 -0.7993
vn -0.5082 -0.0273 -0.8608
vn -0.6034 -0.0565 -0.7955
vn -0.6277 -0.0691 -0.7754
vn -0.7027 0.2115 -0.6793
vn -0.7045 0.2055 -0.6793
vn -0.6961 0.2274 -0.6810
vn -0.7318 0.2074 -0.6491
vn -0.7337 0.1944 -0.6511
vn -0.7887 0.2480 -0.5625
vn -0.7760 0.2491 -0.5795
vn -0.7435 0.2747 -0.6097
vn -0.7259 0.2469 -0.6420
vn -0.7735 0.2111 -0.5977
vn -0.7580 0.2078 -0.6183
vn -0.7532 0.2075 -0.6242
vn -0.8013 0.3135 -0.5095
vn -0.7804 0.3302 -0.5310
vn -0.8614 0.2663 -0.4326
vn -0.8970 0.3205 -0.3043
vn -0.6592 0.7516 -0.0242
vn -0.6726 0.7168 -0.1836
vn 0.1943 0.7716 0.6057
vn -0.4402 0.8867 0.1415
vn -0.0137 0.5780 0.8159
vn 0.3167 0.4853 0.8150
vn 0.6435 0.3666 0.6719
vn 0.6263 0.4922 0.6045
vn 0.6109 0.5409 0.5781
vn 0.5637 0.5617 0.6056
vn 0.6989 0.4823 0.5281
vn 0.6918 0.5104 0.5108
vn 0.7119 0.4039 0.5745
vn 0.8076 0.3762 0.4542
vn 0.8047 0.4325 0.4067
vn 0.8023 0.4533 0.3884
vn 0.9210 0.3221 0.2193
vn 0.9198 0.3387 0.1981
vn 0.9202 0.2783 0.2752
vn 0.9945 0.0999 0.0310
vn 0.9852 0.1708 -0.0157
vn 0.9800 0.1960 -0.0336
vn 0.9496 -0.0161 -0.3131
vn 0.9315 0.0426 -0.3611
vn 0.9593 -0.1700 -0.2255
vn 0.7317 -0.5060 -0.4566
vn 0.8757 -0.1114 -0.4698
vn 0.8378 -0.0311 -0.5451
vn -0.8686 -0.0815 -0.4888
vn -0.8956 -0.0282 -0.4441
vn -0.8001 -0.0842 -0.5939
vn -0.7341 -0.1906 -0.6518
vn -0.6540 -0.2934 -0.6972
vn -0.8646 -0.0965 -0.4932
vn -0.9015 0.0689 -0.4272
vn -0.9361 0.0900 -0.3401
vn -0.9480 0.0985 -0.3025
vn -0.8689 0.2071 -0.4495
vn -0.8866 0.2221 -0.4057
vn -0.8221 0.2013 -0.5325
vn -0.7697 0.3605 -0.5268
vn -0.7715 0.3565 -0.5269
vn -0.7417 0.2731 -0.6127
vn -0.7381 0.2936 -0.6075
vn -0.7308 0.3187 -0.6036
vn -0.7532 0.3839 -0.5341
vn -0.7713 0.4777 -0.4205
vn -0.7983 0.4542 -0.3955
vn -0.8007 0.4503 -0.3951
vn -0.7870 0.6129 -0.0709
vn -0.8040 0.5892 -0.0807
vn -0.7513 0.6505 -0.1112
vn -0.6783 0.7238 0.1263
vn -0.4539 0.6581 0.6008
vn -0.5191 0.6353 0.5717
vn 0.1535 0.2977 0.9422
vn 0.0978 0.3134 0.9446
vn 0.0255 0.4637 0.8857
vn 0.2323 0.2785 0.9319
vn 0.4761 -0.0098 0.8793
vn 0.4346 0.0230 0.9003
vn 0.4352 0.0436 0.8993
vn 0.5590 -0.1381 0.8176
vn 0.5795 -0.0998 0.8088
vn 0.5747 -0.1740 0.7996
vn 0.6664 -0.3501 0.6583
vn 0.6705 -0.3191 0.6698
vn 0.6967 -0.2655 0.6665
vn 0.7369 -0.4786 0.4774
vn 0.7623 -0.4317 0.4821
vn 0.7247 -0.4959 0.4785
vn 0.7489 -0.6214 0.2303
vn 0.7507 -0.6321 0.1923
vn 0.7623 -0.6137 0.2055
vn 0.6133 -0.7382 -0.2809
vn 0.6100 -0.7611 -0.2204
vn 0.6562 -0.7182 -0.2313
vn 0.1567 -0.5366 -0.8292
vn 0.1673 -0.5938 -0.7870
vn 0.2155 -0.7083 -0.6722
vn -0.3959 -0.1497 -0.9060
vn -0.3536 -0.3039 -0.8847
vn -0.4509 -0.0454 -0.8914
vn -0.6551 0.1948 -0.7300
vn -0.6403 0.1473 -0.7539
vn -0.6404 0.0724 -0.7646
vn -0.6999 0.2322 -0.6754
vn -0.7030 0.1876 -0.6861
vn -0.7020 0.2628 -0.6620
vn -0.7716 0.3620 -0.5230
vn -0.7983 0.4389 -0.4124
vn -0.8097 0.3911 -0.4375
vn -0.7727 0.3505 -0.5292
vn -0.7398 0.2832 -0.6103
vn -0.7461 0.2698 -0.6087
vn -0.8234 0.5473 -0.1496
vn -0.5862 0.6149 0.5275
vn -0.8534 0.5185 -0.0529
vn -0.8539 0.4716 -0.2202
vn 0.1032 0.2950 0.9499
vn 0.4855 0.0281 0.8738
vn 0.5354 0.0104 0.8446
vn 0.1334 0.2796 0.9508
vn -0.2183 0.4529 0.8644
vn 0.6202 -0.0823 0.7801
vn 0.7224 -0.2172 0.6565
vn 0.7283 -0.2015 0.6550
vn 0.6466 -0.0852 0.7580
vn 0.7806 -0.3748 0.5001
vn 0.7778 -0.5705 0.2636
vn 0.7806 -0.5351 0.3229
vn 0.7783 -0.3453 0.5245
vn 0.6470 -0.7576 -0.0867
vn 0.3129 -0.8087 -0.4981
vn 0.4314 -0.8397 -0.3299
vn 0.6854 -0.7275 0.0326
vn -0.3083 -0.4515 -0.8373
vn -0.6525 0.0218 -0.7575
vn -0.6634 0.0505 -0.7465
vn -0.6299 -0.0346 -0.7759
vn 0.2308 -0.8229 -0.5192
vn -0.7107 0.1621 -0.6846
vn -0.7067 0.1852 -0.6828
vn -0.7263 0.4047 -0.5557
vn -0.7144 0.3317 -0.6161
vn -0.7039 0.3245 -0.6318
vn -0.7161 0.3968 -0.5742
vn -0.7228 0.4924 -0.4849
vn -0.7328 0.5042 -0.4569
vn -0.6978 0.6989 -0.1571
vn -0.6768 0.7073 -0.2038
vn -0.5818 0.8127 0.0316
vn -0.6143 0.7845 0.0851
vn 0.2972 0.2923 0.9090
vn 0.1012 0.4960 0.8624
vn 0.2292 0.4831 0.8451
vn 0.3895 0.2736 0.8794
vn 0.5616 -0.0417 0.8264
vn 0.5201 -0.0263 0.8537
vn 0.6027 -0.1942 0.7740
vn 0.6278 -0.1920 0.7543
vn 0.7022 -0.3290 0.6314
vn 0.6785 -0.3571 0.6420
vn 0.7312 -0.4889 0.4757
vn 0.7646 -0.4379 0.4730
vn 0.8053 -0.4943 0.3273
vn 0.7612 -0.5818 0.2865
vn 0.7339 -0.6725 -0.0954
vn 0.8294 -0.5564 0.0506
vn 0.8020 -0.5767 -0.1554
vn 0.6470 -0.6749 -0.3547
vn -0.4910 0.0143 -0.8710
vn -0.3119 -0.1462 -0.9388
vn -0.3452 -0.0673 -0.9361
vn -0.5081 0.0580 -0.8594
vn -0.6647 0.2079 -0.7176
vn -0.6642 0.2092 -0.7177
vn -0.6971 0.2703 -0.6641
vn -0.6893 0.2618 -0.6756
vn -0.7673 0.3191 -0.5563
vn -0.8254 0.3134 -0.4695
vn -0.8196 0.2532 -0.5139
vn -0.7476 0.2976 -0.5937
vn -0.7106 0.3075 -0.6329
vn -0.7233 0.2980 -0.6229
vn -0.8930 0.3712 -0.2546
vn -0.9041 0.4182 -0.0881
vn -0.9433 0.3176 -0.0965
vn -0.9177 0.2810 -0.2807
vn 0.1554 0.2802 0.9473
vn 0.5612 0.0377 0.8268
vn 0.5882 0.1137 0.8007
vn 0.2082 0.2575 0.9436
vn -0.1301 0.3562 0.9253
vn -0.2071 0.4312 0.8782
vn 0.6654 -0.0492 0.7449
vn 0.7418 -0.1553 0.6524
vn 0.7861 0.0213 0.6178
vn 0.6961 0.0875 0.7126
vn 0.7931 -0.2938 0.5335
vn 0.8029 -0.4885 0.3416
vn 0.9023 -0.3308 0.2766
vn 0.8645 -0.1059 0.4914
vn 0.7226 -0.6873 0.0744
vn 0.5273 -0.8203 -0.2217
vn 0.6022 -0.7653 -0.2272
vn 0.8104 -0.5858 0.0061
vn -0.6800 0.0548 -0.7312
vn -0.6882 0.1214 -0.7153
vn -0.7548 0.1280 -0.6434
vn -0.7754 0.0640 -0.6282
vn 0.3801 -0.8449 -0.3765
vn 0.4628 -0.8203 -0.3359
vn -0.6995 0.2289 -0.6770
vn -0.7175 0.2413 -0.6534
vn -0.7257 0.3710 -0.5794
vn -0.7069 0.3054 -0.6380
vn -0.7394 0.4528 -0.4983
vn -0.7073 0.6580 -0.2585
vn -0.6295 0.7751 -0.0546
vn 0.4918 0.1609 0.8557
vn 0.3886 0.3434 0.8550
vn 0.5909 -0.0924 0.8014
vn 0.6305 -0.2066 0.7482
vn 0.6974 -0.3142 0.6441
vn 0.7706 -0.3937 0.5013
vn 0.8261 -0.4241 0.3711
vn 0.8693 -0.4702 0.1525
vn 0.8676 -0.4972 -0.0091
vn -0.5350 0.0819 -0.8409
vn -0.3949 -0.0196 -0.9185
vn -0.6688 0.2008 -0.7158
vn -0.6888 0.2468 -0.6817
vn -0.7277 0.2836 -0.6245
vn -0.7966 0.2244 -0.5613
vn -0.7151 0.3053 -0.6288
vn -0.9106 0.2396 -0.3369
vn -0.9499 0.2708 -0.1561
vn 0.2911 0.2778 0.9154
vn 0.6258 0.2251 0.7468
vn -0.0140 0.3327 0.9429
vn 0.7157 0.2696 0.6443
vn 0.8092 0.2469 0.5332
vn 0.9141 0.1454 0.3785
vn 0.9879 -0.0742 0.1364
vn 0.9138 -0.3870 -0.1233
vn 0.6204 -0.6931 -0.3670
vn -0.8732 0.0046 -0.4873
vn -0.8402 0.0793 -0.5364
vn 0.3660 -0.7958 -0.4824
vn 0.2417 -0.7692 -0.5916
vn -0.7651 0.2231 -0.6040
usemtl material1745.003
s 1
f 1//1 2//2 3//3 4//4
f 1//1 4//4 5//5 6//6
f 1//1 6//6 7//7 8//8
f 1//1 8//8 9//9 2//2
f 10//10 11//11 12//12 13//13
f 10//10 13//13 14//14 15//15
f 10//10 15//15 5//5 4//4
f 10//10 4//4 3//3 11//11
f 16//16 17//17 18//18 19//19
f 16//16 19//19 20//20 21//21
f 16//16 21//21 14//22 13//23
f 16//16 13//23 12//24 17//17
f 22//25 23//26 24//27 25//28
f 22//25 25//28 26//29 27//30
f 22//25 27//30 20//20 19//19
f 22//25 19//19 18//18 23//26
f 28//31 29//32 30//33 31//34
f 28//31 31//34 32//35 33//36
f 28//31 33//36 26//29 25//28
f 28//31 25//28 24//27 29//32
f 34//37 35//38 36//39 37//40
f 34//37 37//40 38//41 39//42
f 34//37 39//42 32//35 31//34
f 34//37 31//34 30//33 35//38
f 40//43 41//44 42//45 43//46
f 40//43 43//46 44//47 45//48
f 40//43 45//48 38//49 37//50
f 40//43 37//50 36//51 41//44
f 46//52 47//53 9//9 8//8
f 46//52 8//8 7//7 48//54
f 46//52 48//54 44//47 43//46
f 46//52 43//46 42//45 47//53
f 49//55 50//56 51//57 52//58
f 49//55 52//58 53//59 54//60
f 49//55 54//60 55//61 56//62
f 49//55 56//62 57//63 50//56
f 58//64 59//65 57//63 56//62
f 58//64 56//62 55//61 60//66
f 58//64 60//66 61//67 62//68
f 58//64 62//68 63//69 59//65
f 64//70 65//71 63//69 62//68
f 64//70 62//68 61//72 66//73
f 64//70 66//73 67//74 68//75
f 64//70 68//75 69//76 65//77
f 70//78 71//79 69//76 68//75
f 70//78 68//75 67//74 72//80
f 70//78 72//80 73//81 74//82
f 70//78 74//82 75//83 71//79
f 76//84 77//85 75//83 74//82
f 76//84 74//82 73//81 78//86
f 76//84 78//86 79//87 80//88
f 76//84 80//88 81//89 77//85
f 82//90 83//91 81//89 80//88
f 82//90 80//88 79//87 84//92
f 82//90 84//92 85//93 86//94
f 82//90 86//94 87//95 83//91
f 88//96 89//97 87//98 86//99
f 88//96 86//99 85//100 90//101
f 88//96 90//101 91//102 92//103
f 88//96 92//103 93//104 89//97
f 94//105 95//106 93//104 92//103
f 94//105 92//103 91//102 96//107
f 94//105 96//107 53//59 52//58
f 94//105 52//58 51//57 95//106
f 97//108 98//109 99//110 100//111
f 97//108 100//111 101//112 102//113
f 97//108 102//113 103//114 104//115
f 97//108 104//115 105//116 98//109
f 106//117 107//118 105//116 104//115
f 106//117 104//115 103//114 108//119
f 106//117 108//119 109//120 110//121
f 106//117 110//121 111//122 107//118
f 112//123 113//124 111//122 110//121
f 112//123 110//121 109//125 114//126
f 112//123 114//126 115//127 116//128
f 112//123 116//128 117//129 113//124
f 118//130 119//131 117//129 116//128
f 118//130 116//128 115//127 120//132
f 118//130 120//132 121//133 122//134
f 118//130 122//134 123//135 119//131
f 124//136 125//137 123//135 122//134
f 124//136 122//134 121//133 126//138
f 124//136 126//138 127//139 128//140
f 124//136 128//140 129//141 125//137
f 130//142 131//143 129//141 128//140
f 130//142 128//140 127//139 132//144
f 130//142 132//144 133//145 134//146
f 130//142 134//146 135//147 131//143
f 136//148 137//149 135//147 134//146
f 136//148 134//146 133//145 138//150
f 136//148 138//150 139//151 140//152
f 136//148 140//152 141//153 137//149
f 142//154 143//155 141//153 140//152
f 142//154 140//152 139//151 144//156
f 142//154 144//156 101//112 100//111
f 142//154 100//111 99//110 143//155
f 145//157 98//109 105//116 146//158
f 145//157 146//158 147//159 148//160
f 145//157 148//160 149//161 150//162
f 145//157 150//162 99//110 98//109
f 151//163 107//118 111//122 152//164
f 151//163 152//164 153//165 154//166
f 151//163 154//166 147//159 146//158
f 151//163 146//158 105//116 107//118
f 155//167 113//124 117//129 156//168
f 155//167 156//168 157//169 158//170
f 155//167 158//170 153//171 152//164
f 155//167 152//164 111//122 113//124
f 159//172 119//131 123//135 160//173
f 159//172 160//173 161//174 162//175
f 159//172 162//175 157//169 156//168
f 159//172 156//168 117//129 119//131
f 163//176 125//137 129//141 164//177
f 163//176 164//177 165//178 166//179
f 163//176 166//179 161//174 160//173
f 163//176 160//173 123//135 125//137
f 167//180 131//143 135//147 168//181
f 167//180 168//181 169//182 170//183
f 167//180 170//183 165//178 164//177
f 167//180 164//177 129//141 131//143
f 171//184 137//149 141//153 172//185
f 171//184 172//185 173//186 174//187
f 171//184 174//188 169//182 168//181
f 171//184 168//181 135//147 137//149
f 175//189 143//155 99//110 150//162
f 175//189 150//162 149//161 176//190
f 175//189 176//190 173//186 172//185
f 175//189 172//185 141//153 143//155
f 177//191 102//113 101//112 178//192
f 177//191 178//192 179//193 180//194
f 177//191 180//194 181//195 182//196
f 177//191 182//196 103//114 102//113
f 183//197 108//119 103//114 182//196
f 183//197 182//196 181//195 184//198
f 183//197 184//198 185//199 186//200
f 183//197 186//200 109//120 108//119
f 187//201 114//126 109//125 186//202
f 187//201 186//202 185//203 188//204
f 187//201 188//204 189//205 190//206
f 187//201 190//206 115//127 114//126
f 191//207 120//132 115//127 190//206
f 191//207 190//206 189//205 192//208
f 191//207 192//208 193//209 194//210
f 191//207 194//210 121//133 120//132
f 195//211 126//138 121//133 194//210
f 195//211 194//210 193//209 196//212
f 195//211 196//212 197//213 198//214
f 195//211 198//214 127//139 126//138
f 199//215 132//144 127//139 198//214
f 199//215 198//214 197//213 200//216
f 199//215 200//216 201//217 202//218
f 199//215 202//218 133//145 132//144
f 203//219 138//150 133//145 202//220
f 203//219 202//220 201//221 204//222
f 203//219 204//222 205//223 206//224
f 203//219 206//224 139//151 138//150
f 207//225 144//156 139//151 206//224
f 207//225 206//224 205//223 208//226
f 207//225 208//226 179//193 178//192
f 207//225 178//192 101//112 144//156
f 209//227 148//160 147//159 210//228
f 209//227 210//228 211//229 212//230
f 209//227 212//230 213//231 214//232
f 209//227 214//232 149//161 148//160
f 215//233 154//166 153//165 216//234
f 215//233 216//234 217//235 218//236
f 215//233 218//236 211//229 210//228
f 215//233 210//228 147//159 154//166
f 219//237 158//170 157//169 220//238
f 219//237 220//238 221//239 222//240
f 219//237 222//240 217//241 216//242
f 219//237 216//242 153//171 158//170
f 223//243 162//175 161//174 224//244
f 223//243 224//244 225//245 226//246
f 223//243 226//246 221//239 220//238
f 223//243 220//238 157//169 162//175
f 227//247 166//179 165//178 228//248
f 227//247 228//248 229//249 230//250
f 227//247 230//250 225//245 224//244
f 227//247 224//244 161//174 166//179
f 231//251 170//183 169//182 232//252
f 231//251 232//252 233//253 234//254
f 231//251 234//254 229//249 228//248
f 231//251 228//248 165//178 170//183
f 235//255 174//187 173//186 236//256
f 235//255 236//256 237//257 238//258
f 235//259 238//260 233//253 232//252
f 235//259 232//252 169//182 174//188
f 239//261 176//190 149//161 214//232
f 239//261 214//232 213//231 240//262
f 239//261 240//262 237//257 236//256
f 239//261 236//256 173//186 176//190
f 241//263 180//194 179//193 242//264
f 241//263 242//264 7//7 6//6
f 241//263 6//6 5//5 243//265
f 241//263 243//265 181//195 180//194
f 244//266 184//198 181//195 243//265
f 244//266 243//265 5//5 15//15
f 244//266 15//15 14//14 245//267
f 244//266 245//267 185//199 184//198
f 246//268 188//204 185//203 245//269
f 246//268 245//269 14//22 21//21
f 246//268 21//21 20//20 247//270
f 246//268 247//270 189//205 188//204
f 248//271 192//208 189//205 247//270
f 248//271 247//270 20//20 27//30
f 248//271 27//30 26//29 249//272
f 248//271 249//272 193//209 192//208
f 250//273 196//212 193//209 249//272
f 250//273 249//272 26//29 33//36
f 250//273 33//36 32//35 251//274
f 250//273 251//274 197//213 196//212
f 252//275 200//216 197//213 251//274
f 252//275 251//274 32//35 39//42
f 252//275 39//42 38//41 253//276
f 252//275 253//276 201//217 200//216
f 254//277 204//222 201//221 253//278
f 254//277 253//278 38//49 45//48
f 254//277 45//48 44//47 255//279
f 254//277 255//279 205//223 204//222
f 256//280 208//226 205//223 255//279
f 256//280 255//279 44//47 48//54
f 256//280 48//54 7//7 242//264
f 256//280 242//264 179//193 208//226
f 257//281 212//230 211//229 258//282
f 257//281 258//282 55//61 54//60
f 257//281 54//60 53//59 259//283
f 257//281 259//283 213//231 212//230
f 260//284 218//236 217//235 261//285
f 260//284 261//285 61//67 60//66
f 260//284 60//66 55//61 258//282
f 260//284 258//282 211//229 218//236
f 262//286 222//240 221//239 263//287
f 262//286 263//287 67//74 66//73
f 262//286 66//73 61//72 261//288
f 262//286 261//288 217//241 222//240
f 264//289 226//246 225//245 265//290
f 264//289 265//290 73//81 72//80
f 264//289 72//80 67//74 263//287
f 264//289 263//287 221//239 226//246
f 266//291 230//250 229//249 267//292
f 266//291 267//292 79//87 78//86
f 266//291 78//86 73//81 265//290
f 266//291 265//290 225//245 230//250
f 268//293 234//254 233//253 269//294
f 268//293 269//294 85//93 84//92
f 268//293 84//92 79//87 267//292
f 268//293 267//292 229//249 234//254
f 270//295 238//258 237//257 271//296
f 270//295 271//296 91//102 90//101
f 270//297 90//298 85//93 269//294
f 270//297 269//294 233//253 238//260
f 272//299 240//262 213//231 259//283
f 272//299 259//283 53//59 96//107
f 272//299 96//107 91//102 271//296
f 272//299 271//296 237//257 240//262
