# Blender v3.2.1 OBJ File: ''
# www.blender.org
mtllib zygomaticus_minor_left.mtl
o Zygomaticus_Minor_Muscle_Left
v 0.247450 18.633034 1.221865
v 0.244389 18.625429 1.228853
v 0.234644 18.628880 1.242667
v 0.236096 18.635727 1.235585
v 0.238861 18.643766 1.229331
v 0.251360 18.641459 1.215847
v 0.266108 18.639101 1.200891
v 0.261127 18.629887 1.206072
v 0.256562 18.620651 1.211894
v 0.230300 18.639023 1.246389
v 0.229699 18.630381 1.250345
v 0.228731 18.630247 1.253120
v 0.229612 18.640701 1.252476
v 0.232030 18.650234 1.249869
v 0.232488 18.647791 1.241817
v 0.233579 18.638544 1.252047
v 0.230919 18.628796 1.252223
v 0.236866 18.625959 1.246204
v 0.241642 18.633682 1.245587
v 0.246976 18.641968 1.243871
v 0.237272 18.647804 1.250053
v 0.253241 18.627245 1.233582
v 0.247178 18.621668 1.233612
v 0.259472 18.616594 1.217302
v 0.266262 18.620649 1.217845
v 0.273707 18.626423 1.217766
v 0.259903 18.634184 1.232831
v 0.278587 18.615314 1.200188
v 0.271366 18.611410 1.200127
v 0.280857 18.607206 1.185409
v 0.288417 18.611753 1.183374
v 0.295574 18.617393 1.180986
v 0.286040 18.620653 1.199513
v 0.293950 18.610476 1.170170
v 0.285941 18.605072 1.176470
v 0.287130 18.604919 1.172828
v 0.295096 18.611557 1.163201
v 0.301891 18.619535 1.156117
v 0.300982 18.617153 1.165097
v 0.291767 18.615074 1.165094
v 0.284938 18.606657 1.174003
v 0.278960 18.610126 1.180988
v 0.284515 18.619980 1.174245
v 0.290052 18.629688 1.168630
v 0.297927 18.624134 1.158317
v 0.273892 18.625225 1.189052
v 0.268793 18.615171 1.194779
v 0.279225 18.634928 1.183987
v 0.460580 18.984911 1.053349
v 0.466328 18.992907 1.048195
v 0.489518 18.966721 1.033520
v 0.483294 18.957924 1.037976
v 0.477152 18.948997 1.042381
v 0.454908 18.976562 1.058427
v 0.434401 19.006357 1.073421
v 0.439745 19.014475 1.067752
v 0.445314 19.021889 1.062113
v 0.423587 19.033541 1.077094
v 0.430300 19.039198 1.071403
v 0.417800 19.026281 1.082982
v 0.410645 19.038544 1.087132
v 0.416847 19.044800 1.080805
v 0.424392 19.048714 1.074736
v 0.424266 19.050940 1.078320
v 0.430696 19.054321 1.070784
v 0.418473 19.045357 1.085890
v 0.438766 19.044804 1.078884
v 0.443517 19.050127 1.070054
v 0.447779 19.053640 1.061231
v 0.472274 19.040525 1.056423
v 0.474208 19.044294 1.047761
v 0.469003 19.034969 1.065739
v 0.499529 19.019108 1.050855
v 0.501460 19.026028 1.041911
v 0.501492 19.031092 1.034113
v 0.521996 19.010525 1.031003
v 0.521140 19.018839 1.024029
v 0.520690 19.000467 1.038631
v 0.533363 18.982616 1.027979
v 0.534595 18.995516 1.022264
v 0.533467 19.006632 1.016843
v 0.539970 18.982494 1.014256
v 0.538783 18.993563 1.011890
v 0.538425 18.969118 1.017814
v 0.536978 18.957115 1.011712
v 0.539376 18.970051 1.009578
v 0.539040 18.980618 1.009499
v 0.534072 18.956772 1.010827
v 0.536188 18.968786 1.010001
v 0.530120 18.943748 1.013254
v 0.517550 18.934729 1.020038
v 0.522996 18.947378 1.016658
v 0.527704 18.960402 1.013965
v 0.505084 18.946587 1.025727
v 0.511062 18.957800 1.021957
v 0.498964 18.935766 1.029666
v 0.337999 18.779852 1.157932
v 0.379327 18.843973 1.129521
v 0.395496 18.825556 1.114736
v 0.352105 18.768126 1.144526
v 0.311304 18.711882 1.170510
v 0.298318 18.717556 1.183364
v 0.287635 18.721783 1.195707
v 0.325413 18.789570 1.171059
v 0.364042 18.860218 1.143948
v 0.317471 18.794731 1.181399
v 0.353237 18.869135 1.154506
v 0.282074 18.723955 1.205817
v 0.282022 18.724340 1.212648
v 0.315229 18.796560 1.188666
v 0.348594 18.873175 1.162020
v 0.319745 18.796291 1.192572
v 0.351797 18.874802 1.167312
v 0.287867 18.723202 1.215153
v 0.298812 18.719633 1.213182
v 0.330768 18.792091 1.192011
v 0.363352 18.870888 1.168049
v 0.348049 18.782131 1.185874
v 0.383769 18.858315 1.161895
v 0.314059 18.712734 1.206584
v 0.328897 18.704405 1.195274
v 0.365326 18.769228 1.174600
v 0.404656 18.840635 1.149876
v 0.376343 18.756201 1.158628
v 0.417625 18.821405 1.133017
v 0.338612 18.696545 1.179167
v 0.343968 18.691448 1.163237
v 0.382375 18.746124 1.142587
v 0.424678 18.805229 1.115971
v 0.384700 18.742077 1.131106
v 0.427820 18.796709 1.103392
v 0.345724 18.691410 1.152460
v 0.344481 18.693844 1.146756
v 0.383946 18.741924 1.124378
v 0.427717 18.793713 1.095632
v 0.380737 18.743540 1.122596
v 0.425033 18.794096 1.093044
v 0.340836 18.696163 1.146047
v 0.334148 18.699594 1.150147
v 0.374487 18.748138 1.125629
v 0.419026 18.799139 1.095557
v 0.364605 18.756945 1.133348
v 0.408955 18.810118 1.103102
v 0.323775 18.705364 1.158870
v 0.406156 18.883968 1.105374
v 0.388823 18.904743 1.121525
v 0.404485 18.934639 1.104400
v 0.423117 18.910692 1.086969
v 0.443567 18.887030 1.069121
v 0.424686 18.862137 1.088833
v 0.376336 18.917368 1.132687
v 0.370698 18.924650 1.140356
v 0.385275 18.960176 1.123463
v 0.391130 18.950132 1.116019
v 0.373909 18.929398 1.146030
v 0.386974 18.927713 1.146734
v 0.403918 18.968536 1.127970
v 0.389145 18.967770 1.128368
v 0.410894 18.915701 1.139493
v 0.435452 18.896488 1.125905
v 0.458372 18.938971 1.104728
v 0.430772 18.958094 1.119503
v 0.450428 18.873203 1.107566
v 0.458482 18.852385 1.089465
v 0.484530 18.890062 1.066861
v 0.475386 18.913692 1.085407
v 0.462272 18.840561 1.076591
v 0.462475 18.835108 1.068887
v 0.488386 18.868265 1.047469
v 0.488521 18.875881 1.054412
v 0.459768 18.833389 1.066301
v 0.452936 18.836702 1.068837
v 0.477062 18.865305 1.048358
v 0.485149 18.864336 1.045440
v 0.440760 18.846333 1.076501
v 0.462375 18.872385 1.056251
v 0.276424 18.683043 1.198572
v 0.289880 18.678856 1.184997
v 0.279523 18.660501 1.192366
v 0.265060 18.664852 1.206921
v 0.252894 18.667921 1.219346
v 0.265409 18.685841 1.210737
v 0.260084 18.686604 1.220210
v 0.246881 18.668837 1.228851
v 0.246752 18.668341 1.234834
v 0.260391 18.686039 1.226321
v 0.266272 18.684858 1.228398
v 0.252235 18.667183 1.236692
v 0.262842 18.663975 1.233995
v 0.277070 18.681828 1.226123
v 0.292125 18.675713 1.219178
v 0.278081 18.657330 1.226311
v 0.293253 18.649269 1.213128
v 0.306802 18.668304 1.207095
v 0.316463 18.661398 1.189403
v 0.303657 18.641815 1.193936
v 0.309884 18.637762 1.174655
v 0.321851 18.657585 1.171849
v 0.323705 18.659468 1.160180
v 0.312524 18.639902 1.161206
v 0.312056 18.644537 1.154460
v 0.322643 18.663567 1.154394
v 0.319282 18.666414 1.154490
v 0.308958 18.647964 1.155288
v 0.302618 18.651321 1.162892
v 0.312837 18.669403 1.160209
v 0.302527 18.673929 1.171294
v 0.292424 18.655746 1.176470
v 0.434838 18.935003 1.075784
v 0.415759 18.961411 1.093178
v 0.423736 18.982870 1.085535
v 0.443025 18.954683 1.068889
v 0.464443 18.927553 1.051619
v 0.456030 18.909397 1.057907
v 0.401980 18.978130 1.104577
v 0.396062 18.988937 1.111126
v 0.403274 19.011293 1.101808
v 0.409391 19.000357 1.096335
v 0.400565 18.997602 1.113967
v 0.416467 18.999327 1.111659
v 0.425786 19.021345 1.098134
v 0.408669 19.019825 1.102472
v 0.444746 18.989302 1.102759
v 0.474076 18.970268 1.088390
v 0.485055 18.992674 1.074854
v 0.454835 19.011242 1.088600
v 0.493131 18.944969 1.069672
v 0.503566 18.920740 1.051950
v 0.517292 18.945681 1.042001
v 0.505683 18.968792 1.057884
v 0.507036 18.904922 1.040564
v 0.505616 18.895348 1.034699
v 0.517934 18.918392 1.026290
v 0.520456 18.929422 1.031520
v 0.501380 18.889851 1.033536
v 0.492250 18.889427 1.037011
v 0.502205 18.908722 1.030565
v 0.512487 18.910963 1.026159
v 0.476151 18.895075 1.045058
v 0.485180 18.913242 1.038948
v 0.256968 18.651527 1.211773
v 0.271919 18.648279 1.196993
v 0.244253 18.654198 1.224731
v 0.237849 18.656813 1.236012
v 0.237520 18.657927 1.243336
v 0.243029 18.656092 1.244423
v 0.253426 18.651377 1.239959
v 0.267762 18.643848 1.230634
v 0.282463 18.635635 1.216439
v 0.293956 18.628862 1.197368
v 0.301928 18.625214 1.177890
v 0.306061 18.626381 1.162476
v 0.306341 18.630194 1.154118
v 0.302748 18.634485 1.155807
v 0.295555 18.639111 1.165272
v 0.285030 18.643923 1.180247
v 0.449385 18.967512 1.063355
v 0.429507 18.996838 1.079149
v 0.471176 18.939816 1.046686
v 0.413866 19.015814 1.089267
v 0.407128 19.027601 1.093971
v 0.413956 19.035362 1.093527
v 0.433037 19.035856 1.087726
v 0.463055 19.025837 1.076362
v 0.493800 19.008471 1.062089
v 0.515061 18.986923 1.047564
v 0.527410 18.966156 1.034285
v 0.531420 18.951124 1.023753
v 0.529109 18.939438 1.017955
v 0.522496 18.928703 1.018881
v 0.510629 18.922832 1.024791
v 0.492557 18.925730 1.033945
vn -0.7734 -0.1509 -0.6157
vn -0.7954 -0.1912 -0.5751
vn -0.8317 -0.2447 -0.4984
vn -0.8334 -0.1725 -0.5250
vn -0.8130 0.0218 -0.5819
vn -0.7300 -0.0042 -0.6835
vn -0.7430 0.0906 -0.6632
vn -0.7805 -0.0052 -0.6251
vn -0.7983 -0.0282 -0.6016
vn -0.9493 -0.0038 -0.3145
vn -0.9413 -0.0893 -0.3256
vn -0.9815 0.0307 -0.1888
vn -0.9804 0.1117 -0.1624
vn -0.9336 0.3280 -0.1442
vn -0.9234 0.2096 -0.3216
vn 0.3771 -0.0288 0.9257
vn 0.4086 -0.1079 0.9063
vn 0.5811 -0.3244 0.7464
vn 0.5653 -0.2652 0.7811
vn 0.5406 -0.1108 0.8339
vn 0.3394 0.1987 0.9194
vn 0.1240 0.3791 0.9170
vn 0.1692 0.1006 0.9804
vn 0.2120 0.0025 0.9773
vn 0.5292 -0.4827 0.6978
vn 0.5218 -0.5457 0.6557
vn 0.4365 -0.7052 0.5587
vn 0.4768 -0.6491 0.5928
vn 0.5635 -0.5128 0.6477
vn 0.5470 -0.3350 0.7672
vn 0.5020 -0.7046 0.5015
vn 0.4459 -0.7458 0.4949
vn 0.5624 -0.6978 0.4435
vn 0.6100 -0.6769 0.4120
vn 0.7291 -0.5812 0.3615
vn 0.6280 -0.5881 0.5097
vn 0.6862 -0.7041 0.1829
vn 0.6518 -0.7178 0.2449
vn 0.6475 -0.7583 0.0758
vn 0.6751 -0.7377 0.0057
vn 0.8041 -0.5886 -0.0832
vn 0.8051 -0.5851 0.0970
vn -0.7101 -0.0931 -0.6979
vn -0.7178 -0.1358 -0.6829
vn -0.7882 0.0194 -0.6151
vn -0.7853 0.0534 -0.6168
vn -0.7652 0.1486 -0.6264
vn -0.6560 0.0246 -0.7543
vn -0.5370 -0.0779 -0.8400
vn -0.6298 -0.2090 -0.7481
vn -0.6437 -0.2556 -0.7213
vn -0.7929 0.0742 -0.6048
vn -0.7994 0.0473 -0.5989
vn -0.7701 0.1609 -0.6173
vn -0.6141 -0.0561 -0.7872
vn -0.6080 -0.0622 -0.7915
vn -0.5425 -0.0491 -0.8386
vn -0.5497 -0.0429 -0.8343
vn -0.5627 -0.0328 -0.8260
vn -0.6277 -0.0443 -0.7772
vn -0.6417 -0.1075 -0.7594
vn -0.6233 -0.1001 -0.7755
vn -0.6179 -0.0962 -0.7803
vn -0.6133 -0.1172 -0.7811
vn -0.6005 -0.1036 -0.7929
vn -0.6554 -0.1472 -0.7408
vn -0.6786 -0.1440 -0.7202
vn -0.7624 0.3440 -0.5481
vn -0.7063 0.2759 -0.6519
vn -0.6879 0.7111 -0.1454
vn -0.6972 0.5977 -0.3958
vn -0.6018 0.7127 0.3604
vn -0.1826 0.7637 0.6192
vn 0.2840 0.7562 0.5895
vn 0.3740 0.6058 0.7023
vn 0.3870 0.7267 0.5676
vn 0.3906 0.7698 0.5048
vn 0.2912 0.7985 0.5269
vn 0.5296 0.6678 0.5230
vn 0.5250 0.7161 0.4600
vn 0.5263 0.5434 0.6540
vn 0.6332 0.4343 0.6407
vn 0.6240 0.5802 0.5235
vn 0.6104 0.6404 0.4661
vn 0.7249 0.4216 0.5447
vn 0.7122 0.4927 0.5000
vn 0.7257 0.2545 0.6392
vn 0.8231 0.0621 0.5644
vn 0.8511 0.2343 0.4698
vn 0.8507 0.3104 0.4241
vn 0.9842 0.0491 0.1703
vn 0.9889 0.1342 0.0638
vn 0.9306 -0.1224 0.3450
vn 0.9083 -0.3408 -0.2428
vn 0.9976 -0.0412 -0.0554
vn 0.9769 0.0452 -0.2088
vn -0.1856 -0.0823 -0.9792
vn -0.2860 -0.0179 -0.9581
vn -0.1196 -0.0303 -0.9924
vn 0.0973 -0.1379 -0.9857
vn 0.0963 -0.2888 -0.9525
vn -0.4382 -0.0793 -0.8954
vn -0.4464 -0.0355 -0.8941
vn -0.4415 -0.0254 -0.8969
vn -0.4773 -0.0481 -0.8774
vn -0.4692 -0.0486 -0.8818
vn -0.4898 -0.0547 -0.8701
vn -0.6606 0.1044 -0.7434
vn -0.6618 0.0429 -0.7484
vn -0.6422 0.0324 -0.7659
vn -0.6341 0.0919 -0.7677
vn -0.6578 0.1206 -0.7435
vn -0.6854 0.1328 -0.7159
vn -0.7565 0.1996 -0.6227
vn -0.7126 0.1326 -0.6890
vn -0.6821 0.0491 -0.7296
vn -0.8314 0.2278 -0.5068
vn -0.7641 0.1048 -0.6366
vn -0.8747 0.3555 -0.3294
vn -0.8933 0.4401 -0.0915
vn -0.8897 0.2957 -0.3480
vn -0.9285 0.3592 -0.0942
vn -0.2381 0.3835 0.8923
vn -0.4278 0.4532 0.7821
vn -0.5783 0.4676 0.6685
vn -0.3396 0.4454 0.8284
vn -0.0655 0.3383 0.9388
vn 0.3164 0.1355 0.9389
vn 0.2640 0.1713 0.9492
vn 0.2185 0.2327 0.9477
vn 0.4674 0.0448 0.8829
vn 0.4547 0.0970 0.8853
vn 0.4975 0.0042 0.8675
vn 0.6744 -0.1667 0.7193
vn 0.6430 -0.1078 0.7582
vn 0.6288 -0.0474 0.7761
vn 0.7655 -0.2688 0.5846
vn 0.7523 -0.1998 0.6278
vn 0.7900 -0.3342 0.5140
vn 0.8331 -0.4664 0.2973
vn 0.8145 -0.4023 0.4180
vn 0.8025 -0.3187 0.5043
vn 0.8126 -0.5685 0.1285
vn 0.8247 -0.4685 0.3169
vn 0.7936 -0.6009 -0.0958
vn 0.3895 -0.5543 -0.7356
vn 0.5311 -0.6860 -0.4973
vn 0.6899 -0.6949 -0.2030
vn -0.1717 -0.3445 -0.9229
vn -0.0262 -0.5097 -0.8600
vn -0.2826 -0.1500 -0.9474
vn -0.5710 0.0909 -0.8159
vn -0.5390 -0.0022 -0.8423
vn -0.5327 -0.0768 -0.8428
vn -0.6073 0.0719 -0.7912
vn -0.6112 0.0080 -0.7914
vn -0.6332 0.1235 -0.7641
vn -0.6868 -0.0187 -0.7266
vn -0.6897 -0.0196 -0.7239
vn -0.6889 -0.0335 -0.7241
vn -0.6869 -0.0286 -0.7262
vn -0.6446 -0.0564 -0.7624
vn -0.6603 -0.0398 -0.7500
vn -0.7388 0.0182 -0.6736
vn -0.9291 0.2775 -0.2446
vn -0.9276 0.2394 -0.2867
vn -0.7262 -0.0116 -0.6874
vn 0.0141 0.3827 0.9238
vn 0.2010 0.3043 0.9311
vn 0.2085 0.3569 0.9106
vn 0.0237 0.4272 0.9038
vn -0.8818 0.4370 0.1774
vn -0.9034 0.4106 0.1239
vn 0.4619 0.1575 0.8728
vn 0.6358 0.0097 0.7718
vn 0.6369 0.0576 0.7688
vn 0.4664 0.2139 0.8583
vn 0.7562 -0.1423 0.6387
vn 0.8018 -0.2494 0.5431
vn 0.7949 -0.2085 0.5698
vn 0.7518 -0.1027 0.6514
vn 0.8288 -0.3759 0.4146
vn 0.7874 -0.6155 0.0341
vn 0.8413 -0.5267 0.1219
vn 0.8304 -0.3189 0.4570
vn -0.4316 -0.2325 -0.8716
vn -0.5077 -0.1646 -0.8456
vn -0.4521 -0.1850 -0.8725
vn -0.3729 -0.2428 -0.8956
vn 0.6525 -0.7117 -0.2604
vn 0.7671 -0.6260 -0.1403
vn -0.6090 -0.0756 -0.7896
vn -0.5692 -0.1025 -0.8158
vn -0.6980 0.1289 -0.7044
vn -0.6902 0.1326 -0.7114
vn -0.7051 0.1632 -0.6900
vn -0.6902 0.1370 -0.7105
vn -0.7537 0.2314 -0.6151
vn -0.7655 0.2317 -0.6003
vn -0.8550 0.4599 -0.2398
vn -0.8319 0.4859 -0.2682
vn -0.5275 0.7028 0.4773
vn -0.6004 0.6105 0.5165
vn 0.0248 0.3573 0.9337
vn 0.1174 0.4132 0.9031
vn 0.4029 0.1058 0.9091
vn 0.3507 0.1203 0.9287
vn 0.5169 -0.0404 0.8551
vn 0.5310 -0.0990 0.8416
vn 0.6705 -0.2954 0.6806
vn 0.6859 -0.2301 0.6904
vn 0.7957 -0.3867 0.4661
vn 0.7778 -0.4219 0.4659
vn 0.8483 -0.4700 0.2439
vn 0.8453 -0.4838 0.2267
vn 0.8203 -0.5408 -0.1859
vn 0.8784 -0.4656 -0.1078
vn 0.8430 -0.4285 -0.3252
vn 0.3811 -0.3625 -0.8505
vn -0.3565 0.0646 -0.9321
vn -0.1776 0.0685 -0.9817
vn -0.4357 0.1822 -0.8815
vn -0.6857 0.2718 -0.6752
vn -0.6300 0.2087 -0.7480
vn -0.6827 0.1810 -0.7079
vn -0.7202 0.2319 -0.6538
vn -0.6614 -0.0056 -0.7500
vn -0.6688 -0.0232 -0.7431
vn -0.6604 -0.0479 -0.7494
vn -0.6457 -0.0077 -0.7636
vn -0.5829 -0.0145 -0.8124
vn -0.6059 -0.0249 -0.7952
vn -0.7039 -0.0240 -0.7099
vn -0.9356 0.2362 -0.2623
vn -0.7351 -0.0737 -0.6740
vn -0.6961 -0.0764 -0.7139
vn 0.0890 0.4430 0.8921
vn 0.2437 0.3910 0.8875
vn 0.2952 0.4219 0.8572
vn -0.3438 0.5398 0.7684
vn -0.8825 0.4186 0.2142
vn -0.7686 0.4667 0.4375
vn 0.4677 0.2723 0.8409
vn 0.6277 0.1126 0.7702
vn 0.6209 0.1876 0.7611
vn 0.4785 0.3359 0.8113
vn 0.7350 -0.0620 0.6752
vn 0.7811 -0.1815 0.5974
vn 0.7731 -0.1456 0.6173
vn 0.7179 0.0004 0.6962
vn 0.8366 -0.2944 0.4619
vn 0.8729 -0.4850 0.0531
vn 0.8829 -0.4696 0.0066
vn 0.8486 -0.2790 0.4495
vn -0.3522 -0.1698 -0.9204
vn -0.4155 -0.1290 -0.9004
vn -0.4117 -0.1108 -0.9046
vn -0.3623 -0.1465 -0.9205
vn 0.7854 -0.5612 -0.2612
vn 0.7816 -0.5390 -0.3139
vn -0.5203 -0.0663 -0.8514
vn -0.4994 -0.0527 -0.8648
vn -0.6929 0.1275 -0.7096
vn -0.7125 0.1764 -0.6791
vn -0.7667 0.1842 -0.6150
vn -0.8576 0.4018 -0.3211
vn -0.8387 0.5347 -0.1036
vn 0.2564 0.3926 0.8832
vn 0.0400 0.5876 0.8082
vn 0.4868 0.0398 0.8726
vn 0.5494 -0.1916 0.8133
vn 0.6342 -0.3801 0.6733
vn 0.7300 -0.4732 0.4931
vn 0.8212 -0.4818 0.3059
vn 0.8903 -0.4551 0.0161
vn 0.8905 -0.4234 -0.1665
vn -0.5473 0.1483 -0.8237
vn -0.3515 0.0540 -0.9346
vn -0.7277 0.2446 -0.6408
vn -0.7412 0.2375 -0.6278
vn -0.6390 -0.0279 -0.7687
vn -0.6581 -0.0913 -0.7474
vn -0.5733 -0.0239 -0.8190
vn -0.6911 -0.1396 -0.7092
vn -0.7274 -0.1422 -0.6713
vn -0.2029 0.5894 0.7819
vn 0.3429 0.4821 0.8062
vn -0.6028 0.5512 0.5769
vn 0.5028 0.4175 0.7569
vn 0.6239 0.2895 0.7259
vn 0.7113 0.0983 0.6960
vn 0.7822 -0.0784 0.6181
vn 0.8711 -0.2393 0.4290
vn 0.9000 -0.4356 0.0158
vn -0.3768 -0.1527 -0.9136
vn -0.4194 -0.1186 -0.9000
vn 0.8136 -0.5164 -0.2671
vn -0.4955 -0.0610 -0.8664
usemtl material1747.003
s 1
f 1//1 2//2 3//3 4//4
f 1//1 4//4 5//5 6//6
f 1//1 6//6 7//7 8//8
f 1//1 8//8 9//9 2//2
f 10//10 11//11 12//12 13//13
f 10//10 13//13 14//14 15//15
f 10//10 15//15 5//5 4//4
f 10//10 4//4 3//3 11//11
f 16//16 17//17 18//18 19//19
f 16//16 19//19 20//20 21//21
f 16//16 21//21 14//22 13//23
f 16//16 13//23 12//24 17//17
f 22//25 23//26 24//27 25//28
f 22//25 25//28 26//29 27//30
f 22//25 27//30 20//20 19//19
f 22//25 19//19 18//18 23//26
f 28//31 29//32 30//33 31//34
f 28//31 31//34 32//35 33//36
f 28//31 33//36 26//29 25//28
f 28//31 25//28 24//27 29//32
f 34//37 35//38 36//39 37//40
f 34//37 37//40 38//41 39//42
f 34//37 39//42 32//35 31//34
f 34//37 31//34 30//33 35//38
f 40//43 41//44 42//45 43//46
f 40//43 43//46 44//47 45//48
f 40//43 45//48 38//49 37//50
f 40//43 37//50 36//51 41//44
f 46//52 47//53 9//9 8//8
f 46//52 8//8 7//7 48//54
f 46//52 48//54 44//47 43//46
f 46//52 43//46 42//45 47//53
f 49//55 50//56 51//57 52//58
f 49//55 52//58 53//59 54//60
f 49//55 54//60 55//61 56//62
f 49//55 56//62 57//63 50//56
f 58//64 59//65 57//63 56//62
f 58//64 56//62 55//61 60//66
f 58//64 60//66 61//67 62//68
f 58//64 62//68 63//69 59//65
f 64//70 65//71 63//69 62//68
f 64//70 62//68 61//72 66//73
f 64//74 66//73 67//75 68//76
f 64//74 68//76 69//77 65//78
f 70//79 71//80 69//77 68//76
f 70//79 68//76 67//75 72//81
f 70//79 72//81 73//82 74//83
f 70//79 74//83 75//84 71//80
f 76//85 77//86 75//84 74//83
f 76//85 74//83 73//82 78//87
f 76//85 78//87 79//88 80//89
f 76//85 80//89 81//90 77//86
f 82//91 83//92 81//90 80//89
f 82//91 80//89 79//88 84//93
f 82//91 84//93 85//94 86//95
f 82//91 86//95 87//96 83//92
f 88//97 89//98 87//99 86//100
f 88//97 86//100 85//94 90//101
f 88//97 90//101 91//102 92//103
f 88//97 92//103 93//104 89//98
f 94//105 95//106 93//104 92//103
f 94//105 92//103 91//102 96//107
f 94//105 96//107 53//59 52//58
f 94//105 52//58 51//57 95//106
f 97//108 98//109 99//110 100//111
f 97//108 100//111 101//112 102//113
f 97//108 102//113 103//114 104//115
f 97//108 104//115 105//116 98//109
f 106//117 107//118 105//116 104//115
f 106//117 104//115 103//114 108//119
f 106//117 108//119 109//120 110//121
f 106//117 110//121 111//122 107//118
f 112//123 113//124 111//122 110//125
f 112//123 110//125 109//126 114//127
f 112//123 114//127 115//128 116//129
f 112//123 116//129 117//130 113//124
f 118//131 119//132 117//130 116//129
f 118//131 116//129 115//128 120//133
f 118//131 120//133 121//134 122//135
f 118//131 122//135 123//136 119//132
f 124//137 125//138 123//136 122//135
f 124//137 122//135 121//134 126//139
f 124//137 126//139 127//140 128//141
f 124//137 128//141 129//142 125//138
f 130//143 131//144 129//142 128//141
f 130//143 128//141 127//140 132//145
f 130//143 132//145 133//146 134//147
f 130//143 134//147 135//148 131//144
f 136//149 137//150 135//148 134//147
f 136//149 134//147 133//146 138//151
f 136//149 138//151 139//152 140//153
f 136//149 140//153 141//154 137//150
f 142//155 143//156 141//154 140//153
f 142//155 140//153 139//152 144//157
f 142//155 144//157 101//112 100//111
f 142//155 100//111 99//110 143//156
f 145//158 98//109 105//116 146//159
f 145//158 146//159 147//160 148//161
f 145//158 148//161 149//162 150//163
f 145//158 150//163 99//110 98//109
f 151//164 107//118 111//122 152//165
f 151//164 152//165 153//166 154//167
f 151//164 154//167 147//160 146//159
f 151//164 146//159 105//116 107//118
f 155//168 113//124 117//130 156//169
f 155//168 156//169 157//170 158//171
f 155//172 158//173 153//166 152//165
f 155//172 152//165 111//122 113//124
f 159//174 119//132 123//136 160//175
f 159//174 160//175 161//176 162//177
f 159//174 162//177 157//170 156//169
f 159//174 156//169 117//130 119//132
f 163//178 125//138 129//142 164//179
f 163//178 164//179 165//180 166//181
f 163//178 166//181 161//176 160//175
f 163//178 160//175 123//136 125//138
f 167//182 131//144 135//148 168//183
f 167//182 168//183 169//184 170//185
f 167//182 170//185 165//180 164//179
f 167//182 164//179 129//142 131//144
f 171//186 137//150 141//154 172//187
f 171//186 172//187 173//188 174//189
f 171//190 174//191 169//184 168//183
f 171//190 168//183 135//148 137//150
f 175//192 143//156 99//110 150//163
f 175//192 150//163 149//162 176//193
f 175//192 176//193 173//188 172//187
f 175//192 172//187 141//154 143//156
f 177//194 102//113 101//112 178//195
f 177//194 178//195 179//196 180//197
f 177//194 180//197 181//198 182//199
f 177//194 182//199 103//114 102//113
f 183//200 108//119 103//114 182//199
f 183//200 182//199 181//198 184//201
f 183//200 184//201 185//202 186//203
f 183//200 186//203 109//120 108//119
f 187//204 114//127 109//126 186//203
f 187//204 186//203 185//202 188//205
f 187//204 188//205 189//206 190//207
f 187//204 190//207 115//128 114//127
f 191//208 120//133 115//128 190//207
f 191//208 190//207 189//206 192//209
f 191//208 192//209 193//210 194//211
f 191//208 194//211 121//134 120//133
f 195//212 126//139 121//134 194//211
f 195//212 194//211 193//210 196//213
f 195//212 196//213 197//214 198//215
f 195//212 198//215 127//140 126//139
f 199//216 132//145 127//140 198//215
f 199//216 198//215 197//214 200//217
f 199//216 200//217 201//218 202//219
f 199//216 202//219 133//146 132//145
f 203//220 138//151 133//146 202//219
f 203//220 202//219 201//221 204//222
f 203//220 204//222 205//223 206//224
f 203//220 206//224 139//152 138//151
f 207//225 144//157 139//152 206//224
f 207//225 206//224 205//223 208//226
f 207//225 208//226 179//196 178//195
f 207//225 178//195 101//112 144//157
f 209//227 148//161 147//160 210//228
f 209//227 210//228 211//229 212//230
f 209//227 212//230 213//231 214//232
f 209//227 214//232 149//162 148//161
f 215//233 154//167 153//166 216//234
f 215//233 216//234 217//235 218//236
f 215//233 218//236 211//229 210//228
f 215//233 210//228 147//160 154//167
f 219//237 158//171 157//170 220//238
f 219//237 220//238 221//239 222//240
f 219//241 222//240 217//242 216//234
f 219//241 216//234 153//166 158//173
f 223//243 162//177 161//176 224//244
f 223//243 224//244 225//245 226//246
f 223//243 226//246 221//239 220//238
f 223//243 220//238 157//170 162//177
f 227//247 166//181 165//180 228//248
f 227//247 228//248 229//249 230//250
f 227//247 230//250 225//245 224//244
f 227//247 224//244 161//176 166//181
f 231//251 170//185 169//184 232//252
f 231//251 232//252 233//253 234//254
f 231//251 234//254 229//249 228//248
f 231//251 228//248 165//180 170//185
f 235//255 174//189 173//188 236//256
f 235//255 236//256 237//257 238//258
f 235//259 238//260 233//253 232//252
f 235//259 232//252 169//184 174//191
f 239//261 176//193 149//162 214//232
f 239//261 214//232 213//231 240//262
f 239//261 240//262 237//257 236//256
f 239//261 236//256 173//188 176//193
f 241//263 180//197 179//196 242//264
f 241//263 242//264 7//7 6//6
f 241//263 6//6 5//5 243//265
f 241//263 243//265 181//198 180//197
f 244//266 184//201 181//198 243//265
f 244//266 243//265 5//5 15//15
f 244//266 15//15 14//14 245//267
f 244//266 245//267 185//202 184//201
f 246//268 188//205 185//202 245//269
f 246//268 245//269 14//22 21//21
f 246//268 21//21 20//20 247//270
f 246//268 247//270 189//206 188//205
f 248//271 192//209 189//206 247//270
f 248//271 247//270 20//20 27//30
f 248//271 27//30 26//29 249//272
f 248//271 249//272 193//210 192//209
f 250//273 196//213 193//210 249//272
f 250//273 249//272 26//29 33//36
f 250//273 33//36 32//35 251//274
f 250//273 251//274 197//214 196//213
f 252//275 200//217 197//214 251//274
f 252//275 251//274 32//35 39//42
f 252//275 39//42 38//41 253//276
f 252//275 253//276 201//218 200//217
f 254//277 204//222 201//221 253//278
f 254//277 253//278 38//49 45//48
f 254//277 45//48 44//47 255//279
f 254//277 255//279 205//223 204//222
f 256//280 208//226 205//223 255//279
f 256//280 255//279 44//47 48//54
f 256//280 48//54 7//7 242//264
f 256//280 242//264 179//196 208//226
f 257//281 212//230 211//229 258//282
f 257//281 258//282 55//61 54//60
f 257//281 54//60 53//59 259//283
f 257//281 259//283 213//231 212//230
f 260//284 218//236 217//235 261//285
f 260//284 261//285 61//67 60//66
f 260//284 60//66 55//61 258//282
f 260//284 258//282 211//229 218//236
f 262//286 222//240 221//239 263//287
f 262//286 263//287 67//75 66//73
f 262//286 66//73 61//72 261//288
f 262//286 261//288 217//242 222//240
f 264//289 226//246 225//245 265//290
f 264//289 265//290 73//82 72//81
f 264//289 72//81 67//75 263//287
f 264//289 263//287 221//239 226//246
f 266//291 230//250 229//249 267//292
f 266//291 267//292 79//88 78//87
f 266//291 78//87 73//82 265//290
f 266//291 265//290 225//245 230//250
f 268//293 234//254 233//253 269//294
f 268//293 269//294 85//94 84//93
f 268//293 84//93 79//88 267//292
f 268//293 267//292 229//249 234//254
f 270//295 238//258 237//257 271//296
f 270//295 271//296 91//102 90//101
f 270//297 90//101 85//94 269//294
f 270//297 269//294 233//253 238//260
f 272//298 240//262 213//231 259//283
f 272//298 259//283 53//59 96//107
f 272//298 96//107 91//102 271//296
f 272//298 271//296 237//257 240//262
