# Blender v3.2.1 OBJ File: ''
# www.blender.org
mtllib levator_scapulae_right_2.mtl
o Levator_Scapulae_Muscle_Right1
v -0.735663 17.596443 -0.925957
v -0.723417 17.522264 -1.001404
v -0.710721 17.521942 -1.018065
v -0.723394 17.598223 -0.942907
v -0.722658 17.659836 -0.882815
v -0.733154 17.656452 -0.865967
v -0.717586 17.600807 -0.956854
v -0.718508 17.664314 -0.896283
v -0.705008 17.522936 -1.031307
v -0.770564 17.595442 -0.893743
v -0.760837 17.526077 -0.967541
v -0.741112 17.523785 -0.983686
v -0.752244 17.595524 -0.908852
v -0.747807 17.654364 -0.848968
v -0.764535 17.653728 -0.833701
v -0.802676 17.597868 -0.877300
v -0.795305 17.531515 -0.949345
v -0.779623 17.528713 -0.955601
v -0.788054 17.596169 -0.882779
v -0.781260 17.654711 -0.822048
v -0.796066 17.657421 -0.815349
v -0.816319 17.604185 -0.886126
v -0.809653 17.536684 -0.957680
v -0.805718 17.534302 -0.950255
v -0.812398 17.600704 -0.878644
v -0.807039 17.661976 -0.814945
v -0.812801 17.667538 -0.820626
v -0.804121 17.610844 -0.915250
v -0.795182 17.538786 -0.987718
v -0.805901 17.538280 -0.970972
v -0.813544 17.607817 -0.899062
v -0.811976 17.673273 -0.832182
v -0.804326 17.678087 -0.847595
v -0.768450 17.612547 -0.948292
v -0.757880 17.535738 -1.021675
v -0.778215 17.537901 -1.005505
v -0.788101 17.612513 -0.932486
v -0.789617 17.680889 -0.864848
v -0.770959 17.681337 -0.881437
v -0.730874 17.607622 -0.966347
v -0.719327 17.528694 -1.039751
v -0.737059 17.532412 -1.033573
v -0.748135 17.610670 -0.960187
v -0.751462 17.679094 -0.894859
v -0.734361 17.674950 -0.902849
v -0.708260 17.525360 -1.038766
v -0.720385 17.604137 -0.964952
v -0.722893 17.669687 -0.903143
v -0.686221 17.420115 -1.122671
v -0.691274 17.419710 -1.111697
v -0.705368 17.314125 -1.196925
v -0.701033 17.314123 -1.206130
v -0.704104 17.422396 -1.096219
v -0.717120 17.319286 -1.182170
v -0.723094 17.427856 -1.078221
v -0.735079 17.328674 -1.164288
v -0.744890 17.434893 -1.060517
v -0.756139 17.340494 -1.145607
v -0.702978 17.430189 -1.124945
v -0.690558 17.423920 -1.127160
v -0.705326 17.320221 -1.207359
v -0.717188 17.330515 -1.201264
v -0.766137 17.442299 -1.045925
v -0.777196 17.352959 -1.128456
v -0.784108 17.449171 -1.036415
v -0.795194 17.364605 -1.115552
v -0.744533 17.445869 -1.101495
v -0.722174 17.437981 -1.115803
v -0.735563 17.343103 -1.188492
v -0.757047 17.356030 -1.171347
v -0.796072 17.454601 -1.033955
v -0.807079 17.373974 -1.109612
v -0.800680 17.458010 -1.038420
v -0.811623 17.379599 -1.110859
v -0.784820 17.456968 -1.065543
v -0.766443 17.452427 -1.083777
v -0.778238 17.367331 -1.152131
v -0.796100 17.375744 -1.133852
v -0.796581 17.458815 -1.049687
v -0.807596 17.380011 -1.119516
v -0.577825 17.845667 -0.683786
v -0.657523 17.774794 -0.762751
v -0.654938 17.779646 -0.779495
v -0.575723 17.851320 -0.700027
v -0.487377 17.929161 -0.601059
v -0.490816 17.922884 -0.585066
v -0.581284 17.859358 -0.711696
v -0.491516 17.937450 -0.614232
v -0.659703 17.786793 -0.790702
v -0.598745 17.843796 -0.650113
v -0.677613 17.773609 -0.725250
v -0.665382 17.772667 -0.743745
v -0.585791 17.843056 -0.666327
v -0.500442 17.919462 -0.569606
v -0.515073 17.919249 -0.556777
v -0.673896 17.795799 -0.793096
v -0.596306 17.869116 -0.715438
v -0.504623 17.946905 -0.621227
v -0.615497 17.878483 -0.712298
v -0.522742 17.955782 -0.622485
v -0.692028 17.804554 -0.787872
v -0.635285 17.855343 -0.629473
v -0.711402 17.784931 -0.699193
v -0.693317 17.777967 -0.710041
v -0.615814 17.848194 -0.637608
v -0.533527 17.922590 -0.548674
v -0.553256 17.928690 -0.545282
v -0.708609 17.810940 -0.776222
v -0.633564 17.885351 -0.703318
v -0.541917 17.962328 -0.618447
v -0.649812 17.889332 -0.689857
v -0.559906 17.965708 -0.609613
v -0.723788 17.814863 -0.759902
v -0.670829 17.873619 -0.629592
v -0.745818 17.802570 -0.695370
v -0.730777 17.793699 -0.693781
v -0.655443 17.864332 -0.626366
v -0.571714 17.936743 -0.546583
v -0.584803 17.945597 -0.553190
v -0.737712 17.816229 -0.740665
v -0.663543 17.890030 -0.673275
v -0.574470 17.965076 -0.596481
v -0.672889 17.887468 -0.655998
v -0.584384 17.961016 -0.581150
v -0.747658 17.814676 -0.721533
v -0.750902 17.809841 -0.705528
v -0.675981 17.881664 -0.640453
v -0.588427 17.954105 -0.565716
v -0.263357 18.391228 -0.155105
v -0.239546 18.504650 -0.091190
v -0.239830 18.501951 -0.087754
v -0.264157 18.387423 -0.148497
v -0.289556 18.278721 -0.213784
v -0.288410 18.283527 -0.223772
v -0.267684 18.384354 -0.141856
v -0.294365 18.274702 -0.203840
v -0.242014 18.499784 -0.084175
v -0.245903 18.498535 -0.081011
v -0.273604 18.382559 -0.136218
v -0.302414 18.272139 -0.195490
v -0.280880 18.382212 -0.132336
v -0.312302 18.271345 -0.189956
v -0.250804 18.498322 -0.078697
v -0.270392 18.398842 -0.164374
v -0.244844 18.510073 -0.095619
v -0.241357 18.507502 -0.093927
v -0.265619 18.395229 -0.160641
v -0.291350 18.288465 -0.232259
v -0.297708 18.292862 -0.238280
v -0.256022 18.499252 -0.077667
v -0.288477 18.383488 -0.130962
v -0.322627 18.272650 -0.188464
v -0.295251 18.386103 -0.132124
v -0.331789 18.275700 -0.190752
v -0.260769 18.501114 -0.077976
v -0.284700 18.402809 -0.164240
v -0.254805 18.512873 -0.094880
v -0.249588 18.511938 -0.095916
v -0.277126 18.401474 -0.165574
v -0.306821 18.296047 -0.240874
v -0.317117 18.297560 -0.239559
v -0.264258 18.503683 -0.079679
v -0.300058 18.389765 -0.135847
v -0.338191 18.280148 -0.196558
v -0.302334 18.393843 -0.141398
v -0.341149 18.285252 -0.204962
v -0.266070 18.506533 -0.082423
v -0.297953 18.400784 -0.154725
v -0.263599 18.511406 -0.089420
v -0.259707 18.512657 -0.092572
v -0.291995 18.402534 -0.160373
v -0.327026 18.296932 -0.233856
v -0.335122 18.294416 -0.225204
v -0.265785 18.509235 -0.085853
v -0.301516 18.397701 -0.148045
v -0.339977 18.290266 -0.215041
v -0.702329 17.724045 -0.846565
v -0.701878 17.718063 -0.834384
v -0.708204 17.713812 -0.817521
v -0.719120 17.711590 -0.799278
v -0.733214 17.711687 -0.781991
v -0.749073 17.714392 -0.767995
v -0.765319 17.719366 -0.758566
v -0.780571 17.726276 -0.754982
v -0.791222 17.733770 -0.758044
v -0.793664 17.740496 -0.768554
v -0.788487 17.745457 -0.784211
v -0.776278 17.747656 -0.802715
v -0.760121 17.747154 -0.821201
v -0.743097 17.744020 -0.836803
v -0.726531 17.738651 -0.847373
v -0.711744 17.731449 -0.850761
v -0.801864 17.235388 -1.231020
v -0.922471 17.161091 -1.261321
v -0.918195 17.151056 -1.279183
v -0.793318 17.227781 -1.246874
v -0.789255 17.226744 -1.256866
v -0.914182 17.148668 -1.291241
v -0.828001 17.261492 -1.195744
v -0.930168 17.190186 -1.228405
v -0.926282 17.174500 -1.244822
v -0.813957 17.247168 -1.213714
v -0.911157 17.158190 -1.290327
v -0.790612 17.234669 -1.256586
v -0.797319 17.248079 -1.248045
v -0.910409 17.174267 -1.280058
v -0.854674 17.291586 -1.163803
v -0.938351 17.224339 -1.196611
v -0.934669 17.207048 -1.210792
v -0.842397 17.276726 -1.177896
v -0.913228 17.191544 -1.264048
v -0.809307 17.263506 -1.233252
v -0.824058 17.279306 -1.214828
v -0.918316 17.209143 -1.245124
v -0.864706 17.312887 -1.157505
v -0.938858 17.252028 -1.191257
v -0.939778 17.241314 -1.190491
v -0.862361 17.304785 -1.157095
v -0.924374 17.226189 -1.226115
v -0.839052 17.293854 -1.195395
v -0.852086 17.305466 -1.177770
v -0.930426 17.240660 -1.209494
v -0.935498 17.250542 -1.197733
v -0.860959 17.312464 -1.164769
v -0.414846 18.016785 -0.502994
v -0.355061 18.099384 -0.393670
v -0.355393 18.092941 -0.377492
v -0.413043 18.009237 -0.487670
v -0.418200 18.002893 -0.471028
v -0.361707 18.087025 -0.361031
v -0.373511 18.082399 -0.346947
v -0.429429 17.998592 -0.456165
v -0.445058 17.996975 -0.445442
v -0.388804 18.079906 -0.337799
v -0.439567 18.031794 -0.520267
v -0.372624 18.110878 -0.416612
v -0.361205 18.105583 -0.406906
v -0.424498 18.024689 -0.513901
v -0.405592 18.080385 -0.336149
v -0.463416 17.998674 -0.441218
v -0.481606 18.003057 -0.442494
v -0.421084 18.083363 -0.340413
v -0.475785 18.039145 -0.517716
v -0.404869 18.115824 -0.421125
v -0.388114 18.114603 -0.422199
v -0.457621 18.036945 -0.521969
v -0.432495 18.088362 -0.349008
v -0.496733 18.009493 -0.448273
v -0.506289 18.017174 -0.458646
v -0.438605 18.094784 -0.361603
v -0.502343 18.032501 -0.490533
v -0.431832 18.108744 -0.395156
v -0.420083 18.113607 -0.410843
v -0.491187 18.037390 -0.506220
v -0.438195 18.102022 -0.377864
v -0.507768 18.025305 -0.473704
v -0.323067 18.176611 -0.274434
v -0.317099 18.181665 -0.288156
v -0.315946 18.187271 -0.301945
v -0.346415 18.170971 -0.255541
v -0.333444 18.172832 -0.262894
v -0.320017 18.192713 -0.313686
v -0.328561 18.197388 -0.322488
v -0.372439 18.174515 -0.258340
v -0.360163 18.171661 -0.254379
v -0.340832 18.200697 -0.327458
v -0.354576 18.201929 -0.326796
v -0.385065 18.184853 -0.277703
v -0.380992 18.179131 -0.266358
v -0.367542 18.200373 -0.318700
v -0.377920 18.196560 -0.306030
v -0.383901 18.191025 -0.291646
vn 0.6893 -0.4938 0.5301
vn 0.6467 -0.4732 0.5982
vn 0.8244 -0.3074 0.4753
vn 0.8484 -0.3373 0.4079
vn 0.8793 -0.4016 0.2559
vn 0.7179 -0.5595 0.4143
vn 0.9981 0.0490 0.0361
vn 0.9873 0.0093 -0.1585
vn 0.9921 0.1106 0.0593
vn 0.4349 -0.6472 0.6261
vn 0.3893 -0.6338 0.6684
vn 0.5129 -0.5662 0.6452
vn 0.5604 -0.5837 0.5876
vn 0.5835 -0.6409 0.4988
vn 0.4492 -0.6892 0.5685
vn -0.0561 -0.7268 0.6846
vn -0.0547 -0.7311 0.6801
vn 0.2320 -0.6915 0.6841
vn 0.2668 -0.6996 0.6629
vn 0.2767 -0.7142 0.6430
vn -0.0219 -0.7002 0.7136
vn -0.9861 -0.1312 0.1017
vn -0.9869 -0.1559 0.0421
vn -0.5828 -0.6210 0.5241
vn -0.6103 -0.5789 0.5408
vn -0.5165 -0.5417 0.6632
vn -0.9455 -0.1203 0.3026
vn -0.7489 0.4468 -0.4894
vn -0.6942 0.4566 -0.5564
vn -0.8827 0.2789 -0.3782
vn -0.9223 0.2574 -0.2884
vn -0.9498 0.2817 -0.1362
vn -0.7823 0.4809 -0.3959
vn -0.4315 0.6070 -0.6674
vn -0.3915 0.5933 -0.7034
vn -0.5377 0.5405 -0.6471
vn -0.5845 0.5465 -0.5998
vn -0.6158 0.5750 -0.5387
vn -0.4690 0.6234 -0.6256
vn 0.0773 0.6869 -0.7226
vn 0.0703 0.6737 -0.7356
vn -0.2181 0.6374 -0.7390
vn -0.2467 0.6549 -0.7143
vn -0.2885 0.6588 -0.6948
vn 0.0315 0.6722 -0.7397
vn 0.6221 0.5788 -0.5273
vn 0.6642 0.5441 -0.5127
vn 0.5878 0.5132 -0.6254
vn 0.9983 0.0490 -0.0331
vn 0.7641 -0.4052 0.5019
vn 0.6090 -0.6359 0.4741
vn 0.7214 -0.6009 0.3442
vn 0.5531 -0.5388 0.6354
vn 0.4160 -0.6552 0.6306
vn 0.4172 -0.6048 0.6784
vn 0.3115 -0.6575 0.6861
vn 0.3078 -0.6498 0.6950
vn 0.2429 -0.6608 0.7102
vn 0.0324 0.6349 -0.7719
vn 0.5330 0.5456 -0.6467
vn 0.3453 0.4163 -0.8411
vn -0.0437 0.5837 -0.8108
vn 0.6074 0.2278 -0.7610
vn 0.1817 -0.6849 0.7056
vn 0.1665 -0.6589 0.7336
vn -0.0394 -0.7036 0.7095
vn 0.0070 -0.6306 0.7761
vn -0.3350 0.6003 -0.7262
vn -0.1945 0.6205 -0.7597
vn -0.1907 0.6142 -0.7657
vn -0.2805 0.6262 -0.7275
vn -0.5135 -0.6023 0.6112
vn -0.3935 -0.4690 0.7907
vn -0.9928 -0.0832 0.0867
vn -0.6458 -0.2896 0.7065
vn -0.5917 0.5343 -0.6037
vn -0.4556 0.5766 -0.6782
vn -0.3567 0.6354 -0.6849
vn -0.4462 0.6417 -0.6238
vn -0.8021 0.4066 -0.4374
vn -0.6375 0.6174 -0.4610
vn -0.7551 0.5714 -0.3213
vn 0.6563 -0.7543 0.0143
vn 0.6824 -0.7272 0.0735
vn 0.8281 -0.4969 -0.2594
vn 0.7989 -0.4995 -0.3351
vn 0.8251 -0.4973 -0.2682
vn 0.6687 -0.7422 0.0442
vn 0.6973 0.0496 -0.7151
vn 0.7835 -0.0104 -0.6214
vn 0.7190 0.0596 -0.6924
vn 0.2910 -0.8437 0.4511
vn 0.3683 -0.8121 0.4526
vn 0.5311 -0.8008 0.2770
vn 0.4829 -0.8387 0.2518
vn 0.4666 -0.8410 0.2740
vn 0.2327 -0.8543 0.4648
vn 0.2978 0.5281 -0.7953
vn 0.3454 0.5060 -0.7904
vn 0.4910 0.4381 -0.7530
vn 0.0819 0.6895 -0.7196
vn 0.2249 0.6535 -0.7228
vn -0.0131 0.6928 -0.7210
vn -0.0845 -0.6819 0.7266
vn 0.0001 -0.6877 0.7260
vn 0.1905 -0.7719 0.6065
vn 0.0958 -0.7855 0.6114
vn -0.0031 -0.7924 0.6099
vn -0.2145 -0.6722 0.7086
vn -0.2509 0.7530 -0.6083
vn -0.1394 0.7824 -0.6070
vn -0.0149 0.7771 -0.6292
vn -0.3311 0.8221 -0.4631
vn -0.2571 0.8450 -0.4688
vn -0.4216 0.7643 -0.4879
vn -0.6522 -0.0217 0.7578
vn -0.6738 -0.1059 0.7313
vn -0.2520 -0.5311 0.8090
vn -0.3052 -0.4943 0.8139
vn -0.4612 -0.4389 0.7711
vn -0.7454 0.0623 0.6637
vn -0.5600 0.7505 -0.3509
vn -0.4946 0.8205 -0.2868
vn -0.4689 0.8442 -0.2598
vn -0.6487 0.7599 -0.0417
vn -0.6378 0.7700 -0.0196
vn -0.7156 0.6863 -0.1302
vn -0.8523 0.4440 0.2766
vn -0.7743 0.5288 0.3477
vn -0.7745 0.5574 0.2989
vn 0.9751 -0.0956 -0.2002
vn 0.9719 -0.0778 -0.2222
vn 0.9487 -0.2792 0.1484
vn 0.9453 -0.2921 0.1453
vn 0.9370 -0.3261 0.1254
vn 0.9762 -0.1236 -0.1781
vn 0.7945 -0.4183 0.4402
vn 0.7977 -0.4608 0.3891
vn 0.7896 -0.4053 0.4608
vn 0.5510 -0.4624 0.6947
vn 0.5624 -0.4808 0.6727
vn 0.5769 -0.5371 0.6154
vn 0.2599 -0.4817 0.8369
vn 0.2567 -0.5466 0.7971
vn 0.2589 -0.4601 0.8492
vn 0.5266 0.3724 -0.7642
vn 0.4877 0.3746 -0.7885
vn 0.8066 0.1634 -0.5681
vn 0.8321 0.1467 -0.5348
vn 0.8635 0.1350 -0.4860
vn 0.5847 0.3896 -0.7116
vn -0.0803 -0.3990 0.9134
vn -0.1029 -0.4130 0.9049
vn -0.1430 -0.4624 0.8751
vn -0.4868 -0.2630 0.8330
vn -0.5393 -0.2772 0.7952
vn -0.4497 -0.2672 0.8522
vn -0.2254 0.5868 -0.7777
vn -0.2285 0.5622 -0.7948
vn 0.1169 0.5080 -0.8534
vn 0.1448 0.5239 -0.8394
vn 0.1984 0.5754 -0.7934
vn -0.2155 0.6570 -0.7225
vn -0.7736 -0.0675 0.6301
vn -0.8000 -0.0467 0.5981
vn -0.8313 -0.0240 0.5553
vn -0.9496 0.1828 0.2548
vn -0.9463 0.2229 0.2342
vn -0.9472 0.1604 0.2778
vn -0.7729 0.4998 -0.3909
vn -0.7704 0.4845 -0.4144
vn -0.5272 0.5521 -0.6459
vn -0.5371 0.5728 -0.6192
vn -0.5505 0.6319 -0.5456
vn -0.7718 0.5450 -0.3277
vn -0.9297 0.3546 -0.0999
vn -0.9236 0.3710 -0.0964
vn -0.9083 0.4121 -0.0712
vn 0.8730 0.0257 -0.4870
vn 0.8837 -0.4678 -0.0135
vn 0.7209 -0.6518 0.2354
vn 0.5783 -0.7240 0.3761
vn 0.4307 -0.7515 0.4996
vn 0.2560 -0.7407 0.6211
vn 0.0186 -0.6841 0.7291
vn -0.3406 -0.5360 0.7725
vn -0.8123 -0.1375 0.5668
vn -0.9366 0.3405 0.0825
vn -0.7803 0.5662 -0.2655
vn -0.6171 0.6462 -0.4491
vn -0.4801 0.6761 -0.5589
vn -0.3088 0.6897 -0.6549
vn -0.0289 0.6689 -0.7428
vn 0.4034 0.5142 -0.7569
vn 0.3263 -0.7254 0.6061
vn 0.3072 -0.7420 0.5959
vn 0.3963 -0.8173 0.4182
vn 0.4456 -0.7866 0.4275
vn 0.5144 -0.8050 0.2957
vn 0.4453 -0.8455 0.2946
vn 0.2307 -0.6602 0.7148
vn 0.2356 -0.6614 0.7121
vn 0.2554 -0.6867 0.6805
vn 0.2620 -0.6816 0.6832
vn 0.3300 0.0749 -0.9410
vn 0.2417 0.0432 -0.9694
vn 0.0760 0.2958 -0.9522
vn 0.1412 0.3107 -0.9400
vn -0.1205 0.5659 -0.8156
vn -0.1485 0.5740 -0.8053
vn 0.0534 -0.5436 0.8376
vn 0.0642 -0.5082 0.8588
vn 0.2046 -0.6286 0.7504
vn 0.1902 -0.6333 0.7502
vn -0.2236 0.6382 -0.7367
vn -0.2103 0.6259 -0.7510
vn -0.2600 0.6492 -0.7148
vn -0.2606 0.6588 -0.7058
vn -0.4757 -0.0690 0.8769
vn -0.4218 0.0247 0.9064
vn -0.2452 -0.1974 0.9492
vn -0.2758 -0.2796 0.9197
vn -0.2815 0.6706 -0.6863
vn -0.2959 0.6661 -0.6846
vn -0.3331 0.6880 -0.6447
vn -0.2972 0.6877 -0.6624
vn -0.4040 0.7569 -0.5138
vn -0.4659 0.7392 -0.4863
vn -0.5629 0.7545 -0.3376
vn -0.4906 0.7918 -0.3639
vn 0.8792 -0.1065 -0.4645
vn 0.9355 -0.1697 -0.3100
vn 0.8865 -0.4623 -0.0215
vn 0.8565 -0.4958 -0.1439
vn 0.6975 -0.7072 0.1156
vn 0.7409 -0.6376 0.2113
vn 0.5337 -0.7399 0.4096
vn 0.4859 -0.8138 0.3188
vn 0.2159 -0.8417 0.4950
vn 0.2332 -0.7707 0.5930
vn 0.3901 0.5822 -0.7134
vn 0.5279 0.4888 -0.6946
vn 0.7992 0.1941 -0.5689
vn 0.6678 0.3178 -0.6731
vn -0.1309 -0.6879 0.7139
vn -0.0794 -0.7763 0.6253
vn -0.3557 -0.6217 0.6978
vn -0.4776 -0.4856 0.7322
vn -0.2146 0.8445 -0.4907
vn -0.2048 0.8062 -0.5551
vn 0.1892 0.6961 -0.6926
vn 0.1025 0.7498 -0.6537
vn -0.7719 -0.1484 0.6182
vn -0.6435 -0.3208 0.6950
vn -0.8461 0.1682 0.5058
vn -0.8992 0.2513 0.3582
vn -0.6597 0.7494 -0.0562
vn -0.7078 0.6922 -0.1409
vn -0.5177 0.7843 -0.3419
vn -0.4785 0.8352 -0.2710
vn -0.8406 0.5359 0.0789
vn -0.8024 0.5649 0.1924
vn 0.7819 -0.5395 0.3124
vn 0.9190 -0.3875 0.0723
vn 0.9655 -0.1548 -0.2094
vn 0.2486 -0.6517 0.7166
vn 0.5708 -0.6309 0.5255
vn 0.8582 0.1450 -0.4924
vn 0.5933 0.4274 -0.6822
vn -0.5422 -0.3453 0.7660
vn -0.1570 -0.5578 0.8150
vn 0.2233 0.6374 -0.7375
vn -0.2065 0.7388 -0.6414
vn -0.9297 0.2555 0.2653
vn -0.8259 -0.0438 0.5621
vn -0.5479 0.7078 -0.4459
vn -0.7531 0.6123 -0.2407
vn -0.8822 0.4706 -0.0127
usemtl material1541.003
s 1
f 1//1 2//2 3//3 4//4
f 5//5 6//6 1//1 4//4
f 7//7 8//8 5//5 4//4
f 3//3 9//9 7//7 4//4
f 10//10 11//11 12//12 13//13
f 14//14 15//15 10//10 13//13
f 1//1 6//6 14//14 13//13
f 12//12 2//2 1//1 13//13
f 16//16 17//17 18//18 19//19
f 20//20 21//21 16//16 19//19
f 10//10 15//15 20//20 19//19
f 18//18 11//11 10//10 19//19
f 22//22 23//23 24//24 25//25
f 26//26 27//27 22//22 25//25
f 16//16 21//21 26//26 25//25
f 24//24 17//17 16//16 25//25
f 28//28 29//29 30//30 31//31
f 32//32 33//33 28//28 31//31
f 22//22 27//27 32//32 31//31
f 30//30 23//23 22//22 31//31
f 34//34 35//35 36//36 37//37
f 38//38 39//39 34//34 37//37
f 28//28 33//33 38//38 37//37
f 36//36 29//29 28//28 37//37
f 40//40 41//41 42//42 43//43
f 44//44 45//45 40//40 43//43
f 34//34 39//39 44//44 43//43
f 42//42 35//35 34//34 43//43
f 7//7 9//9 46//46 47//47
f 48//48 8//8 7//7 47//47
f 40//40 45//45 48//48 47//47
f 46//46 41//41 40//40 47//47
f 49//49 9//9 3//3 50//50
f 51//51 52//52 49//49 50//50
f 53//53 54//54 51//51 50//50
f 3//3 2//2 53//53 50//50
f 53//53 2//2 12//12 55//55
f 56//56 54//54 53//53 55//55
f 57//57 58//58 56//56 55//55
f 12//12 11//11 57//57 55//55
f 59//59 41//41 46//46 60//60
f 61//61 62//62 59//59 60//60
f 49//49 52//63 61//61 60//60
f 46//46 9//9 49//49 60//60
f 57//57 11//11 18//18 63//64
f 64//65 58//58 57//57 63//64
f 65//66 66//67 64//65 63//64
f 18//18 17//17 65//66 63//64
f 67//68 35//35 42//42 68//69
f 69//70 70//71 67//68 68//69
f 59//59 62//62 69//70 68//69
f 42//42 41//41 59//59 68//69
f 65//66 17//17 24//24 71//72
f 72//73 66//67 65//66 71//72
f 73//74 74//75 72//73 71//72
f 24//24 23//23 73//74 71//72
f 75//76 29//29 36//36 76//77
f 77//78 78//79 75//76 76//77
f 67//68 70//71 77//78 76//77
f 36//36 35//35 67//68 76//77
f 73//74 23//23 30//30 79//80
f 80//81 74//82 73//74 79//80
f 75//76 78//79 80//81 79//80
f 30//30 29//29 75//76 79//80
f 81//83 82//84 83//85 84//86
f 85//87 86//88 81//83 84//86
f 87//89 88//90 85//87 84//86
f 83//85 89//91 87//89 84//86
f 90//92 91//93 92//94 93//95
f 94//96 95//97 90//92 93//95
f 81//83 86//88 94//96 93//95
f 92//94 82//84 81//83 93//95
f 87//89 89//91 96//98 97//99
f 98//100 88//90 87//89 97//99
f 99//101 100//102 98//100 97//99
f 96//98 101//103 99//101 97//99
f 102//104 103//105 104//106 105//107
f 106//108 107//109 102//104 105//107
f 90//92 95//97 106//108 105//107
f 104//106 91//93 90//92 105//107
f 99//101 101//103 108//110 109//111
f 110//112 100//102 99//101 109//111
f 111//113 112//114 110//112 109//111
f 108//110 113//115 111//113 109//111
f 114//116 115//117 116//118 117//119
f 118//120 119//121 114//116 117//119
f 102//104 107//109 118//120 117//119
f 116//118 103//105 102//104 117//119
f 111//113 113//115 120//122 121//123
f 122//124 112//114 111//113 121//123
f 123//125 124//126 122//124 121//123
f 120//122 125//127 123//125 121//123
f 123//125 125//127 126//128 127//129
f 128//130 124//126 123//125 127//129
f 114//116 119//121 128//130 127//129
f 126//128 115//117 114//116 127//129
f 129//131 130//132 131//133 132//134
f 133//135 134//136 129//131 132//134
f 135//137 136//138 133//135 132//134
f 131//133 137//139 135//137 132//134
f 135//137 137//139 138//140 139//141
f 140//142 136//138 135//137 139//141
f 141//143 142//144 140//142 139//141
f 138//140 143//145 141//143 139//141
f 144//146 145//147 146//148 147//149
f 148//150 149//151 144//146 147//149
f 129//131 134//136 148//150 147//149
f 146//148 130//132 129//131 147//149
f 141//143 143//145 150//152 151//153
f 152//154 142//144 141//143 151//153
f 153//155 154//156 152//154 151//153
f 150//152 155//157 153//155 151//153
f 156//158 157//159 158//160 159//161
f 160//162 161//163 156//158 159//161
f 144//146 149//151 160//162 159//161
f 158//160 145//147 144//146 159//161
f 153//155 155//157 162//164 163//165
f 164//166 154//156 153//155 163//165
f 165//167 166//168 164//166 163//165
f 162//164 167//169 165//167 163//165
f 168//170 169//171 170//172 171//173
f 172//174 173//175 168//170 171//173
f 156//158 161//163 172//174 171//173
f 170//172 157//159 156//158 171//173
f 165//167 167//169 174//176 175//177
f 176//178 166//168 165//167 175//177
f 168//170 173//175 176//178 175//177
f 174//176 169//171 168//170 175//177
f 177//179 89//91 83//85 178//180
f 5//5 8//8 177//179 178//180
f 179//181 6//6 5//5 178//180
f 83//85 82//84 179//181 178//180
f 179//181 82//84 92//94 180//182
f 14//14 6//6 179//181 180//182
f 181//183 15//15 14//14 180//182
f 92//94 91//93 181//183 180//182
f 181//183 91//93 104//106 182//184
f 20//20 15//15 181//183 182//184
f 183//185 21//21 20//20 182//184
f 104//106 103//105 183//185 182//184
f 183//185 103//105 116//118 184//186
f 26//26 21//21 183//185 184//186
f 185//187 27//27 26//26 184//186
f 116//118 115//117 185//187 184//186
f 185//187 115//117 126//128 186//188
f 32//32 27//27 185//187 186//188
f 187//189 33//33 32//32 186//188
f 126//128 125//127 187//189 186//188
f 187//189 125//127 120//122 188//190
f 38//38 33//33 187//189 188//190
f 189//191 39//39 38//38 188//190
f 120//122 113//115 189//191 188//190
f 189//191 113//115 108//110 190//192
f 44//44 39//39 189//191 190//192
f 191//193 45//45 44//44 190//192
f 108//110 101//103 191//193 190//192
f 191//193 101//103 96//98 192//194
f 48//48 45//45 191//193 192//194
f 177//179 8//8 48//48 192//194
f 96//98 89//91 177//179 192//194
f 193//195 194//196 195//197 196//198
f 51//51 54//54 193//195 196//198
f 197//199 52//52 51//51 196//198
f 195//197 198//200 197//199 196//198
f 199//201 200//202 201//203 202//204
f 56//56 58//58 199//201 202//204
f 193//195 54//54 56//56 202//204
f 201//203 194//196 193//195 202//204
f 197//205 198//206 203//207 204//208
f 61//61 52//63 197//205 204//208
f 205//209 62//62 61//61 204//208
f 203//207 206//210 205//209 204//208
f 207//211 208//212 209//213 210//214
f 64//65 66//67 207//211 210//214
f 199//201 58//58 64//65 210//214
f 209//213 200//202 199//201 210//214
f 205//209 206//210 211//215 212//216
f 69//70 62//62 205//209 212//216
f 213//217 70//71 69//70 212//216
f 211//215 214//218 213//217 212//216
f 215//219 216//220 217//221 218//222
f 72//73 74//75 215//219 218//222
f 207//211 66//67 72//73 218//222
f 217//221 208//212 207//211 218//222
f 213//217 214//218 219//223 220//224
f 77//78 70//71 213//217 220//224
f 221//225 78//79 77//78 220//224
f 219//223 222//226 221//225 220//224
f 221//225 222//226 223//227 224//228
f 80//81 78//79 221//225 224//228
f 215//229 74//82 80//81 224//228
f 223//227 216//230 215//229 224//228
f 225//231 226//232 227//233 228//234
f 85//87 88//90 225//231 228//234
f 229//235 86//88 85//87 228//234
f 227//233 230//236 229//235 228//234
f 229//235 230//236 231//237 232//238
f 94//96 86//88 229//235 232//238
f 233//239 95//97 94//96 232//238
f 231//237 234//240 233//239 232//238
f 235//241 236//242 237//243 238//244
f 98//100 100//102 235//241 238//244
f 225//231 88//90 98//100 238//244
f 237//243 226//232 225//231 238//244
f 233//239 234//240 239//245 240//246
f 106//108 95//97 233//239 240//246
f 241//247 107//109 106//108 240//246
f 239//245 242//248 241//247 240//246
f 243//249 244//250 245//251 246//252
f 110//112 112//114 243//249 246//252
f 235//241 100//102 110//112 246//252
f 245//251 236//242 235//241 246//252
f 241//247 242//248 247//253 248//254
f 118//120 107//109 241//247 248//254
f 249//255 119//121 118//120 248//254
f 247//253 250//256 249//255 248//254
f 251//257 252//258 253//259 254//260
f 122//124 124//126 251//257 254//260
f 243//249 112//114 122//124 254//260
f 253//259 244//250 243//249 254//260
f 249//255 250//256 255//261 256//262
f 128//130 119//121 249//255 256//262
f 251//257 124//126 128//130 256//262
f 255//261 252//258 251//257 256//262
f 257//263 230//236 227//233 258//264
f 133//135 136//138 257//263 258//264
f 259//265 134//136 133//135 258//264
f 227//233 226//232 259//265 258//264
f 260//266 234//240 231//237 261//267
f 140//142 142//144 260//266 261//267
f 257//263 136//138 140//142 261//267
f 231//237 230//236 257//263 261//267
f 259//265 226//232 237//243 262//268
f 148//150 134//136 259//265 262//268
f 263//269 149//151 148//150 262//268
f 237//243 236//242 263//269 262//268
f 264//270 242//248 239//245 265//271
f 152//154 154//156 264//270 265//271
f 260//266 142//144 152//154 265//271
f 239//245 234//240 260//266 265//271
f 263//269 236//242 245//251 266//272
f 160//162 149//151 263//269 266//272
f 267//273 161//163 160//162 266//272
f 245//251 244//250 267//273 266//272
f 268//274 250//256 247//253 269//275
f 164//166 166//168 268//274 269//275
f 264//270 154//156 164//166 269//275
f 247//253 242//248 264//270 269//275
f 267//273 244//250 253//259 270//276
f 172//174 161//163 267//273 270//276
f 271//277 173//175 172//174 270//276
f 253//259 252//258 271//277 270//276
f 271//277 252//258 255//261 272//278
f 176//178 173//175 271//277 272//278
f 268//274 166//168 176//178 272//278
f 255//261 250//256 268//274 272//278
