# Blender v3.2.1 OBJ File: ''
# www.blender.org
mtllib scalene_right_2.mtl
o Scalene_Muscle_Right
v -0.744492 17.568136 -0.235570
v -0.767874 17.498465 -0.302328
v -0.742182 17.496737 -0.309543
v -0.723304 17.568932 -0.253413
v -0.691445 17.646973 -0.200994
v -0.709622 17.645218 -0.175555
v -0.699448 17.571709 -0.274396
v -0.670835 17.650396 -0.230187
v -0.713635 17.497494 -0.319336
v -0.770375 17.572495 -0.222311
v -0.797415 17.506895 -0.298541
v -0.786966 17.501774 -0.298387
v -0.760671 17.569197 -0.224841
v -0.723883 17.645285 -0.159847
v -0.733267 17.647732 -0.155117
v -0.765926 17.585512 -0.243478
v -0.787113 17.521786 -0.312286
v -0.797180 17.514071 -0.303610
v -0.772139 17.578411 -0.229066
v -0.736812 17.653122 -0.162613
v -0.733788 17.659929 -0.180641
v -0.731478 17.598101 -0.286118
v -0.742794 17.533566 -0.335002
v -0.768066 17.528538 -0.323260
v -0.751698 17.592365 -0.263922
v -0.723465 17.666628 -0.207509
v -0.707191 17.672401 -0.237221
v -0.683607 17.602974 -0.320798
v -0.686800 17.535580 -0.354292
v -0.714052 17.536112 -0.345983
v -0.707292 17.601851 -0.305787
v -0.686313 17.676435 -0.263782
v -0.664992 17.678074 -0.284520
v -0.653007 17.596163 -0.330196
v -0.654110 17.524597 -0.357118
v -0.665999 17.531366 -0.358019
v -0.664895 17.600819 -0.329021
v -0.647392 17.676661 -0.296761
v -0.635035 17.672873 -0.300040
v -0.656730 17.582861 -0.311787
v -0.664281 17.508247 -0.342449
v -0.653597 17.516396 -0.351540
v -0.649798 17.589781 -0.324061
v -0.629445 17.667381 -0.293890
v -0.633299 17.661200 -0.279275
v -0.685981 17.501638 -0.331009
v -0.675269 17.576595 -0.294543
v -0.649274 17.655338 -0.257161
v -0.288392 18.503115 0.040831
v -0.311807 18.373451 0.025402
v -0.304629 18.376141 0.008593
v -0.285493 18.508593 0.026274
v -0.287954 18.630360 0.038845
v -0.287396 18.624027 0.051085
v -0.283857 18.515041 0.008815
v -0.289937 18.637112 0.024176
v -0.298643 18.380091 -0.011584
v -0.298481 18.500225 0.051424
v -0.328162 18.376513 0.037477
v -0.319439 18.373407 0.034938
v -0.292537 18.500294 0.049061
v -0.288787 18.619503 0.058131
v -0.292449 18.616526 0.060488
v -0.294587 18.383919 -0.031226
v -0.283501 18.520771 -0.008119
v -0.292817 18.642900 0.009847
v -0.285716 18.525318 -0.021654
v -0.296776 18.646400 -0.001461
v -0.294824 18.388144 -0.047137
v -0.314974 18.508083 0.039624
v -0.347692 18.391743 0.022287
v -0.338611 18.383265 0.033293
v -0.306777 18.503006 0.048385
v -0.298704 18.614841 0.058662
v -0.305820 18.615265 0.052173
v -0.301716 18.393288 -0.056123
v -0.291791 18.528219 -0.028920
v -0.301993 18.646284 -0.007069
v -0.300135 18.529999 -0.030912
v -0.307777 18.643787 -0.007963
v -0.312794 18.399036 -0.059189
v -0.323094 18.521866 0.007557
v -0.352162 18.406548 -0.016183
v -0.352306 18.400026 0.004358
v -0.320623 18.514912 0.024823
v -0.312069 18.618610 0.040542
v -0.316573 18.623781 0.026543
v -0.325591 18.405071 -0.057338
v -0.309156 18.531172 -0.028626
v -0.313435 18.640144 -0.005129
v -0.316986 18.530647 -0.021408
v -0.317489 18.635418 0.001740
v -0.337764 18.409327 -0.049607
v -0.346968 18.409733 -0.035030
v -0.321757 18.527328 -0.008600
v -0.318457 18.629673 0.012953
v -0.333270 18.235905 -0.033632
v -0.343869 18.234232 -0.010814
v -0.402047 18.092337 -0.036469
v -0.387138 18.092178 -0.061901
v -0.355997 18.233633 0.008001
v -0.418413 18.093422 -0.015645
v -0.367943 18.234571 0.018885
v -0.433745 18.094837 -0.003190
v -0.380122 18.237623 0.021695
v -0.448134 18.097174 0.000306
v -0.392953 18.243370 0.016287
v -0.461671 18.101019 -0.005747
v -0.402810 18.249989 0.002944
v -0.470752 18.104979 -0.020742
v -0.406067 18.255655 -0.018051
v -0.471768 18.107668 -0.044071
v -0.402950 18.259628 -0.041892
v -0.465331 18.109205 -0.070760
v -0.393682 18.261168 -0.063774
v -0.452047 18.109718 -0.095832
v -0.379843 18.260000 -0.080608
v -0.434149 18.108768 -0.115539
v -0.363007 18.255856 -0.089307
v -0.413871 18.105927 -0.126133
v -0.346194 18.250452 -0.090969
v -0.394619 18.102274 -0.128501
v -0.332421 18.245506 -0.086695
v -0.379799 18.098898 -0.123530
v -0.324666 18.241320 -0.075532
v -0.372592 18.095938 -0.110373
v -0.325909 18.238194 -0.056524
v -0.376179 18.093536 -0.088183
v -0.317905 18.742655 0.031111
v -0.356819 18.839937 0.033831
v -0.350601 18.844101 0.042749
v -0.313505 18.740210 0.042921
v -0.310462 18.737600 0.052958
v -0.345560 18.847502 0.050640
v -0.343041 18.849419 0.055838
v -0.309738 18.735312 0.059028
v -0.311433 18.733171 0.061621
v -0.342925 18.849993 0.058789
v -0.327438 18.744949 0.011064
v -0.367901 18.832232 0.019755
v -0.362867 18.835730 0.025551
v -0.322700 18.744457 0.019722
v -0.345097 18.849358 0.059937
v -0.315646 18.731014 0.061228
v -0.321394 18.729536 0.057157
v -0.349331 18.847351 0.058356
v -0.335278 18.740856 0.007834
v -0.372710 18.829563 0.020054
v -0.371077 18.830202 0.018292
v -0.331667 18.743465 0.007445
v -0.355403 18.843819 0.053117
v -0.327691 18.729433 0.048716
v -0.333424 18.730492 0.037991
v -0.361961 18.839602 0.045669
v -0.339254 18.735098 0.017587
v -0.371649 18.832230 0.029785
v -0.373118 18.830238 0.023934
v -0.338164 18.737976 0.011195
v -0.367654 18.835545 0.037461
v -0.337476 18.732491 0.027067
v -0.613368 17.738024 -0.187440
v -0.538992 17.839218 -0.144812
v -0.559316 17.840296 -0.114575
v -0.633625 17.736700 -0.155994
v -0.651774 17.737116 -0.129029
v -0.578289 17.843136 -0.089334
v -0.593584 17.846376 -0.073149
v -0.666109 17.738695 -0.111961
v -0.676022 17.742247 -0.105996
v -0.604852 17.850956 -0.067069
v -0.611748 17.857813 -0.072145
v -0.680910 17.748571 -0.112341
v -0.679746 17.755726 -0.129742
v -0.612798 17.864756 -0.087619
v -0.606532 17.869591 -0.112732
v -0.671503 17.761763 -0.156945
v -0.656960 17.766237 -0.188301
v -0.593413 17.872322 -0.142755
v -0.573907 17.872955 -0.172958
v -0.636897 17.768707 -0.218162
v -0.615533 17.768583 -0.242672
v -0.552112 17.870979 -0.198568
v -0.532131 17.865887 -0.214813
v -0.597091 17.765282 -0.257976
v -0.583323 17.759869 -0.263417
v -0.516290 17.859104 -0.221142
v -0.506919 17.852058 -0.217005
v -0.575985 17.753416 -0.258333
v -0.578106 17.746988 -0.243065
v -0.507032 17.845770 -0.202067
v -0.519643 17.841267 -0.175990
v -0.592715 17.741655 -0.217948
v -0.496506 17.962580 -0.049815
v -0.477993 17.959932 -0.072894
v -0.459647 17.958609 -0.100964
v -0.525967 17.968775 -0.030459
v -0.512544 17.965265 -0.035380
v -0.541940 17.978870 -0.051108
v -0.536635 17.973898 -0.035919
v -0.529178 17.983376 -0.103977
v -0.539272 17.981936 -0.075369
v -0.491612 17.981735 -0.155525
v -0.512206 17.983471 -0.132204
v -0.452353 17.972532 -0.174031
v -0.470652 17.977686 -0.169417
v -0.435954 17.963085 -0.155194
v -0.439744 17.967484 -0.169519
v -0.444111 17.959894 -0.130370
vn 0.4016 -0.6875 0.6050
vn 0.2608 -0.7057 0.6587
vn 0.3919 -0.6249 0.6752
vn 0.5136 -0.6160 0.5973
vn 0.6411 -0.6128 0.4620
vn 0.5722 -0.6421 0.5102
vn 0.5754 -0.5363 0.6175
vn 0.6657 -0.5852 0.4631
vn 0.4819 -0.5258 0.7009
vn -0.0674 -0.6921 0.7187
vn -0.2083 -0.6933 0.6899
vn -0.0140 -0.7282 0.6852
vn 0.1327 -0.7190 0.6822
vn 0.3520 -0.6533 0.6703
vn 0.1683 -0.6239 0.7631
vn -0.8008 0.5460 -0.2462
vn -0.7401 0.5873 -0.3277
vn -0.9393 0.3430 0.0099
vn -0.9451 0.3125 0.0961
vn -0.9136 0.3030 0.2710
vn -0.8579 0.5038 -0.1006
vn -0.9414 0.0936 0.3240
vn -0.8537 0.1163 0.5077
vn -0.9645 0.1059 0.2420
vn -0.6123 0.5601 -0.5581
vn -0.5185 0.5730 -0.6347
vn -0.6130 0.6130 -0.4984
vn -0.6979 0.5815 -0.4181
vn -0.7872 0.5502 -0.2786
vn -0.7147 0.5603 -0.4187
vn -0.3883 0.4642 -0.7961
vn -0.2885 0.4436 -0.8485
vn -0.4215 0.5080 -0.7512
vn -0.5174 0.5147 -0.6836
vn -0.6270 0.5523 -0.5494
vn -0.5078 0.5297 -0.6794
vn 0.5691 0.2438 -0.7853
vn 0.1631 0.3615 -0.9180
vn -0.0199 0.3936 -0.9191
vn -0.1221 0.4138 -0.9021
vn -0.2619 0.4756 -0.8398
vn 0.3658 0.2302 -0.9018
vn 0.7928 -0.3686 0.4855
vn 0.7295 -0.3258 0.6014
vn 0.9835 -0.1111 0.1429
vn 0.9888 -0.1464 -0.0297
vn 0.9072 -0.2524 -0.3366
vn 0.8311 -0.4955 0.2526
vn 0.9697 0.0565 -0.2378
vn 0.5679 -0.4304 0.7016
vn 0.6390 -0.4603 0.6163
vn 0.7032 -0.5549 0.4446
vn 0.9470 -0.1158 0.2998
vn 0.8408 -0.2599 0.4749
vn 0.9279 -0.2319 0.2920
vn 0.9890 -0.0757 0.1268
vn 0.9917 0.1243 -0.0323
vn 0.9884 0.0895 0.1224
vn 0.9981 -0.0378 0.0496
vn 0.9823 0.1588 -0.0997
vn 0.9606 -0.1974 0.1958
vn 0.0145 -0.0900 0.9958
vn -0.0685 -0.0889 0.9937
vn 0.5256 -0.2326 0.8184
vn 0.6800 -0.1412 0.7195
vn 0.8153 0.0416 0.5776
vn 0.1574 -0.0255 0.9872
vn 0.9865 -0.1559 0.0491
vn 0.9977 0.0049 -0.0675
vn 0.9606 0.1944 -0.1985
vn 0.9139 0.0771 -0.3986
vn 0.8446 0.2312 -0.4830
vn 0.9361 -0.0631 -0.3460
vn -0.8263 0.0751 0.5582
vn -0.8301 0.2009 0.5202
vn -0.5551 0.0778 0.8281
vn -0.5420 0.0010 0.8404
vn -0.4758 -0.0610 0.8774
vn -0.7880 -0.0658 0.6122
vn 0.5855 0.0818 -0.8066
vn 0.5408 0.1605 -0.8257
vn 0.4184 0.2199 -0.8813
vn 0.0095 0.1991 -0.9799
vn -0.2019 0.1316 -0.9705
vn 0.1273 0.1883 -0.9738
vn -0.9876 0.1395 0.0726
vn -0.9538 0.2940 -0.0621
vn -0.9412 0.2676 0.2064
vn -0.9486 0.1193 0.2932
vn -0.9236 -0.0665 0.3775
vn -0.9778 -0.0713 0.1970
vn -0.2802 0.2564 -0.9251
vn -0.4657 0.2041 -0.8611
vn -0.6829 0.0339 -0.7298
vn -0.8271 0.1834 -0.5313
vn -0.9413 -0.0407 -0.3350
vn -0.6653 0.2990 -0.6841
vn -0.8854 0.3045 -0.3512
vn -0.9709 0.1562 -0.1813
vn -0.9974 -0.0708 -0.0107
vn 0.8908 -0.3287 0.3138
vn 0.8329 -0.3512 0.4277
vn 0.7320 -0.4682 0.4950
vn 0.8020 -0.4582 0.3832
vn 0.7208 -0.3559 0.5948
vn 0.6278 -0.4568 0.6303
vn 0.4248 -0.2870 0.8586
vn 0.3840 -0.3752 0.8437
vn -0.0994 -0.0892 0.9910
vn -0.1118 -0.1338 0.9847
vn -0.5734 0.1365 0.8079
vn -0.6187 0.1805 0.7646
vn -0.8457 0.2944 0.4451
vn -0.8639 0.3809 0.3295
vn -0.9274 0.3641 0.0856
vn -0.8931 0.4481 -0.0411
vn -0.9038 0.3805 -0.1961
vn -0.8408 0.4560 -0.2919
vn -0.8005 0.3759 -0.4667
vn -0.7348 0.4463 -0.5108
vn -0.5693 0.3477 -0.7450
vn -0.5363 0.4195 -0.7324
vn -0.2204 0.2806 -0.9342
vn -0.2336 0.3550 -0.9052
vn 0.1510 0.1843 -0.9712
vn 0.1467 0.2304 -0.9620
vn 0.6050 0.0190 -0.7960
vn 0.6482 -0.0310 -0.7609
vn 0.9380 -0.1891 -0.2904
vn 0.9269 -0.3200 -0.1963
vn 0.9449 -0.2942 0.1433
vn 0.8751 -0.4311 0.2200
vn 0.8953 0.3047 -0.3250
vn 0.8159 0.3387 -0.4686
vn 0.8506 0.3044 -0.4287
vn 0.9230 0.2714 -0.2729
vn 0.9574 0.2466 -0.1505
vn 0.8998 0.2833 -0.3318
vn 0.9586 0.2822 0.0392
vn 0.9355 0.2250 0.2723
vn 0.4196 0.1055 0.9015
vn 0.9058 0.2628 0.3323
vn 0.6991 0.3298 -0.6344
vn 0.5975 0.3438 -0.7245
vn 0.7654 0.3670 -0.5286
vn 0.8528 0.3345 -0.4012
vn 0.0988 0.0430 0.9942
vn -0.1890 -0.0358 0.9813
vn -0.3081 -0.0594 0.9495
vn -0.6729 -0.1422 0.7260
vn -0.5896 -0.1503 0.7936
vn -0.4904 -0.0492 -0.8701
vn -0.6431 -0.1646 -0.7479
vn 0.0444 0.1455 -0.9884
vn 0.1923 0.1948 -0.9618
vn -0.7477 -0.2077 0.6308
vn -0.8260 -0.1847 0.5325
vn -0.8938 -0.2175 0.3922
vn -0.8180 -0.2516 0.5172
vn -0.9659 -0.2559 -0.0382
vn -0.9302 -0.3296 0.1616
vn -0.9194 -0.3134 -0.2377
vn -0.8670 -0.2048 -0.4543
vn -0.8730 -0.2951 0.3883
vn -0.9409 -0.2467 0.2319
vn 0.6613 -0.6358 0.3980
vn 0.6680 -0.6231 0.4068
vn 0.6301 -0.6152 0.4739
vn 0.6440 -0.6307 0.4330
vn 0.5996 -0.6193 0.5068
vn 0.5760 -0.5946 0.5610
vn 0.4086 -0.5298 0.7432
vn 0.4264 -0.5791 0.6948
vn 0.2720 -0.5248 0.8066
vn -0.1674 -0.2171 0.9617
vn -0.7064 0.1349 0.6948
vn -0.7572 0.2848 0.5878
vn -0.8389 0.3191 0.4410
vn -0.8596 0.5110 0.0010
vn -0.8595 0.5031 0.0900
vn -0.8098 0.5572 -0.1838
vn -0.8001 0.5615 -0.2112
vn -0.7294 0.5838 -0.3566
vn -0.7394 0.5735 -0.3527
vn -0.6516 0.5772 -0.4922
vn -0.6434 0.5922 -0.4851
vn -0.5253 0.5835 -0.6194
vn -0.5213 0.5665 -0.6381
vn -0.2917 0.5107 -0.8088
vn -0.3000 0.5255 -0.7961
vn 0.2323 0.2481 -0.9405
vn 0.1710 0.2844 -0.9433
vn 0.7496 -0.2244 -0.6227
vn 0.7952 -0.3046 -0.5243
vn 0.8034 -0.5875 0.0968
vn 0.8308 -0.5562 0.0193
vn 0.7223 -0.6174 0.3116
vn 0.6971 -0.6312 0.3399
vn 0.5759 -0.5462 0.6083
vn 0.6549 -0.5638 0.5032
vn 0.7161 -0.5642 0.4110
vn -0.1259 -0.1912 0.9735
vn 0.3819 -0.4703 0.7956
vn -0.8651 0.4592 0.2020
vn -0.6811 0.2289 0.6955
vn -0.7776 0.5282 -0.3410
vn -0.8434 0.5201 -0.1350
vn -0.5249 0.5050 -0.6852
vn -0.6826 0.5227 -0.5107
vn 0.1484 0.2825 -0.9477
vn -0.2662 0.4486 -0.8532
vn 0.8882 -0.4533 -0.0753
vn 0.7082 -0.1091 -0.6975
vn 0.7894 -0.5464 0.2800
usemtl material1639.003
s 1
f 1//1 2//2 3//3 4//4
f 5//5 6//6 1//1 4//4
f 7//7 8//8 5//5 4//4
f 3//3 9//9 7//7 4//4
f 10//10 11//11 12//12 13//13
f 14//14 15//15 10//10 13//13
f 1//1 6//6 14//14 13//13
f 12//12 2//2 1//1 13//13
f 16//16 17//17 18//18 19//19
f 20//20 21//21 16//16 19//19
f 10//22 15//23 20//20 19//19
f 18//18 11//24 10//22 19//19
f 22//25 23//26 24//27 25//28
f 26//29 27//30 22//25 25//28
f 16//16 21//21 26//29 25//28
f 24//27 17//17 16//16 25//28
f 28//31 29//32 30//33 31//34
f 32//35 33//36 28//31 31//34
f 22//25 27//30 32//35 31//34
f 30//33 23//26 22//25 31//34
f 34//37 35//38 36//39 37//40
f 38//41 39//42 34//37 37//40
f 28//31 33//36 38//41 37//40
f 36//39 29//32 28//31 37//40
f 40//43 41//44 42//45 43//46
f 44//47 45//48 40//43 43//46
f 34//37 39//42 44//47 43//46
f 42//45 35//49 34//37 43//46
f 7//7 9//9 46//50 47//51
f 48//52 8//8 7//7 47//51
f 40//43 45//48 48//52 47//51
f 46//50 41//44 40//43 47//51
f 49//53 50//54 51//55 52//56
f 53//57 54//58 49//53 52//56
f 55//59 56//60 53//57 52//56
f 51//55 57//61 55//59 52//56
f 58//62 59//63 60//64 61//65
f 62//66 63//67 58//62 61//65
f 49//53 54//58 62//66 61//65
f 60//64 50//54 49//53 61//65
f 55//59 57//61 64//68 65//69
f 66//70 56//60 55//59 65//69
f 67//71 68//72 66//70 65//69
f 64//68 69//73 67//71 65//69
f 70//74 71//75 72//76 73//77
f 74//78 75//79 70//74 73//77
f 58//62 63//67 74//78 73//77
f 72//76 59//63 58//62 73//77
f 67//71 69//73 76//80 77//81
f 78//82 68//72 67//71 77//81
f 79//83 80//84 78//82 77//81
f 76//80 81//85 79//83 77//81
f 82//86 83//87 84//88 85//89
f 86//90 87//91 82//86 85//89
f 70//74 75//79 86//90 85//89
f 84//88 71//75 70//74 85//89
f 79//83 81//85 88//92 89//93
f 90//94 80//84 79//83 89//93
f 91//95 92//96 90//94 89//93
f 88//92 93//97 91//95 89//93
f 91//95 93//97 94//98 95//99
f 96//100 92//96 91//95 95//99
f 82//86 87//91 96//100 95//99
f 94//98 83//87 82//86 95//99
f 97//101 57//61 51//55 98//102
f 99//103 100//104 97//101 98//102
f 101//105 102//106 99//103 98//102
f 51//55 50//54 101//105 98//102
f 101//105 50//54 60//64 103//107
f 104//108 102//106 101//105 103//107
f 105//109 106//110 104//108 103//107
f 60//64 59//63 105//109 103//107
f 105//109 59//63 72//76 107//111
f 108//112 106//110 105//109 107//111
f 109//113 110//114 108//112 107//111
f 72//76 71//75 109//113 107//111
f 109//113 71//75 84//88 111//115
f 112//116 110//114 109//113 111//115
f 113//117 114//118 112//116 111//115
f 84//88 83//87 113//117 111//115
f 113//117 83//87 94//98 115//119
f 116//120 114//118 113//117 115//119
f 117//121 118//122 116//120 115//119
f 94//98 93//97 117//121 115//119
f 117//121 93//97 88//92 119//123
f 120//124 118//122 117//121 119//123
f 121//125 122//126 120//124 119//123
f 88//92 81//85 121//125 119//123
f 121//125 81//85 76//80 123//127
f 124//128 122//126 121//125 123//127
f 125//129 126//130 124//128 123//127
f 76//80 69//73 125//129 123//127
f 125//129 69//73 64//68 127//131
f 128//132 126//130 125//129 127//131
f 97//101 100//104 128//132 127//131
f 64//68 57//61 97//101 127//131
f 129//133 130//134 131//135 132//136
f 53//57 56//60 129//133 132//136
f 133//137 54//58 53//57 132//136
f 131//135 134//138 133//137 132//136
f 133//137 134//138 135//139 136//140
f 62//66 54//58 133//137 136//140
f 137//141 63//67 62//66 136//140
f 135//139 138//142 137//141 136//140
f 139//143 140//144 141//145 142//146
f 66//70 68//72 139//143 142//146
f 129//133 56//60 66//70 142//146
f 141//145 130//134 129//133 142//146
f 137//141 138//147 143//148 144//149
f 74//78 63//67 137//141 144//149
f 145//150 75//79 74//78 144//149
f 143//148 146//151 145//150 144//149
f 147//152 148//153 149//154 150//155
f 78//82 80//84 147//152 150//155
f 139//143 68//72 78//82 150//155
f 149//154 140//144 139//143 150//155
f 145//150 146//151 151//156 152//157
f 86//90 75//79 145//150 152//157
f 153//158 87//91 86//90 152//157
f 151//156 154//159 153//158 152//157
f 155//160 156//161 157//162 158//163
f 90//94 92//96 155//160 158//163
f 147//152 80//84 90//94 158//163
f 157//162 148//153 147//152 158//163
f 153//158 154//159 159//164 160//165
f 96//100 87//91 153//158 160//165
f 155//160 92//96 96//100 160//165
f 159//164 156//161 155//160 160//165
f 161//166 162//167 163//168 164//169
f 5//5 8//8 161//166 164//169
f 165//170 6//6 5//5 164//169
f 163//168 166//171 165//170 164//169
f 165//170 166//171 167//172 168//173
f 14//14 6//6 165//170 168//173
f 169//174 15//15 14//14 168//173
f 167//172 170//175 169//174 168//173
f 169//176 170//175 171//177 172//178
f 20//20 15//23 169//176 172//178
f 173//179 21//21 20//20 172//178
f 171//177 174//180 173//179 172//178
f 173//179 174//180 175//181 176//182
f 26//29 21//21 173//179 176//182
f 177//183 27//30 26//29 176//182
f 175//181 178//184 177//183 176//182
f 177//183 178//184 179//185 180//186
f 32//35 27//30 177//183 180//186
f 181//187 33//36 32//35 180//186
f 179//185 182//188 181//187 180//186
f 181//187 182//188 183//189 184//190
f 38//41 33//36 181//187 184//190
f 185//191 39//42 38//41 184//190
f 183//189 186//192 185//191 184//190
f 185//191 186//192 187//193 188//194
f 44//47 39//42 185//191 188//194
f 189//195 45//48 44//47 188//194
f 187//193 190//196 189//195 188//194
f 189//195 190//196 191//197 192//198
f 48//52 45//48 189//195 192//198
f 161//166 8//8 48//52 192//198
f 191//197 162//167 161//166 192//198
f 193//199 166//171 163//168 194//200
f 99//103 102//106 193//199 194//200
f 195//201 100//104 99//103 194//200
f 163//168 162//167 195//201 194//200
f 196//202 170//175 167//172 197//203
f 104//108 106//110 196//202 197//203
f 193//199 102//106 104//108 197//203
f 167//172 166//171 193//199 197//203
f 198//204 174//180 171//177 199//205
f 108//112 110//114 198//204 199//205
f 196//202 106//110 108//112 199//205
f 171//177 170//175 196//202 199//205
f 200//206 178//184 175//181 201//207
f 112//116 114//118 200//206 201//207
f 198//204 110//114 112//116 201//207
f 175//181 174//180 198//204 201//207
f 202//208 182//188 179//185 203//209
f 116//120 118//122 202//208 203//209
f 200//206 114//118 116//120 203//209
f 179//185 178//184 200//206 203//209
f 204//210 186//192 183//189 205//211
f 120//124 122//126 204//210 205//211
f 202//208 118//122 120//124 205//211
f 183//189 182//188 202//208 205//211
f 206//212 190//196 187//193 207//213
f 124//128 126//130 206//212 207//213
f 204//210 122//126 124//128 207//213
f 187//193 186//192 204//210 207//213
f 195//201 162//167 191//197 208//214
f 128//132 100//104 195//201 208//214
f 206//212 126//130 128//132 208//214
f 191//197 190//196 206//212 208//214
