<svg width="290" height="512" viewBox="0 0 290 512" fill="none" xmlns="http://www.w3.org/2000/svg">
<g clip-path="url(#clip0_17_60)">
<path d="M161.338 511.528H128.66C93.261 511.528 61.09 497.059 37.781 473.747C14.469 450.438 0 418.267 0 382.868V202.309C0 166.91 14.472 134.737 37.781 111.428C61.09 88.116 93.261 73.647 128.66 73.647H161.338C196.737 73.647 228.91 88.118 252.219 111.428C275.528 134.737 290 166.91 290 202.309V382.868C290 418.265 275.528 450.438 252.219 473.747C228.91 497.057 196.737 511.528 161.338 511.528Z" fill="#5AA5B3"/>
<path fill-rule="evenodd" clip-rule="evenodd" d="M128.66 495.57H161.338C223.327 495.57 274.041 444.857 274.041 382.868V202.309C274.041 140.318 223.327 89.605 161.338 89.605H128.66C66.671 89.605 15.959 140.318 15.959 202.309V382.868C15.959 444.857 66.671 495.57 128.66 495.57Z" fill="#9EC4E6"/>
<path fill-rule="evenodd" clip-rule="evenodd" d="M160.588 495.57H161.338C223.327 495.57 274.041 444.857 274.041 382.868V278.892H31.9282V366.91C31.9282 402.309 46.3972 434.48 69.7082 457.789C93.0182 481.098 125.191 495.57 160.588 495.57Z" fill="#EBF5FF"/>
<path d="M289.998 202.309V262.912C289.998 271.724 282.853 278.868 274.041 278.868H15.959C7.14695 278.868 0.00195312 271.724 0.00195312 262.912V202.309C0.00195312 166.91 14.474 134.739 37.783 111.43C61.092 88.1179 93.261 73.6489 128.66 73.6489H161.338C196.737 73.6489 228.908 88.1209 252.217 111.43C275.526 134.739 289.998 166.91 289.998 202.309Z" fill="#5AA5B3"/>
<path fill-rule="evenodd" clip-rule="evenodd" d="M274.041 262.912V202.309C274.041 140.318 223.327 89.605 161.338 89.605H128.66C66.671 89.605 15.959 140.318 15.959 202.309V262.912H274.041Z" fill="#D4DDE6"/>
<path fill-rule="evenodd" clip-rule="evenodd" d="M274.041 262.912V202.309C274.041 140.318 223.327 89.605 161.338 89.605C145.893 89.605 128.068 88.572 112.893 90.722C96.6032 97.272 81.9342 107.066 69.7082 119.292C46.3972 142.601 31.9282 174.772 31.9282 210.171V262.912H274.041Z" fill="#EBF5FF"/>
<path d="M154.895 140.14C163.426 143.965 169.408 152.559 169.408 162.43V201.458C169.408 211.32 163.408 219.908 154.895 223.739V268.305H135.11V223.746C126.594 219.928 120.594 211.358 120.594 201.458V162.43C120.594 152.524 126.577 143.947 135.11 140.134L135.108 63.653C135.108 54.105 133.603 46.309 130.954 40.11C127.941 33.062 123.375 28.005 117.862 24.739C112.188 21.38 105.338 19.799 97.9652 19.799C89.7442 19.799 80.9802 21.746 72.4782 25.382C67.4602 27.516 61.6602 25.18 59.5262 20.163C57.3932 15.145 59.7282 9.345 64.7462 7.211C75.7262 2.516 87.1452 0 97.9652 0C108.752 0 119.044 2.474 127.915 7.726C136.941 13.07 144.342 21.189 149.125 32.377C152.814 41.007 154.906 51.397 154.906 63.653C154.906 89.149 154.895 114.645 154.895 140.14Z" fill="#5AA5B3"/>
<path fill-rule="evenodd" clip-rule="evenodd" d="M262 256V205.296C262 153.43 227.415 111 185.142 111H162.857C120.583 111 86 153.43 86 205.296V256H262Z" fill="url(#paint0_linear_17_60)"/>
<path d="M155.014 474L180.995 429L129.033 429L155.014 474ZM150.514 405.698L150.514 433.5L159.514 433.5L159.514 405.698L150.514 405.698Z" fill="#539DAA"/>
<path d="M155.014 293L180.995 338L129.033 338L155.014 293ZM150.514 361.302L150.514 333.5L159.514 333.5L159.514 361.302L150.514 361.302Z" fill="#539DAA"/>
<path d="M255.759 380.938L210.759 406.919V354.958L255.759 380.938ZM187.458 376.438H215.259V385.438H187.458V376.438Z" fill="#539DAA"/>
<path d="M49.9999 380.938L94.9999 406.919V354.958L49.9999 380.938ZM118.302 376.438H90.4999V385.438H118.302V376.438Z" fill="#539DAA"/>
</g>
<defs>
<linearGradient id="paint0_linear_17_60" x1="86" y1="203.033" x2="261.946" y2="202.199" gradientUnits="userSpaceOnUse">
<stop offset="0.498844" stop-color="#D4DDE6" stop-opacity="0"/>
<stop offset="0.498844" stop-color="#5AA5B3"/>
</linearGradient>
<clipPath id="clip0_17_60">
<rect width="290" height="511.528" fill="white"/>
</clipPath>
</defs>
</svg>
